<svg xmlns="http://www.w3.org/2000/svg" xmlns:xlink="http://www.w3.org/1999/xlink" width="500" height="500" viewBox="0 0 500 500">
  <defs>
    <clipPath id="clip-path">
      <path id="SVGID" d="M1042.909,381.284s-18,2.5-31.5,4.5-23,4.25-23.25,8.75-19.75,52-22,53.5a11.822,11.822,0,0,0-5.25,8.75,35.255,35.255,0,0,1-2.5,9s8.75-1,12.5,2,6,4.75,6,4.75,10.5-6.75,12-10.25-3.25-11-1.75-13.5,7.5-10.75,7.5-10.75,8,25,9,30.25a23.63,23.63,0,0,1-.75,10.5h70.25v-20.75c0-3.75,2.75-15.5,2.75-15.5s6.75,19.5,8.5,24.75a112.639,112.639,0,0,1,3,11.5h24s-8.25-24.75-11.25-32.5-6.5-38.75-8-42.5-22.75-15.5-33.25-18A160.628,160.628,0,0,1,1042.909,381.284Z" fill="none"/>
    </clipPath>
  </defs>
  <g id="Grupo_56447" data-name="Grupo 56447" transform="translate(-785.359 -89.408)">
    <rect id="Rectángulo_5468" data-name="Rectángulo 5468" width="500" height="500" transform="translate(785.359 89.408)" fill="none"/>
    <g id="freepik--background-simple--inject-1--inject-58">
      <path id="Trazado_102808" data-name="Trazado 102808" d="M1096.409,176.884c-47.17-21.78-104-22.87-153-6.44-49.43,16.59-100.55,58.43-105.22,114-3.46,40.78,28.6,66.23,34.21,104.25,3.41,23.09-7.34,43-9,65.3-1.41,19,5.39,37.11,18,51.19,39,43.76,115.1,60.67,160.93,17.6,18-16.95,34-40.26,58.42-48.61,49.09-16.76,124.11-21,131.5-86.5,4.5-39.92-20.07-76.91-40.71-108.82C1165.689,239.034,1141.189,197.574,1096.409,176.884Z" fill="#d9a171"/>
      <path id="Trazado_102809" data-name="Trazado 102809" d="M1096.409,176.884c-47.17-21.78-104-22.87-153-6.44-49.43,16.59-100.55,58.43-105.22,114-3.46,40.78,28.6,66.23,34.21,104.25,3.41,23.09-7.34,43-9,65.3-1.41,19,5.39,37.11,18,51.19,39,43.76,115.1,60.67,160.93,17.6,18-16.95,34-40.26,58.42-48.61,49.09-16.76,124.11-21,131.5-86.5,4.5-39.92-20.07-76.91-40.71-108.82C1165.689,239.034,1141.189,197.574,1096.409,176.884Z" fill="#fff" opacity="0.7" style="isolation: isolate"/>
      <path id="Trazado_102810" data-name="Trazado 102810" d="M1096.409,176.884c-47.17-21.78-104-22.87-153-6.44-49.43,16.59-100.55,58.43-105.22,114-3.46,40.78,28.6,66.23,34.21,104.25,3.41,23.09-7.34,43-9,65.3-1.41,19,5.39,37.11,18,51.19,39,43.76,115.1,60.67,160.93,17.6,18-16.95,34-40.26,58.42-48.61,49.09-16.76,124.11-21,131.5-86.5,4.5-39.92-20.07-76.91-40.71-108.82C1165.689,239.034,1141.189,197.574,1096.409,176.884Z" fill="#d9a171"/>
      <path id="Trazado_102811" data-name="Trazado 102811" d="M1096.409,176.884c-47.17-21.78-104-22.87-153-6.44-49.43,16.59-100.55,58.43-105.22,114-3.46,40.78,28.6,66.23,34.21,104.25,3.41,23.09-7.34,43-9,65.3-1.41,19,5.39,37.11,18,51.19,39,43.76,115.1,60.67,160.93,17.6,18-16.95,34-40.26,58.42-48.61,49.09-16.76,124.11-21,131.5-86.5,4.5-39.92-20.07-76.91-40.71-108.82C1165.689,239.034,1141.189,197.574,1096.409,176.884Z" fill="#fff" opacity="0.7" style="isolation: isolate"/>
    </g>
    <g id="freepik--Window--inject-1--inject-58">
      <rect id="Rectángulo_5469" data-name="Rectángulo 5469" width="372" height="3.39" transform="translate(849.359 402.404)" fill="#6595bf"/>
      <path id="Trazado_102812" data-name="Trazado 102812" d="M1110.9,361.034a7.648,7.648,0,0,0,2.24.24s-.34-1-.37-1.1c-.35-.72-1.45-1.92-2.34-1.8a1.06,1.06,0,0,0-.889,1.207.856.856,0,0,0,.029.133A2.228,2.228,0,0,0,1110.9,361.034Z" fill="#344154"/>
      <path id="Trazado_102813" data-name="Trazado 102813" d="M1131.649,355.6c-.9-.1-2,1.13-2.29,1.86,0,.07-.36,1.11-.34,1.11h0l-.55.64c-.35.43-.74.92-1.13,1.48a19.6,19.6,0,0,0-1.18,1.88,14.053,14.053,0,0,0-1,2.26h0v-1.06c-.11-.8-.78-2.29-1.66-2.45a1.08,1.08,0,0,0-1.23.906c-.005.031-.008.063-.01.094a2.223,2.223,0,0,0,.86,1.67,7.437,7.437,0,0,0,2,.93,18.949,18.949,0,0,0-.59,2.45c-.09.48-.16,1-.22,1.46v-.46c-.11-.8-.78-2.28-1.66-2.44a1.071,1.071,0,0,0-1.228.885,1.113,1.113,0,0,0-.012.115,2.236,2.236,0,0,0,.86,1.67,7.415,7.415,0,0,0,2,.911c0,.179-.05.369-.07.56-.11.91-.21,1.809-.34,2.69-.05.32-.1.619-.16.929a3.3,3.3,0,0,0,0-.4c-.1-.8-.77-2.291-1.66-2.451a1.062,1.062,0,0,0-1.218.876,1.039,1.039,0,0,0-.012.124,2.227,2.227,0,0,0,.86,1.671,6.724,6.724,0,0,0,1.9.89c-.06.31-.13.62-.21.92s-.1.4-.16.6-.13.4-.2.6c-.13.37-.27.76-.41,1.12l-.291.72c.05-.31.131-.91.131-1a4,4,0,0,0-.55-2,2.384,2.384,0,0,0,0-.24,1.062,1.062,0,0,0-1.183-.922.893.893,0,0,0-.117.022c-.87.23-1.43,1.76-1.47,2.56a7.216,7.216,0,0,0,.05.89,2.383,2.383,0,0,0-.13-.56c-.09-.39-.19-.77-.3-1.18l-.18-.6c-.06-.2-.14-.4-.21-.61-.17-.47-.37-.94-.58-1.41a6.928,6.928,0,0,0,2-.75,2.253,2.253,0,0,0,1-1.6,1.071,1.071,0,0,0-1.037-1.1,1.059,1.059,0,0,0-.113,0c-.9.1-1.68,1.53-1.84,2.32,0,.05-.07.63-.09.94-.13-.28-.25-.56-.39-.84-.4-.8-.83-1.61-1.26-2.41l-.39-.74a7.662,7.662,0,0,0,2.09-.77,2.253,2.253,0,0,0,1-1.61,1.071,1.071,0,0,0-1.046-1.094.862.862,0,0,0-.114,0c-.89.1-1.67,1.53-1.83,2.32,0,.06-.09.89-.1,1.1-.28-.54-.56-1.09-.81-1.63a17.6,17.6,0,0,1-.88-2.28,7.477,7.477,0,0,0,2.1-.77,2.293,2.293,0,0,0,1-1.61A1.071,1.071,0,0,0,1116,361.7a.867.867,0,0,0-.114,0c-.89.1-1.67,1.53-1.84,2.32,0,.06-.09,1-.09,1.12l-.05-.14a13.244,13.244,0,0,1-.45-2.4c-.05-.45-.08-.88-.09-1.3a6.973,6.973,0,0,0,2.12-.53,2.266,2.266,0,0,0,1.15-1.48,1.08,1.08,0,0,0-.929-1.213c-.024,0-.047-.006-.071-.007-.9,0-1.83,1.34-2.08,2.1l-.17.8v-.56a13.426,13.426,0,0,1,.08-1.86,7.3,7.3,0,0,1,.09-.87,7.083,7.083,0,0,0,1.63-1.44,2.219,2.219,0,0,0,.329-1.85,1.063,1.063,0,0,0-1.47-.6c-.8.41-1,2-.88,2.82,0,.07.32,1.12.33,1.12h0a6.782,6.782,0,0,1-.11.83c0,.55-.109,1.18-.12,1.86a18.927,18.927,0,0,0,.05,2.22,13.719,13.719,0,0,0,.41,2.44h0c-.14-.23-.56-.84-.6-.88-.53-.61-1.9-1.48-2.73-1.12a1.06,1.06,0,0,0-.537,1.4,1.185,1.185,0,0,0,.057.111,2.234,2.234,0,0,0,1.64.92,7.524,7.524,0,0,0,2.2-.34,18.775,18.775,0,0,0,.85,2.37c.2.45.41.9.63,1.34-.13-.19-.25-.35-.269-.37-.53-.61-1.9-1.48-2.731-1.13a1.07,1.07,0,0,0-.534,1.415c.016.036.035.071.054.105a2.245,2.245,0,0,0,1.641.92,7.1,7.1,0,0,0,2.14-.33c.08.17.16.34.25.51.41.82.82,1.63,1.2,2.44.13.28.25.57.38.85l-.23-.33c-.53-.6-1.91-1.47-2.74-1.12a1.069,1.069,0,0,0-.523,1.42,1.088,1.088,0,0,0,.053.1,2.242,2.242,0,0,0,1.64.92,7.122,7.122,0,0,0,2.07-.31c.12.29.24.59.34.88s.14.39.19.59.11.41.17.61c.09.38.19.78.27,1.16s.11.51.16.76l-.42-.88c-.43-.68-1.66-1.75-2.54-1.52a1.049,1.049,0,0,0-.735,1.29,1,1,0,0,0,.045.13,2.189,2.189,0,0,0,1.47,1.16,7.245,7.245,0,0,0,2.21,0c.09.42.17.82.23,1.21.24,1.34.39,2.46.48,3.25v.38h-2.72l1,19.35h4.62l1-19.35h-2.53l.06-.11c.35-.72.83-1.76,1.35-3l.5-1.27a7.776,7.776,0,0,0,2.21.17,2.293,2.293,0,0,0,1.56-1,1.071,1.071,0,0,0-.5-1.43c-.031-.015-.062-.028-.094-.04-.86-.29-2.16.68-2.64,1.33,0,0-.29.49-.45.77l.21-.55c.13-.37.26-.74.39-1.15l.18-.59c.063-.207.117-.418.16-.63.12-.49.21-1,.3-1.49a7.009,7.009,0,0,0,2.089.48,2.215,2.215,0,0,0,1.7-.8,1.071,1.071,0,0,0-.264-1.49.953.953,0,0,0-.1-.06c-.8-.41-2.24.35-2.81.92,0,0-.4.49-.59.74a7.53,7.53,0,0,1,.13-.92c.11-.89.2-1.8.29-2.7a7.945,7.945,0,0,1,.08-.84,7.17,7.17,0,0,0,2.17.51,2.234,2.234,0,0,0,1.7-.79,1.071,1.071,0,0,0-.264-1.49.965.965,0,0,0-.1-.06c-.8-.42-2.24.35-2.81.91,0,0-.57.7-.69.87.06-.61.13-1.21.23-1.81a16.389,16.389,0,0,1,.52-2.38,7.432,7.432,0,0,0,2.17.51,2.232,2.232,0,0,0,1.7-.79,1.071,1.071,0,0,0-.264-1.49.948.948,0,0,0-.1-.06c-.8-.42-2.24.35-2.81.91,0,.05-.6.75-.7.89a1.116,1.116,0,0,0,0-.14,14.3,14.3,0,0,1,.94-2.26c.21-.4.43-.77.65-1.13a7.183,7.183,0,0,0,2.06.73,2.239,2.239,0,0,0,1.78-.61,1.08,1.08,0,0,0-.118-1.523c-.023-.02-.047-.039-.072-.057-.75-.49-2.26.11-2.89.61,0,0-.36.34-.58.57l.3-.47c.38-.57.76-1.07,1.1-1.51l.55-.67a7.024,7.024,0,0,0,2.15-.3,2.242,2.242,0,0,0,1.3-1.36,1.071,1.071,0,0,0-.759-1.31A1.109,1.109,0,0,0,1131.649,355.6Zm-9.93,24.1c-.55,1.24-1,2.26-1.4,3-.08.14-.14.27-.2.38h-.06a2.058,2.058,0,0,0-.06-.45c-.11-.8-.28-1.93-.55-3.28-.08-.42-.18-.88-.29-1.34a11.854,11.854,0,0,0,1.24-.58,7.982,7.982,0,0,0,1.79,1.16Z" fill="#344154"/>
      <path id="Trazado_102814" data-name="Trazado 102814" d="M1126.919,361.344s.29-1.06.3-1.13c.11-.79-.14-2.4-1-2.79a1.06,1.06,0,0,0-1.405.524.869.869,0,0,0-.045.116,2.213,2.213,0,0,0,.39,1.84A7.939,7.939,0,0,0,1126.919,361.344Z" fill="#344154"/>
      <path id="Trazado_102815" data-name="Trazado 102815" d="M896.249,363.034a7.319,7.319,0,0,0,2.13.24s-.33-1-.36-1.05c-.33-.69-1.37-1.83-2.22-1.71a1,1,0,0,0-.851,1.131.937.937,0,0,0,.031.139A2.145,2.145,0,0,0,896.249,363.034Z" fill="#344154"/>
      <path id="Trazado_102816" data-name="Trazado 102816" d="M916,357.9c-.85-.09-1.87,1.07-2.18,1.77,0,.07-.34,1.06-.32,1.06h0c-.17.18-.34.38-.52.6-.33.41-.71.88-1.08,1.41a20.359,20.359,0,0,0-1.12,1.78,13.257,13.257,0,0,0-1,2.16h0v-1c-.1-.76-.74-2.17-1.58-2.32a1,1,0,0,0-1.156.816,1.038,1.038,0,0,0-.014.184,2.086,2.086,0,0,0,.81,1.59,6.965,6.965,0,0,0,1.92.88,19.268,19.268,0,0,0-.56,2.33c-.08.46-.15.93-.21,1.39v-.44c-.1-.76-.74-2.17-1.58-2.32a1,1,0,0,0-1.156.815.88.88,0,0,0-.014.135,2.127,2.127,0,0,0,.81,1.59,6.418,6.418,0,0,0,1.87.86,1.437,1.437,0,0,1-.07.54c-.1.86-.2,1.72-.32,2.56l-.15.88v-.38c-.1-.76-.74-2.17-1.58-2.33a1,1,0,0,0-1.156.816,1.033,1.033,0,0,0-.014.184,2.085,2.085,0,0,0,.81,1.58,6.629,6.629,0,0,0,1.81.85c-.06.29-.12.59-.2.87a5.525,5.525,0,0,1-.16.57l-.18.57c-.13.35-.26.72-.39,1.06s-.19.47-.28.69c.05-.29.13-.87.13-.92a3.935,3.935,0,0,0-.53-1.91,1.764,1.764,0,0,0,0-.23,1,1,0,0,0-1.1-.887,1.029,1.029,0,0,0-.149.027c-.82.22-1.35,1.68-1.39,2.44v.85l-.12-.54c-.09-.37-.19-.73-.29-1.12-.06-.19-.12-.38-.17-.57s-.14-.39-.2-.58c-.17-.45-.36-.9-.55-1.34a6.78,6.78,0,0,0,1.91-.72,2.15,2.15,0,0,0,.93-1.52,1,1,0,0,0-.995-1.005c-.035,0-.071,0-.1.005-.85.09-1.59,1.45-1.75,2.2,0,.05-.06.6-.08.9-.12-.26-.24-.53-.37-.8-.38-.77-.79-1.53-1.2-2.3l-.37-.7a7.148,7.148,0,0,0,2-.73,2.152,2.152,0,0,0,.93-1.53,1,1,0,0,0-.995-1.005c-.035,0-.071,0-.1.005-.85.1-1.59,1.46-1.75,2.21,0,.05-.08.85-.09,1.05-.27-.52-.53-1-.77-1.56a18.921,18.921,0,0,1-.84-2.16,7.085,7.085,0,0,0,2-.74,2.12,2.12,0,0,0,.93-1.52,1,1,0,0,0-.995-1.005c-.035,0-.071,0-.1.005-.85.09-1.59,1.45-1.74,2.2,0,.06-.09.91-.1,1.07v-.13a12.793,12.793,0,0,1-.43-2.28c0-.43-.07-.84-.09-1.239a6.747,6.747,0,0,0,2-.5,2.122,2.122,0,0,0,1.09-1.421,1,1,0,0,0-.839-1.138,1.081,1.081,0,0,0-.161-.012c-.86,0-1.75,1.27-2,2,0,0-.1.451-.16.761v-.541a12.239,12.239,0,0,1,.08-1.769,6.448,6.448,0,0,1,.09-.821,6.634,6.634,0,0,0,1.54-1.369,2.094,2.094,0,0,0,.32-1.761,1,1,0,0,0-1.39-.57c-.77.391-1,1.93-.84,2.68,0,.07.3,1.07.31,1.06h0c0,.24-.07.5-.1.79,0,.52-.11,1.12-.12,1.77a16.719,16.719,0,0,0,0,2.1,12.15,12.15,0,0,0,.39,2.32h0l-.57-.829c-.5-.58-1.81-1.411-2.6-1.071a1,1,0,0,0-.515,1.318.96.96,0,0,0,.065.122,2.1,2.1,0,0,0,1.55.87,6.859,6.859,0,0,0,2.09-.32,18.325,18.325,0,0,0,.82,2.25c.18.43.38.86.59,1.28l-.25-.36c-.5-.579-1.81-1.4-2.6-1.07a1,1,0,0,0-.515,1.318.96.96,0,0,0,.065.122,2.118,2.118,0,0,0,1.55.88,6.964,6.964,0,0,0,2-.31l.24.481c.39.78.79,1.549,1.15,2.32l.36.81-.22-.31c-.5-.58-1.81-1.41-2.6-1.07a1,1,0,0,0-.515,1.317,1.03,1.03,0,0,0,.065.123,2.124,2.124,0,0,0,1.55.88,6.522,6.522,0,0,0,2-.3c.11.28.22.56.32.84a4.989,4.989,0,0,1,.18.57c.05.2.11.38.16.57.09.36.18.74.26,1.1l.15.73-.4-.84c-.41-.64-1.58-1.66-2.41-1.45a1,1,0,0,0-.719,1.218,1.033,1.033,0,0,0,.049.142,2.132,2.132,0,0,0,1.41,1.1,6.909,6.909,0,0,0,2.1,0c.08.39.16.78.22,1.15.22,1.27.36,2.34.45,3.09v.37H901.6l.94,18.39h4.4l.94-18.391h-2.4v-.109c.33-.69.79-1.68,1.28-2.891.16-.38.32-.79.48-1.22a6.712,6.712,0,0,0,2.1.171,2.111,2.111,0,0,0,1.48-1,1,1,0,0,0-.56-1.4c-.81-.27-2,.65-2.51,1.27l-.42.73c.06-.17.13-.34.19-.52.13-.35.25-.71.38-1.09.06-.19.11-.38.17-.57s.1-.39.15-.59c.11-.47.2-.94.28-1.42a6.832,6.832,0,0,0,2,.45,2.156,2.156,0,0,0,1.62-.75,1,1,0,0,0-.21-1.4,1.042,1.042,0,0,0-.13-.081c-.76-.391-2.13.34-2.67.88,0,0-.38.46-.57.7a6.531,6.531,0,0,1,.13-.87c.1-.85.19-1.72.27-2.58a2.69,2.69,0,0,1,.08-.79,7.019,7.019,0,0,0,2.06.48,2.152,2.152,0,0,0,1.62-.75,1,1,0,0,0-.229-1.4.886.886,0,0,0-.121-.074c-.76-.4-2.12.33-2.67.87,0,0-.54.66-.65.82.06-.58.12-1.15.21-1.72a17.591,17.591,0,0,1,.5-2.26,7.013,7.013,0,0,0,2.07.48,2.134,2.134,0,0,0,1.61-.75,1,1,0,0,0-.21-1.4,1.038,1.038,0,0,0-.13-.081c-.76-.39-2.13.34-2.67.88,0,0-.58.71-.67.84a.825.825,0,0,0,0-.14,12.443,12.443,0,0,1,.9-2.14c.19-.38.4-.74.61-1.08a6.411,6.411,0,0,0,2,.69,2.083,2.083,0,0,0,1.69-.57,1,1,0,0,0-.069-1.413.92.92,0,0,0-.111-.087c-.71-.48-2.15.09-2.75.57l-.55.55c.1-.15.19-.31.29-.45.36-.541.72-1,1-1.43.19-.24.36-.451.53-.641a6.845,6.845,0,0,0,2-.29,2.159,2.159,0,0,0,1.24-1.29,1,1,0,0,0-.377-1.363A1.1,1.1,0,0,0,916,357.9Zm-9.44,22.91c-.52,1.19-1,2.16-1.34,2.83-.06.14-.13.26-.18.37h-.06a1.166,1.166,0,0,0-.06-.44c-.1-.76-.27-1.83-.52-3.11-.08-.41-.17-.84-.27-1.28a10.84,10.84,0,0,0,1.17-.55,7.45,7.45,0,0,0,1.71,1.1C906.859,380.114,906.7,380.474,906.559,380.814Z" fill="#344154"/>
      <path id="Trazado_102817" data-name="Trazado 102817" d="M911.5,363.354s.28-1,.29-1.06c.1-.76-.14-2.29-.91-2.66a1,1,0,0,0-1.33.481.881.881,0,0,0-.05.129,2.118,2.118,0,0,0,.36,1.75A7.386,7.386,0,0,0,911.5,363.354Z" fill="#344154"/>
      <line id="Línea_201" data-name="Línea 201" y1="187.84" transform="translate(1134.689 216.564)" fill="#aed3f2" stroke="#263238" stroke-linecap="round" stroke-linejoin="round" stroke-width="1"/>
      <line id="Línea_202" data-name="Línea 202" y1="186.67" transform="translate(966.689 217.734)" fill="#aed3f2" stroke="#263238" stroke-linecap="round" stroke-linejoin="round" stroke-width="1"/>
      <line id="Línea_203" data-name="Línea 203" x2="348.49" transform="translate(859.439 312.194)" fill="#aed3f2" stroke="#263238" stroke-linecap="round" stroke-linejoin="round" stroke-width="1"/>
      <line id="Línea_204" data-name="Línea 204" x1="4.34" y2="2.67" transform="translate(1011.389 277.694)" fill="none" stroke="#263238" stroke-linecap="round" stroke-linejoin="round" stroke-width="0.5"/>
      <line id="Línea_205" data-name="Línea 205" x1="67.42" y2="41.55" transform="translate(1021.569 232.544)" fill="none" stroke="#263238" stroke-linecap="round" stroke-linejoin="round" stroke-width="0.5"/>
      <line id="Línea_206" data-name="Línea 206" x1="54.02" y2="33.28" transform="translate(1043.869 235.354)" fill="none" stroke="#263238" stroke-linecap="round" stroke-linejoin="round" stroke-width="0.5"/>
      <line id="Línea_207" data-name="Línea 207" x1="16.32" y2="10.05" transform="translate(1105.159 220.814)" fill="none" stroke="#263238" stroke-linecap="round" stroke-linejoin="round" stroke-width="0.5"/>
      <circle id="Elipse_4095" data-name="Elipse 4095" cx="27" cy="27" r="27" transform="translate(938.689 232.034)" fill="#344154"/>
      <circle id="Elipse_4096" data-name="Elipse 4096" cx="23.42" cy="23.42" r="23.42" transform="translate(942.269 235.614)" fill="#fff"/>
      <path id="Trazado_102818" data-name="Trazado 102818" d="M950.5,263.344l15.19-4.31v-21.25" fill="none" stroke="#263238" stroke-miterlimit="10" stroke-width="2"/>
    </g>
    <g id="freepik--Desk--inject-1--inject-58">
      <line id="Línea_208" data-name="Línea 208" x2="6.65" transform="translate(1213.709 478.784)" fill="none" stroke="#263238" stroke-linecap="round" stroke-linejoin="round" stroke-width="1"/>
      <line id="Línea_209" data-name="Línea 209" x2="354.33" transform="translate(850.359 478.784)" fill="none" stroke="#263238" stroke-linecap="round" stroke-linejoin="round" stroke-width="1"/>
    </g>
    <g id="freepik--Plant--inject-1--inject-58">
      <path id="Trazado_102819" data-name="Trazado 102819" d="M1051.769,469.464h-33s0,8.86,4.66,20.45c0,2.22,5.33,4,11.91,4s11.9-1.79,11.9-4a1.3,1.3,0,0,0,0-.33C1051.719,478.154,1051.769,469.464,1051.769,469.464Z" fill="#fff" stroke="#263238" stroke-linecap="round" stroke-linejoin="round" stroke-width="1"/>
      <ellipse id="Elipse_4097" data-name="Elipse 4097" cx="16.57" cy="4.81" rx="16.57" ry="4.81" transform="translate(1018.809 464.654)" fill="#fff" stroke="#263238" stroke-linecap="round" stroke-linejoin="round" stroke-width="1"/>
      <ellipse id="Elipse_4098" data-name="Elipse 4098" cx="14.87" cy="4.02" rx="14.87" ry="4.02" transform="translate(1020.509 465.444)" fill="#fff" stroke="#263238" stroke-linecap="round" stroke-linejoin="round" stroke-width="1"/>
      <path id="Trazado_102820" data-name="Trazado 102820" d="M1021.909,471.164c2.38,1.37,7.51,2.31,13.47,2.31s11.09-.94,13.46-2.31c-2.37-1.36-7.51-2.31-13.46-2.31S1024.289,469.8,1021.909,471.164Z" fill="#344154" stroke="#263238" stroke-linecap="round" stroke-linejoin="round" stroke-width="1"/>
      <path id="Trazado_102821" data-name="Trazado 102821" d="M1028.449,471.544s-4.31-10.76-3.05-13.63,5.38-2.51,6.82.36,2.15,13.63,2.15,13.63S1030.059,473.344,1028.449,471.544Z" fill="#d9a171" stroke="#263238" stroke-linecap="round" stroke-linejoin="round" stroke-width="1"/>
      <path id="Trazado_102822" data-name="Trazado 102822" d="M1032.219,472.624s-3.41-19-2.52-22.6,5.39-4.85,8.61-2.16,2,16.33,2,18.3-.18,6.1-.18,6.1A14.99,14.99,0,0,1,1032.219,472.624Z" fill="#d9a171" stroke="#263238" stroke-linecap="round" stroke-linejoin="round" stroke-width="1"/>
      <path id="Trazado_102823" data-name="Trazado 102823" d="M1039.209,472.264s-2.66-7.36-1.07-10.23,4.84-1.79,4.84.54.18,7.9-.18,9.15S1040.469,473.344,1039.209,472.264Z" fill="#d9a171" stroke="#263238" stroke-linecap="round" stroke-linejoin="round" stroke-width="1"/>
      <path id="Trazado_102824" data-name="Trazado 102824" d="M1035.269,472.084c-4.49-17-.72-25.47-.72-25.47s5.38,9.33,2.51,25.47" fill="none" stroke="#263238" stroke-linecap="round" stroke-linejoin="round" stroke-width="1"/>
      <path id="Trazado_102825" data-name="Trazado 102825" d="M1027.909,457.554s-4.13.18,2.69,14.35" fill="none" stroke="#263238" stroke-linecap="round" stroke-linejoin="round" stroke-width="1"/>
    </g>
    <g id="freepik--Character--inject-1--inject-58">
      <path id="Trazado_102826" data-name="Trazado 102826" d="M1047.829,407.764s-64.43-2.19-71,12.45,0,58.57,0,58.57h100.3s14.34-54.42,6.34-61.75S1047.829,407.764,1047.829,407.764Z" fill="#6595bf" stroke="#263238" stroke-miterlimit="10" stroke-width="1"/>
      <path id="Trazado_102827" data-name="Trazado 102827" d="M1055.669,302.274s-3.5-1.62-5.54.44-3.73,3.13-5.31,3.22-5.39-1.05-6.48,1.86-3.15,2.69-4.5,3.06-5.67,1.68-5.85,3.42.11,4-1.5,4.37-5.52.19-6.06,2.9a7.41,7.41,0,0,1-4.21,5.35c-1.63.59-5,0-5.28,3s-.35,6-.35,6l-1.86,2.82s-3.06,1.7-2.32,4.79,3.67,5.15.25,7.82-5.64,4-4.06,6.37,4.21,2.44,3.67,5.15-4.29,6.1-.24,7.51,5.16.78,4.65,3.24,2.37,5,3.67,5.15.72.58,1.72,3.69a5.778,5.778,0,0,0,4.83,4c1,.11,2.38-.26,4,1.67s17.56,15.36,35,16.88a61.08,61.08,0,0,0,31.44-5.09c3.55-1.4,7.22-4,7.19-6.3s4.69-2.29,6.45-4.12,2.09-2.549,2.09-5.06.24-5,1.2-6.67,2.09-2.55,1.83-5.09,1.64-5.859,2.83-7.25,2.43-3.27.19-7-3.2-4.6-2.37-7.53,2.16-5.81.31-8.26a9.647,9.647,0,0,1-1.9-7c.2-2,1.65-3.35-1.31-5.16s-2.94-4.57-3.34-5.87.31-3-3.17-4.85a10.6,10.6,0,0,1-5.15-6c-.62-1.57-2.42-4.52-5.48-5.33s-4.64-.73-6.72-3.45-4-4.93-6.81-5.22-2.62,0-6.84.31a13.614,13.614,0,0,1-7-1C1062.329,298.674,1059.209,295.844,1055.669,302.274Z" fill="#344154" stroke="#263238" stroke-linecap="round" stroke-linejoin="round" stroke-width="1"/>
      <path id="Trazado_102828" data-name="Trazado 102828" d="M1010.169,352.174c2.12-1.51-.91-7.27.91-10.9s2.12-3.33,3.63-7,.91-4.55,3.94-5.15,5.15-3.33,8.48-7.27,5.75-1.21,8.48-5.45,1.21-5.15,4.84-5.75,8.18-1.52,10.6-3.34a12.283,12.283,0,0,1,7.27-2.42,10.76,10.76,0,0,0,3.63-.6,11.41,11.41,0,0,1,5.45-1.52c3,0,3,1.21,8.18,0m-13.63,5.45s-8.17,4.24-9.08,7-5.45,0-8.78,3.63-2.12,7.57-5.76,9.09-11.2,1.51-11.5,6.36-.61,7.87-3,10.29-5.45,3-3.33,6.36,3.33,5.15.3,9.09-8.18,5.14-3.63,9.38,7.57,4.55,5.75,7.57,2.72,4.55,3.94,5.15" fill="none" stroke="#fff" stroke-miterlimit="10" stroke-width="1"/>
      <path id="Trazado_102829" data-name="Trazado 102829" d="M1031.369,352.484s6.66,0,8.78-1.82,4.24-4.54,7-3,5.45.91,7-2.73-2.42-5.14,3-5.14,5.75-1.21,8.17-5.45-.6-4.24,6.67-4.55,7.87-5.14,10.6-4.84,3.93.91,1.21,6.66-5.15,6.36-1.52,9.39,7.27,2.12,5.15,9.08-.3,7.57.61,10.3,2.12,3.63-1.82,7.27-5.15,3.33-4.24,7.57,1.82,6-1.51,7.57-6.06,3.63-4.55,5.15,2.12,1.81,1.22,3" fill="none" stroke="#fff" stroke-miterlimit="10" stroke-width="1"/>
      <path id="Trazado_102830" data-name="Trazado 102830" d="M1042.909,381.284s-18,2.5-31.5,4.5-23,4.25-23.25,8.75-19.75,52-22,53.5a11.822,11.822,0,0,0-5.25,8.75,35.255,35.255,0,0,1-2.5,9s8.75-1,12.5,2,6,4.75,6,4.75,10.5-6.75,12-10.25-3.25-11-1.75-13.5,7.5-10.75,7.5-10.75,8,25,9,30.25a23.63,23.63,0,0,1-.75,10.5h70.25v-20.75c0-3.75,2.75-15.5,2.75-15.5s6.75,19.5,8.5,24.75a112.639,112.639,0,0,1,3,11.5h24s-8.25-24.75-11.25-32.5-6.5-38.75-8-42.5-22.75-15.5-33.25-18A160.628,160.628,0,0,1,1042.909,381.284Z" fill="#d9a171"/>
      <g id="Grupo_56446" data-name="Grupo 56446">
        <g id="Grupo_56445" data-name="Grupo 56445" clip-path="url(#clip-path)">
          <g id="Grupo_56444" data-name="Grupo 56444">
            <path id="Trazado_102831" data-name="Trazado 102831" d="M970.909,467.784c3.75,3,6,4.75,6,4.75s10.5-6.75,12-10.25-3.25-11-1.75-13.5,7.5-10.75,7.5-10.75l.17.53,5.08-6s2,.5,5,11,16,17,13,22.5c-1.94,3.56-3.67,9.2-4.65,12.75h59.9v-20.78c0-3.75,2.75-15.5,2.75-15.5s6.75,19.5,8.5,24.75a112.639,112.639,0,0,1,3,11.5h24s-8.25-24.75-11.25-32.5c-2.55-6.58-5.46-29.94-7.2-39.12a21.39,21.39,0,0,0-3.05-3.13c-7-5.5-24-11.5-28-12s-14-7-25-2.5c0,0-7.5,6.5-13,8s-16.5-9.5-17.5-4a34.871,34.871,0,0,0,0,11s-6-14-5.5-8.5.5,10.5.5,10.5-5.5-12-5.5-7,2.5,11.5,2,15.5-14.5,29-16,31.5-1,7.1-2.75,10.55a9.309,9.309,0,0,1-5.25,4.45s1.5-6.5-4-6-11.5,10.25-11.5,10.25S967.159,464.784,970.909,467.784Z" opacity="0.3" style="isolation: isolate"/>
          </g>
        </g>
      </g>
      <path id="Trazado_102832" data-name="Trazado 102832" d="M1042.909,381.284s-18,2.5-31.5,4.5-23,4.25-23.25,8.75-19.75,52-22,53.5a11.822,11.822,0,0,0-5.25,8.75,35.255,35.255,0,0,1-2.5,9s8.75-1,12.5,2,6,4.75,6,4.75,10.5-6.75,12-10.25-3.25-11-1.75-13.5,7.5-10.75,7.5-10.75,8,25,9,30.25a23.63,23.63,0,0,1-.75,10.5h70.25v-20.75c0-3.75,2.75-15.5,2.75-15.5s6.75,19.5,8.5,24.75a112.639,112.639,0,0,1,3,11.5h24s-8.25-24.75-11.25-32.5-6.5-38.75-8-42.5-22.75-15.5-33.25-18A160.628,160.628,0,0,1,1042.909,381.284Z" fill="none" stroke="#263238" stroke-linecap="round" stroke-linejoin="round" stroke-width="1"/>
      <path id="Trazado_102833" data-name="Trazado 102833" d="M1047.909,423.784s2.2,22.33,1.27,31.6-4.17,16.23-2.78,22.72" fill="none" stroke="#263238" stroke-linecap="round" stroke-linejoin="round" stroke-width="1"/>
      <line id="Línea_210" data-name="Línea 210" y1="8.5" x2="4" transform="translate(1077.909 418.534)" fill="none" stroke="#263238" stroke-linecap="round" stroke-linejoin="round" stroke-width="1"/>
      <path id="Trazado_102834" data-name="Trazado 102834" d="M1040.659,379.284s-2.75,1.75-3.25,3.5-4.5,6.5-6.25,13.5-.75,19.75.5,16.75,4.5-9.5,5.75-11,1.5.5,2.5,4.75,8,17,8,17,5.25-11.75,8.25-13.5,4.25-7.5,4.25-7.5,3,15,4.75,15,2.5-11.5,1.75-18.5-4-15.5-6-18.25S1050.409,369.034,1040.659,379.284Z" fill="#fff" stroke="#263238" stroke-linecap="round" stroke-linejoin="round" stroke-width="1"/>
      <path id="Trazado_102835" data-name="Trazado 102835" d="M1040.909,377.784s-1,19.5.5,28,5.25,21,6.5,18,9.25-17.75,10.5-24.5a72.606,72.606,0,0,1,4.5-14S1047.909,387.034,1040.909,377.784Z" fill="#fff" stroke="#263238" stroke-linecap="round" stroke-linejoin="round" stroke-width="1"/>
      <path id="Trazado_102836" data-name="Trazado 102836" d="M1077.289,333.634s-4.36,1.25-5.45,3.68-2,2.62-4.76,5.16-3.61,2.17-5.79,4.21-3.86,1.86-6.43,2.16-4.81.08-6,.8a28.949,28.949,0,0,1-3.56,1.62s-1.59-1-2.82,2.81-2.71,12.71-1.8,17.6,4.53,16.55,10.17,19.39,19.26-6.23,22.76-10.1,10.72-22.06,11-25.13-4.46-8.92-5.35-11.27.37-3.63-1.38-5.79S1077.289,333.634,1077.289,333.634Z" fill="#fff" stroke="#263238" stroke-linecap="round" stroke-linejoin="round" stroke-width="1"/>
      <path id="Trazado_102837" data-name="Trazado 102837" d="M1063.259,372.294s-.8,1.39-3.57,1.11-3.86-2.37-3.54-4" fill="none" stroke="#263238" stroke-linecap="round" stroke-linejoin="round" stroke-width="1"/>
      <path id="Trazado_102838" data-name="Trazado 102838" d="M1052.529,374.324a14.69,14.69,0,0,0,9.34,3.58" fill="none" stroke="#263238" stroke-linecap="round" stroke-linejoin="round" stroke-width="1"/>
      <path id="Trazado_102839" data-name="Trazado 102839" d="M1057.819,357.924l-1.06,2.36s-3.62,1.6-6.91-3.17" fill="none" stroke="#263238" stroke-linecap="round" stroke-linejoin="round" stroke-width="1"/>
      <path id="Trazado_102840" data-name="Trazado 102840" d="M1074.469,364.384l-.88,2.21s-4.54,1-6-2.74" fill="none" stroke="#263238" stroke-linecap="round" stroke-linejoin="round" stroke-width="1"/>
      <path id="Trazado_102841" data-name="Trazado 102841" d="M1069.469,356.644s7.52-2.85,9.61,4.11" fill="none" stroke="#263238" stroke-linecap="round" stroke-linejoin="round" stroke-width="1"/>
      <path id="Trazado_102842" data-name="Trazado 102842" d="M1061.209,353.674s-2.65-6.19-10-3.49" fill="none" stroke="#263238" stroke-linecap="round" stroke-linejoin="round" stroke-width="1"/>
      <path id="Trazado_102843" data-name="Trazado 102843" d="M1056.759,360.284s-1.37.52-4.23-.43a6.176,6.176,0,0,1-3.75-3.51S1048.759,362.924,1056.759,360.284Z" fill="#344154"/>
      <path id="Trazado_102844" data-name="Trazado 102844" d="M1074.469,367.034s-1.37.52-4.23-.43a6.176,6.176,0,0,1-3.75-3.51S1066.469,369.664,1074.469,367.034Z" fill="#344154"/>
      <path id="Trazado_102845" data-name="Trazado 102845" d="M994.659,438.034s8.5-13.75,13-23.25" fill="#fff" stroke="#263238" stroke-linecap="round" stroke-linejoin="round" stroke-width="1"/>
      <path id="Trazado_102846" data-name="Trazado 102846" d="M1001.159,428.034a31.176,31.176,0,0,0,9.5-9.75" fill="none" stroke="#263238" stroke-linecap="round" stroke-linejoin="round" stroke-width="1"/>
      <path id="Trazado_102847" data-name="Trazado 102847" d="M947.909,487.034h51.67l28.16,19.17h-59.33Z" fill="#fff" stroke="#263238" stroke-linecap="round" stroke-linejoin="round" stroke-width="1"/>
      <line id="Línea_211" data-name="Línea 211" x1="41.5" transform="translate(972.909 502.034)" fill="none" stroke="#263238" stroke-linecap="round" stroke-linejoin="round" stroke-width="1"/>
      <line id="Línea_212" data-name="Línea 212" x1="41.5" transform="translate(968.909 498.034)" fill="none" stroke="#263238" stroke-linecap="round" stroke-linejoin="round" stroke-width="1"/>
      <line id="Línea_213" data-name="Línea 213" x1="41.5" transform="translate(964.909 494.034)" fill="none" stroke="#263238" stroke-linecap="round" stroke-linejoin="round" stroke-width="1"/>
      <path id="Trazado_102848" data-name="Trazado 102848" d="M911.909,499.034h51.67l28.16,19.17h-59.33Z" fill="#fff" stroke="#263238" stroke-linecap="round" stroke-linejoin="round" stroke-width="1"/>
      <line id="Línea_214" data-name="Línea 214" x1="41.5" transform="translate(936.909 514.034)" fill="none" stroke="#263238" stroke-linecap="round" stroke-linejoin="round" stroke-width="1"/>
      <line id="Línea_215" data-name="Línea 215" x1="41.5" transform="translate(932.909 510.034)" fill="none" stroke="#263238" stroke-linecap="round" stroke-linejoin="round" stroke-width="1"/>
      <line id="Línea_216" data-name="Línea 216" x1="41.5" transform="translate(928.909 506.034)" fill="none" stroke="#263238" stroke-linecap="round" stroke-linejoin="round" stroke-width="1"/>
      <path id="Trazado_102849" data-name="Trazado 102849" d="M984.579,477.364s-4.67-7-7.5-11.33-9-7.33-14.5-6-8.17,6.33-8.17,11.67.5,9.66,6.33,12.83,18.84,4.83,18.84,4.83S989.409,493.034,984.579,477.364Z" fill="#fff" stroke="#263238" stroke-linecap="round" stroke-linejoin="round" stroke-width="1"/>
      <path id="Trazado_102850" data-name="Trazado 102850" d="M979.719,475.794s-6.39,2-6.83,4.4-1.1,7.72-.66,10.14,6.17,2.21,10.14,2.21,5.95-4,5.07-5.29-4.41-2-5.73-5.07A37.569,37.569,0,0,1,979.719,475.794Z" fill="#fff" stroke="#263238" stroke-linecap="round" stroke-linejoin="round" stroke-width="1"/>
      <path id="Trazado_102851" data-name="Trazado 102851" d="M985.049,477.884c-.94-2.11-2.13-4.09-2.66-5.24-1.43-3.08-4.55-3.21-4.72.69-.1,2.21,4,15.12,7.56,12.15C987.159,483.884,986.329,480.754,985.049,477.884Z" fill="#fff" stroke="#263238" stroke-linecap="round" stroke-linejoin="round" stroke-width="1"/>
      <path id="Trazado_102852" data-name="Trazado 102852" d="M973.109,481.084s.22,2.64,5.51,5.73,6.83,2,8.6,2" fill="#fff" stroke="#263238" stroke-linecap="round" stroke-linejoin="round" stroke-width="1"/>
      <path id="Trazado_102853" data-name="Trazado 102853" d="M972.229,486.374s.65,4.34,12.77,5.22" fill="#fff" stroke="#263238" stroke-linecap="round" stroke-linejoin="round" stroke-width="1"/>
      <path id="Trazado_102854" data-name="Trazado 102854" d="M988.669,489.034l-10.44-30a1.5,1.5,0,0,1,.925-1.908l.005,0h0a1.5,1.5,0,0,1,1.908.926l0,0,10.4,30.03Z" fill="#344154"/>
      <path id="Trazado_102855" data-name="Trazado 102855" d="M988.669,489.064l2.82,3.61.01-4.59Z" fill="#fff"/>
      <path id="Trazado_102856" data-name="Trazado 102856" d="M990.469,491.364l1,1.31v-1.64A4.443,4.443,0,0,0,990.469,491.364Z" fill="#344154"/>
      <path id="Trazado_102857" data-name="Trazado 102857" d="M981.069,458.034a1.505,1.505,0,0,0-2.84,1l1,3,2.8-1.07Z" fill="#fff"/>
      <path id="Trazado_102858" data-name="Trazado 102858" d="M984.909,469.864s3-1.16,4.5,0,2.33,4.17,2.33,7.67,1.67,8-1.33,7.83S984.909,469.864,984.909,469.864Z" fill="#fff" stroke="#263238" stroke-linecap="round" stroke-linejoin="round" stroke-width="1"/>
      <path id="Trazado_102859" data-name="Trazado 102859" d="M1051.009,496.7l-22.77-14.34h87l32.43,14.34Z" fill="#fff" stroke="#263238" stroke-linecap="round" stroke-linejoin="round" stroke-width="1"/>
      <path id="Trazado_102860" data-name="Trazado 102860" d="M1147.669,496.7h-96.66l11.13-69h96.67Z" fill="#fff" stroke="#263238" stroke-linecap="round" stroke-linejoin="round" stroke-width="1"/>
      <path id="Trazado_102861" data-name="Trazado 102861" d="M1153.129,462.894c-16.37,3.72-30.49,0-58.51,4.55-27.45,4.42-38.55,16.93-43,25.44l-.61,3.82h96.66Z" fill="#344154" stroke="#263238" stroke-miterlimit="10" stroke-width="1"/>
      <path id="Trazado_102862" data-name="Trazado 102862" d="M1153.229,471.394s-5.48.7-7.45,2.95-.42,3.1,1.27,3.1,7.31,0,9.84-3C1158.939,472.084,1157.589,471.114,1153.229,471.394Z" fill="#fff" stroke="#263238" stroke-linecap="round" stroke-linejoin="round" stroke-width="1"/>
      <path id="Trazado_102863" data-name="Trazado 102863" d="M1151.4,487.424s-5.48.7-7.45,2.95-.42,3.09,1.27,3.09,7.31,0,9.84-2.95C1157.119,488.114,1155.759,487.144,1151.4,487.424Z" fill="#fff" stroke="#263238" stroke-linecap="round" stroke-linejoin="round" stroke-width="1"/>
      <path id="Trazado_102864" data-name="Trazado 102864" d="M1151.969,483.2s-5.49.7-7.46,2.95-.42,3.1,1.27,3.1,7.31,0,9.84-3C1157.679,483.9,1156.319,482.924,1151.969,483.2Z" fill="#fff" stroke="#263238" stroke-linecap="round" stroke-linejoin="round" stroke-width="1"/>
      <path id="Trazado_102865" data-name="Trazado 102865" d="M1152.109,478.424s-5.49.7-7.45,2.95-.43,3.1,1.26,3.1,7.31,0,9.84-3C1157.819,479.114,1156.469,478.144,1152.109,478.424Z" fill="#fff" stroke="#263238" stroke-linecap="round" stroke-linejoin="round" stroke-width="1"/>
    </g>
  </g>
</svg>
