<svg xmlns="http://www.w3.org/2000/svg" width="106.731" height="106.731" viewBox="0 0 106.731 106.731">
  <g id="Grupo_59429" data-name="Grupo 59429" transform="translate(-907 -5086.269)">
    <g id="Grupo_56561" data-name="Grupo 56561" transform="translate(907 5086.269)">
      <rect id="Rectángulo_5536" data-name="Rectángulo 5536" width="106.731" height="106.731" fill="#5e6178" opacity="0"/>
      <g id="surface1" transform="translate(9.396 10.309)">
        <path id="Trazado_103882" data-name="Trazado 103882" d="M542.748,4916.147a43.969,43.969,0,1,1-43.969-43.969A43.969,43.969,0,0,1,542.748,4916.147Z" transform="translate(-454.81 -4872.178)" fill="#aed3f2"/>
        <g id="Grupo_56560" data-name="Grupo 56560" transform="translate(10.722 7.258)">
          <path id="Trazado_103883" data-name="Trazado 103883" d="M535.327,4897.878h-52.1a8.324,8.324,0,0,0-8.324,8.324V4954.7a8.324,8.324,0,0,0,8.324,8.324h52.1a8.324,8.324,0,0,0,8.324-8.324V4906.2a8.324,8.324,0,0,0-8.324-8.324Z" transform="translate(-474.902 -4891.42)" fill="#ebf0f3"/>
          <path id="Trazado_103884" data-name="Trazado 103884" d="M543.651,4911.1v-10.086a8.324,8.324,0,0,0-8.324-8.324h-52.1a8.324,8.324,0,0,0-8.324,8.324V4911.1Z" transform="translate(-474.902 -4889)" fill="#a66d58"/>
          <path id="Trazado_103885" data-name="Trazado 103885" d="M543.651,4915.4v-9.2a8.324,8.324,0,0,0-8.324-8.324h-52.1a8.324,8.324,0,0,0-8.324,8.324v9.2Z" transform="translate(-474.902 -4891.42)" fill="#d9a171"/>
          <path id="Trazado_103886" data-name="Trazado 103886" d="M497.912,4906.255a2.905,2.905,0,1,0,2.905,2.905A2.906,2.906,0,0,0,497.912,4906.255Z" transform="translate(-484.278 -4895.327)" fill="#d15241"/>
          <path id="Trazado_103887" data-name="Trazado 103887" d="M499.093,4885.778a1.554,1.554,0,0,0-1.554,1.554v12.109a1.554,1.554,0,0,0,3.109,0v-12.109A1.554,1.554,0,0,0,499.093,4885.778Z" transform="translate(-485.459 -4885.778)" fill="#4d5c7d"/>
          <path id="Trazado_103888" data-name="Trazado 103888" d="M523.822,4906.255a2.905,2.905,0,1,0,2.9,2.905A2.905,2.905,0,0,0,523.822,4906.255Z" transform="translate(-496.361 -4895.327)" fill="#d15241"/>
          <path id="Trazado_103889" data-name="Trazado 103889" d="M525,4885.778a1.555,1.555,0,0,0-1.555,1.554v12.109a1.554,1.554,0,0,0,3.109,0v-12.109A1.554,1.554,0,0,0,525,4885.778Z" transform="translate(-497.541 -4885.778)" fill="#4d5c7d"/>
          <path id="Trazado_103890" data-name="Trazado 103890" d="M549.731,4906.255a2.905,2.905,0,1,0,2.905,2.905A2.905,2.905,0,0,0,549.731,4906.255Z" transform="translate(-508.443 -4895.327)" fill="#d15241"/>
          <path id="Trazado_103891" data-name="Trazado 103891" d="M550.912,4885.778a1.554,1.554,0,0,0-1.554,1.554v12.109a1.554,1.554,0,0,0,3.109,0v-12.109A1.554,1.554,0,0,0,550.912,4885.778Z" transform="translate(-509.624 -4885.778)" fill="#4d5c7d"/>
          <path id="Trazado_103892" data-name="Trazado 103892" d="M575.641,4906.255a2.905,2.905,0,1,0,2.9,2.905A2.905,2.905,0,0,0,575.641,4906.255Z" transform="translate(-520.526 -4895.327)" fill="#d15241"/>
          <path id="Trazado_103893" data-name="Trazado 103893" d="M576.821,4885.778a1.554,1.554,0,0,0-1.554,1.554v12.109a1.554,1.554,0,0,0,3.108,0v-12.109A1.554,1.554,0,0,0,576.821,4885.778Z" transform="translate(-521.707 -4885.778)" fill="#4d5c7d"/>
          <g id="Grupo_56554" data-name="Grupo 56554" transform="translate(35.947 36.132)">
            <path id="Trazado_103894" data-name="Trazado 103894" d="M555.357,4972.3H542.632v-2.525l6.006-6.4a14.808,14.808,0,0,0,1.83-2.359,3.785,3.785,0,0,0,.593-1.913,2.836,2.836,0,0,0-.625-1.944,2.254,2.254,0,0,0-1.785-.708,2.432,2.432,0,0,0-1.97.861,3.408,3.408,0,0,0-.72,2.263h-3.7a6.09,6.09,0,0,1,.81-3.1,5.707,5.707,0,0,1,2.289-2.2,6.953,6.953,0,0,1,3.353-.8,6.585,6.585,0,0,1,4.457,1.378,4.869,4.869,0,0,1,1.588,3.889,6.24,6.24,0,0,1-.714,2.805,15.586,15.586,0,0,1-2.448,3.328l-4.221,4.45h7.982Z" transform="translate(-542.262 -4953.483)" fill="#344154"/>
            <path id="Trazado_103895" data-name="Trazado 103895" d="M583.086,4958.674a4.317,4.317,0,0,1-.676,2.4,4.87,4.87,0,0,1-1.861,1.67,5.392,5.392,0,0,1,2.142,1.792,4.6,4.6,0,0,1,.79,2.684,4.865,4.865,0,0,1-1.683,3.908,8.026,8.026,0,0,1-9.168-.007,4.853,4.853,0,0,1-1.7-3.9,4.624,4.624,0,0,1,.79-2.69,5.292,5.292,0,0,1,2.129-1.785,4.816,4.816,0,0,1-1.855-1.67,4.344,4.344,0,0,1-.67-2.4,4.811,4.811,0,0,1,1.581-3.78,7.271,7.271,0,0,1,8.588-.014A4.794,4.794,0,0,1,583.086,4958.674Zm-3.3,8.275a2.676,2.676,0,0,0-.7-1.938,2.808,2.808,0,0,0-3.762-.007,3.024,3.024,0,0,0-.013,3.857,2.874,2.874,0,0,0,3.793.026A2.66,2.66,0,0,0,579.784,4966.949Zm-.383-8.1a2.549,2.549,0,0,0-.574-1.74,2.332,2.332,0,0,0-3.226-.019,2.534,2.534,0,0,0-.574,1.759,2.666,2.666,0,0,0,.574,1.786,2.272,2.272,0,0,0,3.232,0A2.688,2.688,0,0,0,579.4,4958.852Z" transform="translate(-555.634 -4953.483)" fill="#344154"/>
          </g>
          <g id="Grupo_56559" data-name="Grupo 56559" transform="translate(7.786 35.472)">
            <g id="Grupo_56558" data-name="Grupo 56558">
              <g id="Grupo_56555" data-name="Grupo 56555" transform="translate(0 0.001)">
                <path id="Trazado_103896" data-name="Trazado 103896" d="M492.556,4972.069a1.793,1.793,0,0,1-3.064-1.265v-16.764a1.793,1.793,0,0,1,3.064-1.265l7.924,7.964a2.384,2.384,0,0,1,0,3.364Z" transform="translate(-489.492 -4952.248)" fill="#344154"/>
              </g>
              <g id="Grupo_56557" data-name="Grupo 56557" transform="translate(13.544)">
                <g id="Grupo_56556" data-name="Grupo 56556">
                  <path id="Trazado_103897" data-name="Trazado 103897" d="M517.09,4972.643a2.217,2.217,0,0,1-2.218-2.218v-15.959a2.218,2.218,0,1,1,4.436,0v15.959A2.218,2.218,0,0,1,517.09,4972.643Z" transform="translate(-514.872 -4952.247)" fill="#344154"/>
                </g>
              </g>
            </g>
          </g>
        </g>
      </g>
    </g>
  </g>
</svg>
