<svg xmlns="http://www.w3.org/2000/svg" width="107" height="107" viewBox="0 0 107 107">
  <g id="Grupo_59427" data-name="Grupo 59427" transform="translate(-265 -5086)">
    <g id="Grupo_56553" data-name="Grupo 56553" transform="translate(265 5086)">
      <rect id="Rectángulo_5535" data-name="Rectángulo 5535" width="107" height="107" transform="translate(0 0)" fill="#5e6178" opacity="0"/>
      <g id="surface1" transform="translate(9.396 10.577)">
        <path id="Trazado_103860" data-name="Trazado 103860" d="M334.686,4916.147a43.969,43.969,0,1,1-43.969-43.969A43.969,43.969,0,0,1,334.686,4916.147Z" transform="translate(-246.748 -4872.178)" fill="#aed3f2"/>
        <g id="Grupo_56552" data-name="Grupo 56552" transform="translate(10.722 7.258)">
          <path id="Trazado_103861" data-name="Trazado 103861" d="M327.265,4897.878h-52.1a8.324,8.324,0,0,0-8.324,8.324V4954.7a8.324,8.324,0,0,0,8.324,8.324h52.1a8.324,8.324,0,0,0,8.324-8.324V4906.2a8.324,8.324,0,0,0-8.324-8.324Z" transform="translate(-266.84 -4891.42)" fill="#ebf0f3"/>
          <path id="Trazado_103862" data-name="Trazado 103862" d="M335.589,4911.1v-10.086a8.324,8.324,0,0,0-8.324-8.324h-52.1a8.324,8.324,0,0,0-8.324,8.324V4911.1Z" transform="translate(-266.84 -4889)" fill="#a66d58"/>
          <path id="Trazado_103863" data-name="Trazado 103863" d="M335.589,4915.4v-9.2a8.324,8.324,0,0,0-8.324-8.324h-52.1a8.324,8.324,0,0,0-8.324,8.324v9.2Z" transform="translate(-266.84 -4891.42)" fill="#d9a171"/>
          <path id="Trazado_103864" data-name="Trazado 103864" d="M289.85,4906.255a2.905,2.905,0,1,0,2.905,2.905A2.905,2.905,0,0,0,289.85,4906.255Z" transform="translate(-276.216 -4895.327)" fill="#d15241"/>
          <path id="Trazado_103865" data-name="Trazado 103865" d="M291.031,4885.778a1.554,1.554,0,0,0-1.554,1.554v12.109a1.554,1.554,0,0,0,3.109,0v-12.109A1.554,1.554,0,0,0,291.031,4885.778Z" transform="translate(-277.397 -4885.778)" fill="#4d5c7d"/>
          <path id="Trazado_103866" data-name="Trazado 103866" d="M315.76,4906.255a2.905,2.905,0,1,0,2.9,2.905A2.905,2.905,0,0,0,315.76,4906.255Z" transform="translate(-288.299 -4895.327)" fill="#d15241"/>
          <path id="Trazado_103867" data-name="Trazado 103867" d="M316.941,4885.778a1.555,1.555,0,0,0-1.555,1.554v12.109a1.554,1.554,0,0,0,3.109,0v-12.109A1.554,1.554,0,0,0,316.941,4885.778Z" transform="translate(-289.479 -4885.778)" fill="#4d5c7d"/>
          <path id="Trazado_103868" data-name="Trazado 103868" d="M341.669,4906.255a2.905,2.905,0,1,0,2.905,2.905A2.906,2.906,0,0,0,341.669,4906.255Z" transform="translate(-300.381 -4895.327)" fill="#d15241"/>
          <path id="Trazado_103869" data-name="Trazado 103869" d="M342.85,4885.778a1.554,1.554,0,0,0-1.554,1.554v12.109a1.554,1.554,0,0,0,3.109,0v-12.109A1.554,1.554,0,0,0,342.85,4885.778Z" transform="translate(-301.562 -4885.778)" fill="#4d5c7d"/>
          <path id="Trazado_103870" data-name="Trazado 103870" d="M367.579,4906.255a2.905,2.905,0,1,0,2.9,2.905A2.905,2.905,0,0,0,367.579,4906.255Z" transform="translate(-312.464 -4895.327)" fill="#d15241"/>
          <path id="Trazado_103871" data-name="Trazado 103871" d="M368.759,4885.778a1.554,1.554,0,0,0-1.554,1.554v12.109a1.554,1.554,0,0,0,3.109,0v-12.109A1.554,1.554,0,0,0,368.759,4885.778Z" transform="translate(-313.645 -4885.778)" fill="#4d5c7d"/>
          <g id="Grupo_56551" data-name="Grupo 56551" transform="translate(13.634 35.48)">
            <path id="Trazado_103872" data-name="Trazado 103872" d="M314.374,4952.262h6.283v6.283h-6.283Z" transform="translate(-302.642 -4952.262)" fill="#d9a171"/>
            <path id="Trazado_103873" data-name="Trazado 103873" d="M336.359,4952.262h6.283v6.283h-6.283Z" transform="translate(-312.894 -4952.262)" fill="#d9a171"/>
            <path id="Trazado_103874" data-name="Trazado 103874" d="M358.343,4952.262h6.284v6.283h-6.284Z" transform="translate(-323.146 -4952.262)" fill="#d9a171"/>
            <path id="Trazado_103875" data-name="Trazado 103875" d="M292.389,4970.72h6.284V4977h-6.284Z" transform="translate(-292.389 -4960.87)" fill="#d9a171"/>
            <path id="Trazado_103876" data-name="Trazado 103876" d="M314.374,4970.72h6.283V4977h-6.283Z" transform="translate(-302.642 -4960.87)" fill="#d9a171"/>
            <path id="Trazado_103877" data-name="Trazado 103877" d="M336.359,4970.72h6.283V4977h-6.283Z" transform="translate(-312.894 -4960.87)" fill="#d9a171"/>
            <path id="Trazado_103878" data-name="Trazado 103878" d="M358.343,4970.72h6.284V4977h-6.284Z" transform="translate(-323.146 -4960.87)" fill="#d9a171"/>
            <path id="Trazado_103879" data-name="Trazado 103879" d="M292.389,4989.178h6.284v6.283h-6.284Z" transform="translate(-292.389 -4969.478)" fill="#d9a171"/>
            <path id="Trazado_103880" data-name="Trazado 103880" d="M314.374,4989.178h6.283v6.283h-6.283Z" transform="translate(-302.642 -4969.478)" fill="#d9a171"/>
            <path id="Trazado_103881" data-name="Trazado 103881" d="M336.359,4989.178h6.283v6.283h-6.283Z" transform="translate(-312.894 -4969.478)" fill="#d9a171"/>
          </g>
        </g>
      </g>
    </g>
  </g>
</svg>
