<svg xmlns="http://www.w3.org/2000/svg" width="106.731" height="106.731" viewBox="0 0 106.731 106.731">
  <g id="Grupo_59430" data-name="Grupo 59430" transform="translate(-1228 -5086.269)">
    <g id="Grupo_56566" data-name="Grupo 56566" transform="translate(1228 5086.269)">
      <rect id="Rectángulo_5537" data-name="Rectángulo 5537" width="106.731" height="106.731" transform="translate(0)" fill="#5e6178" opacity="0"/>
      <g id="surface1" transform="translate(9.396 10.309)">
        <path id="Trazado_103898" data-name="Trazado 103898" d="M976.054,4916.147a43.969,43.969,0,1,1-43.969-43.969A43.969,43.969,0,0,1,976.054,4916.147Z" transform="translate(-888.115 -4872.178)" fill="#aed3f2"/>
        <g id="Grupo_56565" data-name="Grupo 56565" transform="translate(10.722 7.258)">
          <path id="Trazado_103899" data-name="Trazado 103899" d="M968.632,4897.878h-52.1a8.324,8.324,0,0,0-8.324,8.324V4954.7a8.324,8.324,0,0,0,8.324,8.324h52.1a8.324,8.324,0,0,0,8.325-8.324V4906.2a8.324,8.324,0,0,0-8.325-8.324Z" transform="translate(-908.207 -4891.42)" fill="#ebf0f3"/>
          <path id="Trazado_103900" data-name="Trazado 103900" d="M976.957,4911.1v-10.086a8.324,8.324,0,0,0-8.325-8.324h-52.1a8.324,8.324,0,0,0-8.324,8.324V4911.1Z" transform="translate(-908.207 -4889)" fill="#a66d58"/>
          <path id="Trazado_103901" data-name="Trazado 103901" d="M976.957,4915.4v-9.2a8.325,8.325,0,0,0-8.325-8.324h-52.1a8.324,8.324,0,0,0-8.324,8.324v9.2Z" transform="translate(-908.207 -4891.42)" fill="#d9a171"/>
          <path id="Trazado_103902" data-name="Trazado 103902" d="M931.218,4906.255a2.905,2.905,0,1,0,2.9,2.905A2.905,2.905,0,0,0,931.218,4906.255Z" transform="translate(-917.583 -4895.327)" fill="#d15241"/>
          <path id="Trazado_103903" data-name="Trazado 103903" d="M932.4,4885.778a1.555,1.555,0,0,0-1.555,1.554v12.109a1.554,1.554,0,0,0,3.109,0v-12.109A1.554,1.554,0,0,0,932.4,4885.778Z" transform="translate(-918.764 -4885.778)" fill="#4d5c7d"/>
          <path id="Trazado_103904" data-name="Trazado 103904" d="M957.127,4906.255a2.905,2.905,0,1,0,2.905,2.905A2.906,2.906,0,0,0,957.127,4906.255Z" transform="translate(-929.666 -4895.327)" fill="#d15241"/>
          <path id="Trazado_103905" data-name="Trazado 103905" d="M958.308,4885.778a1.554,1.554,0,0,0-1.554,1.554v12.109a1.554,1.554,0,0,0,3.109,0v-12.109A1.554,1.554,0,0,0,958.308,4885.778Z" transform="translate(-930.847 -4885.778)" fill="#4d5c7d"/>
          <path id="Trazado_103906" data-name="Trazado 103906" d="M983.037,4906.255a2.905,2.905,0,1,0,2.9,2.905A2.905,2.905,0,0,0,983.037,4906.255Z" transform="translate(-941.749 -4895.327)" fill="#d15241"/>
          <path id="Trazado_103907" data-name="Trazado 103907" d="M984.218,4885.778a1.554,1.554,0,0,0-1.555,1.554v12.109a1.554,1.554,0,0,0,3.109,0v-12.109A1.554,1.554,0,0,0,984.218,4885.778Z" transform="translate(-942.929 -4885.778)" fill="#4d5c7d"/>
          <path id="Trazado_103908" data-name="Trazado 103908" d="M1008.946,4906.255a2.905,2.905,0,1,0,2.905,2.905A2.905,2.905,0,0,0,1008.946,4906.255Z" transform="translate(-953.831 -4895.327)" fill="#d15241"/>
          <path id="Trazado_103909" data-name="Trazado 103909" d="M1010.127,4885.778a1.554,1.554,0,0,0-1.555,1.554v12.109a1.554,1.554,0,0,0,3.109,0v-12.109A1.554,1.554,0,0,0,1010.127,4885.778Z" transform="translate(-955.012 -4885.778)" fill="#4d5c7d"/>
          <g id="Grupo_56564" data-name="Grupo 56564" transform="translate(28.533 35.472)">
            <g id="Grupo_56563" data-name="Grupo 56563">
              <g id="Grupo_56562" data-name="Grupo 56562">
                <path id="Trazado_103910" data-name="Trazado 103910" d="M964.739,4972.069a1.793,1.793,0,0,1-3.064-1.265v-16.764a1.793,1.793,0,0,1,3.064-1.265l7.924,7.964a2.384,2.384,0,0,1,0,3.364Z" transform="translate(-961.675 -4952.248)" fill="#344154"/>
              </g>
            </g>
          </g>
        </g>
      </g>
    </g>
  </g>
</svg>
