<svg id="Grupo_53777" data-name="Grupo 53777" xmlns="http://www.w3.org/2000/svg" width="79.311" height="79.311" viewBox="0 0 79.311 79.311">
  <g id="Grupo_20664" data-name="Grupo 20664" transform="translate(0 0)">
    <path id="Trazado_99077" data-name="Trazado 99077" d="M39.655,0A39.655,39.655,0,1,1,0,39.655,39.655,39.655,0,0,1,39.655,0Z" fill="#d9a171"/>
    <path id="Trazado_106444" data-name="Trazado 106444" d="M4,32a34.168,34.168,0,0,1,1.245-5.376,37.5,37.5,0,0,1,1.926-4.8,66.321,66.321,0,0,1,3.406-5.962H1.436V10.994H16.8v3.691a69.155,69.155,0,0,0-3.171,6.24,44.691,44.691,0,0,0-1.86,5.208A47.754,47.754,0,0,0,10.488,32Z" transform="translate(30 17.665)" fill="#fff"/>
  </g>
</svg>
