<svg id="Grupo_53779" data-name="Grupo 53779" xmlns="http://www.w3.org/2000/svg" width="79.311" height="79.311" viewBox="0 0 79.311 79.311">
  <g id="Grupo_20664" data-name="Grupo 20664" transform="translate(0 0)">
    <path id="Trazado_99077" data-name="Trazado 99077" d="M39.655,0A39.655,39.655,0,1,1,0,39.655,39.655,39.655,0,0,1,39.655,0Z" fill="#d9a171"/>
    <path id="Trazado_106446" data-name="Trazado 106446" d="M16.714,20.633q0,5.508-2.563,8.621a8.667,8.667,0,0,1-7.075,3.113,12.934,12.934,0,0,1-4.819-.82V26.727a5.646,5.646,0,0,0,1.809.754,8.505,8.505,0,0,0,2.146.315A4.438,4.438,0,0,0,9.573,26.58a5.072,5.072,0,0,0,1.194-3.574h-.088a4.792,4.792,0,0,1-4.014,1.758,5.356,5.356,0,0,1-2.878-.813A5.574,5.574,0,0,1,1.736,21.68,7.262,7.262,0,0,1,1,18.348a8.264,8.264,0,0,1,.974-4.072,6.6,6.6,0,0,1,2.754-2.7,8.655,8.655,0,0,1,4.094-.937,7.347,7.347,0,0,1,4.233,1.245A7.556,7.556,0,0,1,15.8,15.345,13.8,13.8,0,0,1,16.714,20.633Zm-6.182-2.739a3.31,3.31,0,0,0-.483-1.824,1.471,1.471,0,0,0-1.289-.754,1.623,1.623,0,0,0-1.311.637,3.086,3.086,0,0,0-.52,1.97,2.985,2.985,0,0,0,.513,1.89,1.582,1.582,0,0,0,1.289.645,1.5,1.5,0,0,0,1.34-.71A3.351,3.351,0,0,0,10.532,17.894Z" transform="translate(30 17.665)" fill="#fff"/>
  </g>
</svg>
