<svg xmlns="http://www.w3.org/2000/svg" width="79.739" height="90.134" viewBox="0 0 79.739 90.134">
  <g id="Grupo_56592" data-name="Grupo 56592" transform="translate(-239.887 -221.202)">
    <g id="Grupo_56591" data-name="Grupo 56591" transform="translate(239.887 221.202)">
      <g id="Grupo_56587" data-name="Grupo 56587">
        <g id="Grupo_56577" data-name="Grupo 56577">
          <g id="Grupo_56576" data-name="Grupo 56576">
            <g id="Grupo_56575" data-name="Grupo 56575">
              <g id="Grupo_56574" data-name="Grupo 56574">
                <g id="Grupo_56573" data-name="Grupo 56573">
                  <g id="Grupo_56572" data-name="Grupo 56572">
                    <g id="Grupo_56571" data-name="Grupo 56571">
                      <g id="Grupo_56570" data-name="Grupo 56570">
                        <g id="Grupo_56569" data-name="Grupo 56569">
                          <g id="Grupo_56568" data-name="Grupo 56568">
                            <path id="Trazado_103911" data-name="Trazado 103911" d="M293.117,299.641v-63.4a5.7,5.7,0,0,1-4.446-5.556v-8.474a.675.675,0,0,0-.384-.616,4.24,4.24,0,0,0-1.78-.391H245.491a5.6,5.6,0,0,0-5.6,5.6V299a5.6,5.6,0,0,0,5.6,5.6h44.722a5.694,5.694,0,0,0,2.9-4.965Z" transform="translate(-239.887 -221.202)" fill="#dfedfa"/>
                            <path id="Trazado_103912" data-name="Trazado 103912" d="M302.637,239.587a5.614,5.614,0,0,1-1.228-.137v62.412a5.6,5.6,0,0,1-5.6,5.6h11.147a5.6,5.6,0,0,0,5.6-5.6V241.346a4.237,4.237,0,0,0-.383-1.759Z" transform="translate(-248.653 -224.063)" fill="#e7ecf1"/>
                            <path id="Trazado_103913" data-name="Trazado 103913" d="M311.541,235.553,298.5,222.517a4.24,4.24,0,0,0-1.244-.861v9.536a5.6,5.6,0,0,0,5.6,5.6H312.4A4.245,4.245,0,0,0,311.541,235.553Z" transform="translate(-248.882 -221.273)" fill="#6595bf"/>
                          </g>
                        </g>
                      </g>
                    </g>
                  </g>
                </g>
              </g>
            </g>
          </g>
        </g>
        <g id="Grupo_56586" data-name="Grupo 56586" transform="translate(10.627 45.888)">
          <g id="Grupo_56584" data-name="Grupo 56584" transform="translate(3.108 3.649)">
            <g id="Grupo_56583" data-name="Grupo 56583">
              <g id="Grupo_56579" data-name="Grupo 56579">
                <g id="Grupo_56578" data-name="Grupo 56578">
                  <path id="Trazado_103914" data-name="Trazado 103914" d="M290.043,288.493l1.025-1.729-4.05-2.4c-2.672-1.534-3.921-1.817-6.332-.885l-2.627,1.015a5.6,5.6,0,0,1-4.867-.4l-7.031-4.146-9.986,16.857,9,5.314a5.578,5.578,0,0,1,1.578,1.4l3.034,3.934a34.942,34.942,0,0,0,7.353,5.817l3.151,1.867A3.731,3.731,0,0,0,282.366,311a.739.739,0,0,1,1.1-.781l1.267.75a3.809,3.809,0,0,0,5.181-1.2,3.742,3.742,0,0,0-.2-4.229.149.149,0,0,1,.194-.218l1.541.92a3.745,3.745,0,0,0,4.972-5.377.172.172,0,0,1,.228-.25l1.962,1.163a3.833,3.833,0,0,0,4.706-.578,4.533,4.533,0,0,0,.979-1.754l-13.493-7.99a2.162,2.162,0,0,1-.757-2.961Z" transform="translate(-256.175 -279.949)" fill="#b78876"/>
                </g>
                <path id="Trazado_103915" data-name="Trazado 103915" d="M315.222,306.892l-6.9-4.085a3.692,3.692,0,0,1-.922,1.658,3.814,3.814,0,0,1-4.311.782l-2.731-1.618a1.36,1.36,0,1,0-1.387,2.341l2.1,1.245a3.749,3.749,0,0,1-5.094,2.518l-2.229-1.32a1.36,1.36,0,1,0-1.387,2.341l2.084,1.235a3.767,3.767,0,0,1-.444,1.046,3.811,3.811,0,0,1-5.182,1.2l-1.266-.75a.74.74,0,0,0-1.1.781,3.73,3.73,0,0,1-2.2,4.187l8.8,5.212a3.285,3.285,0,0,0,4.51-1.138,3.216,3.216,0,0,0-1.159-4.354l3.545,2.1a3.285,3.285,0,0,0,4.51-1.138,3.215,3.215,0,0,0-1.159-4.354l2.339,1.385a3.285,3.285,0,0,0,4.51-1.138,3.216,3.216,0,0,0-1.159-4.354l2.879,1.706a3.285,3.285,0,0,0,4.51-1.138,3.216,3.216,0,0,0-1.159-4.353Z" transform="translate(-260.577 -283.533)" fill="#aa6550"/>
              </g>
              <path id="Trazado_103916" data-name="Trazado 103916" d="M319.028,288.938l-4.618-7.795-5.4,3.139a5.593,5.593,0,0,1-4.866.4l-2.963-1.164a4.763,4.763,0,0,0-2.909-.184l-4.539,1.148a4.761,4.761,0,0,0-3.593,4.616v6.059a1.554,1.554,0,0,0,1.551,1.554,4.675,4.675,0,0,0,4.678-4.675v-.257l8.854,5.243Z" transform="translate(-261.5 -280.136)" fill="#ffbf9d"/>
              <g id="Grupo_56580" data-name="Grupo 56580" transform="translate(43.12 8.275)">
                <path id="Trazado_103917" data-name="Trazado 103917" d="M321.408,289.763l-14.1,8.26,11.178,6.618a5.618,5.618,0,0,1,1.226-.984l7.372-4.307Z" transform="translate(-307.312 -289.763)" fill="#ff9a6c"/>
              </g>
              <g id="Grupo_56582" data-name="Grupo 56582" transform="translate(5.299 20.649)">
                <g id="Grupo_56581" data-name="Grupo 56581">
                  <path id="Trazado_103918" data-name="Trazado 103918" d="M270.109,309.528l-1.821,2.537a3.216,3.216,0,0,1-5.225-3.751l1.822-2.537a3.215,3.215,0,1,1,5.224,3.751Z" transform="translate(-262.459 -304.437)" fill="#ffbf9d"/>
                  <path id="Trazado_103919" data-name="Trazado 103919" d="M278.315,310.655l-3.832,5.338a3.216,3.216,0,1,1-5.225-3.751l3.832-5.338a3.216,3.216,0,1,1,5.225,3.751Z" transform="translate(-263.431 -304.614)" fill="#ffbf9d"/>
                  <path id="Trazado_103920" data-name="Trazado 103920" d="M284.511,315.1l-3.832,5.338a3.216,3.216,0,0,1-5.225-3.751l3.832-5.337a3.216,3.216,0,0,1,5.225,3.75Z" transform="translate(-264.402 -305.311)" fill="#ffbf9d"/>
                </g>
                <path id="Trazado_103921" data-name="Trazado 103921" d="M289.164,322.364l-1.274,1.775a3.216,3.216,0,1,1-5.225-3.751l1.274-1.775a3.216,3.216,0,0,1,5.225,3.751Z" transform="translate(-265.532 -306.45)" fill="#ff9a6c"/>
              </g>
            </g>
          </g>
          <g id="Grupo_56585" data-name="Grupo 56585">
            <path id="Trazado_103922" data-name="Trazado 103922" d="M269.347,277.518l-2.816-1.669a1.63,1.63,0,0,0-2.234.572l-11.579,19.546a1.63,1.63,0,0,0,.572,2.234l2.816,1.669a3.976,3.976,0,0,0,5.447-1.395l9.189-15.509A3.976,3.976,0,0,0,269.347,277.518Z" transform="translate(-252.489 -275.622)" fill="#344154"/>
            <path id="Trazado_103923" data-name="Trazado 103923" d="M316.913,275.85l-2.816,1.669a3.975,3.975,0,0,0-1.394,5.447l9.189,15.509a3.976,3.976,0,0,0,5.447,1.395l2.816-1.669a1.63,1.63,0,0,0,.572-2.234l-11.579-19.546a1.631,1.631,0,0,0-2.235-.572Z" transform="translate(-261.842 -275.622)" fill="#6595bf"/>
          </g>
        </g>
      </g>
      <g id="Grupo_56588" data-name="Grupo 56588" transform="translate(8.346 23.643)">
        <path id="Trazado_103924" data-name="Trazado 103924" d="M295.634,251.962H251.146a1.361,1.361,0,1,1,0-2.721h44.488a1.361,1.361,0,1,1,0,2.721Z" transform="translate(-249.785 -249.241)" fill="#6595bf"/>
      </g>
      <g id="Grupo_56589" data-name="Grupo 56589" transform="translate(8.346 14.164)">
        <path id="Trazado_103925" data-name="Trazado 103925" d="M273.39,240.72H251.146a1.361,1.361,0,1,1,0-2.721H273.39a1.361,1.361,0,0,1,0,2.721Z" transform="translate(-249.785 -237.999)" fill="#6595bf"/>
      </g>
      <g id="Grupo_56590" data-name="Grupo 56590" transform="translate(8.346 32.043)">
        <path id="Trazado_103926" data-name="Trazado 103926" d="M295.634,261.923H251.146a1.361,1.361,0,1,1,0-2.721h44.488a1.361,1.361,0,1,1,0,2.721Z" transform="translate(-249.785 -259.202)" fill="#6595bf"/>
      </g>
    </g>
  </g>
</svg>
