<svg xmlns="http://www.w3.org/2000/svg" width="79.311" height="79.311" viewBox="0 0 79.311 79.311">
  <g id="Grupo_59434" data-name="Grupo 59434" transform="translate(-292 -8107.741)">
    <g id="Grupo_53353" data-name="Grupo 53353" transform="translate(292 8107.741)">
      <g id="Grupo_20664" data-name="Grupo 20664" transform="translate(0 0)">
        <path id="Trazado_99077" data-name="Trazado 99077" d="M39.655,0A39.655,39.655,0,1,1,0,39.655,39.655,39.655,0,0,1,39.655,0Z" fill="#d9a171"/>
        <path id="Trazado_106440" data-name="Trazado 106440" d="M15.82,25.994a5.563,5.563,0,0,1-2.2,4.7,10.222,10.222,0,0,1-6.284,1.67,17.813,17.813,0,0,1-3.018-.256,12.91,12.91,0,0,1-2.563-.681V26.536A8.768,8.768,0,0,0,4,27.459a9.825,9.825,0,0,0,2.549.337,4.112,4.112,0,0,0,2.292-.535,1.733,1.733,0,0,0,.8-1.531,1.757,1.757,0,0,0-.981-1.582,5.474,5.474,0,0,0-2.739-.571H3.9v-4.6H5.684A4.884,4.884,0,0,0,8.3,18.428,1.649,1.649,0,0,0,9.141,17,1.566,1.566,0,0,0,8.5,15.682,3.23,3.23,0,0,0,6.548,15.2,8.1,8.1,0,0,0,2.476,16.37V11.7a13.885,13.885,0,0,1,5.361-1.055A9.218,9.218,0,0,1,13.3,12.063,4.582,4.582,0,0,1,15.278,16a5.123,5.123,0,0,1-1.062,3.3,5,5,0,0,1-2.981,1.743v.073a5.415,5.415,0,0,1,3.354,1.619A4.612,4.612,0,0,1,15.82,25.994Z" transform="translate(30 17.665)" fill="#fff"/>
      </g>
    </g>
  </g>
</svg>
