<svg xmlns="http://www.w3.org/2000/svg" width="79.311" height="79.311" viewBox="0 0 79.311 79.311">
  <g id="Grupo_59435" data-name="Grupo 59435" transform="translate(-1230.508 -8329.126)">
    <g id="Grupo_53354" data-name="Grupo 53354" transform="translate(1230.508 8329.126)">
      <g id="Grupo_20664" data-name="Grupo 20664" transform="translate(0 0)">
        <path id="Trazado_99078" data-name="Trazado 99078" d="M39.655,0A39.655,39.655,0,1,1,0,39.655,39.655,39.655,0,0,1,39.655,0Z" fill="#d9a171"/>
        <path id="Trazado_106441" data-name="Trazado 106441" d="M15.059,10.994V24.236h2.974V28.4H15.044V32H9.551V28.4H.659V24.075A56.936,56.936,0,0,0,5.325,17.82,48.945,48.945,0,0,0,9.1,10.994ZM9.536,24.236V18.084A33.955,33.955,0,0,1,5.83,24.236Z" transform="translate(29.492 17.86)" fill="#fff"/>
      </g>
    </g>
  </g>
</svg>
