<svg id="Grupo_53776" data-name="Grupo 53776" xmlns="http://www.w3.org/2000/svg" width="79.311" height="79.311" viewBox="0 0 79.311 79.311">
  <g id="Grupo_20664" data-name="Grupo 20664" transform="translate(0 0)">
    <path id="Trazado_99078" data-name="Trazado 99078" d="M39.655,0A39.655,39.655,0,1,1,0,39.655,39.655,39.655,0,0,1,39.655,0Z" fill="#6595bf"/>
    <path id="Trazado_106454" data-name="Trazado 106454" d="M17.095,24.734a7.8,7.8,0,0,1-.974,3.86,7,7,0,0,1-2.754,2.747,7.944,7.944,0,0,1-3.948,1,7.2,7.2,0,0,1-5.933-2.563q-2.08-2.563-2.08-7.251a14.937,14.937,0,0,1,1.26-6.292A9.339,9.339,0,0,1,6.2,12.063a10.018,10.018,0,0,1,5.413-1.421,11.382,11.382,0,0,1,3.867.542v4.893a6.486,6.486,0,0,0-3.428-.879A4.3,4.3,0,0,0,8.8,16.509a5.3,5.3,0,0,0-1.384,3.464H7.5a5.165,5.165,0,0,1,4.233-1.8,4.738,4.738,0,0,1,3.918,1.816A7.4,7.4,0,0,1,17.095,24.734Zm-5.933.278a3.24,3.24,0,0,0-.447-1.824,1.52,1.52,0,0,0-1.355-.667,1.513,1.513,0,0,0-1.333.7A3.325,3.325,0,0,0,7.559,25.1a3.107,3.107,0,0,0,.505,1.831,1.554,1.554,0,0,0,2.615.007A3.378,3.378,0,0,0,11.162,25.013Z" transform="translate(29.492 17.86)" fill="#fff"/>
  </g>
</svg>
