<svg xmlns="http://www.w3.org/2000/svg" width="106.731" height="106.731" viewBox="0 0 106.731 106.731">
  <g id="Grupo_59428" data-name="Grupo 59428" transform="translate(-586 -5086.269)">
    <g id="Grupo_56550" data-name="Grupo 56550" transform="translate(586 5086.269)">
      <rect id="Rectángulo_5534" data-name="Rectángulo 5534" width="106.731" height="106.731" fill="#5e6178" opacity="0"/>
      <g id="surface1" transform="translate(9.396 10.309)">
        <path id="Trazado_103838" data-name="Trazado 103838" d="M726.741,4916.147a43.969,43.969,0,1,1-43.969-43.969A43.969,43.969,0,0,1,726.741,4916.147Z" transform="translate(-638.803 -4872.178)" fill="#aed3f2"/>
        <g id="Grupo_56549" data-name="Grupo 56549" transform="translate(10.722 7.258)">
          <path id="Trazado_103839" data-name="Trazado 103839" d="M719.32,4897.878h-52.1a8.324,8.324,0,0,0-8.324,8.324V4954.7a8.324,8.324,0,0,0,8.324,8.324h52.1a8.324,8.324,0,0,0,8.324-8.324V4906.2a8.324,8.324,0,0,0-8.324-8.324Z" transform="translate(-658.895 -4891.42)" fill="#ebf0f3"/>
          <path id="Trazado_103840" data-name="Trazado 103840" d="M727.644,4911.1v-10.086a8.324,8.324,0,0,0-8.324-8.324h-52.1a8.324,8.324,0,0,0-8.324,8.324V4911.1Z" transform="translate(-658.895 -4889)" fill="#a66d58"/>
          <path id="Trazado_103841" data-name="Trazado 103841" d="M727.644,4915.4v-9.2a8.324,8.324,0,0,0-8.324-8.324h-52.1a8.324,8.324,0,0,0-8.324,8.324v9.2Z" transform="translate(-658.895 -4891.42)" fill="#d9a171"/>
          <path id="Trazado_103842" data-name="Trazado 103842" d="M681.906,4906.255a2.905,2.905,0,1,0,2.9,2.905A2.905,2.905,0,0,0,681.906,4906.255Z" transform="translate(-668.271 -4895.327)" fill="#d15241"/>
          <path id="Trazado_103843" data-name="Trazado 103843" d="M683.087,4885.778a1.554,1.554,0,0,0-1.555,1.554v12.109a1.554,1.554,0,0,0,3.109,0v-12.109A1.554,1.554,0,0,0,683.087,4885.778Z" transform="translate(-669.452 -4885.778)" fill="#4d5c7d"/>
          <path id="Trazado_103844" data-name="Trazado 103844" d="M707.815,4906.255a2.905,2.905,0,1,0,2.905,2.905A2.905,2.905,0,0,0,707.815,4906.255Z" transform="translate(-680.354 -4895.327)" fill="#d15241"/>
          <path id="Trazado_103845" data-name="Trazado 103845" d="M709,4885.778a1.554,1.554,0,0,0-1.554,1.554v12.109a1.554,1.554,0,0,0,3.109,0v-12.109A1.555,1.555,0,0,0,709,4885.778Z" transform="translate(-681.535 -4885.778)" fill="#4d5c7d"/>
          <path id="Trazado_103846" data-name="Trazado 103846" d="M733.724,4906.255a2.905,2.905,0,1,0,2.905,2.905A2.906,2.906,0,0,0,733.724,4906.255Z" transform="translate(-692.436 -4895.327)" fill="#d15241"/>
          <path id="Trazado_103847" data-name="Trazado 103847" d="M734.905,4885.778a1.554,1.554,0,0,0-1.554,1.554v12.109a1.554,1.554,0,0,0,3.109,0v-12.109A1.554,1.554,0,0,0,734.905,4885.778Z" transform="translate(-693.617 -4885.778)" fill="#4d5c7d"/>
          <path id="Trazado_103848" data-name="Trazado 103848" d="M759.634,4906.255a2.905,2.905,0,1,0,2.9,2.905A2.905,2.905,0,0,0,759.634,4906.255Z" transform="translate(-704.519 -4895.327)" fill="#d15241"/>
          <path id="Trazado_103849" data-name="Trazado 103849" d="M760.814,4885.778a1.554,1.554,0,0,0-1.554,1.554v12.109a1.554,1.554,0,0,0,3.109,0v-12.109A1.554,1.554,0,0,0,760.814,4885.778Z" transform="translate(-705.7 -4885.778)" fill="#4d5c7d"/>
          <g id="Grupo_56548" data-name="Grupo 56548" transform="translate(13.635 35.48)">
            <path id="Trazado_103850" data-name="Trazado 103850" d="M706.43,4952.262h6.283v6.283H706.43Z" transform="translate(-694.698 -4952.262)" fill="#d9a171"/>
            <path id="Trazado_103851" data-name="Trazado 103851" d="M728.414,4952.262H734.7v6.283h-6.283Z" transform="translate(-704.95 -4952.262)" fill="#d9a171"/>
            <path id="Trazado_103852" data-name="Trazado 103852" d="M750.4,4952.262h6.283v6.283H750.4Z" transform="translate(-715.202 -4952.262)" fill="#344154"/>
            <path id="Trazado_103853" data-name="Trazado 103853" d="M684.445,4970.72h6.283V4977h-6.283Z" transform="translate(-684.445 -4960.87)" fill="#344154"/>
            <path id="Trazado_103854" data-name="Trazado 103854" d="M706.43,4970.72h6.283V4977H706.43Z" transform="translate(-694.698 -4960.87)" fill="#344154"/>
            <path id="Trazado_103855" data-name="Trazado 103855" d="M728.414,4970.72H734.7V4977h-6.283Z" transform="translate(-704.95 -4960.87)" fill="#344154"/>
            <path id="Trazado_103856" data-name="Trazado 103856" d="M750.4,4970.72h6.283V4977H750.4Z" transform="translate(-715.202 -4960.87)" fill="#d9a171"/>
            <path id="Trazado_103857" data-name="Trazado 103857" d="M684.445,4989.178h6.283v6.283h-6.283Z" transform="translate(-684.445 -4969.478)" fill="#d9a171"/>
            <path id="Trazado_103858" data-name="Trazado 103858" d="M706.43,4989.178h6.283v6.283H706.43Z" transform="translate(-694.698 -4969.478)" fill="#d9a171"/>
            <path id="Trazado_103859" data-name="Trazado 103859" d="M728.414,4989.178H734.7v6.283h-6.283Z" transform="translate(-704.95 -4969.478)" fill="#d9a171"/>
          </g>
        </g>
      </g>
    </g>
  </g>
</svg>
