<svg id="Grupo_53780" data-name="Grupo 53780" xmlns="http://www.w3.org/2000/svg" width="79.311" height="79.311" viewBox="0 0 79.311 79.311">
  <g id="Grupo_20664" data-name="Grupo 20664" transform="translate(0 0)">
    <path id="Trazado_99078" data-name="Trazado 99078" d="M39.655,0A39.655,39.655,0,1,1,0,39.655,39.655,39.655,0,0,1,39.655,0Z" fill="#d9a171"/>
    <path id="Trazado_106447" data-name="Trazado 106447" d="M5.786,32V16.883a9.218,9.218,0,0,1-2.124.916,14.633,14.633,0,0,1-2.49.461V13.572A16.454,16.454,0,0,0,4.856,12.51,19.011,19.011,0,0,0,8.35,10.525h3.677V32ZM31.538,21.321q0,5.405-2.058,8.225a6.978,6.978,0,0,1-6.013,2.82,7.153,7.153,0,0,1-6.042-2.593q-2-2.593-2-8.027t2.161-8.276a7.387,7.387,0,0,1,6.248-2.827Q31.538,10.643,31.538,21.321Zm-6.152,0a17.787,17.787,0,0,0-.439-4.629Q24.507,15.2,23.525,15.2q-1.919,0-1.919,6.416a17.85,17.85,0,0,0,.447,4.666Q22.5,27.8,23.467,27.8,25.386,27.8,25.386,21.321Z" transform="translate(22.155 21.155)" fill="#fff"/>
  </g>
</svg>
