<svg xmlns="http://www.w3.org/2000/svg" xmlns:xlink="http://www.w3.org/1999/xlink" width="300" height="300" viewBox="0 0 300 300">
  <defs>
    <clipPath id="clip-path">
      <path id="SVGID" d="M477.829,5530.88s7.492,15.991,7.492,16.835-6.648,4.46-7.914,5.22a30.73,30.73,0,0,1-3.032,1.512l.76,7.408s11.446-2.61,16.243-5.22,4.629-5.558,3.518-9.933-8.505-21.288-8.505-21.288Z" fill="none"/>
    </clipPath>
    <clipPath id="clip-path-2">
      <path id="SVGID-2" data-name="SVGID" d="M423.772,5527.349s-5.466,20.028-5.627,23.567S429,5561.433,429.4,5561.855s-.626-12.17-.626-12.17l3.736-18.291Z" fill="none"/>
    </clipPath>
    <clipPath id="clip-path-3">
      <path id="SVGID-3" data-name="SVGID" d="M441.282,5494.27s2.188,7.739,6.332,12.29,5.628,5.628,7.83,5.3,4.544-3.194,7.823-9.146a36.767,36.767,0,0,0,3.792-10.939c.274-.422-.7-8.836-5.389-12.459s-9.934-5.213-14.478-1.259S439.763,5488.459,441.282,5494.27Z" fill="none"/>
    </clipPath>
  </defs>
  <g id="Grupo_56501" data-name="Grupo 56501" transform="translate(-306.37 -5400.546)">
    <rect id="Rectángulo_5497" data-name="Rectángulo 5497" width="300" height="300" transform="translate(306.37 5400.546)" fill="#aed3f2" opacity="0"/>
    <g id="Grupo_56500" data-name="Grupo 56500">
      <rect id="Rectángulo_5498" data-name="Rectángulo 5498" width="300" height="300" transform="translate(306.37 5400.546)" fill="#aed3f2" opacity="0"/>
      <g id="Grupo_56499" data-name="Grupo 56499">
        <g id="freepik--background-simple--inject-1--inject-91">
          <path id="Trazado_103551" data-name="Trazado 103551" d="M577.423,5525.182c1.076-29.139-9.392-58.63-32.466-72.664-11.39-6.93-24.707-10.989-38.031-10.391-14.295.64-27.753,6.458-41.232,11.256s-28.077,8.632-41.971,5.227c-10.053-2.462-18.9-8.548-28.843-11.319-39.192-10.912-73.318,33.556-54.141,68.907,4.706,8.667,11.959,15.618,18.059,23.377s11.213,17.13,10.39,26.958c-.7,8.14-5.318,15.386-7.239,23.321-3.672,15.2,3.616,31.925,16.216,41.19s29.6,11.425,44.791,7.612,28.562-13.142,39.094-24.693c5.628-6.191,11.143-13.423,19.24-15.526,7.774-2.012,15.787,1.266,23.673,2.772a54.516,54.516,0,0,0,42.048-9.568C566.041,5577.564,576.452,5551.514,577.423,5525.182Z" fill="#aed3f2"/>
        </g>
        <g id="freepik--Shadow--inject-1--inject-91">
          <ellipse id="Elipse_4138" data-name="Elipse 4138" cx="95.12" cy="19.023" rx="95.12" ry="19.023" transform="translate(356.954 5648.54)" fill="#d9a171"/>
          <ellipse id="Elipse_4139" data-name="Elipse 4139" cx="95.12" cy="19.023" rx="95.12" ry="19.023" transform="translate(356.954 5648.54)" fill="#fff" opacity="0.5" style="isolation: isolate"/>
        </g>
        <g id="freepik--graphics-2--inject-1--inject-91">
          <rect id="Rectángulo_5499" data-name="Rectángulo 5499" width="77.068" height="84.089" rx="4.242" transform="translate(480.228 5414.508)" fill="#fff" stroke="#263238" stroke-linecap="round" stroke-linejoin="round" stroke-width="1"/>
          <path id="Trazado_103552" data-name="Trazado 103552" d="M484.47,5414.508h68.577a4.221,4.221,0,0,1,4.221,4.221v4.4h-77.04v-4.383a4.221,4.221,0,0,1,4.2-4.242Z" fill="#344154" stroke="#263238" stroke-linecap="round" stroke-linejoin="round" stroke-width="1"/>
          <line id="Línea_248" data-name="Línea 248" x2="31.01" transform="translate(484.428 5459.405)" fill="none" stroke="#263238" stroke-linecap="round" stroke-linejoin="round" stroke-width="1"/>
          <line id="Línea_249" data-name="Línea 249" x2="31.01" transform="translate(484.428 5463.408)" fill="none" stroke="#263238" stroke-linecap="round" stroke-linejoin="round" stroke-width="1"/>
          <line id="Línea_250" data-name="Línea 250" x2="31.01" transform="translate(484.428 5467.411)" fill="none" stroke="#263238" stroke-linecap="round" stroke-linejoin="round" stroke-width="1"/>
          <line id="Línea_251" data-name="Línea 251" x2="31.01" transform="translate(484.428 5471.414)" fill="none" stroke="#263238" stroke-linecap="round" stroke-linejoin="round" stroke-width="1"/>
          <line id="Línea_252" data-name="Línea 252" x2="31.01" transform="translate(484.428 5475.417)" fill="none" stroke="#263238" stroke-linecap="round" stroke-linejoin="round" stroke-width="1"/>
          <line id="Línea_253" data-name="Línea 253" x2="31.01" transform="translate(484.428 5479.426)" fill="none" stroke="#263238" stroke-linecap="round" stroke-linejoin="round" stroke-width="1"/>
          <line id="Línea_254" data-name="Línea 254" x2="31.01" transform="translate(484.428 5483.429)" fill="none" stroke="#263238" stroke-linecap="round" stroke-linejoin="round" stroke-width="1"/>
          <line id="Línea_255" data-name="Línea 255" x2="31.01" transform="translate(484.428 5487.432)" fill="none" stroke="#263238" stroke-linecap="round" stroke-linejoin="round" stroke-width="1"/>
          <line id="Línea_256" data-name="Línea 256" x2="31.01" transform="translate(484.428 5491.435)" fill="none" stroke="#263238" stroke-linecap="round" stroke-linejoin="round" stroke-width="1"/>
          <line id="Línea_257" data-name="Línea 257" x2="31.01" transform="translate(520.89 5459.405)" fill="none" stroke="#263238" stroke-linecap="round" stroke-linejoin="round" stroke-width="1"/>
          <line id="Línea_258" data-name="Línea 258" x2="31.01" transform="translate(520.89 5463.408)" fill="none" stroke="#263238" stroke-linecap="round" stroke-linejoin="round" stroke-width="1"/>
          <line id="Línea_259" data-name="Línea 259" x2="31.01" transform="translate(520.89 5467.411)" fill="none" stroke="#263238" stroke-linecap="round" stroke-linejoin="round" stroke-width="1"/>
          <line id="Línea_260" data-name="Línea 260" x2="31.01" transform="translate(520.89 5471.414)" fill="none" stroke="#263238" stroke-linecap="round" stroke-linejoin="round" stroke-width="1"/>
          <line id="Línea_261" data-name="Línea 261" x2="31.01" transform="translate(520.89 5475.417)" fill="none" stroke="#263238" stroke-linecap="round" stroke-linejoin="round" stroke-width="1"/>
          <line id="Línea_262" data-name="Línea 262" x2="31.01" transform="translate(520.89 5479.426)" fill="none" stroke="#263238" stroke-linecap="round" stroke-linejoin="round" stroke-width="1"/>
          <line id="Línea_263" data-name="Línea 263" x2="31.01" transform="translate(520.89 5483.429)" fill="none" stroke="#263238" stroke-linecap="round" stroke-linejoin="round" stroke-width="1"/>
          <line id="Línea_264" data-name="Línea 264" x2="31.01" transform="translate(520.89 5487.432)" fill="none" stroke="#263238" stroke-linecap="round" stroke-linejoin="round" stroke-width="1"/>
          <line id="Línea_265" data-name="Línea 265" x2="31.01" transform="translate(520.89 5491.435)" fill="none" stroke="#263238" stroke-linecap="round" stroke-linejoin="round" stroke-width="1"/>
          <path id="Trazado_103553" data-name="Trazado 103553" d="M505.167,5434.058a4.961,4.961,0,0,0,.239-1.47c0-1.822-1.85-1.928-3.665-1.928h-.457v-.429H509.2v.429c-2.061,0-2.814,1.316-3.454,3.264l-4.221,12.6c-.317.935-.584,1.632-1.576,1.632h-.084l-3.715-12.037-3.454,10.433c-.324.936-.591,1.632-1.583,1.632h-.077l-5.4-17.524h-1.9v-.429h6.951v.429h-1.977l4.01,13.8h.162l3.025-9.167-1.407-4.6h-1.9v-.464h6.957v.429h-1.977l4.01,13.8h.155Z" fill="#d9a171"/>
          <rect id="Rectángulo_5500" data-name="Rectángulo 5500" width="31.911" height="28.843" transform="translate(520.208 5426.242)" fill="#d9a171" stroke="#263238" stroke-linecap="round" stroke-linejoin="round" stroke-width="2"/>
          <path id="Trazado_103554" data-name="Trazado 103554" d="M552.118,5438.3a19.656,19.656,0,0,0-3.179.443c-4.848,1.055-6.114,8.013-11.594,8.013-4.854,0-5.269-6.536-12.227-7.38a7.683,7.683,0,0,0-4.924.873v14.836h31.924Z" fill="#344154" stroke="#263238" stroke-linecap="round" stroke-linejoin="round" stroke-width="1"/>
          <path id="Trazado_103555" data-name="Trazado 103555" d="M530.809,5432.841a3.588,3.588,0,1,1-3.594-3.581h.014A3.58,3.58,0,0,1,530.809,5432.841Z" fill="#fff" stroke="#263238" stroke-linecap="round" stroke-linejoin="round" stroke-width="1"/>
          <rect id="Rectángulo_5501" data-name="Rectángulo 5501" width="71.032" height="2.737" transform="translate(482.543 5417.033)" fill="#fff" stroke="#263238" stroke-linecap="round" stroke-linejoin="round" stroke-width="1"/>
          <path id="Trazado_103556" data-name="Trazado 103556" d="M549.143,5515.375h-30.75a4.559,4.559,0,0,0-4.559,4.559h0v16.447a4.559,4.559,0,0,0,4.559,4.559h.942a17.33,17.33,0,0,1-5.747,7.267s6.24-.436,12.74-7.267h22.8a4.559,4.559,0,0,0,4.559-4.559h0v-16.447A4.558,4.558,0,0,0,549.143,5515.375Z" fill="#344154" stroke="#263238" stroke-linecap="round" stroke-linejoin="round" stroke-width="1"/>
          <path id="Trazado_103557" data-name="Trazado 103557" d="M528.481,5527.574a2.35,2.35,0,1,0-2.357,2.342h.014A2.35,2.35,0,0,0,528.481,5527.574Z" fill="#d9a171" stroke="#263238" stroke-linecap="round" stroke-linejoin="round" stroke-width="1"/>
          <path id="Trazado_103558" data-name="Trazado 103558" d="M536.451,5527.574a2.342,2.342,0,1,0-2.342,2.342h0A2.348,2.348,0,0,0,536.451,5527.574Z" fill="#d9a171" stroke="#263238" stroke-linecap="round" stroke-linejoin="round" stroke-width="1"/>
          <path id="Trazado_103559" data-name="Trazado 103559" d="M544.429,5527.574a2.35,2.35,0,1,0-2.357,2.342h.007A2.356,2.356,0,0,0,544.429,5527.574Z" fill="#d9a171" stroke="#263238" stroke-linecap="round" stroke-linejoin="round" stroke-width="1"/>
        </g>
        <g id="freepik--graphics-1--inject-1--inject-91">
          <path id="Trazado_103560" data-name="Trazado 103560" d="M380.043,5424.483H430.7a4.544,4.544,0,0,1,4.544,4.545h0v35.111H375.52v-35.111A4.544,4.544,0,0,1,380.043,5424.483Z" fill="#d9a171" stroke="#263238" stroke-linecap="round" stroke-linejoin="round" stroke-width="1"/>
          <rect id="Rectángulo_5502" data-name="Rectángulo 5502" width="59.692" height="5.642" transform="translate(375.52 5458.476)" fill="#344154" stroke="#263238" stroke-linecap="round" stroke-linejoin="round" stroke-width="1"/>
          <rect id="Rectángulo_5503" data-name="Rectángulo 5503" width="54.225" height="1.787" transform="translate(378.256 5460.404)" fill="#fff" stroke="#263238" stroke-linecap="round" stroke-linejoin="round" stroke-width="1"/>
          <circle id="Elipse_4140" data-name="Elipse 4140" cx="8.245" cy="8.245" r="8.245" transform="translate(397.124 5434.234)" fill="#344154" stroke="#263238" stroke-linecap="round" stroke-linejoin="round" stroke-width="1"/>
          <path id="Trazado_103561" data-name="Trazado 103561" d="M401.648,5437.35l8.9,5.136-8.9,5.135Z" fill="#fff" stroke="#263238" stroke-linecap="round" stroke-linejoin="round" stroke-width="1"/>
          <rect id="Rectángulo_5504" data-name="Rectángulo 5504" width="60.62" height="25.558" rx="1.984" transform="translate(350.757 5478.561)" fill="#344154" stroke="#263238" stroke-linecap="round" stroke-linejoin="round" stroke-width="1"/>
          <path id="Trazado_103562" data-name="Trazado 103562" d="M357.974,5482.043l.3.493a4.5,4.5,0,0,0-2.582,3.588,1.984,1.984,0,0,0,1.851,2.108l.042,0c.2,0,.33-.1.33-.295s-.1-.261-.3-.3a1.161,1.161,0,0,1-.852-1.238,1.612,1.612,0,0,1,1.649-1.573l.082,0a1.774,1.774,0,0,1,1.767,1.779v.05a2.217,2.217,0,0,1-2.242,2.191l-.08,0a2.644,2.644,0,0,1-2.81-2.469c-.006-.091-.007-.183,0-.274C355.1,5484.33,356.476,5482.9,357.974,5482.043Zm6.044,0,.295.493a4.485,4.485,0,0,0-2.582,3.588,1.977,1.977,0,0,0,1.837,2.107l.056,0c.2,0,.33-.1.33-.295s-.1-.261-.3-.3a1.161,1.161,0,0,1-.852-1.238,1.605,1.605,0,0,1,1.634-1.574l.1,0a1.774,1.774,0,0,1,1.767,1.779v.05a2.223,2.223,0,0,1-2.256,2.19l-.066,0a2.651,2.651,0,0,1-2.81-2.483,2.515,2.515,0,0,1,0-.26C361.14,5484.33,362.512,5482.9,364.018,5482.043Z" fill="#d9a171"/>
          <line id="Línea_266" data-name="Línea 266" x2="34.499" transform="translate(369.8 5487.249)" fill="none" stroke="#fff" stroke-linecap="round" stroke-linejoin="round" stroke-width="1"/>
          <line id="Línea_267" data-name="Línea 267" x2="34.499" transform="translate(369.8 5490.211)" fill="none" stroke="#fff" stroke-linecap="round" stroke-linejoin="round" stroke-width="1"/>
          <line id="Línea_268" data-name="Línea 268" x2="34.499" transform="translate(369.8 5493.173)" fill="none" stroke="#fff" stroke-linecap="round" stroke-linejoin="round" stroke-width="1"/>
          <line id="Línea_269" data-name="Línea 269" x2="34.499" transform="translate(369.8 5496.142)" fill="none" stroke="#fff" stroke-linecap="round" stroke-linejoin="round" stroke-width="1"/>
          <circle id="Elipse_4141" data-name="Elipse 4141" cx="13.064" cy="13.064" r="13.064" transform="translate(381.093 5520.064) rotate(-9.27)" fill="#344154" stroke="#263238" stroke-linecap="round" stroke-linejoin="round" stroke-width="1"/>
          <circle id="Elipse_4142" data-name="Elipse 4142" cx="11.024" cy="11.024" r="11.024" transform="translate(385.071 5519.844)" fill="#fff" stroke="#263238" stroke-linecap="round" stroke-linejoin="round" stroke-width="1"/>
          <path id="Trazado_103563" data-name="Trazado 103563" d="M396.1,5522.881v7.971h5.389" fill="none" stroke="#263238" stroke-linecap="round" stroke-linejoin="round" stroke-width="2"/>
        </g>
        <g id="freepik--Character--inject-1--inject-91">
          <path id="Trazado_103564" data-name="Trazado 103564" d="M477.829,5530.88s7.492,15.991,7.492,16.835-6.648,4.46-7.914,5.22a30.73,30.73,0,0,1-3.032,1.512l.76,7.408s11.446-2.61,16.243-5.22,4.629-5.558,3.518-9.933-8.505-21.288-8.505-21.288Z" fill="#ffbf9d"/>
          <g id="Grupo_56492" data-name="Grupo 56492">
            <g id="Grupo_56491" data-name="Grupo 56491" clip-path="url(#clip-path)">
              <g id="Grupo_56490" data-name="Grupo 56490">
                <path id="Trazado_103565" data-name="Trazado 103565" d="M491.357,5556.635c4.8-2.61,4.629-5.558,3.518-9.933s-8.505-21.288-8.505-21.288l-1.2.76-.38.7s6.9,16.94,7.316,22.582c.281,3.792-7.351,8.52-12.4,11.221C483.457,5559.688,488.55,5558.162,491.357,5556.635Z" fill="#d9a171" opacity="0.5" style="isolation: isolate"/>
              </g>
            </g>
          </g>
          <path id="Trazado_103566" data-name="Trazado 103566" d="M477.829,5530.88s7.492,15.991,7.492,16.835-6.648,4.46-7.914,5.22a30.73,30.73,0,0,1-3.032,1.512l.76,7.408s11.446-2.61,16.243-5.22,4.629-5.558,3.518-9.933-8.505-21.288-8.505-21.288Z" fill="none" stroke="#263238" stroke-linecap="round" stroke-linejoin="round" stroke-width="1"/>
          <path id="Trazado_103567" data-name="Trazado 103567" d="M423.772,5527.349s-5.466,20.028-5.627,23.567S429,5561.433,429.4,5561.855s-.626-12.17-.626-12.17l3.736-18.291Z" fill="#ffbf9d"/>
          <g id="Grupo_56495" data-name="Grupo 56495">
            <g id="Grupo_56494" data-name="Grupo 56494" clip-path="url(#clip-path-2)">
              <g id="Grupo_56493" data-name="Grupo 56493">
                <path id="Trazado_103568" data-name="Trazado 103568" d="M426.277,5528.988l-.12-.542-2.385-1.1s-5.466,20.029-5.627,23.568S429,5561.433,429.4,5561.855c.162.169.1-1.717-.035-4.045-3.278-2.779-7.984-6.69-8.533-8.337" fill="#d9a171" opacity="0.5" style="isolation: isolate"/>
              </g>
            </g>
          </g>
          <path id="Trazado_103569" data-name="Trazado 103569" d="M423.772,5527.349s-5.466,20.028-5.627,23.567S429,5561.433,429.4,5561.855s-.626-12.17-.626-12.17l3.736-18.291Z" fill="none" stroke="#263238" stroke-linecap="round" stroke-linejoin="round" stroke-width="1"/>
          <path id="Trazado_103570" data-name="Trazado 103570" d="M449.443,5507.229a12.131,12.131,0,0,1-6.226,1.688c-4.115.169-4.312-2.814-9.427-2.814-6.2,0-13.971,19.606-13.971,19.606a30.146,30.146,0,0,0,7.661,5.389,27.183,27.183,0,0,0,6.564,1.935l.59,12.881H476.38l.5-12.881,13.05-8.463s-6.4-11.446-9.511-15.738-8.336-2.694-9.933-1.6-6.332,1.35-8.077,1.1q-3.414-.757-6.739-1.85S452.982,5504.239,449.443,5507.229Z" fill="#d9a171" stroke="#263238" stroke-linecap="round" stroke-linejoin="round" stroke-width="1"/>
          <line id="Línea_270" data-name="Línea 270" x1="0.169" y2="21.379" transform="translate(434.297 5511.773)" fill="none" stroke="#263238" stroke-linecap="round" stroke-linejoin="round" stroke-width="0.5"/>
          <path id="Trazado_103571" data-name="Trazado 103571" d="M435.978,5513.715s.591,10.433,2.814,16.243" fill="none" stroke="#263238" stroke-linecap="round" stroke-linejoin="round" stroke-width="0.5"/>
          <path id="Trazado_103572" data-name="Trazado 103572" d="M439.179,5530.8a28.719,28.719,0,0,0,1.766,4.122" fill="none" stroke="#263238" stroke-linecap="round" stroke-linejoin="round" stroke-width="0.5"/>
          <path id="Trazado_103573" data-name="Trazado 103573" d="M437.322,5512.533a66.692,66.692,0,0,0,3.37,11.108" fill="none" stroke="#263238" stroke-linecap="round" stroke-linejoin="round" stroke-width="0.5"/>
          <path id="Trazado_103574" data-name="Trazado 103574" d="M473.608,5514.383s-2.019,8.252-3.792,11.96" fill="none" stroke="#263238" stroke-linecap="round" stroke-linejoin="round" stroke-width="0.5"/>
          <line id="Línea_271" data-name="Línea 271" x1="0.084" y1="16.666" transform="translate(476.795 5516.402)" fill="none" stroke="#263238" stroke-linecap="round" stroke-linejoin="round" stroke-width="0.5"/>
          <path id="Trazado_103575" data-name="Trazado 103575" d="M475.958,5516.74s-1.52,10.552-5.22,16.075" fill="none" stroke="#263238" stroke-linecap="round" stroke-linejoin="round" stroke-width="0.5"/>
          <path id="Trazado_103576" data-name="Trazado 103576" d="M474.108,5530.711s-1.689,3.2-2.864,4.882" fill="none" stroke="#263238" stroke-linecap="round" stroke-linejoin="round" stroke-width="0.5"/>
          <path id="Trazado_103577" data-name="Trazado 103577" d="M447.086,5508.5s1.182,7.239,2.864,10.939,4.629,4.46,7.154,3.37,4.376-6.486,4.221-13.367" fill="none" stroke="#263238" stroke-linecap="round" stroke-linejoin="round" stroke-width="0.5"/>
          <path id="Trazado_103578" data-name="Trazado 103578" d="M441.114,5493.341s-1.6-2.771-2.864-1.343,1.013,4.713,2.273,5.8,2.188.422,2.11-.753A13.759,13.759,0,0,0,441.114,5493.341Z" fill="#d9a171" stroke="#263238" stroke-linecap="round" stroke-linejoin="round" stroke-width="1"/>
          <path id="Trazado_103579" data-name="Trazado 103579" d="M441.114,5493.341s-1.6-2.771-2.864-1.343,1.013,4.713,2.273,5.8,2.188.422,2.11-.753A13.759,13.759,0,0,0,441.114,5493.341Z" fill="#fff" opacity="0.5" style="isolation: isolate"/>
          <path id="Trazado_103580" data-name="Trazado 103580" d="M441.114,5493.341s-1.6-2.771-2.864-1.343,1.013,4.713,2.273,5.8,2.188.422,2.11-.753A13.759,13.759,0,0,0,441.114,5493.341Z" fill="none" stroke="#263238" stroke-linecap="round" stroke-linejoin="round" stroke-width="1"/>
          <path id="Trazado_103581" data-name="Trazado 103581" d="M466.573,5493.341s1.6-2.771,2.863-1.343-1.013,4.713-2.272,5.8-2.2.422-2.11-.753A14,14,0,0,1,466.573,5493.341Z" fill="#d9a171" stroke="#263238" stroke-linecap="round" stroke-linejoin="round" stroke-width="1"/>
          <path id="Trazado_103582" data-name="Trazado 103582" d="M466.573,5493.341s1.6-2.771,2.863-1.343-1.013,4.713-2.272,5.8-2.2.422-2.11-.753A14,14,0,0,1,466.573,5493.341Z" fill="#fff" opacity="0.5" style="isolation: isolate"/>
          <path id="Trazado_103583" data-name="Trazado 103583" d="M466.573,5493.341s1.6-2.771,2.863-1.343-1.013,4.713-2.272,5.8-2.2.422-2.11-.753A14,14,0,0,1,466.573,5493.341Z" fill="none" stroke="#263238" stroke-linecap="round" stroke-linejoin="round" stroke-width="1"/>
          <path id="Trazado_103584" data-name="Trazado 103584" d="M448.683,5506.645a90.715,90.715,0,0,0,3.032,10.6c1.52,3.785,4.376,3.785,5.558,1.344s1.935-11.537,1.935-11.537S451.293,5508.157,448.683,5506.645Z" fill="#fff" stroke="#263238" stroke-linecap="round" stroke-linejoin="round" stroke-width="1"/>
          <path id="Trazado_103585" data-name="Trazado 103585" d="M441.282,5494.27s2.188,7.739,6.332,12.29,5.628,5.628,7.83,5.3,4.544-3.194,7.823-9.146a36.767,36.767,0,0,0,3.792-10.939c.274-.422-.7-8.836-5.389-12.459s-9.934-5.213-14.478-1.259S439.763,5488.459,441.282,5494.27Z" fill="#ffbf9d"/>
          <g id="Grupo_56498" data-name="Grupo 56498">
            <g id="Grupo_56497" data-name="Grupo 56497" clip-path="url(#clip-path-3)">
              <g id="Grupo_56496" data-name="Grupo 56496">
                <path id="Trazado_103586" data-name="Trazado 103586" d="M461.649,5479.286c-4.714-3.616-9.934-5.213-14.478-1.26s-7.408,10.433-5.889,16.244a36.257,36.257,0,0,0,1.239,3.518,2.649,2.649,0,0,1,.105-.767c1.006-3.187,3.975-9.357,13.965-6.529,7.935,2.237,6.964,9.216,6.226,12.938l.429-.774a36.655,36.655,0,0,0,3.791-10.94C467.312,5491.294,466.362,5482.909,461.649,5479.286Z" fill="#d9a171" opacity="0.5" style="isolation: isolate"/>
              </g>
            </g>
          </g>
          <path id="Trazado_103587" data-name="Trazado 103587" d="M441.282,5494.27s2.188,7.739,6.332,12.29,5.628,5.628,7.83,5.3,4.544-3.194,7.823-9.146a36.767,36.767,0,0,0,3.792-10.939c.274-.422-.7-8.836-5.389-12.459s-9.934-5.213-14.478-1.259S439.763,5488.459,441.282,5494.27Z" fill="none" stroke="#263238" stroke-linecap="round" stroke-linejoin="round" stroke-width="1"/>
          <path id="Trazado_103588" data-name="Trazado 103588" d="M455.423,5498.308a34.279,34.279,0,0,0-.422,4.967c.084,1.681.591,2.188-.169,2.357s-1.6-1.013-1.6-1.013" fill="none" stroke="#263238" stroke-linecap="round" stroke-linejoin="round" stroke-width="1"/>
          <path id="Trazado_103589" data-name="Trazado 103589" d="M447,5499.659a2.984,2.984,0,0,0,3.37.084" fill="none" stroke="#263238" stroke-linecap="round" stroke-linejoin="round" stroke-width="1"/>
          <path id="Trazado_103590" data-name="Trazado 103590" d="M457.7,5499.659a2.976,2.976,0,0,0,3.363.084" fill="none" stroke="#263238" stroke-linecap="round" stroke-linejoin="round" stroke-width="1"/>
          <path id="Trazado_103591" data-name="Trazado 103591" d="M452.377,5496.824s-1.6-3.961-6.9-2.111" fill="none" stroke="#263238" stroke-linecap="round" stroke-linejoin="round" stroke-width="1"/>
          <path id="Trazado_103592" data-name="Trazado 103592" d="M456.788,5496.338s1.343-3.876,6.141-1.6" fill="none" stroke="#263238" stroke-linecap="round" stroke-linejoin="round" stroke-width="1"/>
          <path id="Trazado_103593" data-name="Trazado 103593" d="M453.4,5499.947c0,2.167-2.484,3.919-5.551,3.919s-5.558-1.752-5.558-3.919,2.322-3.067,5.389-3.067S453.4,5497.788,453.4,5499.947Z" fill="none" stroke="#263238" stroke-linecap="round" stroke-linejoin="round" stroke-width="1"/>
          <path id="Trazado_103594" data-name="Trazado 103594" d="M466.193,5499.947c0,2.167-2.49,3.919-5.557,3.919s-5.551-1.752-5.551-3.919,2.315-3.067,5.382-3.067S466.193,5497.788,466.193,5499.947Z" fill="none" stroke="#263238" stroke-linecap="round" stroke-linejoin="round" stroke-width="1"/>
          <path id="Trazado_103595" data-name="Trazado 103595" d="M395.26,5567.434l-.345,85.285a1.014,1.014,0,0,0,1.013,1.013h0a1.006,1.006,0,0,0,1.006-.978l2.434-85.2Z" fill="#fff" stroke="#263238" stroke-linecap="round" stroke-linejoin="round" stroke-width="1"/>
          <path id="Trazado_103596" data-name="Trazado 103596" d="M389.519,5587.371l-.33,88.169a1.006,1.006,0,0,0,1,1.013h.014a1.014,1.014,0,0,0,1.013-.971l2.427-88.1Z" fill="#fff" stroke="#263238" stroke-linecap="round" stroke-linejoin="round" stroke-width="1"/>
          <path id="Trazado_103597" data-name="Trazado 103597" d="M513.166,5567.434l.344,85.285a1.006,1.006,0,0,1-1,1.013H512.5a1.014,1.014,0,0,1-1.013-.978l-2.427-85.2Z" fill="#fff" stroke="#263238" stroke-linecap="round" stroke-linejoin="round" stroke-width="1"/>
          <path id="Trazado_103598" data-name="Trazado 103598" d="M518.913,5587.371l.345,88.169a1.006,1.006,0,0,1-1,1.013h-.014a1.007,1.007,0,0,1-1.006-.971l-2.434-88.1Z" fill="#fff" stroke="#263238" stroke-linecap="round" stroke-linejoin="round" stroke-width="1"/>
          <path id="Trazado_103599" data-name="Trazado 103599" d="M429.492,5591.036l-.2,78.257a.759.759,0,0,0,.64.837h0a.751.751,0,0,0,.647-.8l1.527-78.2Z" fill="#fff" stroke="#263238" stroke-linecap="round" stroke-linejoin="round" stroke-width="1"/>
          <path id="Trazado_103600" data-name="Trazado 103600" d="M479.025,5588.517l.19,68.3a.647.647,0,0,1-.549.7h0a.639.639,0,0,1-.541-.7l-1.3-68.239Z" fill="#fff" stroke="#263238" stroke-linecap="round" stroke-linejoin="round" stroke-width="1"/>
          <path id="Trazado_103601" data-name="Trazado 103601" d="M428.725,5588.517l.19,68.3a.647.647,0,0,1-.549.7h0a.639.639,0,0,1-.541-.7l-1.3-68.239Z" fill="#fff" stroke="#263238" stroke-linecap="round" stroke-linejoin="round" stroke-width="1"/>
          <path id="Trazado_103602" data-name="Trazado 103602" d="M477.611,5591.036l.218,78.257a.759.759,0,0,1-.64.837h0a.759.759,0,0,1-.647-.8l-1.527-78.2Z" fill="#fff" stroke="#263238" stroke-linecap="round" stroke-linejoin="round" stroke-width="1"/>
          <ellipse id="Elipse_4143" data-name="Elipse 4143" cx="31.306" cy="7.155" rx="31.306" ry="7.155" transform="translate(421.901 5582.207)" fill="#fff" stroke="#263238" stroke-linecap="round" stroke-linejoin="round" stroke-width="1"/>
          <path id="Trazado_103603" data-name="Trazado 103603" d="M437.962,5650.1s-1.639,2.349-.464,3.517,2.342.7,2.223,1.878-1.991,5.157-3.63,9.378,1.758,8.442,4.924,7.274,2.814-12.9,3.278-15.013.824-2.462.7-4.453-.232-4.1-1.759-4.34A8.377,8.377,0,0,0,437.962,5650.1Z" fill="#fff" stroke="#263238" stroke-linecap="round" stroke-linejoin="round" stroke-width="1"/>
          <path id="Trazado_103604" data-name="Trazado 103604" d="M442.992,5668.906c-2.111-.8-5.347-.64-7.169-.457.612,2.652,2.955,4.516,5.192,3.693C441.951,5671.8,442.563,5670.545,442.992,5668.906Z" fill="#d9a171" stroke="#263238" stroke-linecap="round" stroke-linejoin="round" stroke-width="1"/>
          <path id="Trazado_103605" data-name="Trazado 103605" d="M434.332,5644.938s3.4,5.747,4.333,7.267,4.109,1.055,4.461-1.055-1.3-7.971-1.3-7.971l-7.035,1.759Z" fill="#fff" stroke="#263238" stroke-linecap="round" stroke-linejoin="round" stroke-width="1"/>
          <path id="Trazado_103606" data-name="Trazado 103606" d="M426.242,5635.792s-.943,1.527-.472,2.582,1.759,4.1,2.582,5.628,4.573,2.462,8.906,1.759,6.8-2.7,6.923-4.46-.7-4.1-1.3-6.916-2.11-2.694-4.221-2.694S428,5634.153,426.242,5635.792Z" fill="#d9a171" stroke="#263238" stroke-linecap="round" stroke-linejoin="round" stroke-width="1"/>
          <path id="Trazado_103607" data-name="Trazado 103607" d="M438.9,5601.321c.063-2.884,1.73-4.3,1.857-6.282a24.892,24.892,0,0,0-.64-7.788l-3.208-4.383c-9.23.12-15.843.275-15.948.31-.352.113-.591,2.11-.824,3.75,0,0-3.918.5-3.215,11.4.1,1.52,4.053,19.1,4.341,21.1,1.759,12.248,5.677,18.382,5.677,18.382s.352,1.527,4.925,1.175,9.145-3.4,9.145-3.4S438.665,5611.754,438.9,5601.321Z" fill="#344154" stroke="#263238" stroke-linecap="round" stroke-linejoin="round" stroke-width="1"/>
          <path id="Trazado_103608" data-name="Trazado 103608" d="M419.509,5585.141s-4.847.7-7.816,4.094-.45,5.628,5.319,5.023,12.424-6.507,12.705-6.824S423.7,5583.108,419.509,5585.141Z" fill="#fff" stroke="#263238" stroke-linecap="round" stroke-linejoin="round" stroke-width="1"/>
          <path id="Trazado_103609" data-name="Trazado 103609" d="M428.113,5587.251a45.816,45.816,0,0,1,9.145,1.407c3.989,1.175,11.024,3.518,12.663,3.518s1.175-6.1,1.175-7.267-21.105-1.879-23.686-1.879S428.113,5587.251,428.113,5587.251Z" fill="#fff" stroke="#263238" stroke-linecap="round" stroke-linejoin="round" stroke-width="1"/>
          <path id="Trazado_103610" data-name="Trazado 103610" d="M451.1,5584.909s-1.878.935-2.582,4.453-1.639,5.4-.232,6.331,7.507,1.639,8.442.7a23.126,23.126,0,0,0,3.989-8.674C461.184,5584.676,451.1,5584.909,451.1,5584.909Z" fill="#d9a171" stroke="#263238" stroke-linecap="round" stroke-linejoin="round" stroke-width="1"/>
          <path id="Trazado_103611" data-name="Trazado 103611" d="M459.067,5586.076a14.7,14.7,0,0,0-2.575,4.221,39.285,39.285,0,0,0-1.175,4.925,45.834,45.834,0,0,1,6.564,2.349c3.757,1.64,10.088,2.814,16.18,4.221s7.739,2.814,9.849,2.814,4.693-1.646,7.978-5.628.464-12.43-2.814-15.012-20.873-4.685-23.216-3.982S459.067,5586.076,459.067,5586.076Z" fill="#344154" stroke="#263238" stroke-linecap="round" stroke-linejoin="round" stroke-width="1"/>
          <path id="Trazado_103612" data-name="Trazado 103612" d="M415.07,5594.321a14.138,14.138,0,0,0-2.743-5.761c-.218.2-.43.415-.634.647C409.083,5592.176,410.716,5594.286,415.07,5594.321Z" fill="#d9a171" stroke="#263238" stroke-linecap="round" stroke-linejoin="round" stroke-width="1"/>
          <path id="Trazado_103613" data-name="Trazado 103613" d="M438.546,5596.179s-2.42,25.9-7.359,29.926" fill="none" stroke="#fff" stroke-linecap="round" stroke-linejoin="round" stroke-width="0.5"/>
          <path id="Trazado_103614" data-name="Trazado 103614" d="M436.836,5620.759s-1.92,8.442-6.957,11.8" fill="none" stroke="#fff" stroke-linecap="round" stroke-linejoin="round" stroke-width="0.5"/>
          <path id="Trazado_103615" data-name="Trazado 103615" d="M467.98,5591.472s-7.506.472-2.582,3.75,13.838,5.4,13.838,5.4" fill="none" stroke="#fff" stroke-linecap="round" stroke-linejoin="round" stroke-width="0.5"/>
          <path id="Trazado_103616" data-name="Trazado 103616" d="M522.473,5582.6l-2.533-2.279-5.853-12.663a3.371,3.371,0,0,0-3.067-1.907H397.335a3.37,3.37,0,0,0-3.074,1.907l-7.295,15.772-1.2-.443v3.609l.056-.042a2,2,0,0,0,2.019,1.709H520.51a1.976,1.976,0,0,0,2.019-1.864Z" fill="#344154" stroke="#263238" stroke-linecap="round" stroke-linejoin="round" stroke-width="1"/>
          <path id="Trazado_103617" data-name="Trazado 103617" d="M520.51,5584.965H387.838a1.942,1.942,0,0,1-1.857-2.716l8.28-17.89a3.355,3.355,0,0,1,3.074-1.906H511.02a3.355,3.355,0,0,1,3.067,1.906l8.28,17.89a1.941,1.941,0,0,1-1.857,2.716Z" fill="#fff" stroke="#263238" stroke-linecap="round" stroke-linejoin="round" stroke-width="1"/>
          <path id="Trazado_103618" data-name="Trazado 103618" d="M394.556,5572.949s-3,2.061-1.125,2.814,23.468.19,26.1-.563,5.628-7.7,5.628-8.822-3.784-1.934-5.177-2-19.8,1.055-19.8,1.055Z" fill="#d9a171" opacity="0.5" style="isolation: isolate"/>
          <ellipse id="Elipse_4144" data-name="Elipse 4144" cx="7.696" cy="3.194" rx="7.696" ry="3.194" transform="translate(494.256 5570.128)" fill="#d9a171" opacity="0.5" style="isolation: isolate"/>
          <ellipse id="Elipse_4145" data-name="Elipse 4145" cx="27.598" cy="5.164" rx="27.598" ry="5.164" transform="translate(425.355 5570.135)" fill="#d9a171" opacity="0.5" style="isolation: isolate"/>
          <path id="Trazado_103619" data-name="Trazado 103619" d="M496.324,5560.758s-.506-2.019-2.188-1.344-1.512,5.135-1.182,7.661,2.61,1.344,2.61,1.344v-1.513s-.837.668-1.259-.253-.338-5.558.084-5.473,1.26,1.512,1.26,1.512S495.9,5562.53,496.324,5560.758Z" fill="#d9a171" stroke="#263238" stroke-linecap="round" stroke-linejoin="round" stroke-width="1"/>
          <path id="Trazado_103620" data-name="Trazado 103620" d="M495.114,5561.1v11.059c0,1.3,2.99,2.357,6.683,2.357s6.676-1.055,6.676-2.357V5561.1Z" fill="#d9a171" stroke="#263238" stroke-linecap="round" stroke-linejoin="round" stroke-width="1"/>
          <path id="Trazado_103621" data-name="Trazado 103621" d="M508.473,5561.1c0,1.126-2.989,2.033-6.676,2.033s-6.683-.907-6.683-2.033,2.99-2.033,6.683-2.033S508.473,5559.977,508.473,5561.1Z" fill="#fff" stroke="#263238" stroke-linecap="round" stroke-linejoin="round" stroke-width="1"/>
          <path id="Trazado_103622" data-name="Trazado 103622" d="M507.6,5561.1c0,.978-2.6,1.766-5.8,1.766s-5.811-.788-5.811-1.766,2.6-1.766,5.811-1.766S507.6,5560.117,507.6,5561.1Z" fill="#fff" stroke="#263238" stroke-linecap="round" stroke-linejoin="round" stroke-width="1"/>
          <path id="Trazado_103623" data-name="Trazado 103623" d="M497.316,5562.221a15.988,15.988,0,0,0,8.955,0A15.988,15.988,0,0,0,497.316,5562.221Z" fill="#344154" stroke="#263238" stroke-linecap="round" stroke-linejoin="round" stroke-width="1"/>
          <path id="Trazado_103624" data-name="Trazado 103624" d="M393.726,5566.146l.084,3.785,25.5.253v-4.376Z" fill="#fff" stroke="#263238" stroke-linecap="round" stroke-linejoin="round" stroke-width="1"/>
          <path id="Trazado_103625" data-name="Trazado 103625" d="M419.312,5570.185l3.707-7.992v-2.357l-3.876,6.732Z" fill="#fff" stroke="#263238" stroke-linecap="round" stroke-linejoin="round" stroke-width="1"/>
          <path id="Trazado_103626" data-name="Trazado 103626" d="M393.726,5569.593l.084,3.792,25.5.253v-4.376Z" fill="#fff" stroke="#263238" stroke-linecap="round" stroke-linejoin="round" stroke-width="1"/>
          <path id="Trazado_103627" data-name="Trazado 103627" d="M419.312,5573.639l3.707-8v-2.356l-3.876,6.732Z" fill="#fff" stroke="#263238" stroke-linecap="round" stroke-linejoin="round" stroke-width="1"/>
          <path id="Trazado_103628" data-name="Trazado 103628" d="M403.575,5556.551s.591-1.175-.253-1.682-1.766.7-2.272,1.091-11.109,7.407-11.446,8.5,0,3.517,2.272,3.785,4.291-1.26,5.3-1.513,1.407-.337,1.407-.337l6.986-9.427Z" fill="#fff" stroke="#263238" stroke-linecap="round" stroke-linejoin="round" stroke-width="1"/>
          <path id="Trazado_103629" data-name="Trazado 103629" d="M391.876,5568.257c2.272.253,4.291-1.259,5.3-1.513s1.407-.337,1.407-.337l.254-.345-6.564-1.337a2.2,2.2,0,0,0-2.694-.253C389.266,5565.555,389.6,5568,391.876,5568.257Z" fill="#fff" stroke="#263238" stroke-linecap="round" stroke-linejoin="round" stroke-width="1"/>
          <path id="Trazado_103630" data-name="Trazado 103630" d="M392.3,5564.739H412a55.317,55.317,0,0,0,8-.337l3.785-7.83s-11.96.759-15.653.506a27.824,27.824,0,0,1-4.545-.506Z" fill="#fff" stroke="#263238" stroke-linecap="round" stroke-linejoin="round" stroke-width="1"/>
          <path id="Trazado_103631" data-name="Trazado 103631" d="M392.3,5564.739l.338,1.513s15.99.084,20.2.084,7.408.169,7.408.169l-.253-2.11Z" fill="#fff" stroke="#263238" stroke-linecap="round" stroke-linejoin="round" stroke-width="1"/>
          <path id="Trazado_103632" data-name="Trazado 103632" d="M420.241,5566.484l3.532-8.083v-1.85l-3.785,7.83Z" fill="#fff" stroke="#263238" stroke-linecap="round" stroke-linejoin="round" stroke-width="1"/>
          <path id="Trazado_103633" data-name="Trazado 103633" d="M477.055,5575.939H428.831a.808.808,0,0,1-.816-.8v-.007h0a.809.809,0,0,1,.809-.809h48.231a.8.8,0,0,1,.809.8v.014h0a.8.8,0,0,1-.8.809Z" fill="#fff" stroke="#263238" stroke-linecap="round" stroke-linejoin="round" stroke-width="1"/>
          <path id="Trazado_103634" data-name="Trazado 103634" d="M477.463,5574.307H428.416a.7.7,0,0,1-.7-.661l-2.666-32.045a.7.7,0,0,1,.614-.783.889.889,0,0,1,.089,0h54.388a.7.7,0,0,1,.708.7.658.658,0,0,1-.005.089l-2.666,32.045A.7.7,0,0,1,477.463,5574.307Z" fill="#fff" stroke="#263238" stroke-linecap="round" stroke-linejoin="round" stroke-width="1"/>
          <path id="Trazado_103635" data-name="Trazado 103635" d="M457.568,5558.112c0,1.914-2.075,3.462-4.629,3.462s-4.636-1.548-4.636-3.462,2.076-3.454,4.636-3.454S457.568,5556.206,457.568,5558.112Z" fill="#fff" stroke="#263238" stroke-linecap="round" stroke-linejoin="round" stroke-width="1"/>
          <path id="Trazado_103636" data-name="Trazado 103636" d="M505.5,5533.082a4.179,4.179,0,0,0,1.5-2.343,4.331,4.331,0,0,0-.049-2.11" fill="none" stroke="#263238" stroke-linecap="round" stroke-linejoin="round" stroke-width="1"/>
          <path id="Trazado_103637" data-name="Trazado 103637" d="M499.884,5558.169s4.678-2.814,3.151-6.029-6.69-5.347-6.69-10.356c0-4.319,4.594-5.916,7.591-7.647" fill="none" stroke="#263238" stroke-linecap="round" stroke-linejoin="round" stroke-width="1"/>
          <path id="Trazado_103638" data-name="Trazado 103638" d="M504.2,5558.077s2.61-1.737,2.61-4.5c0-1.85-1.977-3.06-4.587-6.036" fill="none" stroke="#263238" stroke-linecap="round" stroke-linejoin="round" stroke-width="1"/>
          <path id="Trazado_103639" data-name="Trazado 103639" d="M500.784,5545.745s-1.709-1.344-.45-3.869" fill="none" stroke="#263238" stroke-linecap="round" stroke-linejoin="round" stroke-width="1"/>
          <path id="Trazado_103640" data-name="Trazado 103640" d="M461.177,5472.054c.838-.176,2.631-.866,3.841-3.673a.352.352,0,0,0-.18-.463h0a.36.36,0,0,0-.465.183c-1.111,2.575-2.7,3.145-3.362,3.271a8.081,8.081,0,0,0,1.85-5.086c0-4.882-4.524-8.836-10.1-8.836s-10.1,3.954-10.1,8.836a8.081,8.081,0,0,0,1.689,4.925c-1.063-.057-2.856.393-5.129,3.046a.358.358,0,0,0,0,.5.371.371,0,0,0,.232.085.347.347,0,0,0,.268-.127c2.9-3.384,4.826-2.814,5.213-2.659a10.371,10.371,0,0,0-1.837,1.287c-3.243,2.92-5.219,8.442-4.966,13.043a16.958,16.958,0,0,0,3.2,8.442,19.635,19.635,0,0,0,5.719-6.4,53.752,53.752,0,0,0,2.814-5.747,12.7,12.7,0,0,0,1.351,6.331,8.978,8.978,0,0,0,7.893,4.615,7.4,7.4,0,0,0,1.653-.162.348.348,0,0,0,.225-.176c2.716.577,5.417.528,5.832-.049.669-.922,1.618-3.8,1.935-7.316C469.324,5479.954,465.567,5474.776,461.177,5472.054Zm-9.314,16.525c-1.365-2.23-1.323-5.867-1.161-7.957l.092-.239a14.324,14.324,0,0,0,5.719,11.024,10.311,10.311,0,0,0,3.117,1.456,8.218,8.218,0,0,1-7.767-4.284Z" fill="#344154"/>
          <path id="Trazado_103641" data-name="Trazado 103641" d="M451.983,5477.506s-.577,4.263,4.84,8.442,10.552,2.532,10.552,2.532" fill="none" stroke="#fff" stroke-linecap="round" stroke-linejoin="round" stroke-width="0.5"/>
          <path id="Trazado_103642" data-name="Trazado 103642" d="M452.778,5476.1s5.7,8.308,13.584,6.141" fill="none" stroke="#fff" stroke-linecap="round" stroke-linejoin="round" stroke-width="0.5"/>
          <path id="Trazado_103643" data-name="Trazado 103643" d="M449.957,5473.334a5.51,5.51,0,0,0-5.706.436c-3.032,2.019-4.551,6.789-4.551,6.789" fill="none" stroke="#fff" stroke-linecap="round" stroke-linejoin="round" stroke-width="0.5"/>
          <path id="Trazado_103644" data-name="Trazado 103644" d="M450.1,5475.649s-2.455-.655-3.974.865a9.8,9.8,0,0,0-1.879,2.314" fill="none" stroke="#fff" stroke-linecap="round" stroke-linejoin="round" stroke-width="0.5"/>
        </g>
      </g>
    </g>
  </g>
</svg>
