<svg xmlns="http://www.w3.org/2000/svg" xmlns:xlink="http://www.w3.org/1999/xlink" width="300" height="300" viewBox="0 0 300 300">
  <defs>
    <clipPath id="clip-path">
      <path id="SVGID" d="M363.1,5925.355s-2.149,3.431-1.555,6.253,5.845,15.113,9.741,26.4,3.116,23.579,3.116,27.217-.193,6.246,2.536,7.657,7.012.609,8.179-2.013,1.949-19.338-.193-29.431-9.741-27.812-11.689-31.844S370.313,5919.912,363.1,5925.355Z" fill="none"/>
    </clipPath>
    <clipPath id="clip-path-2">
      <rect id="SVGID-2" data-name="SVGID" width="42.264" height="11.272" rx="3.038" transform="matrix(1, -0.03, 0.03, 1, 382.308, 5983.387)" fill="none"/>
    </clipPath>
  </defs>
  <g id="Grupo_56512" data-name="Grupo 56512" transform="translate(-284.067 -5769.203)">
    <rect id="Rectángulo_5505" data-name="Rectángulo 5505" width="300" height="300" transform="translate(284.067 5769.203)" fill="#aed3f2" opacity="0"/>
    <g id="Grupo_56511" data-name="Grupo 56511">
      <g id="freepik--background-simple--inject-80">
        <path id="Trazado_103645" data-name="Trazado 103645" d="M561.06,5978.745c5.665-49.951-21.76-116.334-50.2-143.745-51.327-49.494-93.973-39.924-127.135-22.2s-37.9,76.911-60.81,103.685-35.928,62.787-1.182,98.643,62.78,17.634,99.108,15.356,84.518,15.629,110.554.065C549.6,6019.686,558.56,6000.849,561.06,5978.745Z" fill="#aed3f2"/>
      </g>
      <g id="freepik--Clouds--inject-80">
        <path id="Trazado_103646" data-name="Trazado 103646" d="M431,5880.339c-4.563-2.493-6.64-.416-8.3-2.493s4.57-7.47-7.878-12.892c0,0-.831-11.625-17.85-12.041s-12.448,11.625-17.018,14.526-5.809-1.655-10.378,1.246-2.486,8.717-6.225,9.548-8.717-3.732-13.279-.831-4.57,5.4-6.64,5.4-6.231-1.662-8.717,0-5.4,3.731-5.4,3.731h105.01S435.557,5882.831,431,5880.339Z" fill="#d9a171"/>
        <path id="Trazado_103647" data-name="Trazado 103647" d="M498.659,5847.205c-1.848-1.017-2.693-.172-3.366-1.017s1.855-3.03-3.2-5.222c0,0-.336-4.713-7.241-4.885s-5.057,4.72-6.9,5.9-2.363-.673-4.211.509-1.01,3.538-2.529,3.875-3.538-1.519-5.393-.337-1.848,2.192-2.693,2.192-2.529-.674-3.539,0-2.184,1.511-2.184,1.511H500.02A2.184,2.184,0,0,0,498.659,5847.205Z" fill="#d9a171"/>
        <path id="Trazado_103648" data-name="Trazado 103648" d="M438.744,5934.645c-1.855-1.01-2.693-.164-3.366-1.01s1.848-3.029-3.2-5.221c0,0-.336-4.72-7.241-4.885s-5.057,4.72-6.912,5.9-2.356-.673-4.211.508-1.01,3.539-2.522,3.875-3.538-1.518-5.393-.336-1.855,2.2-2.693,2.2-2.529-.674-3.538,0-2.192,1.518-2.192,1.518h42.617A2.233,2.233,0,0,0,438.744,5934.645Z" fill="#d9a171"/>
        <g id="Grupo_56502" data-name="Grupo 56502" opacity="0.4">
          <path id="Trazado_103649" data-name="Trazado 103649" d="M431,5880.339c-4.563-2.493-6.64-.416-8.3-2.493s4.57-7.47-7.878-12.892c0,0-.831-11.625-17.85-12.041s-12.448,11.625-17.018,14.526-5.809-1.655-10.378,1.246-2.486,8.717-6.225,9.548-8.717-3.732-13.279-.831-4.57,5.4-6.64,5.4-6.231-1.662-8.717,0-5.4,3.731-5.4,3.731h105.01S435.557,5882.831,431,5880.339Z" fill="#fff"/>
        </g>
        <g id="Grupo_56503" data-name="Grupo 56503" opacity="0.4">
          <path id="Trazado_103650" data-name="Trazado 103650" d="M498.659,5847.205c-1.848-1.017-2.693-.172-3.366-1.017s1.855-3.03-3.2-5.222c0,0-.336-4.713-7.241-4.885s-5.057,4.72-6.9,5.9-2.363-.673-4.211.509-1.01,3.538-2.529,3.875-3.538-1.519-5.393-.337-1.848,2.192-2.693,2.192-2.529-.674-3.539,0-2.184,1.511-2.184,1.511H500.02A2.184,2.184,0,0,0,498.659,5847.205Z" fill="#fff"/>
        </g>
        <g id="Grupo_56504" data-name="Grupo 56504" opacity="0.4">
          <path id="Trazado_103651" data-name="Trazado 103651" d="M438.744,5934.645c-1.855-1.01-2.693-.164-3.366-1.01s1.848-3.029-3.2-5.221c0,0-.336-4.72-7.241-4.885s-5.057,4.72-6.912,5.9-2.356-.673-4.211.508-1.01,3.539-2.522,3.875-3.538-1.518-5.393-.336-1.855,2.2-2.693,2.2-2.529-.674-3.538,0-2.192,1.518-2.192,1.518h42.617A2.233,2.233,0,0,0,438.744,5934.645Z" fill="#fff"/>
        </g>
      </g>
      <g id="freepik--Window--inject-80">
        <rect id="Rectángulo_5506" data-name="Rectángulo 5506" width="266.447" height="2.428" transform="translate(301.381 5945.246)" fill="#344154"/>
        <line id="Línea_272" data-name="Línea 272" y1="116.034" transform="translate(505.75 5830.645)" fill="none" stroke="#263238" stroke-linecap="round" stroke-linejoin="round" stroke-width="1"/>
        <line id="Línea_273" data-name="Línea 273" y1="133.704" transform="translate(385.419 5812.975)" fill="none" stroke="#263238" stroke-linecap="round" stroke-linejoin="round" stroke-width="1"/>
        <line id="Línea_274" data-name="Línea 274" x2="249.608" transform="translate(308.601 5880.632)" fill="none" stroke="#263238" stroke-linecap="round" stroke-linejoin="round" stroke-width="1"/>
      </g>
      <g id="freepik--Lamp--inject-80">
        <path id="Trazado_103652" data-name="Trazado 103652" d="M431.976,5817.186h7.162a2.378,2.378,0,0,1,2.378,2.378h0v7.235h-11.94v-7.235a2.378,2.378,0,0,1,2.378-2.378Z" fill="#344154"/>
        <circle id="Elipse_4146" data-name="Elipse 4146" cx="5.551" cy="5.551" r="5.551" transform="translate(429.827 5830.165)" fill="#d9a171"/>
        <circle id="Elipse_4147" data-name="Elipse 4147" cx="5.551" cy="5.551" r="5.551" transform="translate(429.827 5830.165)" fill="#fff" opacity="0.4" style="isolation: isolate"/>
        <path id="Trazado_103653" data-name="Trazado 103653" d="M459.136,5835.981H411.928l17.706-9.641h11.754Z" fill="#344154"/>
        <rect id="Rectángulo_5507" data-name="Rectángulo 5507" width="1.998" height="19.296" transform="translate(434.533 5799.215)" fill="#344154"/>
      </g>
      <g id="freepik--Plant--inject-80">
        <path id="Trazado_103654" data-name="Trazado 103654" d="M514.639,5898.711a8.768,8.768,0,0,0,2.579.286s-.394-1.2-.43-1.268c-.4-.845-1.669-2.227-2.7-2.091a1.231,1.231,0,0,0-1.017,1.414,1.193,1.193,0,0,0,.029.133A2.57,2.57,0,0,0,514.639,5898.711Z" fill="#344154"/>
        <path id="Trazado_103655" data-name="Trazado 103655" d="M538.591,5892.486c-1.032-.114-2.264,1.311-2.643,2.149,0,.079-.409,1.282-.394,1.282h0l-.623.717c-.409.5-.86,1.067-1.311,1.711a24.486,24.486,0,0,0-1.361,2.149,16.675,16.675,0,0,0-1.16,2.615h0v-1.225c-.122-.924-.9-2.636-1.92-2.822a1.224,1.224,0,0,0-1.416,1,1.151,1.151,0,0,0-.016.155,2.547,2.547,0,0,0,.988,1.934,8.6,8.6,0,0,0,2.335,1.067,21.9,21.9,0,0,0-.716,2.865c-.1.559-.179,1.125-.258,1.69v-.537c-.115-.917-.888-2.636-1.913-2.822a1.238,1.238,0,0,0-1.418,1.029,1.137,1.137,0,0,0-.014.131,2.588,2.588,0,0,0,.988,1.927,8.122,8.122,0,0,0,2.271,1.046l-.086.652c-.122,1.045-.244,2.091-.394,3.108-.05.366-.115.717-.179,1.067v-.458c-.122-.924-.9-2.636-1.92-2.829a1.232,1.232,0,0,0-1.417,1.013,1.2,1.2,0,0,0-.015.147,2.587,2.587,0,0,0,.988,1.934,7.868,7.868,0,0,0,2.2,1.017c-.071.365-.15.716-.243,1.067-.065.237-.115.466-.194.717s-.143.458-.222.716c-.15.43-.315.874-.472,1.289-.115.287-.222.566-.337.838.057-.358.15-1.06.15-1.117a4.759,4.759,0,0,0-.637-2.328,1.774,1.774,0,0,0,0-.272,1.232,1.232,0,0,0-1.376-1.069,1.033,1.033,0,0,0-.128.023c-1.01.265-1.648,2.034-1.691,2.965a8.356,8.356,0,0,0,.058,1.025c-.051-.215-.093-.43-.151-.652-.107-.444-.222-.888-.351-1.361-.064-.229-.136-.458-.207-.716s-.165-.466-.244-.717c-.2-.544-.43-1.088-.666-1.625a8.012,8.012,0,0,0,2.321-.874,2.586,2.586,0,0,0,1.131-1.848,1.239,1.239,0,0,0-1.214-1.264c-.039,0-.079,0-.118,0-1.039.115-1.934,1.762-2.149,2.672,0,.057-.071.716-.093,1.1-.15-.323-.3-.652-.458-.974-.466-.932-.96-1.863-1.433-2.787l-.444-.859a8.624,8.624,0,0,0,2.407-.888,2.577,2.577,0,0,0,1.131-1.848,1.232,1.232,0,0,0-1.206-1.258c-.042,0-.084,0-.126,0-1.038.108-1.934,1.762-2.149,2.672,0,.064-.1,1.031-.114,1.275-.323-.63-.645-1.254-.931-1.891a21.762,21.762,0,0,1-1.017-2.622,8.722,8.722,0,0,0,2.42-.9,2.6,2.6,0,0,0,1.132-1.848,1.239,1.239,0,0,0-1.206-1.271q-.063,0-.126,0c-1.039.115-1.934,1.762-2.149,2.679,0,.072-.107,1.1-.107,1.3a.988.988,0,0,0-.058-.158,16.628,16.628,0,0,1-.522-2.772c-.058-.523-.086-1.017-.1-1.5a8.009,8.009,0,0,0,2.443-.616,2.59,2.59,0,0,0,1.332-1.712,1.235,1.235,0,0,0-1.189-1.432c-1.039,0-2.113,1.54-2.4,2.428,0,.05-.121.551-.193.924v-.652c0-.788.05-1.511.1-2.149a7.465,7.465,0,0,1,.1-1,8.315,8.315,0,0,0,1.876-1.669,2.556,2.556,0,0,0,.387-2.149,1.239,1.239,0,0,0-1.576-.766,1.2,1.2,0,0,0-.121.05c-.924.48-1.168,2.342-1.018,3.259,0,.078.366,1.3.38,1.282h0c-.043.293-.079.609-.122.952-.057.638-.129,1.361-.143,2.149a22.256,22.256,0,0,0,.057,2.557,16.873,16.873,0,0,0,.473,2.815v.036a11.5,11.5,0,0,0-.716-1.01c-.609-.716-2.2-1.705-3.159-1.3a1.233,1.233,0,0,0-.612,1.632,1.077,1.077,0,0,0,.061.116,2.591,2.591,0,0,0,1.891,1.067,8.839,8.839,0,0,0,2.542-.4,20.888,20.888,0,0,0,.989,2.736c.222.523.465,1.039.716,1.555-.15-.222-.287-.416-.308-.437-.609-.717-2.2-1.705-3.159-1.3a1.233,1.233,0,0,0-.6,1.635c.018.038.038.076.06.113a2.576,2.576,0,0,0,1.891,1.067,8.335,8.335,0,0,0,2.464-.379l.293.587c.473.938.946,1.877,1.383,2.815.157.322.3.652.437.981-.129-.193-.244-.351-.265-.372-.609-.717-2.2-1.705-3.152-1.3a1.24,1.24,0,0,0-.61,1.643,1.214,1.214,0,0,0,.059.112,2.584,2.584,0,0,0,1.891,1.06,7.778,7.778,0,0,0,2.4-.358c.136.344.272.716.387,1.024.071.229.157.444.222.716l.193.717c.108.444.215.9.315,1.339.065.308.122.594.179.888-.15-.329-.458-.967-.487-1.017-.494-.788-1.912-2.02-2.922-1.762a1.232,1.232,0,0,0-.853,1.519,1.125,1.125,0,0,0,.044.128,2.578,2.578,0,0,0,1.712,1.34,8.449,8.449,0,0,0,2.549,0c.1.487.187.952.265,1.432.273,1.547.445,2.865.545,3.754a1.289,1.289,0,0,0,.05.444h-3.137l1.146,22.332h5.343l1.146-22.332h-2.922l.064-.136c.4-.839.96-2.035,1.562-3.5.186-.466.379-.967.58-1.475a8.556,8.556,0,0,0,2.542.193,2.585,2.585,0,0,0,1.8-1.2,1.239,1.239,0,0,0-.569-1.658c-.036-.017-.073-.033-.111-.047-.988-.33-2.5.788-3.051,1.54,0,.043-.33.559-.516.888.079-.208.158-.408.236-.63.158-.43.3-.86.459-1.325.071-.23.136-.459.208-.717s.121-.48.186-.716c.136-.566.243-1.146.336-1.726a8.181,8.181,0,0,0,2.421.551,2.57,2.57,0,0,0,1.963-.916,1.239,1.239,0,0,0-.31-1.725,1.069,1.069,0,0,0-.106-.066c-.924-.473-2.585.4-3.244,1.06-.043.043-.459.566-.716.86.057-.351.114-.717.157-1.06.129-1.039.229-2.085.33-3.131a8.671,8.671,0,0,1,.1-.959,8.7,8.7,0,0,0,2.5.587,2.591,2.591,0,0,0,1.962-.924,1.231,1.231,0,0,0-.306-1.715.989.989,0,0,0-.109-.068c-.924-.48-2.586.4-3.245,1.06-.05.05-.652.8-.8,1,.072-.716.15-1.432.258-2.091a21.666,21.666,0,0,1,.6-2.75,8.793,8.793,0,0,0,2.514.587,2.57,2.57,0,0,0,1.962-.917,1.239,1.239,0,0,0-.31-1.725q-.051-.034-.1-.066c-.924-.472-2.586.4-3.245,1.06-.05.051-.716.867-.809,1.018a1.473,1.473,0,0,0,.043-.158,15.9,15.9,0,0,1,1.088-2.6c.237-.466.495-.9.717-1.311a8.249,8.249,0,0,0,2.378.838,2.579,2.579,0,0,0,2.055-.716,1.239,1.239,0,0,0-.116-1.749,1.024,1.024,0,0,0-.1-.077c-.866-.573-2.614.114-3.345.716l-.666.666.351-.552c.437-.651.874-1.224,1.268-1.733.229-.286.437-.537.638-.774a8.27,8.27,0,0,0,2.485-.351,2.594,2.594,0,0,0,1.5-1.568A1.233,1.233,0,0,0,538.591,5892.486Zm-11.461,27.827c-.623,1.433-1.2,2.622-1.611,3.438l-.229.444h-.072a3.812,3.812,0,0,0-.072-.53c-.121-.917-.322-2.227-.63-3.782-.1-.494-.208-1.017-.329-1.554a15.172,15.172,0,0,0,1.432-.666,9.191,9.191,0,0,0,2.07,1.339c-.2.452-.379.91-.566,1.311Z" fill="#344154"/>
        <path id="Trazado_103656" data-name="Trazado 103656" d="M533.133,5899.14s.336-1.21.344-1.3c.128-.917-.165-2.772-1.1-3.23a1.239,1.239,0,0,0-1.638.622c-.014.031-.026.062-.038.094a2.586,2.586,0,0,0,.445,2.149A8.753,8.753,0,0,0,533.133,5899.14Z" fill="#344154"/>
      </g>
      <g id="freepik--Characters--inject-80">
        <path id="Trazado_103657" data-name="Trazado 103657" d="M380.384,5918.78l-5.78,17.04-5.63,38.492L348.1,6026.24h6.561l30.355-49.579,9.354-30.62,13.108,32,2.313,48.583h6.926l4.255-51.664-8.488-39.974-1.8-8.488Z" fill="#344154" stroke="#263238" stroke-linecap="round" stroke-linejoin="round" stroke-width="1"/>
        <path id="Trazado_103658" data-name="Trazado 103658" d="M418.245,5873.477s-10.557-1.762-20.155.315-22.369,6.16-31.73,12.793a41.863,41.863,0,0,0-5.294,4.677l7,5.25s11.324-3.08,15.042-3.109a53.589,53.589,0,0,0,6.446-.58L380.4,5918.78a9.3,9.3,0,0,0,6.239,8.961c6.726,2.721,19.21,4.225,24.224.365,2.643-2.027,15.242-34.631,15.242-34.631s3.688,19.167,4.806,22.046a19.044,19.044,0,0,0,3.366,5.279l7.034-5.279s-3.854-18.852-5.293-25.069S429.111,5874.437,418.245,5873.477Z" fill="#d9a171" stroke="#263238" stroke-linecap="round" stroke-linejoin="round" stroke-width="1"/>
        <path id="Trazado_103659" data-name="Trazado 103659" d="M400.647,5891.391l-11.038,1.439,8.638,2.242" fill="none" stroke="#263238" stroke-linecap="round" stroke-linejoin="round" stroke-width="1"/>
        <path id="Trazado_103660" data-name="Trazado 103660" d="M400.324,5875.554s3.847,6.4.323,12.957" fill="none" stroke="#263238" stroke-linecap="round" stroke-linejoin="round" stroke-width="1"/>
        <line id="Línea_275" data-name="Línea 275" y1="1.125" x2="7.356" transform="translate(426.088 5892.351)" fill="none" stroke="#263238" stroke-linecap="round" stroke-linejoin="round" stroke-width="1"/>
        <line id="Línea_276" data-name="Línea 276" x2="9.763" y2="1.44" transform="translate(426.403 5894.112)" fill="none" stroke="#263238" stroke-linecap="round" stroke-linejoin="round" stroke-width="1"/>
        <path id="Trazado_103661" data-name="Trazado 103661" d="M417.443,5871.557s-5.114,1.6-6.4,3.195-1.275,16.8-1.275,16.8l6.561-1.432,5.6,4.3s-.322-9.118-1.282-15.363S417.443,5871.557,417.443,5871.557Z" fill="#d9a171" stroke="#263238" stroke-linecap="round" stroke-linejoin="round" stroke-width="1"/>
        <path id="Trazado_103662" data-name="Trazado 103662" d="M419.36,5867.554s-4.154,5.923-5.114,7.162-.322,8.165.158,10.565a31.467,31.467,0,0,0,1.432,4.8l6.561-6.883a9.834,9.834,0,0,1-2.084-6.876c.48-3.84,2.585-7.98,2.413-9.083S419.36,5867.554,419.36,5867.554Z" fill="#ffe6d8" stroke="#263238" stroke-linecap="round" stroke-linejoin="round" stroke-width="1"/>
        <path id="Trazado_103663" data-name="Trazado 103663" d="M419.2,5870.275s-2.865,7.041-2.241,9.6,7.363,8.481,10.564,7.521,3.675-6.883,3.675-6.883,1.432.644,1.919.322.645-4.3.645-4.3a30.466,30.466,0,0,0,2.077-2.557,14.845,14.845,0,0,0,1.117-2.084s5.286-.158,4.807-4.956-9.441-11.683-15.844-11.683-8.8,7.356-8.8,9.584S419.2,5870.275,419.2,5870.275Z" fill="#ffe6d8" stroke="#263238" stroke-linecap="round" stroke-linejoin="round" stroke-width="1"/>
        <path id="Trazado_103664" data-name="Trazado 103664" d="M431.589,5875.382a5.619,5.619,0,0,0-3.818-1.8" fill="#fff" stroke="#263238" stroke-linecap="round" stroke-linejoin="round" stroke-width="1"/>
        <path id="Trazado_103665" data-name="Trazado 103665" d="M430.207,5876.22l-.573.967s-1.347.351-1.855-.472" fill="#fff" stroke="#263238" stroke-linecap="round" stroke-linejoin="round" stroke-width="1"/>
        <path id="Trazado_103666" data-name="Trazado 103666" d="M442.247,5866.909c-.48-4.8-9.44-11.682-15.844-11.682s-8.8,7.384-8.8,9.612,2.077,5.436,2.077,5.436-2.865,7.041-2.242,9.6,7.363,8.481,10.565,7.521c2.521-.759,3.352-4.591,3.581-6.181-2.278-2.457-5.68.15-7.592.716-2.077.637-4.162-2.242-4.162-3.846s2.085-5.917,2.564-6.719,3.037-.158,4.477-.315-.637-2.564-.315-4,5.114,3.524,7.034,4.641a4.3,4.3,0,0,0,3.839.158S442.72,5871.715,442.247,5866.909ZM428.323,5882.6c2.4-.322,2.4.637,2.4.637-.866,2.027-1.275,1.6-2.077,1.283S425.923,5882.917,428.323,5882.6Z" fill="#344154" stroke="#263238" stroke-linecap="round" stroke-linejoin="round" stroke-width="1"/>
        <path id="Trazado_103667" data-name="Trazado 103667" d="M420.322,5871.715s.48-3.2-1.432-3.517-2.077,2.4-2.077,4.155,2.077,1.761,3.037,1.432" fill="#fff" stroke="#263238" stroke-linecap="round" stroke-linejoin="round" stroke-width="1"/>
        <path id="Trazado_103668" data-name="Trazado 103668" d="M419.119,5862.762a3.421,3.421,0,0,0-.981.938" fill="none" stroke="#fff" stroke-linecap="round" stroke-linejoin="round" stroke-width="0.5"/>
        <path id="Trazado_103669" data-name="Trazado 103669" d="M431.976,5868.807a16.654,16.654,0,0,1-6.131-4.52,5.55,5.55,0,0,0-5.236-2.148" fill="none" stroke="#fff" stroke-linecap="round" stroke-linejoin="round" stroke-width="0.5"/>
        <path id="Trazado_103670" data-name="Trazado 103670" d="M425.429,5869.681s-1.432-4.957-7.434-3.352" fill="none" stroke="#fff" stroke-linecap="round" stroke-linejoin="round" stroke-width="0.5"/>
        <path id="Trazado_103671" data-name="Trazado 103671" d="M359.727,5899.269s2.149-3.4,4.842-2.435a17.9,17.9,0,0,1,5.279,3.359l2.4-3.839a6.221,6.221,0,0,0-3.839-6.074c-4.319-2.077-6.718-.322-6.718-.322C360.042,5890.266,357.972,5898.345,359.727,5899.269Z" fill="#d9a171" stroke="#263238" stroke-linecap="round" stroke-linejoin="round" stroke-width="1"/>
        <path id="Trazado_103672" data-name="Trazado 103672" d="M441.939,5912.32a25.443,25.443,0,0,0-7.041,3.2,8.3,8.3,0,0,0-3.359,4.8s3.682,4,4.477,4,6.883-6.719,7.52-7.356S441.939,5912.32,441.939,5912.32Z" fill="#d9a171" stroke="#263238" stroke-linecap="round" stroke-linejoin="round" stroke-width="1"/>
        <path id="Trazado_103673" data-name="Trazado 103673" d="M470.1,5930.4s-.158,2.242-.8,2.722-3.517,0-3.517,0-1.92-2.722-1.125-3.839,2.242-.8,3.2-.48A7.865,7.865,0,0,1,470.1,5930.4Z" fill="#fff" stroke="#263238" stroke-linecap="round" stroke-linejoin="round" stroke-width="1"/>
        <path id="Trazado_103674" data-name="Trazado 103674" d="M443.536,5916.961l17.09,8.8,6.239.8s7.678,3.839,7.678,4.476-.8.967-1.433.8-5.278-2.078-6.238-2.078-1.762.316-1.6,1.118,2.4,4.161,1.117,4.161-2.557-3.2-3.2-3.524a24.766,24.766,0,0,1-2.865-2.714s-14.719-3.044-18.078-3.524a12.319,12.319,0,0,1-5.279-1.92Z" fill="#ffe6d8" stroke="#263238" stroke-linecap="round" stroke-linejoin="round" stroke-width="1"/>
        <path id="Trazado_103675" data-name="Trazado 103675" d="M354.656,6026.24l2.056,2.944a9.3,9.3,0,0,0,3.337,2.915l3.983,2.056a.817.817,0,0,1,.444.716h0a.824.824,0,0,1-.823.825h-.044c-3.739-.194-18.386-.939-18.9-.939s-.78-.78-.587-3.13,3.975-5.4,3.975-5.4Z" fill="#fff" stroke="#263238" stroke-linecap="round" stroke-linejoin="round" stroke-width="1"/>
        <path id="Trazado_103676" data-name="Trazado 103676" d="M416.684,6026.24l2.055,2.944a9.315,9.315,0,0,0,3.338,2.915l3.975,2.056a.809.809,0,0,1,.452.716h0a.824.824,0,0,1-.823.825h-.044c-3.739-.194-18.386-.939-18.895-.939s-.788-.78-.587-3.13,3.975-5.4,3.975-5.4Z" fill="#fff" stroke="#263238" stroke-linecap="round" stroke-linejoin="round" stroke-width="1"/>
        <path id="Trazado_103677" data-name="Trazado 103677" d="M363.1,5925.355s-2.149,3.431-1.555,6.253,5.845,15.113,9.741,26.4,3.116,23.579,3.116,27.217-.193,6.246,2.536,7.657,7.012.609,8.179-2.013,1.949-19.338-.193-29.431-9.741-27.812-11.689-31.844S370.313,5919.912,363.1,5925.355Z" fill="#fff"/>
        <g id="Grupo_56507" data-name="Grupo 56507">
          <g id="Grupo_56506" data-name="Grupo 56506" clip-path="url(#clip-path)">
            <g id="Grupo_56505" data-name="Grupo 56505">
              <path id="Trazado_103678" data-name="Trazado 103678" d="M363.1,5925.355s-2.149,3.431-1.555,6.253,5.845,15.113,9.741,26.4,3.116,23.579,3.116,27.217-.193,6.246,2.536,7.657,7.012.609,8.179-2.013,1.949-19.338-.193-29.431-9.741-27.812-11.689-31.844S370.313,5919.912,363.1,5925.355Z" opacity="0.25" style="isolation: isolate"/>
              <path id="Trazado_103679" data-name="Trazado 103679" d="M360.236,5927.5s-2.149,3.431-1.555,6.253,5.845,15.113,9.741,26.4,3.116,23.58,3.116,27.218-.193,6.246,2.536,7.657,7.012.609,8.179-2.013,1.949-19.339-.193-29.431-9.741-27.812-11.689-31.845S367.448,5922.061,360.236,5927.5Z" opacity="0.25" style="isolation: isolate"/>
            </g>
          </g>
        </g>
        <path id="Trazado_103680" data-name="Trazado 103680" d="M363.1,5925.355s-2.149,3.431-1.555,6.253,5.845,15.113,9.741,26.4,3.116,23.579,3.116,27.217-.193,6.246,2.536,7.657,7.012.609,8.179-2.013,1.949-19.338-.193-29.431-9.741-27.812-11.689-31.844S370.313,5919.912,363.1,5925.355Z" fill="none" stroke="#263238" stroke-linecap="round" stroke-linejoin="round" stroke-width="1"/>
        <path id="Trazado_103681" data-name="Trazado 103681" d="M360.092,5896.992a26.964,26.964,0,0,0,1.583,11.044c1.254,3.424,7.936,14.225,7.936,14.225s-5.6,2.085-7.2,3.524-3.524,6.074-2.564,6.239,4.484-3.839,5.286-4.162a43.592,43.592,0,0,1,5.436-.637s-.96,1.311-1.705,2.521a5.558,5.558,0,0,0-.852,1.8c0,.795,1.118.637,1.755-.645s2.564-1.117,3.2-4a13.93,13.93,0,0,0-.323-6.081l-2.8-20.636S366.947,5894.392,360.092,5896.992Z" fill="#ffe6d8" stroke="#263238" stroke-linecap="round" stroke-linejoin="round" stroke-width="1"/>
        <path id="Trazado_103682" data-name="Trazado 103682" d="M359.849,5932.031s2.22-4.777,4.663-5.594" fill="none" stroke="#263238" stroke-linecap="round" stroke-linejoin="round" stroke-width="1"/>
        <path id="Trazado_103683" data-name="Trazado 103683" d="M360.443,5929.288a17.844,17.844,0,0,1,3.66-3.868" fill="none" stroke="#263238" stroke-linecap="round" stroke-linejoin="round" stroke-width="1"/>
        <rect id="Rectángulo_5508" data-name="Rectángulo 5508" width="2.614" height="25.191" transform="translate(401.778 5990.528)" fill="#fff" stroke="#263238" stroke-linecap="round" stroke-linejoin="round" stroke-width="1"/>
        <path id="Trazado_103684" data-name="Trazado 103684" d="M406.405,6016.75V6012.5h-6.64v4.283l-26.552,10.2v5.028h1.812v-3.825l28.156-5.945,27.411,5.945v3.825h1.762v-5.028Z" fill="#fff" stroke="#263238" stroke-linecap="round" stroke-linejoin="round" stroke-width="1"/>
        <rect id="Rectángulo_5509" data-name="Rectángulo 5509" width="13.072" height="8.044" transform="translate(396.55 5990.528)" fill="#fff" stroke="#263238" stroke-linecap="round" stroke-linejoin="round" stroke-width="1"/>
        <circle id="Elipse_4148" data-name="Elipse 4148" cx="2.815" cy="2.815" r="2.815" transform="translate(367.584 6029.399)" fill="#344154" stroke="#263238" stroke-linecap="round" stroke-linejoin="round" stroke-width="1"/>
        <path id="Trazado_103685" data-name="Trazado 103685" d="M371.61,6032.214a1.21,1.21,0,1,0-1.211,1.21,1.211,1.211,0,0,0,1.211-1.21Z" fill="#fff" stroke="#263238" stroke-linecap="round" stroke-linejoin="round" stroke-width="1"/>
        <circle id="Elipse_4149" data-name="Elipse 4149" cx="2.815" cy="2.815" r="2.815" transform="translate(432.556 6029.399)" fill="#344154" stroke="#263238" stroke-linecap="round" stroke-linejoin="round" stroke-width="1"/>
        <circle id="Elipse_4150" data-name="Elipse 4150" cx="1.21" cy="1.21" r="1.21" transform="translate(434.16 6031.003)" fill="#fff" stroke="#263238" stroke-linecap="round" stroke-linejoin="round" stroke-width="1"/>
        <path id="Trazado_103686" data-name="Trazado 103686" d="M404.293,6032.615h-2.213l-1.1-15.084H405.4Z" fill="#fff" stroke="#263238" stroke-linecap="round" stroke-linejoin="round" stroke-width="1"/>
        <rect id="Rectángulo_5510" data-name="Rectángulo 5510" width="2.213" height="6.239" transform="translate(401.979 6029.399)" fill="#344154" stroke="#263238" stroke-linecap="round" stroke-linejoin="round" stroke-width="1"/>
        <path id="Trazado_103687" data-name="Trazado 103687" d="M411.419,5947.481s17.67-2.779,19.339-3.059,4.871,1.948,6.4,3.059,8.488,5.286,7.657,5.565-3.617-.831-5.429-1.526-3.2-1.253-3.2-1.253a22.5,22.5,0,0,0,2.228,2.643c.716.559.422.974-1.526.136a9.538,9.538,0,0,1-4.19-3.338c-.716-1.11-1.812-3.058-1.812-3.058s-15.3,5.73-17.806,6.539-6.4.831-6.26-1.812S411.419,5947.481,411.419,5947.481Z" fill="#fff" stroke="#263238" stroke-linecap="round" stroke-linejoin="round" stroke-width="1"/>
        <path id="Trazado_103688" data-name="Trazado 103688" d="M437.154,5947.481c-1.525-1.111-4.727-3.338-6.4-3.059-.888.151-6.26,1-11.123,1.762l.623,4.4c5.014-1.833,10.636-3.939,10.636-3.939s1.118,1.948,1.812,3.058a9.548,9.548,0,0,0,4.176,3.338c1.948.838,2.221.423,1.526-.136a22.5,22.5,0,0,1-2.228-2.643s1.4.559,3.2,1.253,4.591,1.805,5.429,1.526S438.687,5948.6,437.154,5947.481Z" fill="#fff" stroke="#263238" stroke-linecap="round" stroke-linejoin="round" stroke-width="1"/>
        <line id="Línea_277" data-name="Línea 277" x2="6.683" y2="4.033" transform="translate(438.128 5949.013)" fill="none" stroke="#263238" stroke-linecap="round" stroke-linejoin="round" stroke-width="1"/>
        <path id="Trazado_103689" data-name="Trazado 103689" d="M425.222,5903.646s3.9-2.507,3.2-5.286-12.241-6.962-17.806-5.73-7.377,6.955-8.91,11.13-7.786,22.125-7.786,22.125,4.591,5.143,10.436,2.5,11.131-16.968,13.774-19.89A23.931,23.931,0,0,1,425.222,5903.646Z" fill="#344154" stroke="#263238" stroke-linecap="round" stroke-linejoin="round" stroke-width="1"/>
        <path id="Trazado_103690" data-name="Trazado 103690" d="M421.232,5894.621s2.478,1.748,3.209,3.352a2.172,2.172,0,0,1-.151,2.478" fill="none" stroke="#fff" stroke-linecap="round" stroke-linejoin="round" stroke-width="0.5"/>
        <path id="Trazado_103691" data-name="Trazado 103691" d="M423.1,5896.225a34.582,34.582,0,0,1-10.357,7.435c-5.98,2.629-10.063,4.813-11.961,7" fill="none" stroke="#fff" stroke-linecap="round" stroke-linejoin="round" stroke-width="0.5"/>
        <path id="Trazado_103692" data-name="Trazado 103692" d="M398.827,5914.347a21.625,21.625,0,0,0-.816,2.148" fill="none" stroke="#fff" stroke-linecap="round" stroke-linejoin="round" stroke-width="0.5"/>
        <path id="Trazado_103693" data-name="Trazado 103693" d="M415.846,5896.848a38.4,38.4,0,0,1-4.126,3.46c-4.054,2.98-9.082,6.933-12.054,12.341" fill="none" stroke="#fff" stroke-linecap="round" stroke-linejoin="round" stroke-width="0.5"/>
        <path id="Trazado_103694" data-name="Trazado 103694" d="M418.138,5894.184a9.513,9.513,0,0,1-.817,1.089" fill="none" stroke="#fff" stroke-linecap="round" stroke-linejoin="round" stroke-width="0.5"/>
        <path id="Trazado_103695" data-name="Trazado 103695" d="M403.8,5918.25s-10.027,4.3-12.942,5.845-3.474,4.591-3.474,7.234,3.767,22.541,3.767,22.541h16.4s2.923-5.845,5.014-7.793,3.753-5.838,2.923-8.488-1.676-4.032-1.676-6.675-.552-5.981-2.643-8.073S407.974,5917.419,403.8,5918.25Z" fill="#fff" stroke="#263238" stroke-linecap="round" stroke-linejoin="round" stroke-width="1"/>
        <path id="Trazado_103696" data-name="Trazado 103696" d="M438.365,5993.966c.358,1.819,1.812,4.075,2.528,5.8,1.433,3.5,4.069,9.054,5.659,12.5,2.256,4.914,3.946,11.274,3.638,11.7a10.709,10.709,0,0,0-1.053,3.473c0,.867.6,8.237.6,8.237h1.06l.752-4.34s2.407.15,3.159.867,1.654,2.313,3.008,3.037,7.521,1.009,7.521,1.009,1.053-.573-.3-1.733a26.936,26.936,0,0,1-4.663-4.477c-1.2-1.733-4.663-5.923-4.663-5.923s-7.828-42.911-8.43-44.759-2.557-5.923-4.362-6.353-7.979-1.053-7.979-1.053l-.294,7.406s1.433-.286,3.073,3.037C438.637,5984.375,437.326,5988.615,438.365,5993.966Z" fill="#ffe6d8" stroke="#263238" stroke-linecap="round" stroke-linejoin="round" stroke-width="1"/>
        <path id="Trazado_103697" data-name="Trazado 103697" d="M462.273,6032.242c-3.581,1.189-7.284-2.363-8.917-4.226a9.875,9.875,0,0,0-3.775-2.549,8.02,8.02,0,0,0-.444,1.976c0,.867.6,8.237.6,8.237h1.06l.752-4.34s2.407.15,3.159.867,1.654,2.313,3.008,3.036,7.521,1.01,7.521,1.01,1.053-.573-.3-1.733C464.207,6033.883,463.2,6033.08,462.273,6032.242Z" fill="#344154" stroke="#263238" stroke-linecap="round" stroke-linejoin="round" stroke-width="1"/>
        <path id="Trazado_103698" data-name="Trazado 103698" d="M442.87,5970.15s6.554,1.834,6.146,3.245-10.25,30.87-13.939,37.782-5.057,12.413-4.648,14.1,3.832,7.2,4.92,8.044,3.825,2.256,3.417,2.4a59.42,59.42,0,0,1-8.746,0c-.673-.078-4.5-4.655-5.192-4.942l-.717-.279v5.078h-1.446l-.545-7.757a11.844,11.844,0,0,1,2.049-3.954,16.888,16.888,0,0,0,3.961-7.47c1.232-4.226,5.73-25.936,6.446-30.312a34.353,34.353,0,0,1,2.414-8.158Z" fill="#ffe6d8" stroke="#263238" stroke-linecap="round" stroke-linejoin="round" stroke-width="1"/>
        <path id="Trazado_103699" data-name="Trazado 103699" d="M435.349,6033.324a6.553,6.553,0,0,1-.974-1.11,6.719,6.719,0,0,1-3.115-.566c-1.777-.989-3.417-3.245-4.921-4.942a9.392,9.392,0,0,0-2.822-1.97,13.156,13.156,0,0,0-1.433,3.1l.545,7.757h1.5V6030.5l.716.279c.716.287,4.52,4.864,5.193,4.942a59.407,59.407,0,0,0,8.745,0C439.174,6035.58,436.445,6034.169,435.349,6033.324Z" fill="#344154" stroke="#263238" stroke-linecap="round" stroke-linejoin="round" stroke-width="1"/>
        <path id="Trazado_103700" data-name="Trazado 103700" d="M391.149,5953.87s-1.268,15.464-1.432,20.477,4.032,9.878,9.741,10.436,39.68-4.061,39.68-4.061l5.566-10.156s-16.417-4.176-21.982-5.73-10.851-2.507-10.851-2.507l-4.3-8.488Z" fill="#6595bf" stroke="#263238" stroke-linecap="round" stroke-linejoin="round" stroke-width="1"/>
        <path id="Trazado_103701" data-name="Trazado 103701" d="M410.194,5926.459l2.787,4.87s-.974-5.143-1.533-6.955-2.084-1.253-2.084-.279a13.526,13.526,0,0,0,.573,2.865" fill="#d9a171" stroke="#263238" stroke-linecap="round" stroke-linejoin="round" stroke-width="1"/>
        <path id="Trazado_103702" data-name="Trazado 103702" d="M410.574,5909.5l-4.8,7.678,4.162,9.755s2.557-5.916,3.839-7.356,3.517-3.524,3.517-3.524-4-4.8-4.3-6.074S410.9,5908.215,410.574,5909.5Z" fill="#ffe6d8" stroke="#263238" stroke-linecap="round" stroke-linejoin="round" stroke-width="1"/>
        <path id="Trazado_103703" data-name="Trazado 103703" d="M404.909,5915.75l-2.5,2.5,4.448,12.807,3.338-4.6Z" fill="#d9a171" stroke="#263238" stroke-linecap="round" stroke-linejoin="round" stroke-width="1"/>
        <path id="Trazado_103704" data-name="Trazado 103704" d="M389.466,5936.2s7.234,16.28,8.767,19.618,4.871,4.032,7.929,4.032,22.233-.544,22.233-.544,10.572.415,12.384,0,4.727-2.922,5.286-2.922,3.617,2.779,4.3,2.779,1.118-.416.559-1.39-2.786-5.286-4.3-5.422-8.072,4.169-8.072,4.169-10.851-1.526-16.553-3.059-14.611-5.013-14.611-5.013a117.555,117.555,0,0,1-5.15-10.744c-1.533-4.061-1.8-9.462-4.591-11.69s-6.26.28-6.26.28" fill="#fff" stroke="#263238" stroke-linecap="round" stroke-linejoin="round" stroke-width="1"/>
        <path id="Trazado_103705" data-name="Trazado 103705" d="M446.652,5952.344c-1.533-.143-8.072,4.169-8.072,4.169s-5.437-.767-10.637-1.755l.136,4.548h.316s10.572.415,12.384,0,4.727-2.922,5.286-2.922,3.617,2.779,4.3,2.779,1.118-.416.559-1.39S448.178,5952.48,446.652,5952.344Z" fill="#fff" stroke="#263238" stroke-linecap="round" stroke-linejoin="round" stroke-width="1"/>
        <path id="Trazado_103706" data-name="Trazado 103706" d="M446.373,5954.844s3.753,2.643,4.591,3.9" fill="none" stroke="#263238" stroke-linecap="round" stroke-linejoin="round" stroke-width="1"/>
        <line id="Línea_278" data-name="Línea 278" x2="3.338" y2="2.786" transform="translate(446.788 5953.59)" fill="none" stroke="#263238" stroke-linecap="round" stroke-linejoin="round" stroke-width="1"/>
        <path id="Trazado_103707" data-name="Trazado 103707" d="M424.813,5900.372a44.169,44.169,0,0,1,1.06,4.685c.158,1.432-.959,2.242-.48,3.037s1.712,3.309,1.075,3.624a4.907,4.907,0,0,1-1.762.322s-2.93,5.451-3.581,6.447-5.122-1.275-7.206-2.235-2.235-5.6-2.235-5.6l-.164-3.2S421.619,5903.732,424.813,5900.372Z" fill="#ffe6d8" stroke="#263238" stroke-linecap="round" stroke-linejoin="round" stroke-width="1"/>
        <path id="Trazado_103708" data-name="Trazado 103708" d="M422.464,5905.651c2.077-2.521,2.048.265,2.048.265" fill="#fff" stroke="#263238" stroke-linecap="round" stroke-linejoin="round" stroke-width="1"/>
        <path id="Trazado_103709" data-name="Trazado 103709" d="M423.46,5908.638c-.187.587-.523,1-.76.931s-.272-.609-.093-1.2.523-1,.759-.924S423.639,5908.058,423.46,5908.638Z" fill="#344154"/>
        <path id="Trazado_103710" data-name="Trazado 103710" d="M412.637,5908.695s-1.125-4-2.4-3.2-1.919,3.839-.644,5.443,3.359.638,3.359.638" fill="#ffe6d8" stroke="#263238" stroke-linecap="round" stroke-linejoin="round" stroke-width="1"/>
        <rect id="Rectángulo_5511" data-name="Rectángulo 5511" width="42.264" height="11.272" rx="3.038" transform="matrix(1, -0.03, 0.03, 1, 382.308, 5983.387)" fill="#fff"/>
        <g id="Grupo_56510" data-name="Grupo 56510">
          <g id="Grupo_56509" data-name="Grupo 56509" clip-path="url(#clip-path-2)">
            <g id="Grupo_56508" data-name="Grupo 56508">
              <rect id="Rectángulo_5512" data-name="Rectángulo 5512" width="42.264" height="11.272" rx="3.038" transform="matrix(1, -0.03, 0.03, 1, 382.308, 5983.387)" opacity="0.25" style="isolation: isolate"/>
              <rect id="Rectángulo_5513" data-name="Rectángulo 5513" width="42.245" height="11.267" rx="3.037" transform="translate(382.625 5986.051) rotate(-1.81)" opacity="0.25" style="isolation: isolate"/>
            </g>
          </g>
        </g>
        <rect id="Rectángulo_5514" data-name="Rectángulo 5514" width="42.264" height="11.272" rx="3.038" transform="matrix(1, -0.03, 0.03, 1, 382.308, 5983.387)" fill="none" stroke="#263238" stroke-linecap="round" stroke-linejoin="round" stroke-width="1"/>
        <path id="Trazado_103711" data-name="Trazado 103711" d="M410.832,5988.966a1.464,1.464,0,0,1-1.366-1.972l.019-.048c2.35-5.658,5.014-15.757,2.285-18.766-.644-.444-4.527-1.389-25.456.53l-1.518.137c-1.432.114-2.715,1.976-3.037,2.621a1.459,1.459,0,1,1-2.607-1.311c.2-.4,2.077-3.961,5.415-4.218l1.482-.129c22.3-2.049,26.574-1.017,27.87.394,4.914,5.364-1.046,20.191-1.74,21.867A1.433,1.433,0,0,1,410.832,5988.966Z" fill="#fff" stroke="#263238" stroke-linecap="round" stroke-linejoin="round" stroke-width="1"/>
      </g>
      <g id="freepik--Desk--inject-80">
        <rect id="Rectángulo_5515" data-name="Rectángulo 5515" width="114.816" height="8.044" transform="translate(423.689 5960.767)" fill="#d9a171" stroke="#263238" stroke-linecap="round" stroke-linejoin="round" stroke-width="1"/>
        <rect id="Rectángulo_5516" data-name="Rectángulo 5516" width="24.997" height="5.444" transform="translate(445.37 5957.522)" fill="#fff" stroke="#263238" stroke-linecap="round" stroke-linejoin="round" stroke-width="1"/>
        <rect id="Rectángulo_5517" data-name="Rectángulo 5517" width="24.997" height="4.033" transform="translate(493.853 5952.38)" fill="#fff" stroke="#263238" stroke-linecap="round" stroke-linejoin="round" stroke-width="1"/>
        <rect id="Rectángulo_5518" data-name="Rectángulo 5518" width="24.997" height="4.033" transform="translate(494.863 5948.347)" fill="#fff" stroke="#263238" stroke-linecap="round" stroke-linejoin="round" stroke-width="1"/>
        <rect id="Rectángulo_5519" data-name="Rectángulo 5519" width="24.997" height="6.654" transform="translate(495.365 5956.312)" fill="#fff" stroke="#263238" stroke-linecap="round" stroke-linejoin="round" stroke-width="1"/>
        <rect id="Rectángulo_5520" data-name="Rectángulo 5520" width="114.816" height="3.832" transform="translate(423.689 5960.946)" fill="#344154" stroke="#263238" stroke-linecap="round" stroke-linejoin="round" stroke-width="1"/>
        <path id="Trazado_103712" data-name="Trazado 103712" d="M424.319,6035.709h0a.8.8,0,0,1-.8-.795l-.523-73.968h2.643l-.523,73.968a.8.8,0,0,1-.8.795Z" fill="#d9a171" stroke="#263238" stroke-linecap="round" stroke-linejoin="round" stroke-width="1"/>
        <path id="Trazado_103713" data-name="Trazado 103713" d="M537.81,6035.709h0a.8.8,0,0,1-.795-.795l-.523-73.968h2.643l-.523,73.968A.809.809,0,0,1,537.81,6035.709Z" fill="#d9a171" stroke="#263238" stroke-linecap="round" stroke-linejoin="round" stroke-width="1"/>
        <path id="Trazado_103714" data-name="Trazado 103714" d="M485.767,5959.628H473.39a.9.9,0,1,1,0-1.79h12.377a2.15,2.15,0,0,0,2.041-2.708l-4.391-15.757a.9.9,0,0,1,.623-1.1h0a.9.9,0,0,1,1.1.623l4.39,15.757a3.912,3.912,0,0,1-3.767,4.957Z" fill="#fff" stroke="#263238" stroke-linecap="round" stroke-linejoin="round" stroke-width="1"/>
        <rect id="Rectángulo_5521" data-name="Rectángulo 5521" width="36.486" height="2.822" transform="matrix(0.119, -0.993, 0.993, 0.119, 477.071, 5954.629)" fill="#fff" stroke="#263238" stroke-linecap="round" stroke-linejoin="round" stroke-width="1"/>
        <path id="Trazado_103715" data-name="Trazado 103715" d="M484.263,5918.723a54.637,54.637,0,0,1-4.348,36.228Z" fill="#344154" stroke="#263238" stroke-linecap="round" stroke-linejoin="round" stroke-width="1"/>
        <path id="Trazado_103716" data-name="Trazado 103716" d="M460.576,5957.537a3.305,3.305,0,0,1-1.49-.394,3.891,3.891,0,0,1-2.149-3.71,2.45,2.45,0,0,1,.989-1.848,4.47,4.47,0,0,1,3.33-.4.716.716,0,1,1-.351,1.389,3.194,3.194,0,0,0-2.148.172.988.988,0,0,0-.387.8,2.449,2.449,0,0,0,1.368,2.328,1.258,1.258,0,0,0,1.289.086.717.717,0,0,1,.917,1.1A2.153,2.153,0,0,1,460.576,5957.537Z" fill="#fff" stroke="#263238" stroke-linecap="round" stroke-linejoin="round" stroke-width="1"/>
        <path id="Trazado_103717" data-name="Trazado 103717" d="M467.144,5958.762a5.345,5.345,0,0,1-4.842,0c-1.662-1.383-1.611-8.5-1.611-8.5h8.065S468.806,5957.379,467.144,5958.762Z" fill="#fff" stroke="#263238" stroke-linecap="round" stroke-linejoin="round" stroke-width="1"/>
        <rect id="Rectángulo_5522" data-name="Rectángulo 5522" width="120.46" height="3.338" transform="translate(420.867 5959.191)" fill="#d9a171" stroke="#263238" stroke-linecap="round" stroke-linejoin="round" stroke-width="1"/>
      </g>
      <g id="freepik--Floor--inject-80">
        <rect id="Rectángulo_5523" data-name="Rectángulo 5523" width="264.671" height="4.792" transform="translate(300.306 6035.15)" fill="#344154"/>
      </g>
    </g>
  </g>
</svg>
