<svg xmlns="http://www.w3.org/2000/svg" width="539.284" height="349.127" viewBox="0 0 539.284 349.127">
  <g id="Grupo_56699" data-name="Grupo 56699" transform="translate(838.077 -6159.507)">
    <g id="freepik--background-complete--inject-112" transform="translate(-815.156 6159.507)">
      <path id="Trazado_104903" data-name="Trazado 104903" d="M-547.206,6531.037v43.6H-413.14v-43.6Z" transform="translate(762.472 -6226.801)" fill="#f5f5f5"/>
      <path id="Trazado_104904" data-name="Trazado 104904" d="M-554.076,6516.157v12.186H-409.7v-12.186H-554.076Z" transform="translate(763.716 -6224.105)" fill="#aed3f2"/>
      <path id="Trazado_104905" data-name="Trazado 104905" d="M-466.548,6571.939h67.508v-43.6h4.684v-12.186h-75v11.055Z" transform="translate(748.371 -6224.105)" fill="#aed3f2"/>
      <rect id="Rectángulo_5685" data-name="Rectángulo 5685" width="27.187" height="6.559" transform="translate(234.01 311.262)" fill="#aed3f2"/>
      <rect id="Rectángulo_5686" data-name="Rectángulo 5686" width="34.909" height="13.855" transform="translate(230.513 326.035)" fill="#fff"/>
      <path id="Trazado_104906" data-name="Trazado 104906" d="M-522.026,6462.987v43.6h134.074v-43.6Z" transform="translate(757.911 -6214.476)" fill="#f5f5f5"/>
      <path id="Trazado_104907" data-name="Trazado 104907" d="M-528.886,6448.1v12.193h144.376V6448.1H-528.886Z" transform="translate(759.154 -6211.778)" fill="#aed3f2"/>
      <path id="Trazado_104908" data-name="Trazado 104908" d="M-441.358,6503.887h67.508v-43.6h4.684V6448.1h-75v11.063Z" transform="translate(743.809 -6211.778)" fill="#aed3f2"/>
      <rect id="Rectángulo_5687" data-name="Rectángulo 5687" width="27.187" height="6.559" transform="translate(254.637 255.538)" fill="#aed3f2"/>
      <rect id="Rectángulo_5688" data-name="Rectángulo 5688" width="34.909" height="13.855" transform="translate(251.14 270.31)" fill="#fff"/>
      <path id="Trazado_104909" data-name="Trazado 104909" d="M-659.446,6177.743a.554.554,0,0,1-.213-.065l-.622-.237-2.35-.982-8.623-3.693-28.317-12.349-.983-.434h.164l-27.784,11.882-8.41,3.529-2.293.941a8.187,8.187,0,0,1-.819.295,5.072,5.072,0,0,1,.819-.353l2.26-1.023,8.336-3.677,27.727-12.021.1-.049.106.049.983.426,28.292,12.5,8.516,3.8,2.293,1.065.6.287A1.2,1.2,0,0,1-659.446,6177.743Z" transform="translate(797.337 -6159.507)" fill="#aed3f2"/>
      <rect id="Rectángulo_5689" data-name="Rectángulo 5689" width="182.118" height="136.359" transform="translate(0 14.167)" fill="#aed3f2"/>
      <rect id="Rectángulo_5690" data-name="Rectángulo 5690" width="170.064" height="124.412" transform="translate(6.371 20.505)" fill="#fafafa"/>
      <path id="Trazado_104910" data-name="Trazado 104910" d="M-756.436,6250.927s.172,20.89,1.237,27.261l26.2-1.236s-2.268-20.529-1.449-26.024Z" transform="translate(800.369 -6176.065)" fill="#aed3f2"/>
      <path id="Trazado_104911" data-name="Trazado 104911" d="M-741.991,6254.536h.377a6.063,6.063,0,0,1,1.089.049,5.931,5.931,0,0,1,1.638.5,5.358,5.358,0,0,1,1.818,1.433,6.358,6.358,0,0,1,1.253,2.522,6.08,6.08,0,0,1-.278,3.234,9.491,9.491,0,0,1-.729,1.638,15.268,15.268,0,0,0-.819,1.638,14.133,14.133,0,0,0-1.056,3.718v.09h-.082l-2.588.041h-2.809v-.1a7.806,7.806,0,0,0-1.261-3.579c-.311-.532-.655-1.04-.983-1.547a16.8,16.8,0,0,1-.917-1.5,5.067,5.067,0,0,1-.409-3.193,6.821,6.821,0,0,1,1.007-2.612,5.024,5.024,0,0,1,1.7-1.531,6.65,6.65,0,0,1,1.638-.623,6.08,6.08,0,0,1,1.073-.172h-.041a9,9,0,0,0-1.056.2,6.379,6.379,0,0,0-1.572.647,5,5,0,0,0-1.638,1.515,6.745,6.745,0,0,0-.958,2.563,4.911,4.911,0,0,0,.409,3.087,14.607,14.607,0,0,0,.917,1.482c.319.5.671,1.007.991,1.547a7.931,7.931,0,0,1,1.294,3.677l-.1-.1,2.711-.041h2.588l-.1.09a14.067,14.067,0,0,1,1.081-3.775,17,17,0,0,1,.819-1.638,9.28,9.28,0,0,0,.729-1.588,5.924,5.924,0,0,0,.287-3.145,6.141,6.141,0,0,0-1.2-2.457,5.333,5.333,0,0,0-1.752-1.425,6.128,6.128,0,0,0-1.638-.516,6.917,6.917,0,0,0-1.081-.09h-.352Z" transform="translate(798.813 -6176.718)" fill="#fff"/>
      <path id="Trazado_104912" data-name="Trazado 104912" d="M-740.017,6270.186a.46.46,0,0,1,0-.082v-.245c0-.107-.082-.533-.147-.934-.115-.819-.287-1.99-.409-3.456,0-.368-.049-.754-.066-1.154s0-.819,0-1.245a3.522,3.522,0,0,1,.295-1.31,2.02,2.02,0,0,1,1-1.008,1.334,1.334,0,0,1,1.425.278,1.006,1.006,0,0,1,.311.713,1.288,1.288,0,0,1-.27.753,1.732,1.732,0,0,1-.631.508,3.214,3.214,0,0,1-.778.254,9.334,9.334,0,0,1-1.638.2,10.087,10.087,0,0,1-1.638-.082,2.9,2.9,0,0,1-.819-.229,1.911,1.911,0,0,1-.663-.467,1.552,1.552,0,0,1-.377-.705,1.123,1.123,0,0,1,.09-.77,1.027,1.027,0,0,1,.549-.532.941.941,0,0,1,.745,0,1.36,1.36,0,0,1,.557.476,1.95,1.95,0,0,1,.278.646,7.689,7.689,0,0,1,.131,1.335c.049.868.09,1.638.123,2.4.074,1.466.139,2.652.18,3.48v1.269a.681.681,0,0,0,0-.082v-.245a7.2,7.2,0,0,0-.057-.941c-.049-.819-.115-2.007-.2-3.473,0-.737-.082-1.539-.131-2.4a8.273,8.273,0,0,0-.139-1.326,1.748,1.748,0,0,0-.262-.623,1.419,1.419,0,0,0-.532-.45.876.876,0,0,0-.688,0,.955.955,0,0,0-.5.5,1.086,1.086,0,0,0-.09.721,1.5,1.5,0,0,0,.36.663,2.34,2.34,0,0,0,1.4.672,9.273,9.273,0,0,0,1.638.081,9.821,9.821,0,0,0,1.638-.188,3.082,3.082,0,0,0,.762-.254,1.577,1.577,0,0,0,.6-.482,1.179,1.179,0,0,0,.254-.7.911.911,0,0,0-.278-.664,1.263,1.263,0,0,0-1.343-.254,1.935,1.935,0,0,0-.966.958,3.559,3.559,0,0,0-.295,1.286v1.245a7.2,7.2,0,0,0,.057,1.154c.115,1.458.278,2.637.385,3.456.057.4.1.712.131.934v.245A.355.355,0,0,0-740.017,6270.186Z" transform="translate(798.199 -6177.816)" fill="#fff"/>
      <path id="Trazado_104913" data-name="Trazado 104913" d="M-743.256,6272.416a7,7,0,0,1,.074.868l.115,2.269v-.049l1.769,2.031-.09-.041,2.039-.115h-.09l1.015-1.236.508-.622v.082c0-1.2-.057-2.326-.074-3.357l.107.106h-5.331a1.55,1.55,0,0,1,.368,0l1.073-.057,3.873-.155h.115v.106c0,1.032.065,2.162.1,3.357v.049h0l-.508.623c-.352.417-.688.819-1.015,1.236v.042h-.057l-2.039.1h-.057v-.041l-1.728-2.055h0v-2.326C-743.092,6272.579-743.264,6272.4-743.256,6272.416Z" transform="translate(797.982 -6179.908)" fill="#fff"/>
      <path id="Trazado_104914" data-name="Trazado 104914" d="M-737.951,6275.932l-.2-.082a4.42,4.42,0,0,0-.524-.2,5.241,5.241,0,0,0-1.842-.287,5.406,5.406,0,0,0-1.818.393,3.864,3.864,0,0,0-.516.246l-.188.09a.91.91,0,0,1,.172-.123,5.385,5.385,0,0,1,.508-.262,4.927,4.927,0,0,1,1.842-.426,5.038,5.038,0,0,1,1.859.312,3.347,3.347,0,0,1,.524.237Z" transform="translate(797.942 -6180.476)" fill="#fff"/>
      <path id="Trazado_104915" data-name="Trazado 104915" d="M-737.951,6274.941l-.2-.082a4.833,4.833,0,0,0-.524-.212,5.274,5.274,0,0,0-1.842-.278,5.039,5.039,0,0,0-1.826.393,4.37,4.37,0,0,0-.508.237l-.188.09a.85.85,0,0,1,.172-.115,3.866,3.866,0,0,1,.508-.27,4.912,4.912,0,0,1,3.7-.114,4.192,4.192,0,0,1,.524.237A.7.7,0,0,1-737.951,6274.941Z" transform="translate(797.942 -6180.295)" fill="#fff"/>
      <path id="Trazado_104916" data-name="Trazado 104916" d="M-738.011,6273.992l-.2-.082c-.123-.058-.295-.131-.524-.213a5.158,5.158,0,0,0-3.66.115c-.221.09-.4.181-.516.238l-.188.1a1.7,1.7,0,0,1,.172-.123,4.962,4.962,0,0,1,.508-.27,5.055,5.055,0,0,1,1.843-.418,4.908,4.908,0,0,1,1.859.312,3.475,3.475,0,0,1,.524.229A.689.689,0,0,1-738.011,6273.992Z" transform="translate(797.953 -6180.124)" fill="#fff"/>
      <path id="Trazado_104917" data-name="Trazado 104917" d="M-792.066,6209.237s.18,20.881,1.236,27.26l26.2-1.245s-2.309-20.488-1.425-26.016Z" transform="translate(806.822 -6168.514)" fill="#ebebeb"/>
      <path id="Trazado_104918" data-name="Trazado 104918" d="M-769,6219.969a78.7,78.7,0,0,1-8.77.819,65.761,65.761,0,0,1-8.8.27,78.784,78.784,0,0,1,8.77-.819C-772.95,6219.912-769.011,6219.8-769,6219.969Z" transform="translate(805.828 -6170.444)" fill="#fff"/>
      <path id="Trazado_104919" data-name="Trazado 104919" d="M-768.993,6225.333a76.994,76.994,0,0,1-8.77.819,70.31,70.31,0,0,1-8.8.278,78.644,78.644,0,0,1,8.77-.819A70.206,70.206,0,0,1-768.993,6225.333Z" transform="translate(805.826 -6171.418)" fill="#fff"/>
      <path id="Trazado_104920" data-name="Trazado 104920" d="M-772.761,6230.636a24.729,24.729,0,0,1-4.987.557,24.349,24.349,0,0,1-5.028.042,24.7,24.7,0,0,1,5-.557A24.234,24.234,0,0,1-772.761,6230.636Z" transform="translate(805.14 -6172.373)" fill="#fff"/>
      <path id="Trazado_104921" data-name="Trazado 104921" d="M-793.576,6284.277s.172,20.881,1.237,27.252l26.2-1.237s-2.3-20.529-1.417-26.016Z" transform="translate(807.096 -6182.106)" fill="#ebebeb"/>
      <path id="Trazado_104922" data-name="Trazado 104922" d="M-770.515,6294.973a81.674,81.674,0,0,1-8.77.819,67.589,67.589,0,0,1-8.811.27,81.4,81.4,0,0,1,8.778-.819A67.474,67.474,0,0,1-770.515,6294.973Z" transform="translate(806.103 -6184.031)" fill="#fff"/>
      <path id="Trazado_104923" data-name="Trazado 104923" d="M-770.5,6300.376a79.215,79.215,0,0,1-8.778.819,65.761,65.761,0,0,1-8.8.27,74.159,74.159,0,0,1,8.778-.778A84.182,84.182,0,0,1-770.5,6300.376Z" transform="translate(806.102 -6185.013)" fill="#fff"/>
      <path id="Trazado_104924" data-name="Trazado 104924" d="M-774.271,6305.676a25.564,25.564,0,0,1-5,.557,23.561,23.561,0,0,1-5.02.041,24.027,24.027,0,0,1,5-.557A24.193,24.193,0,0,1-774.271,6305.676Z" transform="translate(805.413 -6185.964)" fill="#fff"/>
      <path id="Trazado_104925" data-name="Trazado 104925" d="M-706.156,6216l2.6,60.237,75.2.909-3.374-60.351Z" transform="translate(791.262 -6169.739)" fill="#ebebeb"/>
      <rect id="Rectángulo_5691" data-name="Rectángulo 5691" width="74.698" height="56.404" transform="translate(84.229 45.824)" fill="#f5f5f5"/>
      <path id="Trazado_104926" data-name="Trazado 104926" d="M-632.555,6271.8v-4.062c0-2.645,0-6.494-.049-11.416,0-9.826-.065-23.9-.115-40.943l.213.212-74.7.049h0l.254-.262v56.412l-.229-.237,53.882.114,15.321.065h5.143a3.568,3.568,0,0,1,.369,0h-5.4l-15.272.066-54.046.115h-.238v-56.9h75.107v.213c-.049,17.082-.09,31.208-.115,41.066,0,4.913-.041,8.738-.049,11.374v2.964A7.562,7.562,0,0,1-632.555,6271.8Z" transform="translate(791.49 -6169.561)" fill="#aed3f2"/>
      <rect id="Rectángulo_5692" data-name="Rectángulo 5692" width="30.282" height="38.11" transform="translate(93.245 57.772)" fill="#f5f5f5"/>
      <path id="Trazado_104927" data-name="Trazado 104927" d="M-665.961,6268.119a1.133,1.133,0,0,1,0-.2v-2.628c0-1.842,0-4.479-.057-7.82,0-6.707-.065-16.2-.115-27.465l.229.229h-30.3l.254-.254V6268.1l-.213-.221,21.921.114,6.158.058h.09l-6.1.057-22.06.115h-.213v-38.209l.254-.262h30.528v.237c-.049,11.333-.09,20.873-.115,27.621,0,3.276-.049,5.937-.057,7.763v2.555A.7.7,0,0,1-665.961,6268.119Z" transform="translate(789.489 -6172.229)" fill="#aed3f2"/>
      <rect id="Rectángulo_5693" data-name="Rectángulo 5693" width="58.034" height="5.495" transform="translate(94.408 49.059)" fill="#f5f5f5"/>
      <path id="Trazado_104928" data-name="Trazado 104928" d="M-636.8,6224.811a2.422,2.422,0,0,1,0-.376v-1.065c0-.95,0-2.309-.057-4.045l.106.1c-9.826.09-32.1.156-58.034.156h0c.508-.516.139-.139.254-.254h0v5.47l-.254-.254,41.132.106,12.349.073h4.553a.985.985,0,0,1-.278,0h-4.094l-12.283.074-41.32.106h-.262v-5.732h0l.262-.262h0c25.934,0,48.24.065,58.034.156h.1v.106c0,1.761-.041,3.137-.057,4.095v1.048A1.214,1.214,0,0,1-636.8,6224.811Z" transform="translate(789.239 -6170.266)" fill="#aed3f2"/>
      <rect id="Rectángulo_5694" data-name="Rectángulo 5694" width="25.205" height="22.969" transform="translate(127.237 57.772)" fill="#f5f5f5"/>
      <path id="Trazado_104929" data-name="Trazado 104929" d="M-629.563,6252.973a3.344,3.344,0,0,1,0-.442v-1.245c0-1.122,0-2.694-.057-4.684,0-4.037-.066-9.745-.115-16.591l.221.213h-25.2l.254-.254h0v22.945l-.221-.221,18.179.115,5.159.057h1.867a1.676,1.676,0,0,1-.442,0h-1.335l-5.1.057-18.4.279h-.229v-23.174h0c-.229.229.311-.319.262-.262h25.352v.221c0,6.9-.082,12.66-.106,16.729,0,1.966-.049,3.521-.057,4.635v1.2A2.225,2.225,0,0,1-629.563,6252.973Z" transform="translate(782.004 -6172.232)" fill="#aed3f2"/>
      <rect id="Rectángulo_5695" data-name="Rectángulo 5695" width="25.205" height="11.538" transform="translate(127.237 84.344)" fill="#f5f5f5"/>
      <path id="Trazado_104930" data-name="Trazado 104930" d="M-629.545,6273.975a5.473,5.473,0,0,1,0-.819c0-.581,0-1.351-.049-2.317,0-2.031-.057-4.913-.1-8.385l.188.188-25.2.074.254-.262h0v11.538l-.237-.246,18.015.114,5.249.066h1.417a2.6,2.6,0,0,1,.516,0,3,3,0,0,1-.459,0h-1.367l-5.192.065-18.187.115h-.246v-11.775h0l.262-.254,25.2.066h.123v.188c-.041,3.545-.074,6.437-.1,8.5,0,.95,0,1.711-.049,2.276A6.533,6.533,0,0,1-629.545,6273.975Z" transform="translate(781.986 -6178.085)" fill="#aed3f2"/>
      <path id="Trazado_104931" data-name="Trazado 104931" d="M-666.687,6230.147c-9.368,12.971-20.152,25.09-29.529,38.044" transform="translate(789.461 -6172.302)" fill="#fff"/>
      <path id="Trazado_104932" data-name="Trazado 104932" d="M-696.216,6268.188a1.567,1.567,0,0,1,.246-.426c.213-.319.475-.7.819-1.162.688-1.008,1.728-2.457,3.03-4.185,2.6-3.5,6.322-8.188,10.5-13.413s7.935-9.876,10.6-13.315l3.161-4.094.868-1.105c.2-.246.319-.377.328-.36a1.492,1.492,0,0,1-.246.418l-.819,1.162c-.7,1.008-1.736,2.457-3.038,4.185-2.6,3.5-6.322,8.238-10.49,13.413s-7.935,9.876-10.645,13.315c-1.294,1.638-2.367,3.054-3.161,4.094l-.868,1.105A1.871,1.871,0,0,1-696.216,6268.188Z" transform="translate(789.461 -6172.298)" fill="#aed3f2"/>
      <line id="Línea_291" data-name="Línea 291" x2="30.282" y2="38.119" transform="translate(93.245 57.772)" fill="none"/>
      <path id="Trazado_104933" data-name="Trazado 104933" d="M-665.934,6268.175c-.115.082-6.977-8.377-15.346-18.9s-15.051-19.129-14.936-19.219,6.977,8.377,15.346,18.9S-665.82,6268.085-665.934,6268.175Z" transform="translate(789.462 -6172.286)" fill="#aed3f2"/>
      <path id="Trazado_104934" data-name="Trazado 104934" d="M-705.083,6229.11a4.741,4.741,0,0,1-4.733,4.749,4.741,4.741,0,0,1-4.75-4.733,4.741,4.741,0,0,1,4.733-4.75h.008A4.741,4.741,0,0,1-705.083,6229.11Z" transform="translate(792.785 -6171.256)" fill="#aed3f2"/>
      <path id="Trazado_104935" data-name="Trazado 104935" d="M-610.463,6215.07a4.741,4.741,0,0,1-4.733,4.749,4.741,4.741,0,0,1-4.749-4.733,4.74,4.74,0,0,1,4.733-4.75h.008A4.741,4.741,0,0,1-610.463,6215.07Z" transform="translate(775.647 -6168.713)" fill="#aed3f2"/>
      <path id="Trazado_104936" data-name="Trazado 104936" d="M-301.923,6346.4l1.908-5.749-3.357.017-.524,5.363Z" transform="translate(718.402 -6192.316)" fill="#aed3f2"/>
      <path id="Trazado_104937" data-name="Trazado 104937" d="M-304.939,6347.3l2.948,20.816,8.492,27.693-53.906-10.071,22.879-22.921,9.867-17.335,9.72,1.817" transform="translate(726.283 -6193.193)" fill="#aed3f2"/>
      <path id="Trazado_104938" data-name="Trazado 104938" d="M-206.027,6580.856c0-.286.041-.564.041-.859a17.225,17.225,0,0,0-17.225-17.225A17.225,17.225,0,0,0-240.436,6580v.859Z" transform="translate(706.908 -6232.549)" fill="#aed3f2"/>
      <path id="Trazado_104939" data-name="Trazado 104939" d="M-219.548,6544.071a.68.68,0,0,0,.655-.508l22.847-87a.688.688,0,0,0-.545-.806.688.688,0,0,0-.782.454l-22.838,87a.688.688,0,0,0,.494.838A.663.663,0,0,0-219.548,6544.071Z" transform="translate(703.249 -6213.164)" fill="#aed3f2"/>
      <path id="Trazado_104940" data-name="Trazado 104940" d="M-212.187,6546.7a.687.687,0,0,0,.663-.507l22.822-87a.68.68,0,0,0-.491-.819.687.687,0,0,0-.819.483l-22.838,86.98a.68.68,0,0,0,.491.819Z" transform="translate(701.915 -6213.636)" fill="#aed3f2"/>
      <path id="Trazado_104941" data-name="Trazado 104941" d="M-183.961,6456.635a4.307,4.307,0,0,1-4.307,4.307,4.307,4.307,0,0,1-4.307-4.307,4.308,4.308,0,0,1,4.307-4.308A4.315,4.315,0,0,1-183.961,6456.635Z" transform="translate(698.239 -6212.544)" fill="#aed3f2"/>
      <path id="Trazado_104942" data-name="Trazado 104942" d="M-206.2,6440.245l1.187-.671-48.1-85.687-54.332,3.357.082,1.367,53.472-3.308Z" transform="translate(719.045 -6194.714)" fill="#aed3f2"/>
      <rect id="Rectángulo_5696" data-name="Rectángulo 5696" width="1.368" height="96.889" transform="translate(460.357 161.813) rotate(-29.21)" fill="#aed3f2"/>
      <path id="Trazado_104943" data-name="Trazado 104943" d="M-241.522,6357.264a3.874,3.874,0,0,1-5.183,1.774,3.874,3.874,0,0,1-1.774-5.183,3.874,3.874,0,0,1,5.18-1.775,3.872,3.872,0,0,1,1.778,5.181Z" transform="translate(708.436 -6194.316)" fill="#aed3f2"/>
    </g>
    <g id="freepik--Character--inject-112" transform="translate(-838.077 6184.015)">
      <path id="Trazado_104944" data-name="Trazado 104944" d="M-632.926,6279.39a17.113,17.113,0,0,0,21.053-11.939,17.094,17.094,0,0,0,.614-4.946c-.115-4.954-2.358-10.006-.819-14.74,1.065-3.275,3.775-5.732,4.684-9.048,1.359-4.914-1.638-9.827-4.43-14.077a32.93,32.93,0,0,0-6.2-7.517c-2.53-2.055-5.888-3.366-9.073-2.686" transform="translate(800.919 -6193.931)" fill="#344154"/>
      <path id="Trazado_104945" data-name="Trazado 104945" d="M-691.108,6214.987c.27,3.743-2.2,7.092-4.692,9.9s-5.265,5.732-5.8,9.45c-.958,6.551,5.486,12.692,4.16,19.21-.712,3.5-3.57,6.305-4.094,9.827s1.343,6.756,3.6,9.352,5.036,4.766,7.042,7.574c0,0,4.176,6.846,17.024,2.457" transform="translate(813.375 -6194.063)" fill="#344154"/>
      <path id="Trazado_104946" data-name="Trazado 104946" d="M-631.251,6216.781c.09-3.39-3.046-6.019-6.207-7.263s-6.674-1.712-9.491-3.6c-2.5-1.679-4.176-4.3-6.289-6.444a20.905,20.905,0,0,0-29.565-.2,20.9,20.9,0,0,0-5.6,9.8c-1.212,4.831-.385,10.547,3.431,13.765,4.422,3.775,10.973,2.956,16.648,1.761s12.087-2.3,16.82,1.032c2.85,2.006,4.487,5.265,6.232,8.3s3.939,6.1,7.231,7.239,7.779-.819,7.91-4.316" transform="translate(811.06 -6190.126)" fill="#344154"/>
      <path id="Trazado_104947" data-name="Trazado 104947" d="M-645.372,6221.159a5.683,5.683,0,0,1,5.077,5.781h0l-3.39,76.729c-.147,9.064-13.389,14.15-23.092,13.921h0c-9.826-.229-10.113-5.036-10.236-13.659-.2-14.4-.188-19.809-.2-19.727s-12.373-2.08-14.9-18.244c-1.261-8.033-.819-21.209-.123-31.937.63-9.687,7.075-21.569,16.73-20.521Z" transform="translate(811.784 -6193.783)" fill="#ffbe9d"/>
      <path id="Trazado_104948" data-name="Trazado 104948" d="M-687.216,6250.913a2.079,2.079,0,0,0,1.99,2.1,1.982,1.982,0,0,0,2.134-1.817l0-.05a2.072,2.072,0,0,0-1.99-2.1,1.981,1.981,0,0,0-2.134,1.817Z" transform="translate(810.752 -6200.232)" fill="#344154"/>
      <path id="Trazado_104949" data-name="Trazado 104949" d="M-688.623,6245.16c.254.271,1.826-.893,4.094-.876s3.857,1.122,4.094.819c.115-.123-.147-.606-.86-1.13a5.641,5.641,0,0,0-3.275-1.015,5.409,5.409,0,0,0-3.226,1.031C-688.517,6244.545-688.746,6245.037-688.623,6245.16Z" transform="translate(811.013 -6199.13)" fill="#344154"/>
      <path id="Trazado_104950" data-name="Trazado 104950" d="M-660.786,6251.574a2.071,2.071,0,0,0,1.99,2.1,1.982,1.982,0,0,0,2.141-1.808l0-.051a2.072,2.072,0,0,0-1.99-2.1,1.982,1.982,0,0,0-2.142,1.808Z" transform="translate(805.965 -6200.353)" fill="#344154"/>
      <path id="Trazado_104951" data-name="Trazado 104951" d="M-661.863,6247c.254.271,1.826-.884,4.053-.876s3.865,1.13,4.094.819c.115-.123-.139-.614-.86-1.13a5.739,5.739,0,0,0-3.276-1.023,5.459,5.459,0,0,0-3.226,1.04C-661.732,6246.392-661.985,6246.875-661.863,6247Z" transform="translate(806.165 -6199.461)" fill="#344154"/>
      <path id="Trazado_104952" data-name="Trazado 104952" d="M-673.038,6263.549a14.642,14.642,0,0,0-3.619-.663c-.565-.058-1.106-.172-1.2-.565a2.833,2.833,0,0,1,.377-1.687l1.7-4.324c2.35-6.174,4.053-11.243,3.808-11.333s-2.358,4.832-4.708,11l-1.638,4.356a3.274,3.274,0,0,0-.3,2.236,1.467,1.467,0,0,0,.934.819,4.1,4.1,0,0,0,.966.131A14.292,14.292,0,0,0-673.038,6263.549Z" transform="translate(809.21 -6199.495)" fill="#344154"/>
      <path id="Trazado_104953" data-name="Trazado 104953" d="M-673.7,6298.6a41.157,41.157,0,0,0,21.651-5.732s-5.486,11.1-21.651,9.548Z" transform="translate(808.303 -6208.17)" fill="#eb996e"/>
      <path id="Trazado_104954" data-name="Trazado 104954" d="M-670.695,6273.883a4.012,4.012,0,0,1,3.6-1.482,3.644,3.644,0,0,1,2.53,1.368,2.317,2.317,0,0,1,.172,2.653,2.7,2.7,0,0,1-2.923.737,8.493,8.493,0,0,1-2.85-1.711,2.442,2.442,0,0,1-.631-.664.753.753,0,0,1,0-.819" transform="translate(807.799 -6204.458)" fill="#eb996e"/>
      <path id="Trazado_104955" data-name="Trazado 104955" d="M-661.237,6239.66c.123.631,2.375.68,4.913,1.376s4.52,1.72,4.913,1.229c.2-.229-.082-.819-.819-1.557a8.394,8.394,0,0,0-3.529-1.858,8.53,8.53,0,0,0-3.98-.131C-660.737,6238.964-661.286,6239.365-661.237,6239.66Z" transform="translate(806.047 -6198.331)" fill="#344154"/>
      <path id="Trazado_104956" data-name="Trazado 104956" d="M-687.7,6236.528c.36.533,1.924.107,3.767.2s3.39.549,3.775.041c.18-.246-.041-.77-.688-1.286a5.446,5.446,0,0,0-6.084-.188C-687.589,6235.767-687.835,6236.274-687.7,6236.528Z" transform="translate(810.847 -6197.589)" fill="#344154"/>
      <path id="Trazado_104957" data-name="Trazado 104957" d="M-631.066,6273.539a14.356,14.356,0,0,1-16.9-11.251,14.361,14.361,0,0,1-.167-4.619c.5-3.963,2.637-8,1.269-11.759-1.826-4.962-8.778-6.485-10.645-11.464-1.073-2.882-.106-6.248-1.327-9.073-1.146-2.653-3.939-4.184-6.649-5.167s-5.634-1.638-7.918-3.431-3.7-5.118-2.227-7.607a153.133,153.133,0,0,1,35.293,8.574c2.637.991,5.4,2.17,6.969,4.512,1.638,2.457,1.564,5.683,1.433,8.664q-1.016,21.749-2.031,43.506" transform="translate(808.763 -6193.009)" fill="#344154"/>
      <path id="Trazado_104958" data-name="Trazado 104958" d="M-622.6,6220.277a1.288,1.288,0,0,1,.27.663,2.46,2.46,0,0,1-.622,1.941,4.1,4.1,0,0,1-2.891,1.458,9.366,9.366,0,0,1-4.094-1.221,11.362,11.362,0,0,0-4.708-1.392,24.276,24.276,0,0,0-5.732.516,39.057,39.057,0,0,1-6.453.819,9.3,9.3,0,0,1-6.608-2.457,19.109,19.109,0,0,1-3.816-5.912,29.239,29.239,0,0,0-3.013-5.479,9.065,9.065,0,0,0-9.335-3.423,9.45,9.45,0,0,0-5.617,4.16,23.5,23.5,0,0,0-1.187,2.391,2.077,2.077,0,0,1,.123-.687,8.527,8.527,0,0,1,.778-1.867,9.594,9.594,0,0,1,5.732-4.569,9.444,9.444,0,0,1,5.192.106,9.678,9.678,0,0,1,4.913,3.39,29.441,29.441,0,0,1,3.218,5.667,18.609,18.609,0,0,0,3.644,5.65,8.488,8.488,0,0,0,6.043,2.2,38.575,38.575,0,0,0,6.314-.77,24.784,24.784,0,0,1,5.888-.45,11.756,11.756,0,0,1,4.913,1.556,9.152,9.152,0,0,0,3.824,1.286,3.75,3.75,0,0,0,2.653-1.2,2.4,2.4,0,0,0,.7-1.712A2.078,2.078,0,0,0-622.6,6220.277Z" transform="translate(808.794 -6192.237)" fill="#455a64"/>
      <path id="Trazado_104959" data-name="Trazado 104959" d="M-623.733,6212.815a11.857,11.857,0,0,1-8.908-14.207,11.856,11.856,0,0,1,9.481-9.024c2.571-.458,5.552.106,7.091,2.219s1.384,5.02,3.276,6.665c2.023,1.752,5.118,1,7.738,1.564,4.053.876,6.764,5.314,6.3,9.442s-3.619,7.632-7.46,9.2a18.645,18.645,0,0,1-12.2.238,45.759,45.759,0,0,1-11.153-5.413" transform="translate(800.922 -6189.436)" fill="#344154"/>
      <path id="Trazado_104960" data-name="Trazado 104960" d="M-601.778,6203.747a7.324,7.324,0,0,1-1.179,2.964,16.625,16.625,0,0,1-12.734,7.935,7.068,7.068,0,0,1-3.185-.246c.016-.09,1.22-.066,3.12-.344a18.406,18.406,0,0,0,12.283-7.665C-602.351,6204.811-601.909,6203.689-601.778,6203.747Z" transform="translate(798.374 -6192.028)" fill="#455a64"/>
      <path id="Trazado_104961" data-name="Trazado 104961" d="M-612.269,6223.329c-.2.172-2.678-3.939-7.648-6.739s-9.761-2.94-9.679-3.21a7.869,7.869,0,0,1,3.079,0,20.109,20.109,0,0,1,12.668,7.28A7.8,7.8,0,0,1-612.269,6223.329Z" transform="translate(800.316 -6193.75)" fill="#d9a171"/>
      <path id="Trazado_104962" data-name="Trazado 104962" d="M-610.286,6220.763a1.931,1.931,0,0,1,.59-.229,15.411,15.411,0,0,1,1.785-.385,18.551,18.551,0,0,1,6.715.222,14.4,14.4,0,0,1,4.414,1.638,2.7,2.7,0,0,1,1.261,2.506,2.09,2.09,0,0,1-.819,1.359,3.45,3.45,0,0,1-1.409.6,9.732,9.732,0,0,1-2.964,0,22.923,22.923,0,0,1-2.989-.5,19.353,19.353,0,0,1-3.013-.941,6.368,6.368,0,0,1-2.719-1.981,4.346,4.346,0,0,1-.647-3.341c.18-1.09.467-2.056.7-3.055a20.28,20.28,0,0,1,2.145-5.544,3.729,3.729,0,0,1,2.342-1.7,2.292,2.292,0,0,1,2.555,1.163,3.47,3.47,0,0,1-.1,2.571,15.788,15.788,0,0,1-5.462,7.034,12.021,12.021,0,0,1-1.556.958q-.565.286-.59.245c-.041-.065.737-.475,1.949-1.457a16.694,16.694,0,0,0,4.176-5.02,16.275,16.275,0,0,0,.884-1.974,2.879,2.879,0,0,0,.106-2.08,1.588,1.588,0,0,0-1.81-.736,2.992,2.992,0,0,0-1.851,1.457,19.863,19.863,0,0,0-2,5.331c-.4,1.916-1.359,4.095-.172,5.732s3.366,2.12,5.249,2.628a22.5,22.5,0,0,0,2.882.491,9.247,9.247,0,0,0,2.727,0c.819-.155,1.58-.613,1.638-1.326a2.056,2.056,0,0,0-.95-1.851,14.384,14.384,0,0,0-4.144-1.638,19.954,19.954,0,0,0-6.551-.467C-609.426,6220.615-610.27,6220.837-610.286,6220.763Z" transform="translate(796.818 -6193.043)" fill="#d9a171"/>
      <path id="Trazado_104963" data-name="Trazado 104963" d="M-639.315,6210.1a2.234,2.234,0,0,1-.221.475,4.926,4.926,0,0,1-1.04,1.1,7.071,7.071,0,0,1-5.347,1.188c-2.391-.36-4.84-2-6.993-4.168s-4.217-4.914-7.182-6.551a12.722,12.722,0,0,0-9.278-1.179,12.234,12.234,0,0,0-6.469,4.193,13.385,13.385,0,0,0-2.457,4.7c-.352,1.22-.418,1.933-.491,1.924s0-.18,0-.516a8,8,0,0,1,.2-1.482,12.781,12.781,0,0,1,9.057-9.548,13.238,13.238,0,0,1,9.826,1.2c3.177,1.818,5.2,4.635,7.313,6.739s4.365,3.726,6.551,4.094a6.938,6.938,0,0,0,5.077-.852A9.937,9.937,0,0,0-639.315,6210.1Z" transform="translate(809.233 -6191.311)" fill="#455a64"/>
      <path id="Trazado_104964" data-name="Trazado 104964" d="M-669.943,6276.748c.254.262,1.769-.876,3.873-1.711s3.98-1.089,3.988-1.457c0-.172-.5-.336-1.327-.353a8.6,8.6,0,0,0-5.83,2.351C-669.82,6276.159-670.066,6276.625-669.943,6276.748Z" transform="translate(807.629 -6204.612)" fill="#344154"/>
      <path id="Trazado_104965" data-name="Trazado 104965" d="M-693.463,6554.3c.287,1.146,5.044,19.342,5.044,19.342l58.885.155-3.185-49.951-101.647-4.561,4.774,54.357h37.84Z" transform="translate(819.292 -6249.18)" fill="#455a64"/>
      <path id="Trazado_104966" data-name="Trazado 104966" d="M-650.21,6296.357l6.2,11.612,2.35,63.528-4.913,61.178s14.3,32.476,13.855,50.827c0,0-32.468,16.468-62.12,11.292s-39.527-15.886-39.527-15.886l15.559-91.878s-2.35-10.358-1.883-19.292,10.793-41.386,10.793-41.386l21.487-10.367,3.726-10.556Z" transform="translate(819.292 -6208.802)" fill="#344154"/>
      <path id="Trazado_104967" data-name="Trazado 104967" d="M-634.186,6311.43a7.062,7.062,0,0,0-.319-1.859,42.771,42.771,0,0,0-1.286-4.356,44.734,44.734,0,0,0-1.728-4.209,7.732,7.732,0,0,0-.917-1.638,9.475,9.475,0,0,0,.639,1.769c.434,1.073,1.015,2.563,1.638,4.226s1.065,3.193,1.4,4.3A9.387,9.387,0,0,0-634.186,6311.43Z" transform="translate(801.917 -6209.347)" fill="#455a64"/>
      <path id="Trazado_104968" data-name="Trazado 104968" d="M-641.649,6315.18a54.348,54.348,0,0,0-1.425-6.551,51.387,51.387,0,0,0-1.842-6.412,52.8,52.8,0,0,0,1.425,6.551A51.263,51.263,0,0,0-641.649,6315.18Z" transform="translate(803.091 -6209.863)" fill="#455a64"/>
      <path id="Trazado_104969" data-name="Trazado 104969" d="M-650.366,6317.48a58.881,58.881,0,0,0-.647-7.026,58.651,58.651,0,0,0-1.073-6.977,56.74,56.74,0,0,0,.647,7.026A58.829,58.829,0,0,0-650.366,6317.48Z" transform="translate(804.389 -6210.091)" fill="#455a64"/>
      <path id="Trazado_104970" data-name="Trazado 104970" d="M-661.849,6319.212a49.4,49.4,0,0,0,.434-6.4,48.965,48.965,0,0,0,0-6.412,49,49,0,0,0-.434,6.4A48.816,48.816,0,0,0-661.849,6319.212Z" transform="translate(806.177 -6210.62)" fill="#455a64"/>
      <path id="Trazado_104971" data-name="Trazado 104971" d="M-674.256,6320.807a45.094,45.094,0,0,0,1.679-6.011,45.494,45.494,0,0,0,1.237-6.108,46.908,46.908,0,0,0-1.638,5.978A45.893,45.893,0,0,0-674.256,6320.807Z" transform="translate(808.405 -6211.036)" fill="#455a64"/>
      <path id="Trazado_104972" data-name="Trazado 104972" d="M-823.124,6493l9.925-3.668-7.755-16.107-9.2-4.537-7.828.41s-.819,2.5,2.457,3.676a20.2,20.2,0,0,0,4.4,1.27l3.226,3.275-3.276,2.457Z" transform="translate(838.077 -6240.015)" fill="#ffbe9d"/>
      <path id="Trazado_104973" data-name="Trazado 104973" d="M-694.119,6322.917s-34.8,155.979-32.935,186.941,1.859,28.218,1.859,28.218h-16.042s-.328-41.271,5.626-74.477,12.283-76.106,12.283-77.6c0-1.334,8.312-43.736,10.08-52.743a3.356,3.356,0,0,1,1.883-2.391Z" transform="translate(820.537 -6213.612)" fill="#d9a171"/>
      <path id="Trazado_104974" data-name="Trazado 104974" d="M-818.7,6445.893s15.673-11.939,30.225-25.745,41.763-51.483,41.763-51.483,11.047-33.115,21.291-36.111-5.994,54.766-5.994,54.766l.745,11.194s-17.909,24.623-33.574,41.763-44.768,25.745-44.768,25.745Z" transform="translate(834.567 -6215.338)" fill="#d9a171"/>
      <path id="Trazado_104975" data-name="Trazado 104975" d="M-710.55,6349.4a.4.4,0,0,1-.065.172,4.789,4.789,0,0,0-.172.541c-.139.516-.344,1.2-.59,2.08-.475,1.818-1.13,4.463-1.867,7.738-1.474,6.551-3.341,15.641-5.274,25.7s-3.595,19.194-4.741,25.811c-.549,3.275-1,5.953-1.318,7.845-.139.9-.246,1.638-.328,2.137l-.074.557a.525.525,0,0,0,0,.2.675.675,0,0,0,.049-.188l.115-.549c.107-.524.238-1.228.41-2.129.352-1.883.819-4.544,1.449-7.812,1.253-6.633,2.964-15.73,4.864-25.786s3.75-19.154,5.151-25.721c.7-3.275,1.31-5.928,1.736-7.763.213-.885.385-1.581.516-2.1l.123-.548A.563.563,0,0,0-710.55,6349.4Z" transform="translate(817.594 -6218.409)" fill="#344154"/>
      <path id="Trazado_104976" data-name="Trazado 104976" d="M-647.092,6362.306c.467-17.417,18.834-51.769,18.834-51.769l9.27,5.4-9.27,58.14s9.139,58.377,14.117,72.478,18.531,89.184,18.531,89.184l-45.529.106S-647.592,6379.691-647.092,6362.306Z" transform="translate(803.49 -6211.37)" fill="#d9a171"/>
      <path id="Trazado_104977" data-name="Trazado 104977" d="M-566.625,6505.257l5.347,17.147a32.116,32.116,0,0,1-21.064,40.239q-.944.3-1.906.532l-.434.106a32.116,32.116,0,0,1-38.675-22.772l-5.339-19.85Z" transform="translate(800.153 -6246.639)" fill="#d9a171"/>
      <g id="Grupo_56686" data-name="Grupo 56686" transform="translate(171.457 258.618)" opacity="0.3">
        <path id="Trazado_104978" data-name="Trazado 104978" d="M-566.625,6505.257l5.347,17.147a32.116,32.116,0,0,1-21.064,40.239q-.945.3-1.906.532l-.434.106a32.116,32.116,0,0,1-38.675-22.772l-5.339-19.85C-628.827,6520.431-568.165,6505.8-566.625,6505.257Z" transform="translate(628.696 -6505.257)"/>
      </g>
      <path id="Trazado_104979" data-name="Trazado 104979" d="M-628.066,6521.328l.139.2.434.549c.377.483.958,1.179,1.728,2.056a64.9,64.9,0,0,0,7.059,6.944,46.786,46.786,0,0,0,12.488,7.689,33.909,33.909,0,0,0,8.4,2.227,33.053,33.053,0,0,0,9.327-.139,25.559,25.559,0,0,0,15.608-8.426,24.323,24.323,0,0,0,3.98-6.78,30.766,30.766,0,0,0,1.736-6.641,37.3,37.3,0,0,0,.45-5.634c0-1.638-.066-3.1-.147-4.258s-.213-2.072-.311-2.678a3.955,3.955,0,0,0-.107-.688,1.964,1.964,0,0,0-.049-.237.723.723,0,0,0,0,.237,2.915,2.915,0,0,0,.066.7c.065.614.139,1.515.221,2.678a42.409,42.409,0,0,1,.082,4.242,38.448,38.448,0,0,1-.508,5.593,31.423,31.423,0,0,1-1.793,6.551,24.007,24.007,0,0,1-3.955,6.658,25.377,25.377,0,0,1-15.378,8.254,32.477,32.477,0,0,1-9.2.147,33.78,33.78,0,0,1-8.3-2.178,47.135,47.135,0,0,1-12.447-7.55,71.236,71.236,0,0,1-7.124-6.821c-.819-.86-1.384-1.54-1.785-2.006l-.467-.524C-628,6521.377-628.058,6521.319-628.066,6521.328Z" transform="translate(800.039 -6246.684)" fill="#344154"/>
      <path id="Trazado_104980" data-name="Trazado 104980" d="M-623.606,6529.9a.94.94,0,0,0,.041.237c.041.172.1.393.164.671.164.614.393,1.474.688,2.563.614,2.219,1.507,5.445,2.907,9.327a45.1,45.1,0,0,0,6.813,12.774,28.171,28.171,0,0,0,6.346,5.773,31.97,31.97,0,0,0,8.353,3.881,34.561,34.561,0,0,0,17.639.467,29.2,29.2,0,0,0,12.66-6.886,26.635,26.635,0,0,0,5.814-7.837c.229-.524.434-.991.622-1.4s.27-.778.377-1.064l.213-.655a2.2,2.2,0,0,0,.066-.229.8.8,0,0,0-.106.212l-.254.647c-.115.279-.237.631-.418,1.04s-.409.86-.647,1.376a27.316,27.316,0,0,1-5.871,7.689,29.2,29.2,0,0,1-12.545,6.7,34.4,34.4,0,0,1-17.426-.491,32.169,32.169,0,0,1-8.246-3.816,27.762,27.762,0,0,1-6.264-5.683,45.029,45.029,0,0,1-6.838-12.627c-1.441-3.857-2.367-7.059-3.038-9.27-.319-1.081-.573-1.932-.762-2.539l-.2-.663A1.145,1.145,0,0,0-623.606,6529.9Z" transform="translate(799.231 -6251.103)" fill="#344154"/>
      <path id="Trazado_104981" data-name="Trazado 104981" d="M-589.526,6346.917a1.867,1.867,0,0,0,.049.344c.049.246.106.574.188,1l.762,3.84c.68,3.349,1.638,8.189,2.841,14.093,2.416,11.907,5.667,28.366,9.507,46.5,1.932,9.073,3.849,17.688,5.683,25.516s3.578,14.838,5.151,20.7c.762,2.94,1.5,5.593,2.137,7.919s1.212,4.323,1.7,5.953l1.114,3.75.295.966a2.012,2.012,0,0,0,.115.328,1.808,1.808,0,0,0-.074-.335l-.254-.983c-.246-.884-.59-2.153-1.04-3.775s-1.007-3.636-1.638-5.97-1.335-4.979-2.072-7.927c-1.539-5.871-3.226-12.905-5.061-20.717s-3.718-16.443-5.65-25.508c-3.841-18.13-7.141-34.581-9.622-46.471-1.261-5.929-2.276-10.728-2.981-14.077l-.819-3.816-.229-.991A1.77,1.77,0,0,0-589.526,6346.917Z" transform="translate(793.058 -6217.959)" fill="#344154"/>
      <path id="Trazado_104982" data-name="Trazado 104982" d="M-628.7,6475.6a1.491,1.491,0,0,0,0,.4v1.146c0,.991.115,2.457.229,4.2.238,3.554.663,8.442,1.327,13.831s1.441,10.235,2.072,13.74c.319,1.744.59,3.161.819,4.095l.246,1.122a1.627,1.627,0,0,0,.115.385,1.268,1.268,0,0,0,0-.4l-.172-1.13c-.164-1.049-.393-2.457-.663-4.16-.557-3.5-1.277-8.361-1.941-13.732s-1.138-10.261-1.449-13.8c-.156-1.72-.278-3.137-.368-4.193-.041-.458-.082-.818-.115-1.138A1.276,1.276,0,0,0-628.7,6475.6Z" transform="translate(800.156 -6241.268)" fill="#344154"/>
      <path id="Trazado_104983" data-name="Trazado 104983" d="M-621.369,6314.541a.457.457,0,0,0-.2-.074,1.039,1.039,0,0,0-.6.172,7.313,7.313,0,0,0-1.711,1.638,38.749,38.749,0,0,0-4.471,7.5,38.1,38.1,0,0,0-2.154,5.65c-.565,2.1-1.163,4.332-1.793,6.682-1.269,4.7-2.694,9.827-4,15.338a152.244,152.244,0,0,0-2.956,15.559,114.688,114.688,0,0,0-.974,12.914v2.637c0,.835,0,1.638.041,2.342,0,1.466.065,2.727.147,3.75s.123,1.794.164,2.375l.049.614a.779.779,0,0,0,0,.205.853.853,0,0,0,0-.214v-.581c0-.573-.049-1.367-.082-2.366s-.066-2.293-.074-3.75v-2.343c0-.827.041-1.7.065-2.629a120.508,120.508,0,0,1,1.065-12.872,157.147,157.147,0,0,1,2.981-15.559c1.3-5.462,2.719-10.646,3.963-15.338l1.752-6.689a39.077,39.077,0,0,1,2.08-5.6,41.363,41.363,0,0,1,4.332-7.525,7.858,7.858,0,0,1,1.638-1.687,1.166,1.166,0,0,1,.557-.2C-621.443,6314.516-621.377,6314.558-621.369,6314.541Z" transform="translate(802.243 -6212.082)" fill="#344154"/>
      <path id="Trazado_104984" data-name="Trazado 104984" d="M-828.658,6483.47s.483,1.49,1.859,1.294,5.8.393,6.289,1.474,1.277,3.734-2.555,3.93-7.468,0-7.468,0l-2.334-2.121a2.408,2.408,0,0,1-.516-2.85l2.055-3.988,4.52-3.513-.156,6.289Z" transform="translate(837.273 -6241.647)" fill="#ffbe9d"/>
      <path id="Trazado_104985" data-name="Trazado 104985" d="M-824.008,6492.56a3.327,3.327,0,0,1,2.35,2.211c.6,1.867.1,3.439-1.171,3.537s-6.092,0-6.092,0l-2.653-1.769-.762-5.912,2.039,1.883Z" transform="translate(837.037 -6243.989)" fill="#ffbe9d"/>
      <path id="Trazado_104986" data-name="Trazado 104986" d="M-824.265,6498.695a2.817,2.817,0,0,1,1.99,1.883c.516,1.589.09,2.923-.991,3.005s-5.183,0-5.183,0l-2.252-1.5-.655-5.028,1.728,1.581Z" transform="translate(836.86 -6245.154)" fill="#ffbe9d"/>
      <path id="Trazado_104987" data-name="Trazado 104987" d="M-832.7,6489.083a.72.72,0,0,0,.074.271,3.1,3.1,0,0,0,.385.7,4.612,4.612,0,0,0,2.457,1.589,12.284,12.284,0,0,0,4.315.18l2.53-.229a5.316,5.316,0,0,0,2.653-.868,2.166,2.166,0,0,0,.819-1.253,2.464,2.464,0,0,0-.147-1.434,3.218,3.218,0,0,0-1.9-1.793,13.213,13.213,0,0,0-4.3-.476,5.889,5.889,0,0,1-1.58-.236,2.036,2.036,0,0,1-.974-.647,1.879,1.879,0,0,1-.377-.934,1.167,1.167,0,0,0,.246,1.04,2.137,2.137,0,0,0,1.024.762,5.752,5.752,0,0,0,1.638.319,13.608,13.608,0,0,1,4.168.532,2.882,2.882,0,0,1,1.638,1.589,1.819,1.819,0,0,1-.54,2.194,4.99,4.99,0,0,1-2.457.818l-2.506.254a12.36,12.36,0,0,1-4.2-.082,4.558,4.558,0,0,1-2.391-1.4A9.262,9.262,0,0,1-832.7,6489.083Z" transform="translate(837.102 -6242.781)" fill="#eb996e"/>
      <path id="Trazado_104988" data-name="Trazado 104988" d="M-831.406,6496.977a3.493,3.493,0,0,0,.606.532,2.772,2.772,0,0,0,.819.45l1.187.353a8.105,8.105,0,0,0,1.482.336c.541.073,1.146.058,1.728.09q.95.122,1.908.147a8.241,8.241,0,0,0,1.007,0,1.534,1.534,0,0,0,1.1-.385,2.632,2.632,0,0,0,.557-2.088,3.417,3.417,0,0,0-.721-1.851,4.373,4.373,0,0,0-2.923-1.458,9.816,9.816,0,0,0-2.195,0,3.071,3.071,0,0,0-.819.147,3.025,3.025,0,0,0,.819,0,11.42,11.42,0,0,1,2.137.1,4.216,4.216,0,0,1,2.661,1.408,3.072,3.072,0,0,1,.606,1.638,2.269,2.269,0,0,1-.442,1.744c-.393.394-1.138.229-1.81.237s-1.261-.082-1.875-.114a11.239,11.239,0,0,1-3.153-.328c-.434-.122-.868-.2-1.2-.286a3.318,3.318,0,0,1-.819-.369A3.057,3.057,0,0,0-831.406,6496.977Z" transform="translate(836.869 -6244.427)" fill="#eb996e"/>
      <path id="Trazado_104989" data-name="Trazado 104989" d="M-744.694,6417.107l67.058,2.62-67.058,4.192-79.6-3.406Z" transform="translate(835.581 -6230.673)" fill="#d9a171"/>
      <g id="Grupo_56687" data-name="Grupo 56687" transform="translate(11.285 186.434)" opacity="0.6">
        <path id="Trazado_104990" data-name="Trazado 104990" d="M-744.694,6417.107l67.058,2.62-67.058,4.192-79.6-3.406Z" transform="translate(824.296 -6417.107)"/>
      </g>
      <path id="Trazado_104991" data-name="Trazado 104991" d="M-764.77,6364.082c-6.608-12.554-3.865-29.356,6.346-39.184,3.177-3.046,7.46-5.56,11.792-4.773s7.681,4.987,8.639,9.393.041,9.008-1.171,13.339c-1.7,6.076-4.176,12.227-8.9,16.378s-11.464,8.312-16.705,4.782" transform="translate(825.45 -6213.081)" fill="#d9a171"/>
      <path id="Trazado_104992" data-name="Trazado 104992" d="M-765.469,6439.109a17.753,17.753,0,0,1,6.821-19.6c1.908-1.286,4.34-2.187,6.5-1.392s3.5,3.275,3.6,5.617a14.744,14.744,0,0,1-1.81,6.772c-1.433,2.972-3.276,5.92-6.076,7.648s-6.666,3.275-9.008.95" transform="translate(825.06 -6230.803)" fill="#d9a171"/>
      <path id="Trazado_104993" data-name="Trazado 104993" d="M-793.1,6429.965a25.7,25.7,0,0,0-10.342-28.193c-2.809-1.81-6.346-3.063-9.45-1.851s-5,4.807-5.077,8.189,1.261,6.7,2.784,9.753c2.145,4.274,4.864,8.492,9.008,10.924s9.728,4.536,13.1,1.154" transform="translate(834.435 -6227.473)" fill="#d9a171"/>
      <path id="Trazado_104994" data-name="Trazado 104994" d="M-788.812,6393.838c4.823-11.587-.09-26.663-9.9-34.5-3.046-2.457-7.018-4.3-10.768-3.275s-6.354,5.02-6.862,8.975.672,7.935,2.1,11.669c1.982,5.225,4.651,10.449,9.155,13.766s11.947,6.9,16.279,3.365" transform="translate(834.162 -6219.564)" fill="#d9a171"/>
      <path id="Trazado_104995" data-name="Trazado 104995" d="M-785.209,6462.86a2.59,2.59,0,0,1-.066-.59c0-.442-.057-1.007-.09-1.695a9.247,9.247,0,0,0-.057-1.22c-.057-.442-.09-.925-.139-1.441-.1-1.04-.188-2.219-.4-3.521-.1-.647-.2-1.327-.295-2.031s-.278-1.433-.426-2.194c-.254-1.515-.7-3.1-1.1-4.791a91.059,91.059,0,0,0-3.644-10.646,92.1,92.1,0,0,0-5.077-10.056c-.934-1.458-1.761-2.891-2.661-4.095l-1.277-1.834-1.245-1.638c-.819-1.065-1.564-1.957-2.236-2.751l-.933-1.105-.819-.893-1.146-1.245a3.463,3.463,0,0,1-.377-.458s.164.123.45.385l1.212,1.179.876.868.966,1.089c.7.778,1.507,1.638,2.3,2.7l1.286,1.638,1.3,1.826c.925,1.245,1.769,2.67,2.719,4.136a86.558,86.558,0,0,1,5.142,10.1,86.935,86.935,0,0,1,3.628,10.735c.393,1.7.819,3.275,1.064,4.839.139.761.27,1.5.393,2.2s.18,1.4.262,2.055c.2,1.3.262,2.5.336,3.538,0,.516.066,1.007.1,1.458s0,.819,0,1.22v1.7A2.611,2.611,0,0,1-785.209,6462.86Z" transform="translate(832.484 -6229.504)" fill="#344154"/>
      <path id="Trazado_104996" data-name="Trazado 104996" d="M-784.746,6457.6a.877.877,0,0,1,0-.245,4.955,4.955,0,0,1,.115-.688l.5-2.628.369-1.892c.115-.7.2-1.466.328-2.277.213-1.638.549-3.488.688-5.56.09-1.04.188-2.121.287-3.275s.1-2.309.156-3.53c.147-2.457.065-5.044,0-7.787A122.1,122.1,0,0,0-784.328,6412a121.1,121.1,0,0,0-4.839-17.2c-1.007-2.555-1.908-5-2.973-7.2-.516-1.105-.966-2.2-1.482-3.21l-1.5-2.891c-.909-1.867-1.916-3.456-2.735-4.914-.426-.712-.819-1.384-1.171-1.981l-1.056-1.638-1.458-2.244-.369-.59a.738.738,0,0,1-.106-.213,1.052,1.052,0,0,1,.147.18l.409.565,1.54,2.195,1.1,1.6c.385.59.819,1.261,1.2,1.965.819,1.417,1.883,3,2.817,4.856l1.531,2.891c.532,1.007.991,2.1,1.515,3.2,1.081,2.2,2.006,4.651,3.03,7.214a119.157,119.157,0,0,1,4.913,17.2,118.548,118.548,0,0,1,2.023,17.966c0,2.751.1,5.372-.066,7.82-.066,1.22-.082,2.407-.188,3.537s-.221,2.219-.328,3.276c-.156,2.08-.516,3.931-.762,5.568-.131.819-.237,1.58-.368,2.276l-.418,1.892c-.246,1.105-.442,1.974-.589,2.612-.066.278-.123.5-.164.68A1.177,1.177,0,0,1-784.746,6457.6Z" transform="translate(831.545 -6222.127)" fill="#344154"/>
      <path id="Trazado_104997" data-name="Trazado 104997" d="M-749.245,6337.667s0,.082-.123.213l-.385.59-1.548,2.235c-.336.483-.729,1.007-1.114,1.638s-.819,1.278-1.228,1.982l-1.417,2.276c-.483.819-.958,1.7-1.474,2.62s-1.065,1.875-1.589,2.9-1.048,2.1-1.638,3.21c-.278.549-.557,1.114-.819,1.687l-.819,1.785q-.819,1.81-1.638,3.709c-2.137,5.151-4.25,10.9-6.15,17.041s-3.325,12.111-4.5,17.557-1.974,10.408-2.457,14.592c-.3,2.088-.508,3.988-.671,5.65s-.319,3.1-.393,4.274-.164,2.047-.221,2.711a6.477,6.477,0,0,1-.065.7.826.826,0,0,1,0,.238.644.644,0,0,1,0-.238v-.712c0-.655.065-1.564.123-2.71s.147-2.621.311-4.291.311-3.578.59-5.667c.467-4.2,1.318-9.163,2.383-14.642a179.609,179.609,0,0,1,4.471-17.614,175.63,175.63,0,0,1,6.2-17.073l1.638-3.718.819-1.786.819-1.687c.557-1.105,1.106-2.178,1.638-3.21s1.114-1.965,1.638-2.891,1.007-1.793,1.507-2.6l1.441-2.285,1.269-1.965c.393-.6.819-1.114,1.146-1.6l1.638-2.178.434-.565A.949.949,0,0,1-749.245,6337.667Z" transform="translate(827.105 -6216.284)" fill="#344154"/>
      <path id="Trazado_104998" data-name="Trazado 104998" d="M-758.1,6425.987a11.812,11.812,0,0,1-.958,1.359c-.655.818-1.556,2.112-2.62,3.7s-2.268,3.521-3.5,5.731a73.8,73.8,0,0,0-3.562,7.37,79.886,79.886,0,0,0-2.727,7.755c-.7,2.457-1.237,4.644-1.6,6.551s-.631,3.406-.77,4.463a10.889,10.889,0,0,1-.295,1.638,10.514,10.514,0,0,1,.1-1.638c.082-1.064.287-2.612.614-4.5a65.761,65.761,0,0,1,1.5-6.551,72.681,72.681,0,0,1,2.711-7.82,74.118,74.118,0,0,1,3.619-7.436,66.22,66.22,0,0,1,3.611-5.731c1.106-1.564,2.055-2.8,2.76-3.619A9.86,9.86,0,0,1-758.1,6425.987Z" transform="translate(826.494 -6232.282)" fill="#344154"/>
      <path id="Trazado_104999" data-name="Trazado 104999" d="M-798.276,6466.157l33.959,3.2-7.378,34.295-25.614-2.416Z" transform="translate(830.868 -6239.558)" fill="#455a64"/>
      <path id="Trazado_105000" data-name="Trazado 105000" d="M-800.316,6504.077l2.53,4.021,25.721,2.424,3.308-3.349Z" transform="translate(831.238 -6246.425)" fill="#344154"/>
      <path id="Trazado_105001" data-name="Trazado 105001" d="M-766.559,6481.707c0,.139-7.067-.41-15.763-1.229s-15.722-1.6-15.714-1.736,7.075.41,15.763,1.229S-766.542,6481.567-766.559,6481.707Z" transform="translate(830.825 -6241.833)" fill="#fafafa"/>
      <path id="Trazado_105002" data-name="Trazado 105002" d="M-766.827,6484.527c0,.139-7.067-.41-15.755-1.229s-15.73-1.6-15.714-1.736,7.067.41,15.763,1.229S-766.81,6484.363-766.827,6484.527Z" transform="translate(830.872 -6242.343)" fill="#fafafa"/>
      <path id="Trazado_105003" data-name="Trazado 105003" d="M-767.349,6487.23c0,.139-6.821-.385-15.207-1.179s-15.141-1.54-15.141-1.679,6.821.385,15.207,1.179S-767.332,6487.091-767.349,6487.23Z" transform="translate(830.763 -6242.852)" fill="#fafafa"/>
      <path id="Trazado_105004" data-name="Trazado 105004" d="M-686.126,6465.482v-61.055l-55.79,3.825v70.021Z" transform="translate(820.66 -6228.376)" fill="#455a64"/>
      <path id="Trazado_105005" data-name="Trazado 105005" d="M-754.445,6433.759c-.393-1.974,0-26.679,0-26.679l66.018-2.653-55.79,3.825v33.1Z" transform="translate(822.961 -6228.376)" fill="#fafafa"/>
      <path id="Trazado_105006" data-name="Trazado 105006" d="M-754.895,6433.906v-.155c-.393-1.99,0-25.754,0-26.762v-.393l66.4-2.67.049.819-55.413,3.791v33.574Zm.819-26.523c-.131,8.41-.295,23.862,0,26.057l9.433,7.009v-32.673l27.17-1.858Z" transform="translate(823.042 -6228.286)" fill="#455a64"/>
      <path id="Trazado_105007" data-name="Trazado 105007" d="M-667.818,6469.871v-61.063l-55.8,3.824v70.022Z" transform="translate(817.345 -6229.169)" fill="#d9a171"/>
      <path id="Trazado_105008" data-name="Trazado 105008" d="M-736.145,6438.139c-.393-1.974,0-26.679,0-26.679l66.026-2.653-55.8,3.824v33.1Z" transform="translate(819.646 -6229.169)" fill="#fafafa"/>
      <path id="Trazado_105009" data-name="Trazado 105009" d="M-736.595,6438.286v-.155c-.393-1.99,0-25.754,0-26.77v-.385l66.411-2.669.041.818-55.446,3.832v33.492Zm.819-26.523c-.131,8.41-.295,23.862,0,26.057l9.433,7.01V6412.14l27.178-1.867Z" transform="translate(819.728 -6229.08)" fill="#d9a171"/>
      <path id="Trazado_105010" data-name="Trazado 105010" d="M-678.077,6420.307v81.4l-64.839,15.411-83.861-15.411,2.031-80.61,78.522,3.472Z" transform="translate(836.03 -6231.252)" fill="#d9a171"/>
      <g id="Grupo_56688" data-name="Grupo 56688" transform="translate(9.254 189.055)" opacity="0.4">
        <path id="Trazado_105011" data-name="Trazado 105011" d="M-678.077,6420.307v81.4l-64.839,15.411-83.861-15.411,2.031-80.61,78.522,3.472Z" transform="translate(826.776 -6420.307)"/>
      </g>
      <path id="Trazado_105012" data-name="Trazado 105012" d="M-672.486,6455.531h-.188l-.639.049-2.506.221-9.45.9-33.492,3.275.2.139c-2.334-10.154-4.979-21.684-7.8-33.934l-.475-2.055.057,2.112c0,1.564.082,3.276.123,4.914.622,23.813,1.187,45.365,1.589,60.99.229,7.787.409,14.1.532,18.482.074,2.162.131,3.856.172,5.02,0,.565.041,1,.049,1.31s0,.442,0,.442v-1.752c0-1.171-.049-2.858-.082-5.028-.1-4.381-.229-10.694-.4-18.482-.377-15.624-.893-37.177-1.466-60.99,0-1.687-.082-3.366-.123-4.914l-.426.049c2.833,12.242,5.5,23.748,7.845,33.926l.041.164h.164l33.476-3.448,9.442-.974,2.457-.287.639-.074Z" transform="translate(817.927 -6231.945)" fill="#344154"/>
      <path id="Trazado_105013" data-name="Trazado 105013" d="M-746.009,6424.673l-9.114,34.254-76.434-8.9,5.945-28.759" transform="translate(836.896 -6231.426)" fill="#d9a171"/>
      <path id="Trazado_105014" data-name="Trazado 105014" d="M-825.649,6421.267s-.049.172-.131.516-.2.819-.336,1.506q-.442,2.027-1.245,5.781c-1.056,5.02-2.571,12.2-4.406,20.923v.18h.188l41.23,4.84,35.212,4.094h.156l.041-.156c2.7-10.269,4.954-18.834,6.551-24.853.77-2.989,1.376-5.347,1.8-6.977l.459-1.834c.049-.2.082-.352.115-.475s0-.164,0-.164a1.059,1.059,0,0,0-.057.156l-.139.467-.516,1.826c-.442,1.638-1.081,3.971-1.9,6.944-1.638,6.01-3.922,14.559-6.682,24.812l.2-.131-35.212-4.094-41.238-4.766.147.2c1.777-8.729,3.235-15.919,4.258-20.947.5-2.457.884-4.447,1.155-5.8.123-.655.221-1.163.287-1.523A3.379,3.379,0,0,0-825.649,6421.267Z" transform="translate(836.934 -6231.426)" fill="#344154"/>
      <g id="Grupo_56689" data-name="Grupo 56689" transform="translate(5.34 189.841)" opacity="0.4">
        <path id="Trazado_105015" data-name="Trazado 105015" d="M-746.009,6424.673l-9.114,34.254-76.434-8.9,5.945-28.759" transform="translate(831.556 -6421.267)"/>
      </g>
      <path id="Trazado_105016" data-name="Trazado 105016" d="M-699.318,6490.56s-5.487,1.835-7.46,1.548a64.471,64.471,0,0,0-7.6,0l-14.5,7.853s1.04,3.865,3.276,3.514a22.438,22.438,0,0,0,5.732-2.392l-5.986,3.8s-8.189-4.094-8.582-3.938-2.956.7-2.113,1.834,9.147,7.313,9.147,7.313l-8.443-3.095s-3.276.99-2.252,3.095l9.483,6.313-5.961-.818a1.637,1.637,0,0,0-.364,2.287,1.657,1.657,0,0,0,.216.243c1.269,1.547,7.042,3.521,7.042,3.521l7.566-1.433,6.453-3.5s7.763-5.069,9.827-6.9,9.515-5.486,9.515-5.486.819-12.528-4.217-13.8" transform="translate(820.005 -6243.972)" fill="#ffbe9d"/>
      <path id="Trazado_105017" data-name="Trazado 105017" d="M-723.2,6506.744a40.2,40.2,0,0,0,5.011-3.038,38.061,38.061,0,0,1,3.554-2.088,4.641,4.641,0,0,0,1.417-.991,12.313,12.313,0,0,0-1.556.729,23.376,23.376,0,0,0-3.644,1.99A40.8,40.8,0,0,0-723.2,6506.744Z" transform="translate(817.269 -6245.8)" fill="#eb996e"/>
      <path id="Trazado_105018" data-name="Trazado 105018" d="M-726.206,6513.158a4.774,4.774,0,0,0,1.474.9,4.906,4.906,0,0,0,1.851.466,4.435,4.435,0,0,0,2.252-.63,25.845,25.845,0,0,0,3.521-2.178,5.633,5.633,0,0,0,1.3-1.13c-.082-.1-2.17,1.474-5.02,2.932a4.355,4.355,0,0,1-2.055.614,5.18,5.18,0,0,1-1.736-.352A12.692,12.692,0,0,0-726.206,6513.158Z" transform="translate(817.814 -6247.604)" fill="#eb996e"/>
      <path id="Trazado_105019" data-name="Trazado 105019" d="M-727.386,6520.94a3.335,3.335,0,0,0,1.687.753,7.724,7.724,0,0,0,4.422-.483,14.907,14.907,0,0,0,3.775-2.35,7.338,7.338,0,0,0,1.335-1.253,8.832,8.832,0,0,0-1.523,1.016,18.416,18.416,0,0,1-3.742,2.194,8.186,8.186,0,0,1-4.209.574A16.694,16.694,0,0,1-727.386,6520.94Z" transform="translate(818.028 -6248.876)" fill="#eb996e"/>
      <path id="Trazado_105020" data-name="Trazado 105020" d="M-631.446,6315.138s19.768,11.292,21.176,20.7-3.767,62.595-7.059,74.354-11.366,23.895-19.416,33.7-25.3,40.665-35.212,38.307l-20.783-7-8.287-15.239s46.987-43.67,47.495-54.971,15.01-48.9,15.01-48.9Z" transform="translate(813.254 -6212.204)" fill="#d9a171"/>
      <path id="Trazado_105021" data-name="Trazado 105021" d="M-643.4,6427.254c0,.091,1.187,0,3.038.353a17.5,17.5,0,0,1,3.169.95,22.17,22.17,0,0,1,3.57,1.907,23.749,23.749,0,0,1,3.144,2.556,21.309,21.309,0,0,1,2.178,2.5c1.122,1.523,1.638,2.6,1.7,2.563a3.1,3.1,0,0,0-.311-.778,6.83,6.83,0,0,0-.45-.859,12.151,12.151,0,0,0-.688-1.1,18.586,18.586,0,0,0-2.146-2.6,21.937,21.937,0,0,0-3.185-2.638,21.38,21.38,0,0,0-3.66-1.916,15.923,15.923,0,0,0-3.275-.876,10.293,10.293,0,0,0-1.294-.14,5.6,5.6,0,0,0-.974,0A2.636,2.636,0,0,0-643.4,6427.254Z" transform="translate(802.815 -6232.492)" fill="#344154"/>
      <path id="Trazado_105022" data-name="Trazado 105022" d="M-643.4,6427.147c0,.065.983-.082,2.579-.147s3.791-.058,6.215.073,4.635.328,6.223.467a15.863,15.863,0,0,0,2.588.139,14.876,14.876,0,0,0-2.555-.442c-1.589-.213-3.783-.451-6.232-.59a44.191,44.191,0,0,0-6.264.049,18.1,18.1,0,0,0-1.883.262C-643.167,6427.049-643.4,6427.114-643.4,6427.147Z" transform="translate(802.815 -6232.385)" fill="#344154"/>
      <path id="Trazado_105023" data-name="Trazado 105023" d="M-627.677,6440.2l-.278.344-.8,1.056-3.054,4.095-11.325,15.214-7.919,10.646c-2.866,3.849-5.929,8.009-9.466,12.161-.45.516-.909,1.023-1.4,1.5s-1.073.819-1.638,1.318c-1.081.917-2.1,1.9-3.276,2.759a11.5,11.5,0,0,1-1.81,1.122,4.141,4.141,0,0,1-2.031.475,10.092,10.092,0,0,1-2.1-.581l-2.129-.7-17.868-5.928.115.1-8.246-15.223-.041.262c2.031-1.834,4.176-3.832,6.33-5.855,8.41-7.935,16.32-15.837,23.4-23.641,3.546-3.9,6.87-7.787,9.876-11.677a64.06,64.06,0,0,0,7.6-11.931v-.042c3.447-15.862,6.305-29.029,8.312-38.25.983-4.594,1.761-8.188,2.293-10.646.254-1.22.45-2.162.581-2.817s.188-.966.188-.966-.09.328-.237.958-.36,1.58-.647,2.8c-.549,2.457-1.359,6.068-2.383,10.646-2.039,9.2-4.913,22.364-8.459,38.217h0a63.9,63.9,0,0,1-7.583,11.841c-3.005,3.874-6.322,7.747-9.867,11.645-7.083,7.779-14.985,15.673-23.4,23.608-2.145,2.015-4.291,4-6.322,5.839l-.123.114.074.147,8.336,15.207v.074h.082l17.884,5.912,2.137.7a9.808,9.808,0,0,0,2.178.59,4.414,4.414,0,0,0,2.211-.516,10.628,10.628,0,0,0,1.875-1.163c1.171-.876,2.2-1.875,3.275-2.785.516-.458,1.105-.819,1.638-1.334s.966-1.007,1.417-1.523c3.546-4.177,6.6-8.345,9.458-12.21l7.878-10.694,11.219-15.3,3-4.094.762-1.065Z" transform="translate(813.317 -6220.87)" fill="#344154"/>
      <path id="Trazado_105024" data-name="Trazado 105024" d="M-620.806,6346.281c.082,0,.508-1.245,1.679-3.038a13.587,13.587,0,0,1,1.032-1.4,18.116,18.116,0,0,1,1.343-1.49,18.668,18.668,0,0,1,7.8-4.627,18.391,18.391,0,0,1,1.949-.467,12.858,12.858,0,0,1,1.728-.229,29.543,29.543,0,0,1,3.464,0,3.256,3.256,0,0,0-.925-.181,6.466,6.466,0,0,0-1.1-.1,10.957,10.957,0,0,0-1.466,0,11.642,11.642,0,0,0-1.761.188,16.388,16.388,0,0,0-2,.434,18.174,18.174,0,0,0-7.968,4.733,16.084,16.084,0,0,0-1.343,1.54,13.874,13.874,0,0,0-1.007,1.466,10.256,10.256,0,0,0-.7,1.277,7.917,7.917,0,0,0-.442,1.016A3.644,3.644,0,0,0-620.806,6346.281Z" transform="translate(798.724 -6215.752)" fill="#344154"/>
    </g>
    <g id="freepik--Plant--inject-112" transform="translate(-444.485 6165.927)">
      <rect id="Rectángulo_5697" data-name="Rectángulo 5697" width="144.973" height="7.46" transform="translate(0 106.06)" fill="#455a64"/>
      <path id="Trazado_105025" data-name="Trazado 105025" d="M-214.321,6211.49a.417.417,0,0,0-.09-.205c-.09-.131-.188-.352-.311-.581a25.129,25.129,0,0,0-1.376-2.146,22.938,22.938,0,0,0-6.78-6.4,16.517,16.517,0,0,0-6.084-2.2,14.985,14.985,0,0,0-7.37.77,11.954,11.954,0,0,0-6.322,5.184c-1.458,2.53-1.924,5.511-2.776,8.36a15.39,15.39,0,0,1-1.761,3.988,12.161,12.161,0,0,1-3.005,2.956c-1.13.819-2.317,1.589-3.39,2.457a14.455,14.455,0,0,0-2.743,2.981,18.276,18.276,0,0,0-2.825,6.878,24.624,24.624,0,0,0-.377,6.469,49.089,49.089,0,0,0,1.638,9.2c.278,1.073.516,1.892.68,2.457a6.126,6.126,0,0,0,.27.819,5.569,5.569,0,0,0-.172-.868c-.147-.606-.344-1.433-.59-2.457a52.832,52.832,0,0,1-1.482-9.172,24.607,24.607,0,0,1,.426-6.363,18.007,18.007,0,0,1,2.792-6.69,14.252,14.252,0,0,1,2.67-2.874c1.048-.819,2.219-1.589,3.374-2.457a12.557,12.557,0,0,0,3.128-3.079,15.437,15.437,0,0,0,1.834-4.095c.819-2.9,1.327-5.83,2.719-8.262a11.463,11.463,0,0,1,6.051-4.979,14.687,14.687,0,0,1,7.165-.819,16.479,16.479,0,0,1,5.961,2.129,23.577,23.577,0,0,1,6.8,6.215c.663.876,1.138,1.588,1.449,2.071A6.251,6.251,0,0,0-214.321,6211.49Z" transform="translate(339.707 -6173.224)" fill="#aed3f2"/>
      <path id="Trazado_105026" data-name="Trazado 105026" d="M-249.959,6226.743c.778-.729,1.163-.221,2.219,0a6.546,6.546,0,0,1,2.841,1.417,11.981,11.981,0,0,1,3.881,12.578,9.344,9.344,0,0,1-9.845-8.814,9.344,9.344,0,0,1,1.263-5.229" transform="translate(338.127 -6178.037)" fill="#aed3f2"/>
      <path id="Trazado_105027" data-name="Trazado 105027" d="M-210.436,6208.672c.393-1,.958-.7,1.99-.982a6.557,6.557,0,0,1,3.177.057,11.99,11.99,0,0,1,8.918,9.688,9.352,9.352,0,0,1-12.689-3.728,9.352,9.352,0,0,1-1.109-5.28" transform="translate(330.803 -6174.624)" fill="#aed3f2"/>
      <path id="Trazado_105028" data-name="Trazado 105028" d="M-258.57,6250.222a10.793,10.793,0,0,1,15.224-1.1,10.792,10.792,0,0,1,1.743,1.92,13.365,13.365,0,0,1-8.8,3.472,13.64,13.64,0,0,1-8.86-3.586" transform="translate(339.647 -6181.682)" fill="#aed3f2"/>
      <path id="Trazado_105029" data-name="Trazado 105029" d="M-257.681,6230.031a10.941,10.941,0,0,1-11.275-10.6,10.965,10.965,0,0,1,.212-2.507,9.827,9.827,0,0,1,11.812,7.32,9.821,9.821,0,0,1-.348,5.651" transform="translate(341.403 -6176.28)" fill="#aed3f2"/>
      <path id="Trazado_105030" data-name="Trazado 105030" d="M-244.616,6209.441a10.933,10.933,0,0,1-14.126-6.284,10.954,10.954,0,0,1-.614-2.355,9.825,9.825,0,0,1,13.553,3.071,9.821,9.821,0,0,1,1.514,5.347" transform="translate(339.663 -6173.132)" fill="#aed3f2"/>
      <path id="Trazado_105031" data-name="Trazado 105031" d="M-236.767,6204.586a10.94,10.94,0,0,1,14.13,6.3,10.918,10.918,0,0,1,.61,2.337,9.826,9.826,0,0,1-13.551-3.084,9.822,9.822,0,0,1-1.508-5.358" transform="translate(335.63 -6173.961)" fill="#aed3f2"/>
      <path id="Trazado_105032" data-name="Trazado 105032" d="M-232.831,6197.43a10.949,10.949,0,0,1-6.852-13.885,10.922,10.922,0,0,1,1.03-2.2,9.825,9.825,0,0,1,8.493,11,9.829,9.829,0,0,1-2.27,5.125" transform="translate(336.205 -6169.883)" fill="#aed3f2"/>
      <path id="Trazado_105033" data-name="Trazado 105033" d="M-217.152,6198.461a10.931,10.931,0,0,1,6.538-14.009,10.924,10.924,0,0,1,2.388-.575,9.827,9.827,0,0,1-3.344,13.489,9.837,9.837,0,0,1-5.328,1.407" transform="translate(332.139 -6170.341)" fill="#aed3f2"/>
      <path id="Trazado_105034" data-name="Trazado 105034" d="M-275.514,6288.9-281.7,6250.1l47.388.573-4.676,37.725" transform="translate(343.71 -6182.335)" fill="#344154"/>
      <path id="Trazado_105035" data-name="Trazado 105035" d="M-249.375,6239.849a8.092,8.092,0,0,0,7.869.663,8.5,8.5,0,0,0,4.3-6.8,9.686,9.686,0,0,0-7.853-.4,9.56,9.56,0,0,0-5.216,5.838" transform="translate(338.019 -6179.179)" fill="#d9a171"/>
      <path id="Trazado_105036" data-name="Trazado 105036" d="M-222.9,6250.042a8.09,8.09,0,0,0,7.869.664,8.526,8.526,0,0,0,4.3-6.8,9.089,9.089,0,0,0-12.341,3.6,9.076,9.076,0,0,0-.761,1.841" transform="translate(333.23 -6181.011)" fill="#d9a171"/>
      <path id="Trazado_105037" data-name="Trazado 105037" d="M-237.653,6228.144a8.058,8.058,0,0,0,6.2,4.913,8.492,8.492,0,0,0,7.329-3.275,9.089,9.089,0,0,0-12.3-3.752,9.107,9.107,0,0,0-1.625,1.107" transform="translate(335.803 -6177.783)" fill="#d9a171"/>
      <path id="Trazado_105038" data-name="Trazado 105038" d="M-229.722,6240.655a8.087,8.087,0,0,0-7.075,3.5,8.533,8.533,0,0,0-.164,8.042,9.1,9.1,0,0,0,8.67-9.506,9.175,9.175,0,0,0-.293-1.909" transform="translate(335.775 -6180.624)" fill="#d9a171"/>
      <path id="Trazado_105039" data-name="Trazado 105039" d="M-218.8,6259.219a8.073,8.073,0,0,0,.188,7.886,8.532,8.532,0,0,0,7.222,3.546,9.657,9.657,0,0,0-.45-7.845c-1.245-2.268-3.488-3.39-6.3-4.029" transform="translate(332.488 -6183.907)" fill="#d9a171"/>
      <path id="Trazado_105040" data-name="Trazado 105040" d="M-209.643,6252.635a5.726,5.726,0,0,0-1.875-1.2,8.4,8.4,0,0,0-2.563-.45,33.222,33.222,0,0,0-3.5.205,10.134,10.134,0,0,1-4.3-.369,6.551,6.551,0,0,1-3.554-3.431,19.514,19.514,0,0,1-1.531-5.241,15.03,15.03,0,0,0-1.826-5.38,18.875,18.875,0,0,0-4-4.094,19.436,19.436,0,0,1-3.841-3.9,12.8,12.8,0,0,1-1.908-8.917,12.552,12.552,0,0,1,2.326-5.732,10.647,10.647,0,0,1,1.138-1.229c.287-.262.434-.393.45-.376a3.31,3.31,0,0,1-.377.451,13.258,13.258,0,0,0-1.048,1.3,12.9,12.9,0,0,0-2.129,5.659,12.607,12.607,0,0,0,1.949,8.606,19.326,19.326,0,0,0,3.767,3.775,19.2,19.2,0,0,1,4.094,4.176,15.461,15.461,0,0,1,1.883,5.56,19.343,19.343,0,0,0,1.466,5.126,6.189,6.189,0,0,0,3.275,3.275,10.036,10.036,0,0,0,4.094.4,30.336,30.336,0,0,1,3.538-.131,8.016,8.016,0,0,1,2.629.557,4.429,4.429,0,0,1,1.458.925,2.238,2.238,0,0,1,.295.336C-209.659,6252.586-209.635,6252.635-209.643,6252.635Z" transform="translate(335.922 -6175.53)" fill="#d9a171"/>
      <path id="Trazado_105041" data-name="Trazado 105041" d="M-209.643,6252.635a5.726,5.726,0,0,0-1.875-1.2,8.4,8.4,0,0,0-2.563-.45,33.222,33.222,0,0,0-3.5.205,10.134,10.134,0,0,1-4.3-.369,6.551,6.551,0,0,1-3.554-3.431,19.514,19.514,0,0,1-1.531-5.241,15.03,15.03,0,0,0-1.826-5.38,18.875,18.875,0,0,0-4-4.094,19.436,19.436,0,0,1-3.841-3.9,12.8,12.8,0,0,1-1.908-8.917,12.552,12.552,0,0,1,2.326-5.732,10.647,10.647,0,0,1,1.138-1.229c.287-.262.434-.393.45-.376a3.31,3.31,0,0,1-.377.451,13.258,13.258,0,0,0-1.048,1.3,12.9,12.9,0,0,0-2.129,5.659,12.607,12.607,0,0,0,1.949,8.606,19.326,19.326,0,0,0,3.767,3.775,19.2,19.2,0,0,1,4.094,4.176,15.461,15.461,0,0,1,1.883,5.56,19.343,19.343,0,0,0,1.466,5.126,6.189,6.189,0,0,0,3.275,3.275,10.036,10.036,0,0,0,4.094.4,30.336,30.336,0,0,1,3.538-.131,8.016,8.016,0,0,1,2.629.557,4.429,4.429,0,0,1,1.458.925,2.238,2.238,0,0,1,.295.336C-209.659,6252.586-209.635,6252.635-209.643,6252.635Z" transform="translate(335.922 -6175.53)" fill="#d9a171"/>
      <path id="Trazado_105042" data-name="Trazado 105042" d="M-317.28,6263.592a11.988,11.988,0,0,0-11.418-12.533,11.967,11.967,0,0,0-4.788.758,20,20,0,0,0,15.8,11.628" transform="translate(353.09 -6182.507)" fill="#d9a171"/>
      <path id="Trazado_105043" data-name="Trazado 105043" d="M-317.883,6268.183c-2.317,2.538-2.17,6.632-.508,9.646s4.512,5.167,7.37,7.083a15.56,15.56,0,0,0-6.707-17.655" transform="translate(350.581 -6185.443)" fill="#d9a171"/>
      <path id="Trazado_105044" data-name="Trazado 105044" d="M-303.819,6253.764a13.839,13.839,0,0,0,15.147,12.394q.289-.029.576-.07c-.9-3.726-2.4-7.476-5.274-10.006s-7.37-3.464-10.6-1.335" transform="translate(347.743 -6182.964)" fill="#d9a171"/>
      <path id="Trazado_105045" data-name="Trazado 105045" d="M-307.62,6247.793c-.581-3.39-3.931-5.847-7.37-6.166s-6.813,1.146-9.556,3.218a12.423,12.423,0,0,0,16.943,1.638" transform="translate(351.471 -6180.793)" fill="#d9a171"/>
      <path id="Trazado_105046" data-name="Trazado 105046" d="M-326.179,6284.163c-3.275,2.776-4.094,7.722-2.719,11.784s4.52,7.3,8.082,9.671c1.367-4.021,2.219-8.336,1.5-12.529s-3.276-8.23-7.132-9.941" transform="translate(352.375 -6188.321)" fill="#d9a171"/>
      <path id="Trazado_105047" data-name="Trazado 105047" d="M-304.526,6236.586a9.99,9.99,0,0,1,13.873-2.672,10,10,0,0,1,1.964,1.747,8.64,8.64,0,0,1-11.427,4.326,8.637,8.637,0,0,1-4.132-3.925" transform="translate(347.845 -6179.093)" fill="#d9a171"/>
      <path id="Trazado_105048" data-name="Trazado 105048" d="M-303.355,6223.324a13.005,13.005,0,0,1-16.2-8.713,13.1,13.1,0,0,1-.346-1.45,29.473,29.473,0,0,1,7.828.115,12.729,12.729,0,0,1,6.936,3.415,6.879,6.879,0,0,1,1.81,6.633" transform="translate(350.629 -6175.608)" fill="#d9a171"/>
      <path id="Trazado_105049" data-name="Trazado 105049" d="M-291.334,6218.9a10.644,10.644,0,0,1-1.447-14.985,10.634,10.634,0,0,1,1.381-1.393,22.115,22.115,0,0,1,4.643,9.909,8.253,8.253,0,0,1,0,4.094,3.768,3.768,0,0,1-2.866,2.686" transform="translate(346.157 -6173.719)" fill="#d9a171"/>
      <g id="Grupo_56690" data-name="Grupo 56690" transform="translate(19.604 68.538)" opacity="0.4">
        <path id="Trazado_105050" data-name="Trazado 105050" d="M-317.28,6263.592a11.988,11.988,0,0,0-11.418-12.533,11.967,11.967,0,0,0-4.788.758,20,20,0,0,0,15.8,11.628" transform="translate(333.486 -6251.045)"/>
      </g>
      <g id="Grupo_56691" data-name="Grupo 56691" transform="translate(30.949 81.813)" opacity="0.4">
        <path id="Trazado_105051" data-name="Trazado 105051" d="M-317.883,6268.183c-2.317,2.538-2.17,6.632-.508,9.646s4.512,5.167,7.37,7.083a15.56,15.56,0,0,0-6.707-17.655" transform="translate(319.632 -6267.257)"/>
      </g>
      <g id="Grupo_56692" data-name="Grupo 56692" transform="translate(43.777 70.601)" opacity="0.4">
        <path id="Trazado_105052" data-name="Trazado 105052" d="M-303.819,6253.764a13.839,13.839,0,0,0,15.147,12.394q.289-.029.576-.07c-.9-3.726-2.4-7.476-5.274-10.006s-7.37-3.464-10.6-1.335" transform="translate(303.966 -6253.565)"/>
      </g>
      <g id="Grupo_56693" data-name="Grupo 56693" transform="translate(26.925 60.791)" opacity="0.4">
        <path id="Trazado_105053" data-name="Trazado 105053" d="M-307.62,6247.793c-.581-3.39-3.931-5.847-7.37-6.166s-6.813,1.146-9.556,3.218a12.423,12.423,0,0,0,16.943,1.638" transform="translate(324.546 -6241.583)"/>
      </g>
      <g id="Grupo_56694" data-name="Grupo 56694" transform="translate(22.838 94.825)" opacity="0.4">
        <path id="Trazado_105054" data-name="Trazado 105054" d="M-326.179,6284.163c-3.275,2.776-4.094,7.722-2.719,11.784s4.52,7.3,8.082,9.671c1.367-4.021,2.219-8.336,1.5-12.529s-3.276-8.23-7.132-9.941" transform="translate(329.536 -6283.147)"/>
      </g>
      <g id="Grupo_56695" data-name="Grupo 56695" transform="translate(43.319 53.102)" opacity="0.4">
        <path id="Trazado_105055" data-name="Trazado 105055" d="M-304.526,6236.586a9.99,9.99,0,0,1,13.873-2.672,10,10,0,0,1,1.964,1.747,8.64,8.64,0,0,1-11.427,4.326,8.637,8.637,0,0,1-4.132-3.925" transform="translate(304.526 -6232.195)"/>
      </g>
      <g id="Grupo_56696" data-name="Grupo 56696" transform="translate(30.733 37.346)" opacity="0.4">
        <path id="Trazado_105056" data-name="Trazado 105056" d="M-303.355,6223.324a13.005,13.005,0,0,1-16.2-8.713,13.1,13.1,0,0,1-.346-1.45,29.473,29.473,0,0,1,7.828.115,12.729,12.729,0,0,1,6.936,3.415,6.879,6.879,0,0,1,1.81,6.633" transform="translate(319.896 -6212.954)"/>
      </g>
      <g id="Grupo_56697" data-name="Grupo 56697" transform="translate(50.947 28.808)" opacity="0.4">
        <path id="Trazado_105057" data-name="Trazado 105057" d="M-291.334,6218.9a10.644,10.644,0,0,1-1.447-14.985,10.634,10.634,0,0,1,1.381-1.393,22.115,22.115,0,0,1,4.643,9.909,8.253,8.253,0,0,1,0,4.094,3.768,3.768,0,0,1-2.866,2.686" transform="translate(295.211 -6202.527)"/>
      </g>
      <path id="Trazado_105058" data-name="Trazado 105058" d="M-283.95,6246.255a1.08,1.08,0,0,1,0-.262,5.432,5.432,0,0,1,.049-.819c.049-.68.106-1.695.131-3a26.851,26.851,0,0,0-1.761-10.769,16.436,16.436,0,0,0-4.332-6.092,11.577,11.577,0,0,0-7.878-2.9,9.987,9.987,0,0,0-4.447,1.114,8.837,8.837,0,0,0-3.431,3.275c-1.72,2.833-2.145,6.387-1.99,9.9s.622,7.018.229,10.416a15.817,15.817,0,0,1-1.294,4.832,10.149,10.149,0,0,1-2.915,3.815,14.584,14.584,0,0,1-4.094,2.08,20.076,20.076,0,0,0-3.824,1.736,13.808,13.808,0,0,0-5.028,5.47,13.241,13.241,0,0,0-1.417,6.068,14.074,14.074,0,0,0,.762,4.627,17.3,17.3,0,0,0,1.793,3.6,2.312,2.312,0,0,1-.172-.205,6.618,6.618,0,0,1-.459-.639,12.384,12.384,0,0,1-1.351-2.694,13.907,13.907,0,0,1-.819-4.692,13.489,13.489,0,0,1,1.417-6.158,14.234,14.234,0,0,1,5.118-5.674c2.35-1.556,5.437-1.941,7.82-3.816s3.644-5.077,4-8.336-.123-6.772-.246-10.342.27-7.222,2.08-10.178a9.349,9.349,0,0,1,3.628-3.456,10.23,10.23,0,0,1,4.668-1.146,11.943,11.943,0,0,1,8.189,3.046,16.742,16.742,0,0,1,4.389,6.272,22.384,22.384,0,0,1,1.49,6.15,34.169,34.169,0,0,1,.139,4.766c-.057,1.3-.156,2.318-.229,3a5.237,5.237,0,0,1-.1.777C-283.852,6246.231-283.934,6246.255-283.95,6246.255Z" transform="translate(351.77 -6177.249)" fill="#d9a171"/>
      <g id="Grupo_56698" data-name="Grupo 56698" transform="translate(25.573 44.766)" opacity="0.4">
        <path id="Trazado_105059" data-name="Trazado 105059" d="M-283.95,6246.255a1.08,1.08,0,0,1,0-.262,5.432,5.432,0,0,1,.049-.819c.049-.68.106-1.695.131-3a26.851,26.851,0,0,0-1.761-10.769,16.436,16.436,0,0,0-4.332-6.092,11.577,11.577,0,0,0-7.878-2.9,9.987,9.987,0,0,0-4.447,1.114,8.837,8.837,0,0,0-3.431,3.275c-1.72,2.833-2.145,6.387-1.99,9.9s.622,7.018.229,10.416a15.817,15.817,0,0,1-1.294,4.832,10.149,10.149,0,0,1-2.915,3.815,14.584,14.584,0,0,1-4.094,2.08,20.076,20.076,0,0,0-3.824,1.736,13.808,13.808,0,0,0-5.028,5.47,13.241,13.241,0,0,0-1.417,6.068,14.074,14.074,0,0,0,.762,4.627,17.3,17.3,0,0,0,1.793,3.6,2.312,2.312,0,0,1-.172-.205,6.618,6.618,0,0,1-.459-.639,12.384,12.384,0,0,1-1.351-2.694,13.907,13.907,0,0,1-.819-4.692,13.489,13.489,0,0,1,1.417-6.158,14.234,14.234,0,0,1,5.118-5.674c2.35-1.556,5.437-1.941,7.82-3.816s3.644-5.077,4-8.336-.123-6.772-.246-10.342.27-7.222,2.08-10.178a9.349,9.349,0,0,1,3.628-3.456,10.23,10.23,0,0,1,4.668-1.146,11.943,11.943,0,0,1,8.189,3.046,16.742,16.742,0,0,1,4.389,6.272,22.384,22.384,0,0,1,1.49,6.15,34.169,34.169,0,0,1,.139,4.766c-.057,1.3-.156,2.318-.229,3a5.237,5.237,0,0,1-.1.777C-283.852,6246.231-283.934,6246.255-283.95,6246.255Z" transform="translate(326.197 -6222.015)"/>
      </g>
      <path id="Trazado_105060" data-name="Trazado 105060" d="M-201.4,6236.056a10.187,10.187,0,0,0,.7-3.472,8.706,8.706,0,0,0-.917-4,8.351,8.351,0,0,0-3.865-3.734,8.5,8.5,0,0,0-3.046-.819,10.067,10.067,0,0,0-3.407.4c-2.326.614-4.618,1.933-7.37,2.457a8.72,8.72,0,0,1-4.275-.107,6.41,6.41,0,0,1-3.48-2.784c-1.638-2.563-2.121-5.781-4.094-8.188a8.193,8.193,0,0,0-3.742-2.457,10.472,10.472,0,0,0-4.373-.442,11.194,11.194,0,0,0-7.272,3.783,17.094,17.094,0,0,0-3.611,6.682,20.092,20.092,0,0,0-.819,6.617,71.538,71.538,0,0,0,1.237,9.679c.188,1.105.336,1.981.45,2.621a4.3,4.3,0,0,0,.1.688.506.506,0,0,1,0,.238,1.248,1.248,0,0,1-.066-.229,3.609,3.609,0,0,0-.156-.671l-.54-2.612a65.194,65.194,0,0,1-1.392-9.614,20.391,20.391,0,0,1,.762-6.747,17.432,17.432,0,0,1,3.669-6.878,13.081,13.081,0,0,1,3.325-2.662,11.462,11.462,0,0,1,8.836-.819,8.634,8.634,0,0,1,3.972,2.6c2.113,2.539,2.563,5.781,4.152,8.189a5.931,5.931,0,0,0,3.2,2.587,8.326,8.326,0,0,0,4.037.106c2.645-.508,4.954-1.81,7.37-2.457a10.437,10.437,0,0,1,3.554-.385,8.9,8.9,0,0,1,3.169.892,8.638,8.638,0,0,1,3.963,3.931,8.813,8.813,0,0,1,.868,4.144,8.216,8.216,0,0,1-.516,2.62A4.46,4.46,0,0,1-201.4,6236.056Z" transform="translate(338.216 -6175.517)" fill="#d9a171"/>
      <path id="Trazado_105061" data-name="Trazado 105061" d="M-224.257,6218.666a9.205,9.205,0,0,0,8.451.557,8.512,8.512,0,0,0,4.3-6.8,9.684,9.684,0,0,0-7.853-.4,9.539,9.539,0,0,0-5.216,5.838" transform="translate(333.364 -6175.323)" fill="#d9a171"/>
      <path id="Trazado_105062" data-name="Trazado 105062" d="M-213.226,6230a9.2,9.2,0,0,0,3.931,7.509,8.517,8.517,0,0,0,8.041.131,9.089,9.089,0,0,0-9.522-8.636,9.052,9.052,0,0,0-1.942.308" transform="translate(331.308 -6178.514)" fill="#d9a171"/>
      <path id="Trazado_105063" data-name="Trazado 105063" d="M-194.278,6226.16a9.188,9.188,0,0,0,8.459-.353,8.518,8.518,0,0,0,3.554-7.214,9.089,9.089,0,0,0-11.875,4.92,9.058,9.058,0,0,0-.555,1.909" transform="translate(327.952 -6176.503)" fill="#d9a171"/>
      <path id="Trazado_105064" data-name="Trazado 105064" d="M-240.935,6210.57c-2.268-1.957-3.791-5.4-3.357-7.976a8.524,8.524,0,0,1,5.224-6.117,9.65,9.65,0,0,1,2.7,7.37,9.525,9.525,0,0,1-4.037,6.714" transform="translate(336.948 -6172.624)" fill="#d9a171"/>
      <path id="Trazado_105065" data-name="Trazado 105065" d="M-314.476,6197.482a.419.419,0,0,1,.09-.205l.311-.581c.295-.508.737-1.245,1.376-2.146a23.111,23.111,0,0,1,6.78-6.412,16.638,16.638,0,0,1,6.084-2.187,15.027,15.027,0,0,1,7.37.77,12.014,12.014,0,0,1,6.322,5.184c1.449,2.531,1.916,5.511,2.768,8.361a15.042,15.042,0,0,0,1.769,3.98,11.976,11.976,0,0,0,3,2.964c1.138.819,2.317,1.581,3.39,2.457a14.77,14.77,0,0,1,2.751,2.981,18.5,18.5,0,0,1,2.85,6.878,24.662,24.662,0,0,1,.377,6.469,49.237,49.237,0,0,1-1.638,9.2c-.287,1.064-.516,1.891-.68,2.457a5.951,5.951,0,0,1-.278.819,5.4,5.4,0,0,1,.172-.868c.147-.606.344-1.433.59-2.457a52.033,52.033,0,0,0,1.482-9.172,24.285,24.285,0,0,0-.426-6.362,18.133,18.133,0,0,0-2.792-6.7,14,14,0,0,0-2.669-2.866c-1.048-.819-2.219-1.589-3.374-2.457a12.388,12.388,0,0,1-3.128-3.079,15.535,15.535,0,0,1-1.834-4.094c-.819-2.9-1.327-5.831-2.719-8.263a11.521,11.521,0,0,0-6.051-4.987,14.741,14.741,0,0,0-7.165-.819,16.36,16.36,0,0,0-5.953,2.129,23.621,23.621,0,0,0-6.8,6.207c-.663.885-1.13,1.638-1.449,2.08A5.25,5.25,0,0,1-314.476,6197.482Z" transform="translate(349.647 -6170.689)" fill="#d9a171"/>
      <path id="Trazado_105066" data-name="Trazado 105066" d="M-271.1,6212.732c-.819-.737-1.171-.229-2.219,0a6.55,6.55,0,0,0-2.85,1.417,11.979,11.979,0,0,0-3.881,12.579,9.353,9.353,0,0,0,9.851-8.824,9.353,9.353,0,0,0-1.261-5.229" transform="translate(343.498 -6175.498)" fill="#d9a171"/>
      <path id="Trazado_105067" data-name="Trazado 105067" d="M-311.453,6194.663c-.4-1-.958-.7-2-.983a6.551,6.551,0,0,0-3.177.058,11.988,11.988,0,0,0-8.918,9.679,9.344,9.344,0,0,0,12.684-3.7,9.341,9.341,0,0,0,1.115-5.3" transform="translate(351.652 -6172.086)" fill="#d9a171"/>
      <path id="Trazado_105068" data-name="Trazado 105068" d="M-264.111,6236.212a10.8,10.8,0,0,0-15.236-1.1,10.831,10.831,0,0,0-1.739,1.917,13.364,13.364,0,0,0,8.8,3.472,13.708,13.708,0,0,0,8.868-3.586" transform="translate(343.599 -6179.145)" fill="#d9a171"/>
      <path id="Trazado_105069" data-name="Trazado 105069" d="M-263.8,6216.034a10.939,10.939,0,0,0,11.258-10.612,10.9,10.9,0,0,0-.211-2.489,9.826,9.826,0,0,0-11.764,7.4,9.824,9.824,0,0,0,.349,5.549" transform="translate(340.642 -6173.748)" fill="#d9a171"/>
      <path id="Trazado_105070" data-name="Trazado 105070" d="M-277.5,6195.431a10.932,10.932,0,0,0,14.125-6.284,10.948,10.948,0,0,0,.615-2.355,9.826,9.826,0,0,0-13.553,3.071,9.823,9.823,0,0,0-1.514,5.347" transform="translate(343.009 -6170.595)" fill="#d9a171"/>
      <path id="Trazado_105071" data-name="Trazado 105071" d="M-285.326,6190.576a10.941,10.941,0,0,0-14.13,6.3,10.962,10.962,0,0,0-.609,2.337,9.826,9.826,0,0,0,13.544-3.111,9.821,9.821,0,0,0,1.5-5.323" transform="translate(347.037 -6171.423)" fill="#d9a171"/>
      <path id="Trazado_105072" data-name="Trazado 105072" d="M-288.193,6183.43a10.949,10.949,0,0,0,6.852-13.885,10.931,10.931,0,0,0-1.029-2.2,9.826,9.826,0,0,0-8.434,11.045,9.824,9.824,0,0,0,2.235,5.038" transform="translate(345.375 -6167.347)" fill="#d9a171"/>
      <path id="Trazado_105073" data-name="Trazado 105073" d="M-304.059,6184.449a10.957,10.957,0,0,0-6.586-14.026,10.966,10.966,0,0,0-2.364-.566,9.825,9.825,0,0,0,3.329,13.492,9.829,9.829,0,0,0,5.384,1.412" transform="translate(349.638 -6167.802)" fill="#d9a171"/>
      <path id="Trazado_105074" data-name="Trazado 105074" d="M-282.426,6292l3.628,4.5h44.588l3.038-4.5Z" transform="translate(343.842 -6189.925)" fill="#344154"/>
      <path id="Trazado_105075" data-name="Trazado 105075" d="M-231.862,6291.931c0,.14-10.957.254-24.468.254s-24.476-.114-24.476-.254,10.957-.254,24.476-.254S-231.862,6291.759-231.862,6291.931Z" transform="translate(343.548 -6189.867)" fill="#455a64"/>
      <path id="Trazado_105076" data-name="Trazado 105076" d="M-236.261,6271.134a2.9,2.9,0,0,1-.278.368,9.645,9.645,0,0,1-.909.958,16.591,16.591,0,0,1-3.98,2.759,17.471,17.471,0,0,1-6.96,1.786,16.626,16.626,0,0,1-4.258-.353,25.158,25.158,0,0,1-4.34-1.441c-2.874-1.229-5.486-2.621-8.033-3.431a13.8,13.8,0,0,0-6.936-.663,8.921,8.921,0,0,0-4.258,1.974,17.249,17.249,0,0,0-1.212,1.261,2.534,2.534,0,0,1,.221-.4,6.123,6.123,0,0,1,.819-1.007,8.854,8.854,0,0,1,4.324-2.187,13.923,13.923,0,0,1,7.149.573c2.612.819,5.249,2.2,8.09,3.407a25.894,25.894,0,0,0,4.25,1.425,16.828,16.828,0,0,0,4.135.368,17.481,17.481,0,0,0,6.821-1.638A20.833,20.833,0,0,0-236.261,6271.134Z" transform="translate(342.936 -6186.037)" fill="#455a64"/>
      <path id="Trazado_105077" data-name="Trazado 105077" d="M-235.922,6266.924a2.782,2.782,0,0,1-.3.344,11,11,0,0,1-.974.893,18.826,18.826,0,0,1-4.094,2.563,19.474,19.474,0,0,1-7.01,1.638,19.173,19.173,0,0,1-4.275-.287,29.119,29.119,0,0,1-4.406-1.245c-2.94-1.073-5.642-2.3-8.23-3.022a16.384,16.384,0,0,0-6.993-.63,10.5,10.5,0,0,0-4.414,1.687c-.925.647-1.335,1.146-1.367,1.105s.082-.131.278-.369a7.545,7.545,0,0,1,.974-.9,10.233,10.233,0,0,1,4.471-1.884,16.323,16.323,0,0,1,7.182.541c2.637.7,5.364,1.933,8.271,2.989a28.7,28.7,0,0,0,4.332,1.236,18.55,18.55,0,0,0,4.152.3,19.434,19.434,0,0,0,6.887-1.531A23.966,23.966,0,0,0-235.922,6266.924Z" transform="translate(343.039 -6185.332)" fill="#455a64"/>
      <rect id="Rectángulo_5698" data-name="Rectángulo 5698" width="4.356" height="12.136" transform="translate(39.257 111.563)" fill="#455a64"/>
      <rect id="Rectángulo_5699" data-name="Rectángulo 5699" width="4.356" height="12.136" transform="translate(101.36 111.563)" fill="#455a64"/>
    </g>
    <g id="freepik--Desk--inject-112" transform="translate(-802.422 6508.102)">
      <path id="Trazado_105078" data-name="Trazado 105078" d="M-292.951,6585.42c0,.123-112.292.213-250.78.213s-250.8-.09-250.8-.213,112.268-.213,250.8-.213S-292.951,6585.306-292.951,6585.42Z" transform="translate(794.536 -6585.207)" fill="#344154"/>
    </g>
    <g id="freepik--pencil-cup--inject-112" transform="translate(-590.121 6462.654)">
      <path id="Trazado_105079" data-name="Trazado 105079" d="M-522.286,6568.5a2.406,2.406,0,0,0,.082.426s.041.091.082.074.041-.058,0-.09,0-.295-.057-.434" transform="translate(532.923 -6536.729)" fill="#344154"/>
      <path id="Trazado_105080" data-name="Trazado 105080" d="M-530.592,6534.655c.622,2.981,5.192,24.641,5.192,24.641l2.252-.483-5-24.648a1.253,1.253,0,0,0-1.384-1h0a1.244,1.244,0,0,0-1.073,1.4C-530.6,6534.592-530.6,6534.624-530.592,6534.655Z" transform="translate(534.433 -6530.331)" fill="#455a64"/>
      <path id="Trazado_105081" data-name="Trazado 105081" d="M-530.115,6533.332l-.262-1.638a.606.606,0,0,1,.475-.68h0a.6.6,0,0,1,.7.474l0,.025.237,1.564Z" transform="translate(534.39 -6529.941)" fill="#455a64"/>
      <path id="Trazado_105082" data-name="Trazado 105082" d="M-527.578,6537.173a3.814,3.814,0,0,1-1.163.246,4.274,4.274,0,0,1-1.2.082,4.061,4.061,0,0,1,1.171-.254A3.975,3.975,0,0,1-527.578,6537.173Z" transform="translate(534.309 -6531.056)" fill="#344154"/>
      <path id="Trazado_105083" data-name="Trazado 105083" d="M-530.149,6539.514a5.365,5.365,0,0,1-.344-1.056c-.188-.671-.409-1.6-.6-2.637a3.479,3.479,0,0,1-.057-1.507,1.637,1.637,0,0,1,.745-.982,1.517,1.517,0,0,1,.819-.205.725.725,0,0,1,.295.049,2.284,2.284,0,0,1-.295,0,1.644,1.644,0,0,0-.745.246,1.575,1.575,0,0,0-.655.917,3.6,3.6,0,0,0,.074,1.433c.188,1.04.393,1.965.54,2.637A8.165,8.165,0,0,1-530.149,6539.514Z" transform="translate(534.539 -6530.326)" fill="#344154"/>
      <path id="Trazado_105084" data-name="Trazado 105084" d="M-524.246,6564.98s1.228,2.98,1.687,2.891.565-3.374.565-3.374Z" transform="translate(533.278 -6536.008)" fill="#455a64"/>
      <path id="Trazado_105085" data-name="Trazado 105085" d="M-522.07,6564.595a7.576,7.576,0,0,0-1.114.065,6.7,6.7,0,0,0-1.073.312,1.227,1.227,0,0,1,.287-.155,3.254,3.254,0,0,1,.77-.222,3.649,3.649,0,0,1,.819-.049A1.974,1.974,0,0,1-522.07,6564.595Z" transform="translate(533.28 -6536.016)" fill="#344154"/>
      <path id="Trazado_105086" data-name="Trazado 105086" d="M-522.3,6572.887a2.412,2.412,0,0,0-.057.426c0,.041,0,.1.049.1s.057-.041.065-.082l.082-.425" transform="translate(532.936 -6537.528)" fill="#344154"/>
      <path id="Trazado_105087" data-name="Trazado 105087" d="M-520.041,6538.236c-.368,3.029-3.005,25.009-3.005,25.009l2.293.262,3.185-24.951a1.237,1.237,0,0,0-.991-1.384h0a1.253,1.253,0,0,0-1.47.989C-520.033,6538.187-520.037,6538.211-520.041,6538.236Z" transform="translate(533.061 -6531.055)" fill="#455a64"/>
      <path id="Trazado_105088" data-name="Trazado 105088" d="M-518.5,6537.095l.27-1.638a.6.6,0,0,1,.663-.491h0a.6.6,0,0,1,.511.673l0,.023-.27,1.564Z" transform="translate(532.237 -6530.658)" fill="#455a64"/>
      <path id="Trazado_105089" data-name="Trazado 105089" d="M-517.214,6541.587a4.5,4.5,0,0,1-1.187-.139,4.777,4.777,0,0,1-1.155-.311,3.783,3.783,0,0,1,1.187.139A4.039,4.039,0,0,1-517.214,6541.587Z" transform="translate(532.429 -6531.776)" fill="#344154"/>
      <path id="Trazado_105090" data-name="Trazado 105090" d="M-520.652,6543a6.264,6.264,0,0,1,0-1.122c.041-.688.131-1.638.287-2.678a3.443,3.443,0,0,1,.426-1.441,1.634,1.634,0,0,1,1.024-.7,1.638,1.638,0,0,1,.819.065c.18.065.27.139.262.147s-.1,0-.287-.082a1.533,1.533,0,0,0-.778,0,1.5,1.5,0,0,0-.917.655,3.5,3.5,0,0,0-.393,1.384c-.156,1.04-.262,1.982-.328,2.67A9.143,9.143,0,0,1-520.652,6543Z" transform="translate(532.632 -6531.034)" fill="#344154"/>
      <path id="Trazado_105091" data-name="Trazado 105091" d="M-523.046,6568.987s.2,3.218.672,3.276,1.638-3.013,1.638-3.013Z" transform="translate(533.061 -6536.821)" fill="#455a64"/>
      <path id="Trazado_105092" data-name="Trazado 105092" d="M-520.861,6569.323a7.951,7.951,0,0,0-1.073-.3,6.838,6.838,0,0,0-1.122-.041,1.085,1.085,0,0,1,.328-.058,3.533,3.533,0,0,1,.819,0,3.764,3.764,0,0,1,.77.213A1.307,1.307,0,0,1-520.861,6569.323Z" transform="translate(533.063 -6536.805)" fill="#344154"/>
      <path id="Trazado_105093" data-name="Trazado 105093" d="M-512.228,6567.906a2.462,2.462,0,0,0,0,.425c0,.041,0,.1.074.09s.041-.049.049-.09v-.434" transform="translate(531.103 -6536.625)" fill="#344154"/>
      <path id="Trazado_105094" data-name="Trazado 105094" d="M-514.976,6533.2c.131,3.046,1.122,25.156,1.122,25.156l2.3-.106-.934-25.14a1.236,1.236,0,0,0-1.2-1.2h0a1.245,1.245,0,0,0-1.286,1.2C-514.978,6533.14-514.978,6533.17-514.976,6533.2Z" transform="translate(531.6 -6530.105)" fill="#455a64"/>
      <path id="Trazado_105095" data-name="Trazado 105095" d="M-514.266,6531.942V6530.3a.605.605,0,0,1,.573-.6h0a.6.6,0,0,1,.614.582v1.613Z" transform="translate(531.471 -6529.707)" fill="#455a64"/>
      <path id="Trazado_105096" data-name="Trazado 105096" d="M-512.371,6536.186a3.893,3.893,0,0,1-1.187.049,4.187,4.187,0,0,1-1.187-.114,4.087,4.087,0,0,1,1.187-.058A3.879,3.879,0,0,1-512.371,6536.186Z" transform="translate(531.558 -6530.854)" fill="#344154"/>
      <path id="Trazado_105097" data-name="Trazado 105097" d="M-515.352,6538.073a5.6,5.6,0,0,1-.172-1.1c-.074-.68-.139-1.638-.156-2.686a3.469,3.469,0,0,1,.188-1.5,1.59,1.59,0,0,1,.893-.819,1.545,1.545,0,0,1,.819-.082c.2.041.295.1.287.106a.988.988,0,0,1-.295-.041,1.645,1.645,0,0,0-.77.131,1.474,1.474,0,0,0-.819.819,3.433,3.433,0,0,0-.164,1.425c0,1.048.065,2,.106,2.686A9.457,9.457,0,0,1-515.352,6538.073Z" transform="translate(531.73 -6530.097)" fill="#344154"/>
      <path id="Trazado_105098" data-name="Trazado 105098" d="M-513.606,6564.174s.721,3.145,1.2,3.128,1.105-3.275,1.105-3.275Z" transform="translate(531.351 -6535.923)" fill="#455a64"/>
      <path id="Trazado_105099" data-name="Trazado 105099" d="M-511.4,6564.125a8.211,8.211,0,0,0-1.114-.122,7.926,7.926,0,0,0-1.106.139,1.174,1.174,0,0,1,.311-.106,3.789,3.789,0,0,1,.819-.1,3.355,3.355,0,0,1,.819.09A1.4,1.4,0,0,1-511.4,6564.125Z" transform="translate(531.353 -6535.907)" fill="#344154"/>
      <path id="Trazado_105100" data-name="Trazado 105100" d="M-532.68,6579.711l-2.6-27.784h23.821l-2.375,27.687Z" transform="translate(535.276 -6533.731)" fill="#d9a171"/>
      <path id="Trazado_105101" data-name="Trazado 105101" d="M-511.995,6563.03c0,.115-4.971.213-11.1.213s-11.1-.1-11.1-.213,4.962-.213,11.1-.213S-511.995,6562.907-511.995,6563.03Z" transform="translate(535.079 -6535.704)" fill="#344154"/>
      <path id="Trazado_105102" data-name="Trazado 105102" d="M-512.281,6566.149c0,.123-4.913.214-10.957.214s-10.948-.091-10.948-.214,4.913-.212,10.948-.212S-512.281,6566.035-512.281,6566.149Z" transform="translate(535.079 -6536.27)" fill="#344154"/>
      <path id="Trazado_105103" data-name="Trazado 105103" d="M-512.218,6569.939c0,.124-4.839.214-10.809.214s-10.809-.09-10.809-.214,4.84-.212,10.809-.212S-512.218,6569.85-512.218,6569.939Z" transform="translate(535.015 -6536.956)" fill="#344154"/>
    </g>
    <g id="freepik--Device--inject-112" transform="translate(-562.623 6357.257)">
      <path id="Trazado_105104" data-name="Trazado 105104" d="M-497.52,6579.627h86.555a4.177,4.177,0,0,1,4.176,4.177h0v.868H-501.7v-.868a4.176,4.176,0,0,1,4.176-4.177Z" transform="translate(501.696 -6433.352)" fill="#455a64"/>
      <rect id="Rectángulo_5700" data-name="Rectángulo 5700" width="166.715" height="117.82" transform="translate(30.732)" fill="#455a64"/>
      <rect id="Rectángulo_5701" data-name="Rectángulo 5701" width="42.016" height="62.742" transform="translate(98.936 88.463)" fill="#455a64"/>
      <path id="Trazado_105105" data-name="Trazado 105105" d="M-339.054,6536.3a.8.8,0,0,1,0-.139v-7.943c.049-5.151.123-12.406.2-20.988l.188.2h-42.221l.2-.2c0,8.582-.065,15.846-.082,20.988,0,2.538,0,4.553-.057,5.961v0c0-1.408,0-3.423-.049-5.961,0-5.143-.049-12.406-.082-20.988v-.2h42.614v.2c-.147,8.582-.27,15.846-.352,20.988-.057,2.538-.106,4.553-.139,5.961a14.139,14.139,0,0,1-.049,1.581v.4C-338.882,6536.271-339.046,6536.3-339.054,6536.3Z" transform="translate(479.827 -6420.204)" fill="#344154"/>
      <path id="Trazado_105106" data-name="Trazado 105106" d="M-374.333,6570.89c-.123,0-.213-13.994-.213-31.256s.09-31.256.213-31.256.213,13.987.213,31.256S-374.218,6570.89-374.333,6570.89Z" transform="translate(478.666 -6420.446)" fill="#344154"/>
      <path id="Trazado_105107" data-name="Trazado 105107" d="M-456.063,6518.943c-.115,0-.213-26.253-.213-58.623s.1-58.624.213-58.624.213,26.2.213,58.624S-455.94,6518.943-456.063,6518.943Z" transform="translate(493.469 -6401.124)" fill="#344154"/>
      <path id="Trazado_105108" data-name="Trazado 105108" d="M-339.325,6487.429a4.833,4.833,0,0,0,1.089-.229,3.274,3.274,0,0,0,2.031-2.252,3.527,3.527,0,0,0,.106-1.072v-1.221a3.226,3.226,0,0,0-1.122-2.342,3.181,3.181,0,0,0-1.31-.672,6.818,6.818,0,0,0-1.638-.09h-3.57l-39.06.058a3.125,3.125,0,0,0-2.35,1.081,3.276,3.276,0,0,0-.762,2.457v1.358a3.1,3.1,0,0,0,2.457,2.629,6.669,6.669,0,0,0,1.294.065h9.008l17.565.049,11.841.066,3.218.04h-3.218l-11.841.074-17.565.041h-9.008a7.2,7.2,0,0,1-1.376-.074,3.5,3.5,0,0,1-2.792-2.98,11.862,11.862,0,0,1-.041-1.417,3.736,3.736,0,0,1,.868-2.751,3.58,3.58,0,0,1,2.67-1.22l39.06.065h3.57a6.63,6.63,0,0,1,1.638.114,3.382,3.382,0,0,1,1.4.737,3.44,3.44,0,0,1,1.171,2.514v1.229a3.778,3.778,0,0,1-.123,1.113,3.342,3.342,0,0,1-2.17,2.293,3.087,3.087,0,0,1-.819.155Z" transform="translate(480.81 -6415.131)" fill="#344154"/>
    </g>
    <g id="freepik--Calendar--inject-112" transform="translate(-596.705 6229.717)">
      <rect id="Rectángulo_5702" data-name="Rectángulo 5702" width="125.058" height="111.891" transform="translate(0.262 0.459)" fill="#fafafa"/>
      <path id="Trazado_105109" data-name="Trazado 105109" d="M-417.987,6357.588v-8.074c0-5.249-.049-12.93-.082-22.708,0-19.555-.09-47.495-.147-81.068l.295.294-125.05.049h0l.352-.344c0,40.706,0,79-.041,111.882l-.311-.3,90.453.155,25.516.082h.123l-25.442.082-90.649.155h-.3v-.311c0-32.877,0-71.176-.041-111.883v-.352h.36l125.05.057h.295v.295c-.065,33.7-.115,61.694-.156,81.29,0,9.745-.057,17.4-.074,22.642v5.937A12.357,12.357,0,0,1-417.987,6357.588Z" transform="translate(543.316 -6245.247)" fill="#344154"/>
      <path id="Trazado_105110" data-name="Trazado 105110" d="M-417.976,6357.6v-8.066c0-5.257-.041-12.938-.074-22.715,0-19.546-.09-47.495-.147-81.068l.287.278-125.05.057h0l.336-.335c0,40.706,0,79-.041,111.882l-.295-.294,90.453.155,25.516.074h6.821l-6.7.041-25.442.074-90.649.147h-.295V6245.317h.352l125.05.049h.278v.287c-.057,33.7-.106,61.686-.139,81.281,0,9.753-.057,17.41-.074,22.65v5.937A9.091,9.091,0,0,1-417.976,6357.6Z" transform="translate(543.305 -6245.26)" fill="#344154"/>
      <path id="Trazado_105111" data-name="Trazado 105111" d="M-490.938,6270.013c0,.18-6.551.328-14.7.328s-14.7-.147-14.7-.328,6.551-.336,14.7-.336S-490.938,6269.824-490.938,6270.013Z" transform="translate(539.154 -6249.672)" fill="#344154"/>
      <path id="Trazado_105112" data-name="Trazado 105112" d="M-437.562,6280.273c0,.18-18.081.328-40.387.328s-40.387-.147-40.387-.328,18.081-.336,40.387-.336S-437.562,6280.084-437.562,6280.273Z" transform="translate(538.791 -6251.53)" fill="#344154"/>
      <rect id="Rectángulo_5703" data-name="Rectángulo 5703" width="5.265" height="5.265" transform="translate(19.03 42.966)" fill="#344154"/>
      <rect id="Rectángulo_5704" data-name="Rectángulo 5704" width="5.265" height="5.265" transform="translate(32.001 42.966)" fill="#344154"/>
      <rect id="Rectángulo_5705" data-name="Rectángulo 5705" width="5.265" height="5.265" transform="translate(45.21 42.729)" fill="#d9a171"/>
      <rect id="Rectángulo_5706" data-name="Rectángulo 5706" width="5.265" height="5.265" transform="translate(57.935 42.966)" fill="#344154"/>
      <rect id="Rectángulo_5707" data-name="Rectángulo 5707" width="5.265" height="5.265" transform="translate(70.906 42.966)" fill="#344154"/>
      <rect id="Rectángulo_5708" data-name="Rectángulo 5708" width="5.265" height="5.265" transform="translate(83.877 42.966)" fill="#344154"/>
      <rect id="Rectángulo_5709" data-name="Rectángulo 5709" width="5.265" height="5.265" transform="translate(96.848 42.966)" fill="#344154"/>
      <rect id="Rectángulo_5710" data-name="Rectángulo 5710" width="5.265" height="5.265" transform="translate(19.03 54.168)" fill="#344154"/>
      <rect id="Rectángulo_5711" data-name="Rectángulo 5711" width="5.265" height="5.265" transform="translate(32.001 54.168)" fill="#344154"/>
      <rect id="Rectángulo_5712" data-name="Rectángulo 5712" width="5.265" height="5.265" transform="translate(44.972 54.168)" fill="#344154"/>
      <rect id="Rectángulo_5713" data-name="Rectángulo 5713" width="5.265" height="5.265" transform="translate(57.935 54.168)" fill="#344154"/>
      <rect id="Rectángulo_5714" data-name="Rectángulo 5714" width="5.265" height="5.265" transform="translate(70.906 54.168)" fill="#344154"/>
      <rect id="Rectángulo_5715" data-name="Rectángulo 5715" width="5.265" height="5.265" transform="translate(84.114 53.931)" fill="#d9a171"/>
      <rect id="Rectángulo_5716" data-name="Rectángulo 5716" width="5.265" height="5.265" transform="translate(96.848 54.168)" fill="#344154"/>
      <rect id="Rectángulo_5717" data-name="Rectángulo 5717" width="5.265" height="5.265" transform="translate(19.03 65.371)" fill="#344154"/>
      <rect id="Rectángulo_5718" data-name="Rectángulo 5718" width="5.265" height="5.265" transform="translate(32.239 65.133)" fill="#d9a171"/>
      <rect id="Rectángulo_5719" data-name="Rectángulo 5719" width="5.265" height="5.265" transform="translate(44.972 65.371)" fill="#344154"/>
      <rect id="Rectángulo_5720" data-name="Rectángulo 5720" width="5.265" height="5.265" transform="translate(57.935 65.371)" fill="#344154"/>
      <rect id="Rectángulo_5721" data-name="Rectángulo 5721" width="5.265" height="5.265" transform="translate(70.906 65.371)" fill="#344154"/>
      <rect id="Rectángulo_5722" data-name="Rectángulo 5722" width="5.265" height="5.265" transform="translate(83.877 65.371)" fill="#344154"/>
      <rect id="Rectángulo_5723" data-name="Rectángulo 5723" width="5.265" height="5.265" transform="translate(96.848 65.371)" fill="#344154"/>
      <rect id="Rectángulo_5724" data-name="Rectángulo 5724" width="5.265" height="5.265" transform="translate(19.03 76.573)" fill="#344154"/>
      <rect id="Rectángulo_5725" data-name="Rectángulo 5725" width="5.265" height="5.265" transform="translate(32.001 76.573)" fill="#344154"/>
      <rect id="Rectángulo_5726" data-name="Rectángulo 5726" width="5.265" height="5.265" transform="translate(44.972 76.573)" fill="#344154"/>
      <rect id="Rectángulo_5727" data-name="Rectángulo 5727" width="5.265" height="5.265" transform="translate(58.181 76.335)" fill="#d9a171"/>
      <rect id="Rectángulo_5728" data-name="Rectángulo 5728" width="5.265" height="5.265" transform="translate(70.906 76.573)" fill="#344154"/>
      <rect id="Rectángulo_5729" data-name="Rectángulo 5729" width="5.265" height="5.265" transform="translate(83.877 76.573)" fill="#344154"/>
      <rect id="Rectángulo_5730" data-name="Rectángulo 5730" width="5.265" height="5.265" transform="translate(96.848 76.573)" fill="#344154"/>
      <rect id="Rectángulo_5731" data-name="Rectángulo 5731" width="5.265" height="5.265" transform="translate(19.03 87.775)" fill="#344154"/>
      <rect id="Rectángulo_5732" data-name="Rectángulo 5732" width="5.265" height="5.265" transform="translate(32.001 87.775)" fill="#344154"/>
      <rect id="Rectángulo_5733" data-name="Rectángulo 5733" width="5.265" height="5.265" transform="translate(44.972 87.775)" fill="#344154"/>
      <rect id="Rectángulo_5734" data-name="Rectángulo 5734" width="5.265" height="5.265" transform="translate(57.935 87.775)" fill="#344154"/>
      <rect id="Rectángulo_5735" data-name="Rectángulo 5735" width="5.265" height="5.265" transform="translate(70.906 87.775)" fill="#344154"/>
      <rect id="Rectángulo_5736" data-name="Rectángulo 5736" width="5.265" height="5.265" transform="translate(84.114 87.538)" fill="#d9a171"/>
      <rect id="Rectángulo_5737" data-name="Rectángulo 5737" width="5.265" height="5.265" transform="translate(96.848 87.775)" fill="#344154"/>
    </g>
  </g>
</svg>
