<svg xmlns="http://www.w3.org/2000/svg" xmlns:xlink="http://www.w3.org/1999/xlink" width="300" height="300" viewBox="0 0 300 300">
  <defs>
    <clipPath id="clip-path">
      <path id="SVGID" d="M485,6293.213a1.4,1.4,0,0,1-.3.5c-2.14,2.026-11.277,4.275-19.125,5.9-6.5,1.349-12.093,2.262-12.093,2.262s-4.306-35.778-4.306-39.539-6.941-64.65-6.941-64.65l16.64-.719,22.076-.956s.133,1.627.357,4.469C482.766,6218.58,487.773,6286.072,485,6293.213Z" fill="none"/>
    </clipPath>
    <clipPath id="clip-path-2">
      <path id="SVGID-2" data-name="SVGID" d="M474.712,6188.347l44.334,11.694s-15.582,47.291-18.745,53.156l-5.284,41.225s-28.323-1.245-41.347-5.182c0,0,8.235-42.93,8.677-48.656S474.712,6188.347,474.712,6188.347Z" fill="none"/>
    </clipPath>
  </defs>
  <g id="Grupo_56547" data-name="Grupo 56547" transform="translate(-284.067 -6125.352)">
    <rect id="Rectángulo_5524" data-name="Rectángulo 5524" width="300" height="300" transform="translate(284.067 6125.352)" fill="#aed3f2" opacity="0"/>
    <g id="Grupo_56546" data-name="Grupo 56546">
      <g id="freepik--background-simple--inject-80">
        <path id="Trazado_103718" data-name="Trazado 103718" d="M561.06,6334.894c5.665-49.952-21.76-116.335-50.2-143.746-51.327-49.493-93.973-39.924-127.135-22.2s-37.9,76.912-60.81,103.686-35.928,62.787-1.182,98.642,62.78,17.635,99.108,15.357,84.518,15.629,110.554.064C549.6,6375.835,558.56,6357,561.06,6334.894Z" fill="#aed3f2"/>
      </g>
      <g id="Grupo_56545" data-name="Grupo 56545">
        <circle id="Elipse_4151" data-name="Elipse 4151" cx="111.356" cy="111.356" r="111.356" transform="translate(328.768 6162.93)" fill="#aed3f2" stroke="#aed3f2" stroke-miterlimit="10" stroke-width="5"/>
        <g id="freepik--hand-1--inject-2">
          <path id="Trazado_103719" data-name="Trazado 103719" d="M407.534,6251.839s-13.871-15.274-14.827-16.211-1.674-17.227-4.311-24.4-3.912-49.28-3.912-49.28-2.509-3.108-9.584-1.433-14.01-1.439-21.9,3.108,7.413,69.584,7.413,69.584l15.533,49.5Z" fill="rgba(52,65,84,0.7)" opacity="0.2" style="isolation: isolate"/>
          <path id="Trazado_103720" data-name="Trazado 103720" d="M417.063,6251.954s-6.216,39.708-12.7,44.968c-3.743,3.023-9.578,4.414-14.753,4.233-3.749-.133-7.16-1.077-9.167-2.788-4.783-4.069-11.489-6.222-14.826-8.852s-3.35-11.96-5.5-19.857-5.266-8.133-5.98-16.023-3.591-32.047-8.791-38.753-5.321-11.96-7.474-18.781-17.9-31.5-17.9-31.5l38.384-7.861s3.773,15.619,7.812,28.359c1.917,6.046,3.894,11.452,5.551,14.221a118.961,118.961,0,0,1,8.241,16.743c4.342,4.547,6.718,14.621,7.438,23.443h0l10.279,5.732C405.581,6247.4,417.063,6251.954,417.063,6251.954Z" fill="#ffbf9d"/>
          <path id="Trazado_103721" data-name="Trazado 103721" d="M417.063,6251.954s-6.216,39.708-12.7,44.968c-3.743,3.023-9.578,4.414-14.753,4.233-12.275-3.024-15.576-9.868-17.239-11.525-2.213-2.207-5.122-15.655-3.525-23.479s.447-10.72-.871-14.542c-2.921-8.465,5.986-13.024,6.9-16.229s.605-21.127-3.4-26.956c-2.129-3.1-7.613-19.089-5.3-23.309,1.917,6.046,3.894,11.452,5.551,14.221a118.97,118.97,0,0,1,8.241,16.743c4.342,4.547,6.718,14.621,7.438,23.443h0l10.279,5.732C405.581,6247.4,417.063,6251.954,417.063,6251.954Z" fill="#d9a171" opacity="0.4" style="isolation: isolate"/>
          <path id="Trazado_103722" data-name="Trazado 103722" d="M370.19,6249.16s-2.165,2.546-4.075,2.546" fill="none" stroke="#263238" stroke-linecap="round" stroke-linejoin="round" stroke-width="1"/>
          <path id="Trazado_103723" data-name="Trazado 103723" d="M374.9,6257.764s-2.328,4.947-6.046,6.047" fill="none" stroke="#263238" stroke-linecap="round" stroke-linejoin="round" stroke-width="1"/>
          <path id="Trazado_103724" data-name="Trazado 103724" d="M370.764,6286.752s5.267-2.274,6.1-6.1" fill="none" stroke="#263238" stroke-linecap="round" stroke-linejoin="round" stroke-width="1"/>
          <path id="Trazado_103725" data-name="Trazado 103725" d="M397.69,6245.248a6.315,6.315,0,0,0-1.318,3.023" fill="none" stroke="#263238" stroke-linecap="round" stroke-linejoin="round" stroke-width="1"/>
          <path id="Trazado_103726" data-name="Trazado 103726" d="M358.381,6156.744s8.211,33.964,13.363,42.6a118.987,118.987,0,0,1,8.241,16.743c4.342,4.547,6.718,14.627,7.438,23.449h0l10.279,5.732c7.891,2.153,19.349,6.7,19.349,6.7s-6.216,39.708-12.7,44.968-19.077,5.478-23.914,1.415-11.489-6.222-14.826-8.852-3.35-11.96-5.5-19.857-5.266-8.133-5.98-16.023-3.591-32.047-8.791-38.753-5.321-11.96-7.474-18.781-17.892-31.484-17.892-31.484" fill="none" stroke="#263238" stroke-linecap="round" stroke-linejoin="round" stroke-width="1"/>
          <path id="Trazado_103727" data-name="Trazado 103727" d="M431.605,6249.372l-5.865,99.618-57.618-1.893,4.547-76.332,1.415-23.7,25.105,1.01Z" fill="none" stroke="#263238" stroke-linecap="round" stroke-linejoin="round" stroke-width="1"/>
          <g id="Grupo_56538" data-name="Grupo 56538">
            <g id="Grupo_56516" data-name="Grupo 56516">
              <g id="Grupo_56513" data-name="Grupo 56513">
                <path id="Trazado_103728" data-name="Trazado 103728" d="M358.77,6250.571l14.4,149.581,111.369-10.491-16.06-149.469Z" fill="#fff"/>
              </g>
              <g id="Grupo_56515" data-name="Grupo 56515">
                <g id="Grupo_56514" data-name="Grupo 56514">
                  <path id="Trazado_103729" data-name="Trazado 103729" d="M358.77,6250.571l109.694-10.49.11-.01.011.109c4.516,41.96,10.078,93.642,16.086,149.466l.015.138-.138.013-.79.075-110.581,10.4-.123.012-.012-.123c-8.45-88.568-14.168-148.5-14.272-149.593.106,1.09,5.923,61.015,14.519,149.569l-.135-.112L483.733,6389.6l.789-.074-.123.151c-5.989-55.827-11.534-107.51-16.036-149.472l.122.1Z" fill="#344154"/>
                </g>
              </g>
            </g>
            <g id="Grupo_56525" data-name="Grupo 56525">
              <g id="Grupo_56518" data-name="Grupo 56518">
                <g id="Grupo_56517" data-name="Grupo 56517">
                  <path id="Trazado_103730" data-name="Trazado 103730" d="M444.181,6364.016a16.415,16.415,0,1,1,16.377,16.454A16.433,16.433,0,0,1,444.181,6364.016Zm32.529.077a16.114,16.114,0,1,0-16.152,16.075A16.133,16.133,0,0,0,476.71,6364.093Z" fill="#839eb6"/>
                </g>
              </g>
              <g id="Grupo_56520" data-name="Grupo 56520">
                <g id="Grupo_56519" data-name="Grupo 56519">
                  <path id="Trazado_103731" data-name="Trazado 103731" d="M446.053,6364.021a14.317,14.317,0,1,1,14.283,14.35A14.332,14.332,0,0,1,446.053,6364.021Zm26.521.062a12.2,12.2,0,1,0-12.233,12.176A12.219,12.219,0,0,0,472.574,6364.083Z" fill="#839eb6"/>
                </g>
              </g>
              <g id="Grupo_56522" data-name="Grupo 56522">
                <g id="Grupo_56521" data-name="Grupo 56521">
                  <path id="Trazado_103732" data-name="Trazado 103732" d="M449.576,6364.231a10.484,10.484,0,0,1,1.134-4.749l1.885.953a8.386,8.386,0,0,0-.907,3.8,8.482,8.482,0,0,0,12.9,7.259l1.1,1.8a10.592,10.592,0,0,1-16.111-9.065Z" fill="#839eb6"/>
                </g>
              </g>
              <g id="Grupo_56524" data-name="Grupo 56524">
                <g id="Grupo_56523" data-name="Grupo 56523">
                  <path id="Trazado_103733" data-name="Trazado 103733" d="M455.279,6354.857a10.594,10.594,0,0,1,13.852,15.042l-1.786-1.127a8.482,8.482,0,0,0-11.09-12.042Z" fill="#839eb6"/>
                </g>
              </g>
            </g>
            <g id="Grupo_56527" data-name="Grupo 56527">
              <g id="Grupo_56526" data-name="Grupo 56526">
                <path id="Trazado_103734" data-name="Trazado 103734" d="M414.884,6277.5c.007.076-9.692,1.053-21.66,2.183s-21.68,1.985-21.687,1.91,9.689-1.052,21.661-2.183S414.877,6277.422,414.884,6277.5Z" fill="#344154"/>
              </g>
            </g>
            <g id="Grupo_56529" data-name="Grupo 56529">
              <g id="Grupo_56528" data-name="Grupo 56528">
                <path id="Trazado_103735" data-name="Trazado 103735" d="M416.906,6377.338c.007.076-7.614.784-17.018,1.583s-17.037,1.385-17.043,1.309,7.612-.783,17.02-1.582S416.9,6377.263,416.906,6377.338Z" fill="#d9a171"/>
              </g>
            </g>
            <g id="Grupo_56531" data-name="Grupo 56531">
              <g id="Grupo_56530" data-name="Grupo 56530">
                <path id="Trazado_103736" data-name="Trazado 103736" d="M402.27,6383.157c.006.076-4.269.5-9.548.949s-9.565.75-9.572.675,4.268-.5,9.549-.948S402.263,6383.082,402.27,6383.157Z" fill="#d9a171"/>
              </g>
            </g>
            <g id="Grupo_56533" data-name="Grupo 56533">
              <g id="Grupo_56532" data-name="Grupo 56532">
                <path id="Trazado_103737" data-name="Trazado 103737" d="M401.1,6340.263c.007.076-5.023.633-11.234,1.245s-11.254,1.047-11.262.972,5.022-.632,11.235-1.245S401.089,6340.188,401.1,6340.263Z" fill="#d9a171"/>
              </g>
            </g>
            <g id="Grupo_56534" data-name="Grupo 56534" opacity="0.3">
              <path id="Trazado_103738" data-name="Trazado 103738" d="M370.871,6374.843l10.223-1.976,5.717-8.618-16.292,5.351Z" fill="#d9a171"/>
            </g>
            <g id="Grupo_56536" data-name="Grupo 56536">
              <g id="Grupo_56535" data-name="Grupo 56535">
                <path id="Trazado_103739" data-name="Trazado 103739" d="M429.58,6364.755s.032.008.094.031a1.318,1.318,0,0,1,.266.126,3.808,3.808,0,0,1,.878.742,12.6,12.6,0,0,1,2.212,3.815,15.987,15.987,0,0,1,1.147,6.867,10.419,10.419,0,0,1-.373,2.093,13.96,13.96,0,0,1-3.754,6.039,14.578,14.578,0,0,1-4.51,2.951,12.372,12.372,0,0,1-5.759.906,12.636,12.636,0,0,1-10.114-7.224,10.331,10.331,0,0,1-.916-3.343,7.866,7.866,0,0,1,.369-3.527,5.665,5.665,0,0,1,2.1-2.945,4.082,4.082,0,0,1,1.751-.655,4.208,4.208,0,0,1,1.873.22,5.531,5.531,0,0,1,2.886,2.394,8.877,8.877,0,0,1,1.144,3.647,15.927,15.927,0,0,1-1.123,7.658,15.069,15.069,0,0,1-4.627,6.2,13.884,13.884,0,0,1-6.964,2.8,13.057,13.057,0,0,1-7.148-1.164,12.2,12.2,0,0,1-5.085-4.724,11.839,11.839,0,0,1-1.72-6.379,8.642,8.642,0,0,1,.613-3.139,6.228,6.228,0,0,1,1.8-2.526,3.717,3.717,0,0,1,2.853-.844,4.272,4.272,0,0,1,2.516,1.4,5.358,5.358,0,0,1,1.262,2.47,6.946,6.946,0,0,1,0,2.654,13.794,13.794,0,0,1-1.873,4.528,21.725,21.725,0,0,1-2.628,3.494,23.808,23.808,0,0,1-2.8,2.579,24.17,24.17,0,0,1-2.663,1.77,20.518,20.518,0,0,1-4.041,1.784c-.963.307-1.485.412-1.485.412s.126-.045.373-.119.622-.168,1.094-.346a21.268,21.268,0,0,0,4.006-1.823,24.525,24.525,0,0,0,2.636-1.781,23.9,23.9,0,0,0,2.765-2.579,21.714,21.714,0,0,0,2.592-3.481,13.628,13.628,0,0,0,1.831-4.472,6.761,6.761,0,0,0,0-2.579,5.155,5.155,0,0,0-1.22-2.368,4.067,4.067,0,0,0-2.39-1.326,3.494,3.494,0,0,0-2.681.8,6.005,6.005,0,0,0-1.724,2.437,8.407,8.407,0,0,0-.589,3.057,11.6,11.6,0,0,0,1.7,6.243,11.95,11.95,0,0,0,4.982,4.618,12.8,12.8,0,0,0,7,1.133,13.636,13.636,0,0,0,6.827-2.75,14.812,14.812,0,0,0,4.54-6.086,15.66,15.66,0,0,0,1.106-7.525,8.588,8.588,0,0,0-1.105-3.535,5.255,5.255,0,0,0-2.742-2.281A3.928,3.928,0,0,0,413,6370.9a3.817,3.817,0,0,0-1.634.611,5.416,5.416,0,0,0-2,2.808,7.6,7.6,0,0,0-.359,3.417A10.05,10.05,0,0,0,409.9,6381a12.406,12.406,0,0,0,9.9,7.1,12.165,12.165,0,0,0,5.66-.875,14.419,14.419,0,0,0,4.455-2.9,13.838,13.838,0,0,0,3.731-5.945,10.2,10.2,0,0,0,.377-2.059,15.964,15.964,0,0,0-1.094-6.817,12.825,12.825,0,0,0-2.153-3.816,3.949,3.949,0,0,0-.852-.755C429.708,6364.8,429.575,6364.768,429.58,6364.755Z" fill="#d9a171"/>
              </g>
            </g>
            <g id="Grupo_56537" data-name="Grupo 56537">
              <rect id="Rectángulo_5525" data-name="Rectángulo 5525" width="79.334" height="6.102" transform="translate(379.311 6305.053) rotate(-5.512)" fill="#ffbf9d"/>
              <rect id="Rectángulo_5526" data-name="Rectángulo 5526" width="79.334" height="6.102" transform="translate(378.725 6298.979) rotate(-5.512)" fill="#d9a171"/>
              <rect id="Rectángulo_5527" data-name="Rectángulo 5527" width="79.334" height="6.102" transform="translate(379.897 6311.121) rotate(-5.512)" fill="#dbdbdb"/>
              <rect id="Rectángulo_5528" data-name="Rectángulo 5528" width="79.334" height="6.102" transform="translate(380.483 6317.194) rotate(-5.512)" fill="#ffbf9d"/>
              <rect id="Rectángulo_5529" data-name="Rectángulo 5529" width="79.334" height="6.102" transform="translate(381.069 6323.269) rotate(-5.512)" fill="#dbdbdb"/>
              <rect id="Rectángulo_5530" data-name="Rectángulo 5530" width="79.334" height="6.102" transform="translate(381.654 6329.336) rotate(-5.512)" fill="#ffbf9d"/>
              <rect id="Rectángulo_5531" data-name="Rectángulo 5531" width="79.334" height="6.102" transform="translate(382.241 6335.41) rotate(-5.512)" fill="#dbdbdb"/>
              <rect id="Rectángulo_5532" data-name="Rectángulo 5532" width="55.549" height="6.102" transform="translate(406.502 6339.2) rotate(-5.512)" fill="#d9a171"/>
              <rect id="Rectángulo_5533" data-name="Rectángulo 5533" width="23.785" height="42.703" transform="translate(378.725 6298.979) rotate(-5.512)" fill="#c7c7c7"/>
              <path id="Trazado_103740" data-name="Trazado 103740" d="M379.9,6311.121l39.476-3.884,39.491-3.737-39.476,3.89Z" fill="#344154"/>
              <path id="Trazado_103741" data-name="Trazado 103741" d="M380.483,6317.195l39.476-3.884,39.491-3.736-39.476,3.89Z" fill="#344154"/>
              <path id="Trazado_103742" data-name="Trazado 103742" d="M381.069,6323.269l39.476-3.89,39.491-3.73-39.476,3.884Z" fill="#344154"/>
              <path id="Trazado_103743" data-name="Trazado 103743" d="M381.654,6329.336l39.476-3.884,39.491-3.737-39.476,3.89Z" fill="#344154"/>
              <path id="Trazado_103744" data-name="Trazado 103744" d="M382.241,6335.41l39.476-3.884,39.491-3.737-39.476,3.89Z" fill="#344154"/>
              <path id="Trazado_103745" data-name="Trazado 103745" d="M382.827,6341.484l39.476-3.89,39.491-3.73-39.476,3.884Z" fill="#344154"/>
              <path id="Trazado_103746" data-name="Trazado 103746" d="M383.248,6301.592c2.506-.365,5.029-.621,7.545-.883s5.042-.486,7.581-.576c-2.511.372-5.029.621-7.551.883S385.78,6301.491,383.248,6301.592Z" fill="#344154"/>
              <path id="Trazado_103747" data-name="Trazado 103747" d="M383.835,6307.679c1.892-.313,3.8-.5,5.7-.706s3.814-.368,5.739-.4c-1.9.314-3.8.5-5.709.706S385.752,6307.624,383.835,6307.679Z" fill="#344154"/>
              <path id="Trazado_103748" data-name="Trazado 103748" d="M384.421,6313.752c2.506-.372,5.03-.621,7.546-.883s5.042-.486,7.581-.576c-2.512.372-5.029.621-7.552.883S386.951,6313.632,384.421,6313.752Z" fill="#344154"/>
              <path id="Trazado_103749" data-name="Trazado 103749" d="M385.007,6319.82c2.058-.322,4.132-.535,6.207-.754s4.151-.4,6.242-.447c-2.064.329-4.139.536-6.213.754S387.089,6319.749,385.007,6319.82Z" fill="#344154"/>
              <path id="Trazado_103750" data-name="Trazado 103750" d="M385.593,6325.894c2.506-.372,5.029-.622,7.545-.883s5.043-.487,7.582-.577c-2.512.373-5.029.622-7.552.884S388.124,6325.78,385.593,6325.894Z" fill="#344154"/>
              <path id="Trazado_103751" data-name="Trazado 103751" d="M386.179,6331.968c2.506-.372,5.029-.622,7.546-.883s5.042-.487,7.581-.577c-2.512.373-5.029.622-7.552.884S388.709,6331.848,386.179,6331.968Z" fill="#344154"/>
              <path id="Trazado_103752" data-name="Trazado 103752" d="M386.765,6338.036c1.518-.264,3.056-.444,4.573-.6s3.074-.26,4.608-.29c-1.517.27-3.056.444-4.579.6S388.306,6338.011,386.765,6338.036Z" fill="#344154"/>
              <path id="Trazado_103753" data-name="Trazado 103753" d="M408.225,6299.182c1.88-.305,3.777-.5,5.666-.7s3.8-.366,5.7-.4c-1.879.311-3.776.5-5.672.7S410.143,6299.139,408.225,6299.182Z" fill="#344154"/>
              <path id="Trazado_103754" data-name="Trazado 103754" d="M408.813,6305.268c1.879-.311,3.776-.5,5.666-.7s3.795-.366,5.7-.4c-1.88.312-3.777.5-5.673.7S410.729,6305.213,408.813,6305.268Z" fill="#344154"/>
              <path id="Trazado_103755" data-name="Trazado 103755" d="M409.4,6311.342c1.879-.311,3.776-.5,5.666-.7s3.795-.366,5.7-.4c-1.879.312-3.777.5-5.672.7S411.315,6311.281,409.4,6311.342Z" fill="#344154"/>
              <path id="Trazado_103756" data-name="Trazado 103756" d="M409.984,6317.41c1.88-.306,3.777-.5,5.666-.7s3.8-.366,5.7-.4c-1.879.311-3.776.5-5.672.7S411.9,6317.355,409.984,6317.41Z" fill="#344154"/>
              <path id="Trazado_103757" data-name="Trazado 103757" d="M410.571,6323.484c1.879-.312,3.776-.5,5.666-.7s3.8-.366,5.7-.4c-1.879.311-3.776.5-5.672.7S412.487,6323.429,410.571,6323.484Z" fill="#344154"/>
              <path id="Trazado_103758" data-name="Trazado 103758" d="M411.157,6329.558c1.879-.312,3.776-.5,5.666-.7s3.8-.366,5.7-.4c-1.88.311-3.777.5-5.673.7S413.072,6329.5,411.157,6329.558Z" fill="#344154"/>
              <path id="Trazado_103759" data-name="Trazado 103759" d="M411.742,6335.625c1.88-.305,3.777-.5,5.666-.7s3.8-.367,5.7-.4c-1.879.312-3.776.5-5.672.7S413.659,6335.571,411.742,6335.625Z" fill="#344154"/>
              <path id="Trazado_103760" data-name="Trazado 103760" d="M424.654,6297.6c1.886-.306,3.776-.5,5.672-.7s3.789-.365,5.7-.394c-1.879.311-3.777.5-5.666.7S426.565,6297.555,424.654,6297.6Z" fill="#344154"/>
              <path id="Trazado_103761" data-name="Trazado 103761" d="M432.071,6333.664a10.855,10.855,0,0,1,3.629-.351A10.855,10.855,0,0,1,432.071,6333.664Z" fill="#344154"/>
              <path id="Trazado_103762" data-name="Trazado 103762" d="M431.485,6327.6a10.835,10.835,0,0,1,3.63-.35A10.835,10.835,0,0,1,431.485,6327.6Z" fill="#344154"/>
              <path id="Trazado_103763" data-name="Trazado 103763" d="M430.9,6321.522a10.139,10.139,0,0,1,1.827-.331,9.557,9.557,0,0,1,1.827-.022,10.861,10.861,0,0,1-3.63.351Z" fill="#344154"/>
              <path id="Trazado_103764" data-name="Trazado 103764" d="M430.313,6315.448a10.816,10.816,0,0,1,3.629-.35A10.816,10.816,0,0,1,430.313,6315.448Z" fill="#344154"/>
              <path id="Trazado_103765" data-name="Trazado 103765" d="M429.727,6309.38a10.875,10.875,0,0,1,3.63-.35A10.875,10.875,0,0,1,429.727,6309.38Z" fill="#344154"/>
              <path id="Trazado_103766" data-name="Trazado 103766" d="M429.141,6303.306a10.107,10.107,0,0,1,1.828-.331,9.506,9.506,0,0,1,1.826-.021,9.636,9.636,0,0,1-1.8.328A10.126,10.126,0,0,1,429.141,6303.306Z" fill="#344154"/>
              <path id="Trazado_103767" data-name="Trazado 103767" d="M433.707,6339.636a31.373,31.373,0,0,1,3.191-.463,29.673,29.673,0,0,1,3.227-.156A33.752,33.752,0,0,1,433.707,6339.636Z" fill="#344154"/>
              <path id="Trazado_103768" data-name="Trazado 103768" d="M441.082,6296.011c1.886-.306,3.776-.5,5.672-.7s3.79-.366,5.7-.4c-1.879.312-3.776.5-5.666.7S442.994,6295.969,441.082,6296.011Z" fill="#344154"/>
              <path id="Trazado_103769" data-name="Trazado 103769" d="M441.67,6302.1c1.885-.312,3.776-.5,5.672-.7s3.789-.366,5.695-.4c-1.879.312-3.776.5-5.666.7S443.58,6302.043,441.67,6302.1Z" fill="#344154"/>
              <path id="Trazado_103770" data-name="Trazado 103770" d="M442.256,6308.171c1.885-.312,3.776-.5,5.672-.7s3.789-.366,5.7-.4c-1.88.312-3.777.5-5.666.7S444.165,6308.111,442.256,6308.171Z" fill="#344154"/>
              <path id="Trazado_103771" data-name="Trazado 103771" d="M442.841,6314.239c1.886-.306,3.777-.5,5.672-.7s3.79-.366,5.7-.4c-1.879.312-3.776.5-5.666.7S444.751,6314.185,442.841,6314.239Z" fill="#344154"/>
              <path id="Trazado_103772" data-name="Trazado 103772" d="M443.427,6320.313c1.886-.312,3.777-.5,5.673-.7s3.789-.366,5.7-.4c-1.879.311-3.776.5-5.666.7S445.338,6320.259,443.427,6320.313Z" fill="#344154"/>
              <path id="Trazado_103773" data-name="Trazado 103773" d="M444.014,6326.387c1.885-.312,3.776-.5,5.672-.7s3.789-.366,5.7-.4c-1.879.311-3.776.5-5.666.7S445.923,6326.327,444.014,6326.387Z" fill="#344154"/>
              <path id="Trazado_103774" data-name="Trazado 103774" d="M444.6,6332.455c1.886-.306,3.776-.5,5.672-.7s3.79-.365,5.7-.394c-1.879.311-3.776.5-5.666.7S446.509,6332.4,444.6,6332.455Z" fill="#344154"/>
              <path id="Trazado_103775" data-name="Trazado 103775" d="M445.185,6338.529c1.886-.313,3.777-.5,5.672-.7s3.79-.365,5.7-.394c-1.879.311-3.776.5-5.666.7S447.1,6338.474,445.185,6338.529Z" fill="#344154"/>
              <path id="Trazado_103776" data-name="Trazado 103776" d="M377.691,6288.268c2.171-.308,4.341-.561,6.518-.808s4.36-.421,6.536-.681,4.354-.42,6.539-.581,4.362-.341,6.552-.453c-2.171.309-4.341.562-6.518.809s-4.36.421-6.53.68-4.36.421-6.545.582S379.88,6288.15,377.691,6288.268Z" fill="#344154"/>
              <path id="Trazado_103777" data-name="Trazado 103777" d="M377.941,6290.854c1.354-.224,2.719-.4,4.079-.574s2.733-.263,4.1-.445,2.733-.263,4.1-.346,2.741-.177,4.12-.218c-1.361.231-2.72.4-4.086.574s-2.729.3-4.091.451-2.733.264-4.108.341S379.313,6290.814,377.941,6290.854Z" fill="#344154"/>
              <path id="Trazado_103778" data-name="Trazado 103778" d="M378.19,6293.439c1.895-.275,3.789-.5,5.689-.722s3.8-.4,5.7-.606,3.808-.367,5.711-.495,3.815-.288,5.722-.379c-1.888.281-3.788.508-5.688.729s-3.8.4-5.7.606-3.8.367-5.711.5S380.1,6293.354,378.19,6293.439Z" fill="#344154"/>
              <path id="Trazado_103779" data-name="Trazado 103779" d="M383.865,6352.244c1.391-.233,2.781-.411,4.178-.583s2.8-.307,4.189-.46,2.8-.27,4.206-.35,2.8-.19,4.212-.227c-1.392.228-2.787.412-4.178.583s-2.8.3-4.2.455-2.794.269-4.2.349S385.277,6352.226,383.865,6352.244Z" fill="#344154"/>
              <path id="Trazado_103780" data-name="Trazado 103780" d="M384.113,6354.817c1.606-.254,3.223-.453,4.835-.646s3.23-.312,4.846-.523,3.231-.312,4.858-.413,3.238-.232,4.868-.29c-1.611.254-3.222.453-4.834.646s-3.234.343-4.847.517-3.237.313-4.857.419S385.757,6354.764,384.113,6354.817Z" fill="#344154"/>
            </g>
          </g>
          <path id="Trazado_103781" data-name="Trazado 103781" d="M396.015,6284.829a5.668,5.668,0,0,1-5.164.079,7.416,7.416,0,0,1-3.211-3.3c-2.388-4.305-8.852-14.113-10.043-16.93s-3.827-10.787-6.458-14.131a28.585,28.585,0,0,1-4.069-8.375l-.955-48.8a74.3,74.3,0,0,0,5.381,15.069,22.59,22.59,0,0,1,8.465,7.654,14.162,14.162,0,0,1,1.651,2.135c3.906,6.047,5.8,16.93,6,25.4.242,9.571,3.35,13.907,8.375,22.245S399.28,6282.973,396.015,6284.829Z" fill="#ffbf9d"/>
          <path id="Trazado_103782" data-name="Trazado 103782" d="M396.015,6284.829a5.8,5.8,0,0,1-5.164.079c2.745-.75,6.349-2.159,5.521-4.233-1.3-3.314-5.1,1.6-7.014,0s-8.853-10.793-4.445-14.838,3.024-10.83,0-12.74-1.058-6.464-.1-13.629c.6-4.336-1.47-14.156-3.175-21.242,3.906,6.046,5.8,16.93,6,25.4.242,9.571,3.35,13.907,8.375,22.245S399.28,6283.088,396.015,6284.829Z" fill="#d9a171" opacity="0.4" style="isolation: isolate"/>
          <path id="Trazado_103783" data-name="Trazado 103783" d="M366.115,6193.344a74.29,74.29,0,0,0,5.381,15.068,22.591,22.591,0,0,1,8.465,7.655c5.025,5.261,7.419,17.94,7.655,27.506s3.35,13.907,8.375,22.246,3.628,17.033,0,19.01c-2.528,1.385-5.98,1.082-8.375-3.223s-8.852-14.113-10.043-16.93-3.828-10.787-6.458-14.131a28.585,28.585,0,0,1-4.069-8.375" fill="none" stroke="#263238" stroke-linecap="round" stroke-linejoin="round" stroke-width="1"/>
          <path id="Trazado_103784" data-name="Trazado 103784" d="M381.648,6263.787s3.906-.351,5.7-1.814" fill="none" stroke="#263238" stroke-linecap="round" stroke-linejoin="round" stroke-width="1"/>
          <path id="Trazado_103785" data-name="Trazado 103785" d="M365.637,6243.132s-.762,1.814,3.229,3.628" fill="none" stroke="#263238" stroke-linecap="round" stroke-linejoin="round" stroke-width="1"/>
        </g>
        <g id="freepik--hand-2--inject-2">
          <path id="Trazado_103786" data-name="Trazado 103786" d="M471.634,6280.685s-2.152,26.048.962,32.367,4.674,49.491,3.277,54.921c0,0,10.025,2.528,13.992-1.064s10.067-.133,20.117-3.628,2.8-81.067,2.8-81.067L513.09,6254l-16.574-14.766Z" fill="rgba(52,65,84,0.7)" opacity="0.2" style="isolation: isolate"/>
          <path id="Trazado_103787" data-name="Trazado 103787" d="M485,6293.213a1.4,1.4,0,0,1-.3.5c-2.14,2.026-11.277,4.275-19.125,5.9-6.5,1.349-12.093,2.262-12.093,2.262s-4.306-35.778-4.306-39.539-6.941-64.65-6.941-64.65l16.64-.719,22.076-.956s.133,1.627.357,4.469C482.766,6218.58,487.773,6286.072,485,6293.213Z" fill="#d9a171"/>
          <g id="Grupo_56541" data-name="Grupo 56541">
            <g id="Grupo_56540" data-name="Grupo 56540" clip-path="url(#clip-path)">
              <g id="Grupo_56539" data-name="Grupo 56539">
                <path id="Trazado_103788" data-name="Trazado 103788" d="M485,6293.213l-19.421,3.973-7.335,1.5c-1.989-1.953-3.507-1.989-3.507-1.989l-.6-5.472-.95-8.955-8.356-78.787a8.912,8.912,0,0,0,2.709-3.991l11.186-.405,19.379-.707,3.2,2.068C482.766,6218.58,487.773,6286.072,485,6293.213Z" fill="rgba(52,65,84,0.7)" opacity="0.2" style="isolation: isolate"/>
                <path id="Trazado_103789" data-name="Trazado 103789" d="M485,6293.213l-19.421,3.973-7.335,1.5c-1.989-1.953-3.507-1.989-3.507-1.989l-.6-5.472-.95-8.955-8.356-78.787a8.912,8.912,0,0,0,2.709-3.991l11.186-.405,19.379-.707,3.2,2.068C482.766,6218.58,487.773,6286.072,485,6293.213Z" fill="none" stroke="#263238" stroke-linecap="round" stroke-linejoin="round" stroke-width="1"/>
                <path id="Trazado_103790" data-name="Trazado 103790" d="M455.762,6270.019l6.482-.012.006,2.025-1.8.641-4.154.454Z" fill="#d9a171" stroke="#263238" stroke-linecap="round" stroke-linejoin="round" stroke-width="1"/>
                <path id="Trazado_103791" data-name="Trazado 103791" d="M456.161,6274.19l4.765-.163,1.221.581-.06,2.69-5.563.061Z" fill="#d9a171" stroke="#263238" stroke-linecap="round" stroke-linejoin="round" stroke-width="1"/>
                <path id="Trazado_103792" data-name="Trazado 103792" d="M456.923,6278.49l5.442-.393-.06,2.038-2.63.931-2.781-.157Z" fill="#d9a171" stroke="#263238" stroke-linecap="round" stroke-linejoin="round" stroke-width="1"/>
                <path id="Trazado_103793" data-name="Trazado 103793" d="M457.25,6281.924l4.4.224.4,1.125-.641,1.24-3.93.254-.677-1.917Z" fill="#d9a171" stroke="#263238" stroke-linecap="round" stroke-linejoin="round" stroke-width="1"/>
                <path id="Trazado_103794" data-name="Trazado 103794" d="M462.317,6285.86l.6,1.76a1.316,1.316,0,0,1,0,1.209,1,1,0,0,1-.919.327c-.338-.03-.671-.145-1.01-.163-1.021-.043-1.959.8-2.962.6-.393-1.088-1.385-2.684-.043-3.174C458.235,6286.344,462.462,6286.26,462.317,6285.86Z" fill="#d9a171" stroke="#263238" stroke-linecap="round" stroke-linejoin="round" stroke-width="1"/>
                <path id="Trazado_103795" data-name="Trazado 103795" d="M462.3,6290.813a9.885,9.885,0,0,1,.206,1.269,1.622,1.622,0,0,1-.447,1.518,1.813,1.813,0,0,1-.841.224l-3.495.314a16.009,16.009,0,0,1-.03-1.983c.206-.786.06-.72.8-1.04C459.674,6290.613,461.089,6291.411,462.3,6290.813Z" fill="#d9a171" stroke="#263238" stroke-linecap="round" stroke-linejoin="round" stroke-width="1"/>
                <path id="Trazado_103796" data-name="Trazado 103796" d="M449.589,6205.278s1.318,12.74,1.378,15.261" fill="none" stroke="#263238" stroke-linecap="round" stroke-linejoin="round" stroke-width="1"/>
                <line id="Línea_279" data-name="Línea 279" x2="0.617" y2="7.02" transform="translate(452.43 6205.417)" fill="none" stroke="#263238" stroke-linecap="round" stroke-linejoin="round" stroke-width="1"/>
                <path id="Trazado_103797" data-name="Trazado 103797" d="M462.28,6202.762l.8,8.229,1.119.109-.363-8.26Z" fill="#d9a171" stroke="#263238" stroke-linecap="round" stroke-linejoin="round" stroke-width="1"/>
                <path id="Trazado_103798" data-name="Trazado 103798" d="M485,6293.213a1.4,1.4,0,0,1-.3.5c-2.14,2.026-11.277,4.275-19.125,5.9v-5.442l-11.422-2.926-1.724-.441.774-8.514,2.957-32.531,2.582-50.64.109-2.152,22.1-.956s.133,1.627.357,4.469C482.766,6218.58,487.773,6286.072,485,6293.213Z" fill="rgba(52,65,84,0.7)" opacity="0.2" style="isolation: isolate"/>
              </g>
            </g>
          </g>
          <path id="Trazado_103799" data-name="Trazado 103799" d="M485,6293.213a1.4,1.4,0,0,1-.3.5c-2.14,2.026-11.277,4.275-19.125,5.9-6.5,1.349-12.093,2.262-12.093,2.262s-4.306-35.778-4.306-39.539-6.941-64.65-6.941-64.65l16.64-.719,22.076-.956s.133,1.627.357,4.469C482.766,6218.58,487.773,6286.072,485,6293.213Z" fill="none" stroke="#263238" stroke-linecap="round" stroke-linejoin="round" stroke-width="1"/>
          <path id="Trazado_103800" data-name="Trazado 103800" d="M496.71,6374.4c.139-1.276-1.869-19.579-1.9-21.569a79.561,79.561,0,0,0-1.639-12.583c-2.152-5.5-3.827-18.182-9.571-26.314s-5.739-17.7-6.694-25.819-.72-7.419-.478-14.627a106.064,106.064,0,0,0-.719-16.211c-.478-4.789-1.433-13.212,0-17.136s5.182-4.837,9.287-.907,5.781,20.045,5.781,22.034,0,8.205,1.439,10.6c0,0,8.133-4.16,8.133-5.309s-.242-11.3.955-11.845l-4.783-15.48,9.07-3.223a23.61,23.61,0,0,1,4.378,5.261,28.378,28.378,0,0,1,2.557,5.134c3.828,10.152,9.977,17.232,11.247,20.153s0,26.115,0,30.426-2.781,24.186-2.709,27.53c.055,2.419,1.687,11.416,3.314,18.315.6,2.661,4.275,21.937,4.837,23.467Z" fill="#ffbf9d"/>
          <path id="Trazado_103801" data-name="Trazado 103801" d="M503.869,6253.693c-.061,1.3,1.493,11.664,1.493,11.664,1.076,2.581-4.8,11.385-4.8,11.385-1.27.714-1.814,5.14-1.814,5.14-3.978-.883-13.091-10.044-13.091-10.044a102.169,102.169,0,0,0-2.285,13.049c-1.21,9.294,6.458,31.37,9.723,46.613s1.711,21.314,1.711,21.314a79.561,79.561,0,0,0-1.639-12.583c-2.152-5.5-3.827-18.182-9.571-26.314s-5.739-17.681-6.694-25.8-.72-7.419-.478-14.627a106.064,106.064,0,0,0-.719-16.211c-.478-4.789-1.433-13.212,0-17.136s5.182-4.837,9.287-.907,5.781,20.045,5.781,22.034,0,8.205,1.439,10.6c0,0,8.133-4.16,8.133-5.309s-.242-11.3.955-11.845l-4.783-15.48,9.07-3.223a23.61,23.61,0,0,1,4.378,5.261C507.031,6247.138,503.929,6252.882,503.869,6253.693Z" fill="#d9a171" opacity="0.4" style="isolation: isolate"/>
          <path id="Trazado_103802" data-name="Trazado 103802" d="M519.118,6326.119c.4-3.628,1.59-12.251,2.346-17.632a18.944,18.944,0,0,1-2.418,6.331s2.575-30.838,2.829-32.719,2.854-10.333,1.9-15.569c1.27,2.914,0,26.115,0,30.426s-2.781,24.186-2.709,27.53c.055,2.419,2.649,17.831,4.275,24.731C521.845,6344.137,518.719,6329.765,519.118,6326.119Z" fill="#d9a171" opacity="0.4" style="isolation: isolate"/>
          <path id="Trazado_103803" data-name="Trazado 103803" d="M529.2,6366.268c-1.911-5.5-8.048-38.456-8.121-41.782s2.709-23.225,2.709-27.53,1.27-27.512,0-30.426-7.419-10-11.246-20.154a26.414,26.414,0,0,0-6.936-10.394l-9.07,3.223,4.783,15.479c-1.209.544-.955,10.7-.955,11.846s-8.133,5.308-8.133,5.308c-1.439-2.418-1.439-8.61-1.439-10.6s-1.675-18.11-5.781-22.034-7.86-3.023-9.287.907-.478,12.347,0,17.136a106.031,106.031,0,0,1,.719,16.229c-.241,7.208-.483,6.494.478,14.627s.955,17.7,6.694,25.831,7.419,20.812,9.571,26.314c0,0,4.064,29.369,3.544,34.152" fill="none" stroke="#263238" stroke-linecap="round" stroke-linejoin="round" stroke-width="1"/>
          <path id="Trazado_103804" data-name="Trazado 103804" d="M492.211,6271.838s1.433,6.694,4.662,10.044" fill="none" stroke="#263238" stroke-linecap="round" stroke-linejoin="round" stroke-width="1"/>
          <path id="Trazado_103805" data-name="Trazado 103805" d="M493.082,6274.892s6.046,1.85,8.574,1.965" fill="none" stroke="#263238" stroke-linecap="round" stroke-linejoin="round" stroke-width="1"/>
          <path id="Trazado_103806" data-name="Trazado 103806" d="M500.344,6266.53s4.3-1.99,7.056-.793" fill="none" stroke="#263238" stroke-linecap="round" stroke-linejoin="round" stroke-width="1"/>
          <path id="Trazado_103807" data-name="Trazado 103807" d="M501.3,6254.684s3.35-.308,4.063-1.983" fill="none" stroke="#263238" stroke-linecap="round" stroke-linejoin="round" stroke-width="1"/>
          <path id="Trazado_103808" data-name="Trazado 103808" d="M484.7,6315.64s6.434,7.987,8.344,12.051" fill="none" stroke="#263238" stroke-linecap="round" stroke-linejoin="round" stroke-width="1"/>
          <path id="Trazado_103809" data-name="Trazado 103809" d="M522.111,6280.685c-1.076,6.342-2.515,23.684-2.993,26.792" fill="none" stroke="#263238" stroke-linecap="round" stroke-linejoin="round" stroke-width="1"/>
          <path id="Trazado_103810" data-name="Trazado 103810" d="M524.167,6268.724c.181,5.745-1.209,8.732-1.209,8.732" fill="none" stroke="#263238" stroke-linecap="round" stroke-linejoin="round" stroke-width="1"/>
          <path id="Trazado_103811" data-name="Trazado 103811" d="M474.712,6188.347l44.334,11.694s-15.582,47.291-18.745,53.156l-5.284,41.225s-28.323-1.245-41.347-5.182c0,0,8.235-42.93,8.677-48.656S474.712,6188.347,474.712,6188.347Z" fill="#d9a171"/>
          <g id="Grupo_56544" data-name="Grupo 56544">
            <g id="Grupo_56543" data-name="Grupo 56543" clip-path="url(#clip-path-2)">
              <g id="Grupo_56542" data-name="Grupo 56542">
                <path id="Trazado_103812" data-name="Trazado 103812" d="M465.177,6238.044l9.771-41.776s4.2-2.086,5.829-3.99l31.763,9.033a8.952,8.952,0,0,0,1.916,5.109l-16.029,46.19-3.888,34.049s-5.17.411-5.666,4.232c0,0-16.761.907-28-2.056a26.142,26.142,0,0,0-3.349-6.742Z" fill="rgba(52,65,84,0.7)" opacity="0.2" style="isolation: isolate"/>
                <path id="Trazado_103813" data-name="Trazado 103813" d="M465.177,6238.044l9.771-41.776s4.2-2.086,5.829-3.99l31.763,9.033a8.952,8.952,0,0,0,1.916,5.109l-16.029,46.19-3.888,34.049s-5.17.411-5.666,4.232c0,0-16.761.907-28-2.056a26.142,26.142,0,0,0-3.349-6.742Z" fill="none" stroke="#263238" stroke-linecap="round" stroke-linejoin="round" stroke-width="1"/>
                <path id="Trazado_103814" data-name="Trazado 103814" d="M473.309,6240.215s2.884-10.884,13.043-8.931,4.42,15.364,4.42,15.364.06,10.824-8.181,9.33C475.444,6254.684,471.634,6250.76,473.309,6240.215Z" fill="#d9a171" stroke="#263238" stroke-linecap="round" stroke-linejoin="round" stroke-width="1"/>
                <path id="Trazado_103815" data-name="Trazado 103815" d="M478.812,6200.241s-3.072,12.438-3.864,14.832" fill="none" stroke="#263238" stroke-linecap="round" stroke-linejoin="round" stroke-width="1"/>
                <line id="Línea_280" data-name="Línea 280" x1="1.79" y2="6.821" transform="translate(479.652 6201.317)" fill="none" stroke="#263238" stroke-linecap="round" stroke-linejoin="round" stroke-width="1"/>
                <path id="Trazado_103816" data-name="Trazado 103816" d="M503.869,6206.1l6.113,2.152-.671,1.917H507.4l-4.069-.956Z" fill="#d9a171" stroke="#263238" stroke-linecap="round" stroke-linejoin="round" stroke-width="1"/>
                <path id="Trazado_103817" data-name="Trazado 103817" d="M502.853,6210.169l4.547,1.433.955.955-.955,2.516-5.267-1.8Z" fill="#d9a171" stroke="#263238" stroke-linecap="round" stroke-linejoin="round" stroke-width="1"/>
                <path id="Trazado_103818" data-name="Trazado 103818" d="M502.133,6214.475l5.267,1.451-.744,1.9h-2.788l-2.57-1.076Z" fill="#d9a171" stroke="#263238" stroke-linecap="round" stroke-linejoin="round" stroke-width="1"/>
                <path id="Trazado_103819" data-name="Trazado 103819" d="M501.3,6217.824l4.063,1.675v1.191l-1.016.961-3.785-1.076v-2.038Z" fill="#d9a171" stroke="#263238" stroke-linecap="round" stroke-linejoin="round" stroke-width="1"/>
                <path id="Trazado_103820" data-name="Trazado 103820" d="M504.764,6223.224v1.862a1.333,1.333,0,0,1-.369,1.137,1.021,1.021,0,0,1-.98,0c-.308-.145-.6-.363-.9-.49-.949-.381-2.116.1-3.023-.411,0-1.155-.4-2.987,1.022-3.023C500.755,6222.317,504.764,6223.647,504.764,6223.224Z" fill="#d9a171" stroke="#263238" stroke-linecap="round" stroke-linejoin="round" stroke-width="1"/>
                <path id="Trazado_103821" data-name="Trazado 103821" d="M503.089,6227.886a8.89,8.89,0,0,1-.23,1.264c-.133.538-.393,1.136-.931,1.281a1.753,1.753,0,0,1-.865-.072l-3.4-.9a16.47,16.47,0,0,1,.6-1.874c.459-.672.3-.66,1.106-.714C500.682,6226.822,501.746,6228.049,503.089,6227.886Z" fill="#d9a171" stroke="#263238" stroke-linecap="round" stroke-linejoin="round" stroke-width="1"/>
                <path id="Trazado_103822" data-name="Trazado 103822" d="M491.612,6202.158l-2.038,8.012,1.016.478,2.455-7.9Z" fill="#d9a171" stroke="#263238" stroke-linecap="round" stroke-linejoin="round" stroke-width="1"/>
                <path id="Trazado_103823" data-name="Trazado 103823" d="M466.078,6255.96l6.276,1.626-.508,1.959-1.9.169-4.136-.61Z" fill="#d9a171" stroke="#263238" stroke-linecap="round" stroke-linejoin="round" stroke-width="1"/>
                <path id="Trazado_103824" data-name="Trazado 103824" d="M465.412,6260.1l4.65,1.04,1.04.871-.738,2.588-5.4-1.342Z" fill="#d9a171" stroke="#263238" stroke-linecap="round" stroke-linejoin="round" stroke-width="1"/>
                <path id="Trazado_103825" data-name="Trazado 103825" d="M465.068,6264.456l5.369.992-.58,1.953-2.775.242-2.654-.853Z" fill="#d9a171" stroke="#263238" stroke-linecap="round" stroke-linejoin="round" stroke-width="1"/>
                <path id="Trazado_103826" data-name="Trazado 103826" d="M464.518,6267.86l4.2,1.324.1,1.191-.931,1.04-3.864-.75-.175-2.026Z" fill="#d9a171" stroke="#263238" stroke-linecap="round" stroke-linejoin="round" stroke-width="1"/>
                <path id="Trazado_103827" data-name="Trazado 103827" d="M468.43,6272.945l.163,1.856a1.324,1.324,0,0,1-.272,1.167,1.009,1.009,0,0,1-.974.079c-.32-.115-.6-.309-.937-.4-.973-.3-2.1.272-3.023-.157-.109-1.149-.659-2.939.756-3.078C464.36,6272.4,468.466,6273.368,468.43,6272.945Z" fill="#d9a171" stroke="#263238" stroke-linecap="round" stroke-linejoin="round" stroke-width="1"/>
                <path id="Trazado_103828" data-name="Trazado 103828" d="M467.166,6277.734a9.155,9.155,0,0,1-.121,1.312c-.091.544-.3,1.167-.816,1.354a1.754,1.754,0,0,1-.871,0l-3.459-.6a16.466,16.466,0,0,1,.466-1.923c.4-.708.242-.683,1.04-.8C464.675,6276.881,465.836,6278.012,467.166,6277.734Z" fill="#d9a171" stroke="#263238" stroke-linecap="round" stroke-linejoin="round" stroke-width="1"/>
                <path id="Trazado_103829" data-name="Trazado 103829" d="M492.211,6283.6s1.439-16.048,1.439-17.662" fill="none" stroke="#263238" stroke-linecap="round" stroke-linejoin="round" stroke-width="1"/>
                <path id="Trazado_103830" data-name="Trazado 103830" d="M489.339,6282.886s.6-8.345.713-9.8" fill="none" stroke="#263238" stroke-linecap="round" stroke-linejoin="round" stroke-width="1"/>
                <path id="Trazado_103831" data-name="Trazado 103831" d="M478.122,6276.857l-1.941,9.5h1.941l1.409-9.5Z" fill="#d9a171" stroke="#263238" stroke-linecap="round" stroke-linejoin="round" stroke-width="1"/>
                <path id="Trazado_103832" data-name="Trazado 103832" d="M500.4,6252.961a30.889,30.889,0,0,1-10.708-4.021s2.007,5.768,9.124,15.6l-3.828,29.882s-18.484-.81-32.452-3.2c4.293-12.093,12.094-35.01,11.168-39.551-1.251-6.234,3.169-13.593,3.169-13.593,13.973-2.515,27.524-13.078,36.823-22.009C508.966,6230.069,502.5,6248.813,500.4,6252.961Z" fill="rgba(52,65,84,0.7)" opacity="0.2" style="isolation: isolate"/>
              </g>
            </g>
          </g>
          <path id="Trazado_103833" data-name="Trazado 103833" d="M474.712,6188.347l44.334,11.694s-15.582,47.291-18.745,53.156l-5.284,41.225s-28.323-1.245-41.347-5.182c0,0,8.235-42.93,8.677-48.656S474.712,6188.347,474.712,6188.347Z" fill="none" stroke="#263238" stroke-linecap="round" stroke-linejoin="round" stroke-width="1"/>
          <path id="Trazado_103834" data-name="Trazado 103834" d="M499.291,6282.486l-6.246,45.205c-1.39-2.957-5.182-8-7.141-10.521-.725-.944-1.209-1.53-1.209-1.53l-1.107-1.705c-5.738-8.133-5.738-17.7-6.693-25.831s-.72-7.419-.478-14.627a106.029,106.029,0,0,0-.713-16.2c-.478-4.789-1.433-13.212,0-17.136a4.715,4.715,0,0,1,3.549-3.374c1.584-.254,3.628.472,5.738,2.467,4.106,3.925,5.781,20.045,5.781,22.034s0,8.205,1.439,10.6C492.211,6271.838,496.069,6279.137,499.291,6282.486Z" fill="#ffbf9d"/>
          <path id="Trazado_103835" data-name="Trazado 103835" d="M483.117,6310.712a17.722,17.722,0,0,1,2.787,6.458c-.725-.944-1.209-1.53-1.209-1.53l-1.107-1.705c-5.738-8.133-5.738-17.7-6.693-25.831s-.72-7.419-.478-14.627a106.029,106.029,0,0,0-.713-16.2c-.478-4.789-1.433-13.212,0-17.136a4.715,4.715,0,0,1,3.549-3.374c3.023.859,6.047,3.937,7.1,9.2,1.814,8.84-6.367,1.7-8.26,9.191s.859,9.511,1.989,11.4-.314,6.046-1.989,11.633S479.531,6306.123,483.117,6310.712Z" fill="#d9a171" opacity="0.4" style="isolation: isolate"/>
          <path id="Trazado_103836" data-name="Trazado 103836" d="M499.291,6282.486c-3.228-3.349-7.08-10.648-7.08-10.648-1.439-2.418-1.439-8.61-1.439-10.6s-1.675-18.11-5.781-22.034-7.86-3.023-9.287.907-.478,12.347,0,17.136a106.035,106.035,0,0,1,.719,16.229c-.242,7.208-.483,6.494.478,14.627s.955,17.7,6.694,25.831l1.106,1.705s6.434,7.987,8.344,12.051" fill="none" stroke="#263238" stroke-linecap="round" stroke-linejoin="round" stroke-width="1"/>
          <path id="Trazado_103837" data-name="Trazado 103837" d="M478.122,6263.355s5.485-2.836,8.23-2.594" fill="none" stroke="#263238" stroke-linecap="round" stroke-linejoin="round" stroke-width="1"/>
        </g>
      </g>
    </g>
  </g>
</svg>
