<svg xmlns="http://www.w3.org/2000/svg" xmlns:xlink="http://www.w3.org/1999/xlink" width="150" height="150" viewBox="0 0 150 150">
  <defs>
    <clipPath id="clip-path">
      <rect id="Rect치ngulo_5851" data-name="Rect치ngulo 5851" width="105.937" height="113.993" transform="translate(287.881 4413.483)" fill="none"/>
    </clipPath>
  </defs>
  <g id="Grupo_57421" data-name="Grupo 57421" transform="translate(-261.875 -4398.32)">
    <rect id="Rect치ngulo_5850" data-name="Rect치ngulo 5850" width="150" height="150" transform="translate(261.875 4398.32)" fill="#5e6178" opacity="0"/>
    <path id="Trazado_105451" data-name="Trazado 105451" d="M398.67,4474.6a61.795,61.795,0,1,1-61.8-61.794A61.794,61.794,0,0,1,398.67,4474.6Z" fill="#aed3f2"/>
    <g id="Grupo_57420" data-name="Grupo 57420">
      <g id="Grupo_57417" data-name="Grupo 57417">
        <g id="Grupo_57416" data-name="Grupo 57416" clip-path="url(#clip-path)">
          <path id="Trazado_105452" data-name="Trazado 105452" d="M393.855,4442.9a29.327,29.327,0,1,1-29.327-29.326,29.327,29.327,0,0,1,29.327,29.326Zm0,0" fill="#5d6776"/>
          <path id="Trazado_105453" data-name="Trazado 105453" d="M370.945,4465.809a29.288,29.288,0,0,1-23.674-46.584,29.3,29.3,0,1,0,40.931,40.931,29.149,29.149,0,0,1-17.257,5.653Zm0,0" fill="#27313f"/>
          <path id="Trazado_105454" data-name="Trazado 105454" d="M351.648,4482.215l-12.92-4.97a5.5,5.5,0,0,1-3.525-5.132v-9.053H311.376v9.053a5.5,5.5,0,0,1-3.525,5.132l-12.92,4.97a11,11,0,0,0-7.039,10.742l1.336,30.747a3.668,3.668,0,0,0,3.664,3.507h60.8a3.666,3.666,0,0,0,3.662-3.507l1.338-30.747a11,11,0,0,0-7.04-10.742Zm0,0" fill="#e6af78"/>
          <path id="Trazado_105455" data-name="Trazado 105455" d="M351.648,4482.215l-11.585-4.457a17.392,17.392,0,0,1-33.547,0l-11.585,4.457a11,11,0,0,0-7.039,10.742l1.336,30.747a3.668,3.668,0,0,0,3.664,3.507h60.8a3.667,3.667,0,0,0,3.662-3.507l1.336-30.747a11,11,0,0,0-7.038-10.742Zm0,0" fill="#dfedfa"/>
        </g>
      </g>
      <path id="Trazado_105456" data-name="Trazado 105456" d="M311.376,4471.706a20.451,20.451,0,0,0,23.827-.544v-8.1H311.376Zm0,0" fill="#d29b6e"/>
      <path id="Trazado_105457" data-name="Trazado 105457" d="M322.907,4422.789a21.794,21.794,0,0,0-13.2,5.056s-7.022,0-7.022,8.425a62.925,62.925,0,0,0,1.686,13.427h38.756c3.37-18.535-4.634-27.75-20.221-26.908Zm0,0" fill="#344154"/>
      <path id="Trazado_105458" data-name="Trazado 105458" d="M315.042,4441.065a13.079,13.079,0,0,1-5.334-13.22s-7.022,0-7.022,8.425a62.925,62.925,0,0,0,1.686,13.427H312.8Zm0,0" fill="#503441"/>
      <path id="Trazado_105459" data-name="Trazado 105459" d="M341.443,4448.012h-1.685l-.29-1.483a5.193,5.193,0,0,0-1.311-2.624c-8.174-8.459-20.55-7.222-24.017-6.674a1.8,1.8,0,0,0-1.337.984c-1.749,3.534-3.77,7.781-4.985,8.9a3.38,3.38,0,0,1-2.291.9h-1.216a3.388,3.388,0,0,0-.563.06,3.563,3.563,0,0,0-2.747,3.555v1.222a3.539,3.539,0,0,0,2.6,3.5,3.311,3.311,0,0,0,1.026.08,1.641,1.641,0,0,1,1.72,1.37,16.832,16.832,0,0,0,33.115,0,1.637,1.637,0,0,1,1.631-1.36h.347a3.369,3.369,0,0,0,3.37-3.369v-1.686a3.369,3.369,0,0,0-3.369-3.37Zm0,0" fill="#f0c087"/>
      <path id="Trazado_105460" data-name="Trazado 105460" d="M366.82,4441.191v-8.6c2.842.544,4.582,2.007,4.582,3.093a2.291,2.291,0,0,0,4.583,0c0-3.889-3.875-7.038-9.164-7.751V4426.4a2.292,2.292,0,0,0-4.583,0v1.528c-5.289.713-9.164,3.862-9.164,7.751,0,5.5,5.024,7.634,9.164,8.924v8.6c-2.843-.544-4.582-2.006-4.582-3.091a2.291,2.291,0,1,0-4.582,0c0,3.889,3.874,7.037,9.164,7.75v1.528a2.291,2.291,0,1,0,4.582,0v-1.528c5.29-.713,9.165-3.861,9.165-7.75,0-5.5-5.024-7.635-9.165-8.925Zm-9.164-5.51c0-1.086,1.739-2.549,4.582-3.093v7.156c-3.376-1.229-4.582-2.353-4.582-4.063Zm9.164,17.526v-7.156c3.376,1.229,4.582,2.353,4.582,4.063,0,1.086-1.74,2.549-4.582,3.093Zm0,0" fill="#fff"/>
      <g id="Grupo_57419" data-name="Grupo 57419">
        <g id="Grupo_57418" data-name="Grupo 57418" clip-path="url(#clip-path)">
          <path id="Trazado_105461" data-name="Trazado 105461" d="M312.8,4454.753v-16.525c-1.747,3.532-3.765,7.769-4.979,8.887a3.379,3.379,0,0,1-2.291.9h-1.215a3.22,3.22,0,0,0-.563.06,3.56,3.56,0,0,0-2.748,3.554v1.222a3.54,3.54,0,0,0,2.6,3.5,3.342,3.342,0,0,0,1.026.079,1.641,1.641,0,0,1,1.72,1.37,16.788,16.788,0,0,0,19.9,13.463,16.856,16.856,0,0,1-13.451-16.507Zm0,0" fill="#e6af78"/>
          <path id="Trazado_105462" data-name="Trazado 105462" d="M299.7,4501.12a10.113,10.113,0,0,0-2.961-7.149l-7.221-7.222a10.968,10.968,0,0,0-1.625,6.208l1.336,30.747a3.668,3.668,0,0,0,3.664,3.507H299.7Zm0,0" fill="#bedcf5"/>
        </g>
      </g>
      <path id="Trazado_105463" data-name="Trazado 105463" d="M346.881,4501.12a10.1,10.1,0,0,1,2.961-7.149l7.221-7.222a10.968,10.968,0,0,1,1.625,6.208L357.35,4523.7a3.665,3.665,0,0,1-3.662,3.507h-6.807Zm0,0" fill="#bedcf5"/>
      <path id="Trazado_105464" data-name="Trazado 105464" d="M303.076,4479.082a21.066,21.066,0,0,0,40.428,0l-3.442-1.324a17.391,17.391,0,0,1-33.546,0Zm0,0" fill="#bedcf5"/>
    </g>
  </g>
</svg>
