<svg xmlns="http://www.w3.org/2000/svg" xmlns:xlink="http://www.w3.org/1999/xlink" width="150" height="150" viewBox="0 0 150 150">
  <defs>
    <clipPath id="clip-path">
      <rect id="Rectángulo_5862" data-name="Rectángulo 5862" width="108.681" height="116.288" transform="translate(931.75 4412.808)" fill="none"/>
    </clipPath>
  </defs>
  <g id="Grupo_57440" data-name="Grupo 57440" transform="translate(-908.284 -4398.32)">
    <rect id="Rectángulo_5861" data-name="Rectángulo 5861" width="150" height="150" transform="translate(908.284 4398.32)" fill="#5e6178" opacity="0"/>
    <path id="Trazado_105512" data-name="Trazado 105512" d="M1045.079,4474.6a61.794,61.794,0,1,1-61.795-61.794A61.794,61.794,0,0,1,1045.079,4474.6Z" fill="#aed3f2"/>
    <g id="Grupo_57439" data-name="Grupo 57439">
      <path id="Trazado_105513" data-name="Trazado 105513" d="M1040.227,4442.815a29.917,29.917,0,1,1-29.916-29.916,29.916,29.916,0,0,1,29.916,29.916Zm0,0" fill="#344154"/>
      <path id="Trazado_105514" data-name="Trazado 105514" d="M1016.854,4466.187a29.877,29.877,0,0,1-24.149-47.522,29.891,29.891,0,1,0,41.755,41.756,29.742,29.742,0,0,1-17.606,5.766Zm0,0" fill="#27313f"/>
      <g id="Grupo_57436" data-name="Grupo 57436">
        <g id="Grupo_57435" data-name="Grupo 57435" clip-path="url(#clip-path)">
          <path id="Trazado_105515" data-name="Trazado 105515" d="M997.413,4483.22l-10.654-4.192H948.942l-10.654,4.192a10.311,10.311,0,0,0-6.529,10.009l1.293,32.295a3.438,3.438,0,0,0,3.435,3.3h62.727a3.438,3.438,0,0,0,3.435-3.3l1.294-32.295a10.313,10.313,0,0,0-6.53-10.009Zm0,0" fill="#d9a171"/>
          <path id="Trazado_105516" data-name="Trazado 105516" d="M1031.866,4444.859a2.975,2.975,0,0,0,.177-.245c.028-.043.056-.084.081-.128.038-.066.065-.134.1-.2.041-.084.081-.167.115-.255.019-.049.041-.1.057-.148.025-.074.04-.149.059-.224s.045-.17.06-.257c.009-.051.02-.1.027-.153.011-.086.01-.171.014-.257,0-.06.018-.116.018-.176,0-.026-.007-.05-.008-.076,0-.046,0-.092,0-.138-.006-.091-.025-.18-.038-.271s-.019-.172-.038-.255c-.008-.038-.017-.075-.027-.112-.023-.088-.058-.172-.088-.258s-.053-.171-.09-.253c-.014-.033-.03-.067-.046-.1-.039-.081-.089-.156-.135-.234s-.089-.161-.141-.236l-.068-.095c-.051-.066-.111-.126-.167-.19s-.13-.152-.2-.221c-.019-.018-.032-.039-.051-.057s-.03-.02-.044-.033-.024-.028-.039-.04l-11.9-10.141a3.376,3.376,0,0,0-4.379,5.138l4.925,4.2H998.052a3.375,3.375,0,0,0,0,6.75h23.509l-6.758,7.424a3.375,3.375,0,1,0,4.991,4.544l11.9-13.071c.013-.015.022-.033.035-.048s.026-.021.038-.035C1031.805,4444.958,1031.83,4444.906,1031.866,4444.859Z" fill="#f2e9e4"/>
        </g>
      </g>
      <path id="Trazado_105517" data-name="Trazado 105517" d="M965.34,4491.007l-2.2,37.818h9.419l-2.2-37.818Zm0,0" fill="#edebed"/>
      <path id="Trazado_105518" data-name="Trazado 105518" d="M969.42,4492.726h-3.137a1.871,1.871,0,0,1-1.871-1.87v-5.006h6.877v5.006a1.871,1.871,0,0,1-1.869,1.87Zm0,0" fill="#fff"/>
      <rect id="Rectángulo_5863" data-name="Rectángulo 5863" width="24.067" height="20.63" transform="translate(955.818 4465.221)" fill="#e6af78"/>
      <path id="Trazado_105519" data-name="Trazado 105519" d="M955.818,4471.641a20.533,20.533,0,0,0,24.065,0v-6.419H955.818Zm0,0" fill="#d29b6e"/>
      <path id="Trazado_105520" data-name="Trazado 105520" d="M967.851,4422.3" fill="#344154"/>
      <path id="Trazado_105521" data-name="Trazado 105521" d="M967.851,4422.3a22.243,22.243,0,0,0-13.466,5.158s-7.162,0-7.162,8.594a64.253,64.253,0,0,0,1.718,13.7h39.537c3.438-18.908-4.727-28.309-20.627-27.45Z" fill="#f0c087"/>
      <path id="Trazado_105522" data-name="Trazado 105522" d="M957.537,4442.658c-6.315-7.9-3.152-15.2-3.152-15.2s-7.162,0-7.162,8.594a64.253,64.253,0,0,0,1.718,13.7h8.6Zm0,0" fill="#fff"/>
      <path id="Trazado_105523" data-name="Trazado 105523" d="M983.569,4452.872h8.6a64.259,64.259,0,0,0,1.718-13.7c0-8.594-7.162-8.594-7.162-8.594s3.163,7.3-3.152,15.2Zm0-7.093" fill="#fff"/>
      <path id="Trazado_105524" data-name="Trazado 105524" d="M986.759,4448.032h-1.718l-2.265-4.134a1.732,1.732,0,0,0-1.835-.853c-11.321,2.071-18.762-.561-21.581-1.877a1.69,1.69,0,0,0-2.092.544,36.411,36.411,0,0,1-4.81,5.405,3.446,3.446,0,0,1-2.337.915H948.88a3.2,3.2,0,0,0-.576.062,3.632,3.632,0,0,0-2.8,3.626v1.246a3.61,3.61,0,0,0,2.653,3.569,3.411,3.411,0,0,0,1.048.081,1.674,1.674,0,0,1,1.755,1.4,17.17,17.17,0,0,0,33.781,0,1.668,1.668,0,0,1,1.664-1.386h.354a3.438,3.438,0,0,0,3.438-3.439v-1.719a3.437,3.437,0,0,0-3.438-3.437Zm0,0" fill="#f0c087"/>
      <path id="Trazado_105525" data-name="Trazado 105525" d="M957.537,4454.909V4441.45a1.664,1.664,0,0,0-.269.262,36.411,36.411,0,0,1-4.81,5.405,3.446,3.446,0,0,1-2.337.915H948.88a3.382,3.382,0,0,0-.576.062,3.632,3.632,0,0,0-2.8,3.626v1.246a3.61,3.61,0,0,0,2.653,3.569,3.443,3.443,0,0,0,1.048.082,1.673,1.673,0,0,1,1.755,1.4,17.121,17.121,0,0,0,20.3,13.734,17.194,17.194,0,0,1-13.722-16.838Zm0,0" fill="#e6af78"/>
      <path id="Trazado_105526" data-name="Trazado 105526" d="M967.851,4485.9l-12.542-10.974a1.72,1.72,0,0,0-2.348.079l-4.019,4.019,7.988,11.981a3.437,3.437,0,0,0,5.291.525Zm0,0" fill="#e8c7aa"/>
      <path id="Trazado_105527" data-name="Trazado 105527" d="M967.851,4485.9l12.541-10.974a1.718,1.718,0,0,1,2.347.079l4.02,4.019-7.988,11.981a3.437,3.437,0,0,1-5.291.525Zm0,0" fill="#e8c7aa"/>
      <g id="Grupo_57438" data-name="Grupo 57438">
        <g id="Grupo_57437" data-name="Grupo 57437" clip-path="url(#clip-path)">
          <path id="Trazado_105528" data-name="Trazado 105528" d="M994.938,4494.915l7.478-7.478a10.284,10.284,0,0,1,1.528,5.792l-1.294,32.295a3.439,3.439,0,0,1-3.436,3.3h-7.3v-26.616a10.316,10.316,0,0,1,3.022-7.294Zm0,0" fill="#e8c7aa"/>
          <path id="Trazado_105529" data-name="Trazado 105529" d="M940.764,4494.915l-7.479-7.478a10.3,10.3,0,0,0-1.528,5.792l1.294,32.295a3.439,3.439,0,0,0,3.436,3.3h7.3v-26.616a10.319,10.319,0,0,0-3.021-7.294Zm0,0" fill="#e8c7aa"/>
        </g>
      </g>
      <path id="Trazado_105530" data-name="Trazado 105530" d="M950.812,4506.477H959.1a1.869,1.869,0,0,0,1.87-1.869v-1.418a1.87,1.87,0,0,0-1.87-1.869h-8.293a1.87,1.87,0,0,0-1.87,1.869v1.418a1.869,1.869,0,0,0,1.87,1.869Zm0,0" fill="#e8c7aa"/>
    </g>
  </g>
</svg>
