<svg xmlns="http://www.w3.org/2000/svg" xmlns:xlink="http://www.w3.org/1999/xlink" width="150" height="150" viewBox="0 0 150 150">
  <defs>
    <clipPath id="clip-path">
      <rect id="Rectángulo_5858" data-name="Rectángulo 5858" width="109.246" height="118.749" transform="translate(762.24 4410.869)" fill="none"/>
    </clipPath>
  </defs>
  <g id="Grupo_57434" data-name="Grupo 57434" transform="translate(-740.732 -4398.32)">
    <path id="Trazado_105483" data-name="Trazado 105483" d="M861.858,4422.235a1.877,1.877,0,0,1-1.878-1.878v-7.517a1.879,1.879,0,0,1,3.758,0v7.517a1.879,1.879,0,0,1-1.88,1.878Zm0,0" fill="#344154"/>
    <g id="Grupo_57433" data-name="Grupo 57433">
      <rect id="Rectángulo_5857" data-name="Rectángulo 5857" width="150" height="150" transform="translate(740.732 4398.32)" fill="#5e6178" opacity="0"/>
      <path id="Trazado_105484" data-name="Trazado 105484" d="M877.527,4474.6a61.794,61.794,0,1,1-61.795-61.794A61.794,61.794,0,0,1,877.527,4474.6Z" fill="#aed3f2"/>
      <path id="Trazado_105485" data-name="Trazado 105485" d="M826.157,4461.695h37.581a7.516,7.516,0,0,0,7.516-7.516v-30.064a7.516,7.516,0,0,0-7.516-7.517H826.157a7.516,7.516,0,0,0-7.516,7.517v30.064a7.516,7.516,0,0,0,7.516,7.516Zm0,0" fill="#edebed"/>
      <path id="Trazado_105486" data-name="Trazado 105486" d="M848.706,4437.268h-7.517a1.879,1.879,0,0,1,0-3.758h7.517a1.879,1.879,0,0,1,0,3.758Zm0,0" fill="#fff"/>
      <path id="Trazado_105487" data-name="Trazado 105487" d="M863.738,4437.268h-7.517a1.879,1.879,0,0,1,0-3.758h7.517a1.879,1.879,0,0,1,0,3.758Zm0,0" fill="#fff"/>
      <path id="Trazado_105488" data-name="Trazado 105488" d="M833.673,4437.268h-5.637a1.879,1.879,0,0,1,0-3.758h5.637a1.879,1.879,0,1,1,0,3.758Zm0,0" fill="#fff"/>
      <path id="Trazado_105489" data-name="Trazado 105489" d="M848.706,4444.783h-7.517a1.879,1.879,0,0,1,0-3.757h7.517a1.879,1.879,0,1,1,0,3.757Zm0,0" fill="#fff"/>
      <path id="Trazado_105490" data-name="Trazado 105490" d="M863.738,4444.783h-7.517a1.879,1.879,0,0,1,0-3.757h7.517a1.879,1.879,0,0,1,0,3.757Zm0,0" fill="#fff"/>
      <path id="Trazado_105491" data-name="Trazado 105491" d="M833.673,4444.783h-5.637a1.879,1.879,0,1,1,0-3.757h5.637a1.879,1.879,0,1,1,0,3.757Zm0,0" fill="#fff"/>
      <path id="Trazado_105492" data-name="Trazado 105492" d="M848.706,4452.3h-7.517a1.879,1.879,0,0,1,0-3.758h7.517a1.879,1.879,0,1,1,0,3.758Zm0,0" fill="#d9a171"/>
      <path id="Trazado_105493" data-name="Trazado 105493" d="M863.738,4452.3h-7.517a1.879,1.879,0,0,1,0-3.758h7.517a1.879,1.879,0,0,1,0,3.758Zm0,0" fill="#d9a171"/>
      <path id="Trazado_105494" data-name="Trazado 105494" d="M833.673,4452.3h-5.637a1.879,1.879,0,1,1,0-3.758h5.637a1.879,1.879,0,1,1,0,3.758Zm0,0" fill="#d9a171"/>
      <path id="Trazado_105495" data-name="Trazado 105495" d="M863.738,4416.6H826.157a7.516,7.516,0,0,0-7.516,7.517v1.878h52.612v-1.878a7.515,7.515,0,0,0-7.515-7.517Zm0,0" fill="#d9a171"/>
      <path id="Trazado_105496" data-name="Trazado 105496" d="M828.036,4422.235a1.878,1.878,0,0,1-1.879-1.878v-7.517a1.88,1.88,0,0,1,3.759,0v7.517a1.879,1.879,0,0,1-1.88,1.878Zm0,0" fill="#344154"/>
      <path id="Trazado_105497" data-name="Trazado 105497" d="M828.036,4418.478a1.879,1.879,0,0,1-1.879-1.88v3.759a1.88,1.88,0,0,0,3.759,0V4416.6a1.88,1.88,0,0,1-1.88,1.88Zm0,0" fill="#503441"/>
      <g id="Grupo_57430" data-name="Grupo 57430">
        <g id="Grupo_57429" data-name="Grupo 57429" clip-path="url(#clip-path)">
          <path id="Trazado_105498" data-name="Trazado 105498" d="M861.858,4418.478a1.879,1.879,0,0,1-1.878-1.88v3.759a1.879,1.879,0,0,0,3.758,0V4416.6a1.88,1.88,0,0,1-1.88,1.88Zm0,0" fill="#503441"/>
          <path id="Trazado_105499" data-name="Trazado 105499" d="M828.228,4483.51l-10.706-4.213h-38l-10.707,4.213a10.362,10.362,0,0,0-6.562,10.06l1.3,32.454a3.457,3.457,0,0,0,3.453,3.317h63.038a3.455,3.455,0,0,0,3.451-3.317l1.3-32.454a10.362,10.362,0,0,0-6.562-10.06Zm0,0" fill="#d9a171"/>
        </g>
      </g>
      <path id="Trazado_105500" data-name="Trazado 105500" d="M796,4491.336l-2.209,38h9.465l-2.21-38Zm0,0" fill="#344154"/>
      <path id="Trazado_105501" data-name="Trazado 105501" d="M800.095,4493.063h-3.151a1.88,1.88,0,0,1-1.88-1.88v-5.03h6.91v5.03a1.879,1.879,0,0,1-1.879,1.88Zm0,0" fill="#503441"/>
      <rect id="Rectángulo_5859" data-name="Rectángulo 5859" width="24.184" height="20.73" transform="translate(786.426 4465.423)" fill="#e6af78"/>
      <path id="Trazado_105502" data-name="Trazado 105502" d="M786.426,4471.874a20.638,20.638,0,0,0,24.186,0v-6.451H786.426Zm0,0" fill="#d29b6e"/>
      <path id="Trazado_105503" data-name="Trazado 105503" d="M798.52,4422.29a22.349,22.349,0,0,0-13.533,5.182s-7.2,0-7.2,8.638a64.508,64.508,0,0,0,1.728,13.765h39.732c3.455-19-4.75-28.449-20.729-27.585Zm0,0" fill="#344154"/>
      <path id="Trazado_105504" data-name="Trazado 105504" d="M788.155,4442.747c-6.347-7.934-3.168-15.275-3.168-15.275s-7.2,0-7.2,8.638a64.508,64.508,0,0,0,1.728,13.765h8.638Zm0,0" fill="#27313f"/>
      <path id="Trazado_105505" data-name="Trazado 105505" d="M817.522,4448.148h-1.728l-2.276-4.155a1.739,1.739,0,0,0-1.844-.857c-11.377,2.081-18.854-.563-21.687-1.887a1.7,1.7,0,0,0-2.1.547,36.487,36.487,0,0,1-4.834,5.432,3.465,3.465,0,0,1-2.349.92h-1.246a3.219,3.219,0,0,0-.579.062,3.652,3.652,0,0,0-2.815,3.644v1.252a3.629,3.629,0,0,0,2.668,3.587,3.438,3.438,0,0,0,1.052.081,1.684,1.684,0,0,1,1.764,1.4,17.255,17.255,0,0,0,33.948,0,1.677,1.677,0,0,1,1.672-1.393h.357a3.455,3.455,0,0,0,3.455-3.455V4451.6a3.455,3.455,0,0,0-3.455-3.454Zm0,0" fill="#f0c087"/>
      <path id="Trazado_105506" data-name="Trazado 105506" d="M788.155,4455.058v-13.526a1.61,1.61,0,0,0-.271.264,36.487,36.487,0,0,1-4.834,5.432,3.463,3.463,0,0,1-2.349.92h-1.245a3.23,3.23,0,0,0-.58.062,3.651,3.651,0,0,0-2.813,3.644v1.252a3.628,3.628,0,0,0,2.666,3.587,3.442,3.442,0,0,0,1.053.081,1.685,1.685,0,0,1,1.764,1.4,17.214,17.214,0,0,0,20.4,13.8,17.279,17.279,0,0,1-13.79-16.923Zm0,0" fill="#e6af78"/>
      <path id="Trazado_105507" data-name="Trazado 105507" d="M798.52,4486.207l-12.6-11.028a1.727,1.727,0,0,0-2.359.078l-4.04,4.04,8.027,12.041a3.455,3.455,0,0,0,5.318.526Zm0,0" fill="#f0d9c6"/>
      <path id="Trazado_105508" data-name="Trazado 105508" d="M798.52,4486.207l12.6-11.028a1.727,1.727,0,0,1,2.359.078l4.04,4.04-8.028,12.041a3.454,3.454,0,0,1-5.317.526Zm0,0" fill="#f0d9c6"/>
      <g id="Grupo_57432" data-name="Grupo 57432">
        <g id="Grupo_57431" data-name="Grupo 57431" clip-path="url(#clip-path)">
          <path id="Trazado_105509" data-name="Trazado 105509" d="M825.74,4495.263l7.516-7.515a10.331,10.331,0,0,1,1.534,5.822l-1.3,32.454a3.455,3.455,0,0,1-3.451,3.317H822.7v-26.748a10.368,10.368,0,0,1,3.036-7.33Zm0,0" fill="#f0d9c6"/>
          <path id="Trazado_105510" data-name="Trazado 105510" d="M771.3,4495.263l-7.515-7.515a10.332,10.332,0,0,0-1.535,5.822l1.3,32.454a3.455,3.455,0,0,0,3.451,3.317h7.335v-26.748a10.364,10.364,0,0,0-3.036-7.33Zm0,0" fill="#f0d9c6"/>
        </g>
      </g>
      <path id="Trazado_105511" data-name="Trazado 105511" d="M781.4,4506.883h8.335a1.879,1.879,0,0,0,1.878-1.879v-1.425a1.878,1.878,0,0,0-1.878-1.878H781.4a1.878,1.878,0,0,0-1.879,1.878V4505a1.879,1.879,0,0,0,1.879,1.879Zm0,0" fill="#f0d9c6"/>
    </g>
  </g>
</svg>
