<svg xmlns="http://www.w3.org/2000/svg" width="100" height="100" viewBox="0 0 100 100">
  <g id="Grupo_57444" data-name="Grupo 57444" transform="translate(-429.358 -3982.46)">
    <g id="Grupo_57441" data-name="Grupo 57441">
      <rect id="Rectángulo_5865" data-name="Rectángulo 5865" width="100" height="100" transform="translate(429.358 3982.46)" fill="#5e6178" opacity="0"/>
      <path id="Trazado_105531" data-name="Trazado 105531" d="M520.554,4033.314a41.2,41.2,0,1,1-41.2-41.2A41.2,41.2,0,0,1,520.554,4033.314Z" fill="#f2e9e4"/>
    </g>
    <g id="Grupo_57442" data-name="Grupo 57442">
      <path id="Trazado_105532" data-name="Trazado 105532" d="M465.6,4016.709a1.063,1.063,0,0,0,.92.531,1.048,1.048,0,0,0,.529-.143,1.059,1.059,0,0,0,.388-1.448l-2.308-4a1.061,1.061,0,0,0-1.837,1.061Z" fill="#344154" fill-rule="evenodd"/>
      <path id="Trazado_105533" data-name="Trazado 105533" d="M493.873,4024.569a1.059,1.059,0,0,0,.529-.142l4-2.309a1.061,1.061,0,1,0-1.061-1.837l-4,2.309a1.061,1.061,0,0,0,.531,1.979Z" fill="#344154" fill-rule="evenodd"/>
      <path id="Trazado_105534" data-name="Trazado 105534" d="M454.661,4022.118l4,2.309a1.061,1.061,0,1,0,1.061-1.837l-4-2.309a1.06,1.06,0,1,0-1.06,1.837Z" fill="#344154" fill-rule="evenodd"/>
      <path id="Trazado_105535" data-name="Trazado 105535" d="M486.013,4017.1a1.045,1.045,0,0,0,.529.143,1.06,1.06,0,0,0,.919-.531l2.309-4a1.061,1.061,0,0,0-1.837-1.061l-2.309,4A1.059,1.059,0,0,0,486.013,4017.1Z" fill="#344154" fill-rule="evenodd"/>
      <path id="Trazado_105536" data-name="Trazado 105536" d="M476.531,4014.56a1.06,1.06,0,0,0,1.06-1.061v-4.62a1.061,1.061,0,1,0-2.121,0v4.62A1.061,1.061,0,0,0,476.531,4014.56Z" fill="#344154" fill-rule="evenodd"/>
      <path id="Trazado_105537" data-name="Trazado 105537" d="M476.531,4052.481a1.06,1.06,0,0,0-1.061,1.06v4.621a1.061,1.061,0,0,0,2.121,0v-4.621A1.06,1.06,0,0,0,476.531,4052.481Z" fill="#344154" fill-rule="evenodd"/>
      <path id="Trazado_105538" data-name="Trazado 105538" d="M501.172,4032.46h-4.62a1.061,1.061,0,0,0,0,2.121h4.62a1.061,1.061,0,1,0,0-2.121Z" fill="#344154" fill-rule="evenodd"/>
      <path id="Trazado_105539" data-name="Trazado 105539" d="M487.461,4050.331a1.061,1.061,0,0,0-1.837,1.061l2.31,4a1.06,1.06,0,1,0,1.836-1.061Z" fill="#344154" fill-rule="evenodd"/>
      <path id="Trazado_105540" data-name="Trazado 105540" d="M498.4,4044.923l-4-2.309a1.06,1.06,0,0,0-1.06,1.837l4,2.309a1.061,1.061,0,0,0,1.061-1.837Z" fill="#344154" fill-rule="evenodd"/>
      <path id="Trazado_105541" data-name="Trazado 105541" d="M490.785,4028.884a1.061,1.061,0,0,0-.775,1.285,13.9,13.9,0,0,1-17.9,16.518,5.813,5.813,0,0,0-4.746-8.786,8.2,8.2,0,0,0-4.713-4.258c0-.041,0-.082,0-.123a13.887,13.887,0,0,1,23.43-10.088,1.061,1.061,0,0,0,1.458-1.541,16.007,16.007,0,0,0-27.005,11.314q-.287-.021-.574-.021a8.2,8.2,0,0,0-8.038,6.694,4.866,4.866,0,0,0,.881,9.651h14.313a5.786,5.786,0,0,0,3.464-1.147,16.014,16.014,0,0,0,21.966-14.862,16.081,16.081,0,0,0-.47-3.862A1.06,1.06,0,0,0,490.785,4028.884ZM452.8,4047.408a2.745,2.745,0,1,1,0-5.489h.063a1.061,1.061,0,0,0,1.058-.987,6.051,6.051,0,0,1,11.739-1.6,1.06,1.06,0,0,0,1.1.7c.118-.011.237-.017.354-.017a3.7,3.7,0,0,1,0,7.392Z" fill="#344154" fill-rule="evenodd"/>
      <path id="Trazado_105542" data-name="Trazado 105542" d="M488.381,4025.983a1.061,1.061,0,1,0,1.061-1.061A1.063,1.063,0,0,0,488.381,4025.983Z" fill="#344154" fill-rule="evenodd"/>
    </g>
    <g id="Grupo_57443" data-name="Grupo 57443">
      <path id="Trazado_105543" data-name="Trazado 105543" d="M513.005,4002.145h7.549v3.254h-7.549v8.553h-3.458V4005.4H502v-3.254h7.549v-7.9h3.458Z" fill="#6595bf"/>
    </g>
  </g>
</svg>
