<svg xmlns="http://www.w3.org/2000/svg" width="79.311" height="79.311" viewBox="0 0 79.311 79.311">
  <g id="Grupo_59437" data-name="Grupo 59437" transform="translate(-272 -10416)">
    <g id="Grupo_59423" data-name="Grupo 59423" transform="translate(272 10416)">
      <g id="Grupo_20664" data-name="Grupo 20664" transform="translate(0 0)">
        <path id="Trazado_99075" data-name="Trazado 99075" d="M39.655,0A39.655,39.655,0,1,1,0,39.655,39.655,39.655,0,0,1,39.655,0Z" fill="#d9a171"/>
        <path id="Trazado_106450" data-name="Trazado 106450" d="M5.786,32V16.883a9.218,9.218,0,0,1-2.124.916,14.633,14.633,0,0,1-2.49.461V13.572A16.454,16.454,0,0,0,4.856,12.51,19.011,19.011,0,0,0,8.35,10.525h3.677V32Z" transform="translate(30 18.161)" fill="#fff"/>
      </g>
    </g>
  </g>
</svg>
