<svg xmlns="http://www.w3.org/2000/svg" xmlns:xlink="http://www.w3.org/1999/xlink" width="100" height="100" viewBox="0 0 100 100">
  <defs>
    <clipPath id="clip-path">
      <rect id="Rectángulo_5876" data-name="Rectángulo 5876" width="72.62" height="81.311" transform="translate(539.811 4343.233)" fill="none"/>
    </clipPath>
  </defs>
  <g id="Grupo_57503" data-name="Grupo 57503" transform="translate(-525.262 -4337.161)">
    <rect id="Rectángulo_5875" data-name="Rectángulo 5875" width="100" height="100" transform="translate(525.262 4337.161)" fill="#5e6178" opacity="0"/>
    <path id="Trazado_105653" data-name="Trazado 105653" d="M616.458,4388.016a41.2,41.2,0,1,1-41.2-41.2A41.2,41.2,0,0,1,616.458,4388.016Z" fill="#6595bf"/>
    <g id="Grupo_57502" data-name="Grupo 57502">
      <g id="Grupo_57499" data-name="Grupo 57499">
        <g id="Grupo_57498" data-name="Grupo 57498" clip-path="url(#clip-path)">
          <path id="Trazado_105654" data-name="Trazado 105654" d="M612.434,4364.214a20.918,20.918,0,1,1-20.918-20.918,20.918,20.918,0,0,1,20.918,20.918Zm0,0" fill="#5d6776"/>
          <path id="Trazado_105655" data-name="Trazado 105655" d="M596.092,4380.557a20.891,20.891,0,0,1-16.886-33.228,20.9,20.9,0,1,0,29.2,29.2,20.8,20.8,0,0,1-12.31,4.032Zm0,0" fill="#27313f"/>
          <path id="Trazado_105656" data-name="Trazado 105656" d="M578.755,4399.54l-6.485-2.831H550.623l-6.485,2.831a7.213,7.213,0,0,0-4.321,6.915l.662,15.6a2.4,2.4,0,0,0,2.4,2.3h37.132a2.4,2.4,0,0,0,2.4-2.3l.661-15.6a7.213,7.213,0,0,0-4.32-6.915Zm0,0" fill="#dfedfa"/>
          <circle id="Elipse_4178" data-name="Elipse 4178" cx="20.741" cy="20.741" r="20.741" transform="translate(570.723 4343.9)" fill="#edebed" opacity="0"/>
          <path id="Trazado_105657" data-name="Trazado 105657" d="M591.465,4350.381a14.211,14.211,0,0,0-10.083,4.177l10.083,10.083h14.259A14.26,14.26,0,0,0,591.465,4350.381Z" fill="#d9a171"/>
          <path id="Trazado_105658" data-name="Trazado 105658" d="M591.465,4359.456a5.17,5.17,0,0,0-3.667,1.518l3.667,3.667h5.185A5.185,5.185,0,0,0,591.465,4359.456Z" fill="#a66d58"/>
          <path id="Trazado_105659" data-name="Trazado 105659" d="M596,4380.845a20.714,20.714,0,0,1-16.743-32.947,20.724,20.724,0,1,0,28.949,28.949A20.62,20.62,0,0,1,596,4380.845Z" fill="#dbd9dc" opacity="0"/>
          <g id="Grupo_57497" data-name="Grupo 57497">
            <path id="Trazado_105660" data-name="Trazado 105660" d="M591.465,4352.974a1.3,1.3,0,0,1-1.3-1.3v-2.593a1.3,1.3,0,0,1,2.593,0v2.593A1.3,1.3,0,0,1,591.465,4352.974Z" fill="#aea8af"/>
            <path id="Trazado_105661" data-name="Trazado 105661" d="M591.465,4381.493a1.3,1.3,0,0,1-1.3-1.3V4377.6a1.3,1.3,0,0,1,2.593,0v2.593A1.3,1.3,0,0,1,591.465,4381.493Z" fill="#aea8af"/>
            <path id="Trazado_105662" data-name="Trazado 105662" d="M574.612,4364.641a1.3,1.3,0,0,1,1.3-1.3H578.5a1.3,1.3,0,1,1,0,2.592h-2.592A1.3,1.3,0,0,1,574.612,4364.641Z" fill="#aea8af"/>
          </g>
          <path id="Trazado_105663" data-name="Trazado 105663" d="M607.021,4365.937H591.465a1.3,1.3,0,0,1-.917-.379l-9.991-9.991a1.3,1.3,0,0,1,1.833-1.833l9.611,9.611h15.02a1.3,1.3,0,1,1,0,2.592Z" fill="#aed3f2"/>
          <circle id="Elipse_4179" data-name="Elipse 4179" cx="2.593" cy="2.593" r="2.593" transform="translate(588.872 4362.048)" fill="#9c969e"/>
        </g>
      </g>
      <rect id="Rectángulo_5877" data-name="Rectángulo 5877" width="12.02" height="12.02" transform="translate(555.437 4388.296)" fill="#fad7a5"/>
      <path id="Trazado_105664" data-name="Trazado 105664" d="M555.437,4391.787a14.38,14.38,0,0,0,12.019,0V4388.3H555.437Zm0,0" fill="#f0c891"/>
      <path id="Trazado_105665" data-name="Trazado 105665" d="M568.659,4357.045a7.212,7.212,0,1,1-7.212-7.212,7.212,7.212,0,0,1,7.212,7.212Zm0,0" fill="#c09576"/>
      <path id="Trazado_105666" data-name="Trazado 105666" d="M575.872,4369.665c0,7.635-6.458,13.823-14.425,13.823s-14.424-6.188-14.424-13.823,6.458-13.822,14.424-13.822,14.425,6.189,14.425,13.822Zm0,0" fill="#af876e"/>
      <path id="Trazado_105667" data-name="Trazado 105667" d="M556.639,4371.469c-4.808-4.809-5.527-8.954-5.413-11.555a13.5,13.5,0,0,0-4.2,9.751,13.286,13.286,0,0,0,2.067,7.12Zm0,0" fill="#a07b64"/>
      <path id="Trazado_105668" data-name="Trazado 105668" d="M575.151,4373.922a6.6,6.6,0,0,0-.689-.049,2.4,2.4,0,0,1-1.7-.705l-1.038-1.037a2.382,2.382,0,0,0-1.554-.7c-2.339-.131-8.827-.713-13.981-3.243a1.2,1.2,0,0,0-1.553.394,24.625,24.625,0,0,1-3.957,4.654,2.4,2.4,0,0,1-1.63.636h-.866a2.377,2.377,0,0,0-.4.042,2.542,2.542,0,0,0-1.958,2.537v.87a2.525,2.525,0,0,0,1.856,2.5,2.366,2.366,0,0,0,.733.057,1.17,1.17,0,0,1,1.226.977,12.006,12.006,0,0,0,23.621,0,1.171,1.171,0,0,1,1.227-.977,2.36,2.36,0,0,0,.732-.057,2.524,2.524,0,0,0,1.856-2.5v-1.095a2.512,2.512,0,0,0-1.921-2.305Zm0,0" fill="#ffe1b4"/>
      <g id="Grupo_57501" data-name="Grupo 57501">
        <g id="Grupo_57500" data-name="Grupo 57500" clip-path="url(#clip-path)">
          <path id="Trazado_105669" data-name="Trazado 105669" d="M554.235,4378.68v-9.5a25.3,25.3,0,0,1-3.556,4.057,2.4,2.4,0,0,1-1.63.636h-.866a2.356,2.356,0,0,0-.4.042,2.542,2.542,0,0,0-1.958,2.537v.87a2.525,2.525,0,0,0,1.856,2.5,2.362,2.362,0,0,0,.732.057,1.171,1.171,0,0,1,1.227.977,11.973,11.973,0,0,0,14.193,9.6,12.024,12.024,0,0,1-9.594-11.775Zm0,0" fill="#fad7a5"/>
          <path id="Trazado_105670" data-name="Trazado 105670" d="M546.275,4406.389l-4.392-5.27a7.2,7.2,0,0,0-2.066,5.336l.662,15.6a2.4,2.4,0,0,0,2.4,2.3h5.344v-12.58a8.413,8.413,0,0,0-1.95-5.386Zm0,0" fill="#bedcf5"/>
        </g>
      </g>
      <path id="Trazado_105671" data-name="Trazado 105671" d="M576.618,4406.389l4.392-5.27a7.193,7.193,0,0,1,2.065,5.336l-.661,15.6a2.4,2.4,0,0,1-2.4,2.3h-5.345v-12.58a8.413,8.413,0,0,1,1.95-5.386Zm0,0" fill="#bedcf5"/>
      <path id="Trazado_105672" data-name="Trazado 105672" d="M569.508,4393.954a1.2,1.2,0,0,0-1.7,0l-5.81,5.81a.781.781,0,0,1-1.1,0l-5.81-5.81a1.2,1.2,0,0,0-1.7,0l-2.756,2.755,4.447,7.219a1.2,1.2,0,0,0,1.8.284l2.665-2.275a.425.425,0,0,1,.7.323v22.1h2.4v-22.1a.425.425,0,0,1,.7-.323l2.665,2.275a1.2,1.2,0,0,0,1.8-.284l4.447-7.219Zm0,0" fill="#bedcf5"/>
      <path id="Trazado_105673" data-name="Trazado 105673" d="M551.936,4414.739h4.6a1.308,1.308,0,0,0,1.308-1.308v-.991a1.308,1.308,0,0,0-1.308-1.307h-4.6a1.307,1.307,0,0,0-1.307,1.307v.991a1.307,1.307,0,0,0,1.307,1.308Zm0,0" fill="#bedcf5"/>
    </g>
  </g>
</svg>
