<svg xmlns="http://www.w3.org/2000/svg" xmlns:xlink="http://www.w3.org/1999/xlink" width="210" height="210" viewBox="0 0 210 210">
  <defs>
    <radialGradient id="radial-gradient" cx="0.5" cy="0.5" r="0.5" gradientTransform="matrix(0.707, 0.707, -0.707, 0.707, 0.5, -0.207)" gradientUnits="objectBoundingBox">
      <stop offset="0.178"/>
      <stop offset="0.243" stop-color="#232323"/>
      <stop offset="0.359" stop-color="#5d5d5d"/>
      <stop offset="0.475" stop-color="#8e8e8e"/>
      <stop offset="0.589" stop-color="#b7b7b7"/>
      <stop offset="0.7" stop-color="#d6d6d6"/>
      <stop offset="0.807" stop-color="#ececec"/>
      <stop offset="0.909" stop-color="#fafafa"/>
      <stop offset="1" stop-color="#fff"/>
    </radialGradient>
  </defs>
  <g id="Grupo_59439" data-name="Grupo 59439" transform="translate(-233 -2406)">
    <g id="Grupo_53822" data-name="Grupo 53822" transform="translate(-288.177 1403.488)">
      <g id="Grupo_53818" data-name="Grupo 53818" transform="translate(521.177 1002.512)" style="mix-blend-mode: multiply;isolation: isolate">
        <circle id="Elipse_4067" data-name="Elipse 4067" cx="74.246" cy="74.246" r="74.246" transform="translate(0 105) rotate(-45)" fill="url(#radial-gradient)"/>
      </g>
      <g id="Grupo_53819" data-name="Grupo 53819" transform="translate(579.272 1047.821)">
        <circle id="Elipse_4068" data-name="Elipse 4068" cx="48.552" cy="48.552" r="48.552" transform="translate(0 95.849) rotate(-80.783)" fill="#d9a171"/>
        <path id="Trazado_100496" data-name="Trazado 100496" d="M606.02,1131.845a51.348,51.348,0,1,1,51.348-51.348A51.407,51.407,0,0,1,606.02,1131.845Zm0-97.1a45.755,45.755,0,1,0,45.755,45.755A45.806,45.806,0,0,0,606.02,1034.742Z" transform="translate(-550.318 -1024.795)" fill="#fff"/>
      </g>
      <g id="Grupo_56644" data-name="Grupo 56644" transform="translate(1640.951 -2517.493)">
        <path id="Trazado_104175" data-name="Trazado 104175" d="M-973.369,3605.161a.941.941,0,0,1-.94-.94h-1.878a2.815,2.815,0,0,0,1.878,2.645v1.112h1.879v-1.112a2.814,2.814,0,0,0,1.878-2.645,2.821,2.821,0,0,0-2.817-2.817.941.941,0,0,1-.94-.939.941.941,0,0,1,.94-.94.941.941,0,0,1,.939.94h1.878a2.815,2.815,0,0,0-1.878-2.646v-1.112h-1.879v1.112a2.816,2.816,0,0,0-1.878,2.646,2.821,2.821,0,0,0,2.818,2.817.941.941,0,0,1,.939.939A.941.941,0,0,1-973.369,3605.161Z" transform="translate(-12.884 -1.052)" fill="#fff"/>
        <path id="Trazado_104176" data-name="Trazado 104176" d="M-975.209,3610.683a9.4,9.4,0,0,0,9.393-9.393,9.4,9.4,0,0,0-9.393-9.393,9.4,9.4,0,0,0-9.393,9.393A9.4,9.4,0,0,0-975.209,3610.683Zm0-16.907a7.522,7.522,0,0,1,7.514,7.514,7.523,7.523,0,0,1-7.514,7.515,7.524,7.524,0,0,1-7.514-7.515A7.523,7.523,0,0,1-975.209,3593.776Z" transform="translate(-11.043)" fill="#fff"/>
        <path id="Trazado_104177" data-name="Trazado 104177" d="M-968.222,3615.942H-970.1v11.271h-1.879v-9.393h-1.878v9.393h-1.878v-6.575h-1.879v6.575h-1.878v-3.757h-1.879v3.757h-1.878v-1.878h-1.878v1.878h-1.879v1.879h20.664v-1.879h-1.879Z" transform="translate(-10.517 -5.259)" fill="#fff"/>
        <path id="Trazado_104178" data-name="Trazado 104178" d="M-988.253,3638.48l-3.061-.613-7.406-11.521a3.746,3.746,0,0,0-3.161-1.725h-2.218v-1.879h2.818v-.939a4.7,4.7,0,0,0-4.7-4.7h-4.078l-1-2.342a21.557,21.557,0,0,0-4.311-6.5v-1.062a5.618,5.618,0,0,0,1.878-4.189v-1.878a5.641,5.641,0,0,0-5.635-5.635,5.641,5.641,0,0,0-5.635,5.635v1.878a5.622,5.622,0,0,0,1.878,4.189v2.126l-1.676,2.793-3.081-7.563a3.775,3.775,0,0,0,.061-.605,3.76,3.76,0,0,0-3.757-3.756,3.76,3.76,0,0,0-3.756,3.756,3.748,3.748,0,0,0,2,3.3l11.074,26.761-2.923,7.307c-.683-.2-1.367-.385-2.047-.6h0a3.077,3.077,0,0,0-.917-.14h-.358a3.077,3.077,0,0,0-3.073,3.073,3.081,3.081,0,0,0,2.252,2.962l2.074.575a101.963,101.963,0,0,0,27.293,3.721h8.77a2.821,2.821,0,0,0,2.817-2.818,2.821,2.821,0,0,0-2.817-2.817h-6.185c-2.328,0-4.65-.091-6.965-.251v-10.08h3.666l4.653,7.56a1.862,1.862,0,0,0,1.6.893h5.441a2.49,2.49,0,0,0,2.488-2.487A2.493,2.493,0,0,0-988.253,3638.48Zm-15.067-17.615h-13.309l-2.4-5.594a1.241,1.241,0,0,1-.1-.491v-.186a1.246,1.246,0,0,1,1.245-1.244,1.242,1.242,0,0,1,1.18.851l1.595,4.785h9.131A2.823,2.823,0,0,1-1003.32,3620.865Zm-15.24,22.085,2.909-8h5.917v9.52Q-1014.178,3643.91-1018.56,3642.95Zm-1.818-9.875-10.512-25.4a3.722,3.722,0,0,0,2.093-.962l9.978,24.488h9.085v1.878Zm-2.506-31.934a3.761,3.761,0,0,1,3.757-3.757,3.761,3.761,0,0,1,3.757,3.757v1.878a3.761,3.761,0,0,1-3.757,3.757,3.761,3.761,0,0,1-3.757-3.757Zm1.879,8.713v-1.528a5.567,5.567,0,0,0,1.878.329,5.59,5.59,0,0,0,1.878-.329v.718l.276.275a19.675,19.675,0,0,1,4.188,6.186l.688,1.6h-1.656l-1.167-3.5a3.122,3.122,0,0,0-2.963-2.135,3.126,3.126,0,0,0-3.123,3.122v.186a3.092,3.092,0,0,0,.252,1.23l2.885,6.732h8.133v6.575h-7.822l-6.117-15.017Zm-10.332-7.774a1.881,1.881,0,0,1,1.879,1.878,1.881,1.881,0,0,1-1.879,1.879,1.88,1.88,0,0,1-1.878-1.879A1.88,1.88,0,0,1-1031.338,3602.079Zm10.968,32.874h2.719l-2.755,7.578c-.909-.218-1.818-.441-2.721-.684Zm29.421,12.21a.94.94,0,0,1,.939.939.941.941,0,0,1-.939.94h-8.77a100.079,100.079,0,0,1-26.789-3.653l-2.074-.576a1.2,1.2,0,0,1-.877-1.151,1.2,1.2,0,0,1,1.195-1.195h.358a1.2,1.2,0,0,1,.356.055,101.9,101.9,0,0,0,30.416,4.642Zm-16.907-2.464v-21.957h1.879v22.135C-1006.6,3644.823-1007.23,3644.768-1007.856,3644.7Zm3.757-11.625V3631.2h1.353l1.156,1.878Zm15.359,8.453h-5.441l-7.514-12.21h-2.4V3626.5h2.218a1.873,1.873,0,0,1,1.581.863l7.837,12.19,3.842.768a.61.61,0,0,1,.489.6A.61.61,0,0,1-988.74,3641.528Z" transform="translate(0 -0.789)" fill="#fff"/>
      </g>
    </g>
  </g>
</svg>
