<svg xmlns="http://www.w3.org/2000/svg" width="199.929" height="199.93" viewBox="0 0 199.929 199.93">
  <g id="Grupo_57522" data-name="Grupo 57522" transform="translate(-958.768 -4520.954)">
    <rect id="Rectángulo_5881" data-name="Rectángulo 5881" width="199.929" height="199.929" transform="translate(958.768 4520.954)" fill="#5e6178" opacity="0"/>
    <g id="Grupo_57521" data-name="Grupo 57521">
      <path id="Trazado_105713" data-name="Trazado 105713" d="M1058.732,4537.806a83.147,83.147,0,0,0-39.46,156.239l39.46-9.15,39.461,9.15a83.147,83.147,0,0,0-39.461-156.239Z" fill="#f2e9e4"/>
      <g id="Grupo_57518" data-name="Grupo 57518">
        <path id="Trazado_105714" data-name="Trazado 105714" d="M1079.7,4588.088l3.456,6.964a8.638,8.638,0,0,0,11.577,3.9s-12.444-25.664-13.132-26.7l-3.1,7.256Z" fill="#ffbda9"/>
        <g id="Grupo_57517" data-name="Grupo 57517">
          <path id="Trazado_105715" data-name="Trazado 105715" d="M1059,4625.013h-39.51V4588.1H1059l13.368,19.564Z" fill="#d9a171"/>
          <path id="Trazado_105716" data-name="Trazado 105716" d="M1058.73,4588.1h39.245v36.918H1058.73Z" fill="#a66d58"/>
          <g id="Grupo_57515" data-name="Grupo 57515">
            <path id="Trazado_105717" data-name="Trazado 105717" d="M1064.083,4607.659l-5.353,11.271a11.271,11.271,0,0,1,0-22.542Z" fill="#f5ede9"/>
            <path id="Trazado_105718" data-name="Trazado 105718" d="M1070,4607.659a11.271,11.271,0,0,1-11.271,11.271v-22.542A11.271,11.271,0,0,1,1070,4607.659Z" fill="#f2e9e4"/>
          </g>
          <path id="Trazado_105719" data-name="Trazado 105719" d="M1033.427,4622.787a11.306,11.306,0,0,0-11.306-11.306v11.306Z" fill="#f5ede9"/>
          <path id="Trazado_105720" data-name="Trazado 105720" d="M1022.121,4601.627a11.306,11.306,0,0,0,11.306-11.306h-11.306Z" fill="#f5ede9"/>
          <g id="Grupo_57516" data-name="Grupo 57516">
            <path id="Trazado_105721" data-name="Trazado 105721" d="M1084.458,4590.321a11.306,11.306,0,0,0,11.306,11.306v-11.306Z" fill="#f2e9e4"/>
            <path id="Trazado_105722" data-name="Trazado 105722" d="M1095.764,4611.481a11.306,11.306,0,0,0-11.306,11.306h11.306Z" fill="#f2e9e4"/>
          </g>
        </g>
        <path id="Trazado_105723" data-name="Trazado 105723" d="M1058.9,4551.826h-14.172v14.768c-3.694,7.868-5.117,13.729-5.117,22.329v28.791a3.867,3.867,0,0,0,7.733,0v-17.389h2.623V4623.8a4.03,4.03,0,0,0,3.518,3.942,3.867,3.867,0,0,0,4.215-3.851v-23.566h1.2l4.633-23.362Z" fill="#ffccbd"/>
        <path id="Trazado_105724" data-name="Trazado 105724" d="M1073.43,4566.9l-.141-.032v-15.046H1058.9v48.5h1.2v28.329a4.03,4.03,0,0,0,3.518,3.942,3.868,3.868,0,0,0,4.215-3.851v-28.42h2.62v25.1a4.029,4.029,0,0,0,3.518,3.941,3.867,3.867,0,0,0,4.214-3.851v-36.227a12.463,12.463,0,0,0,1.522-1.2l1.9-15.841a12.33,12.33,0,0,0-8.176-5.343Z" fill="#ffbda9"/>
      </g>
      <path id="Trazado_105725" data-name="Trazado 105725" d="M1058.732,4665.359a7.1,7.1,0,1,0-11.387,8.148l6.369,6.369h0l5.018,5.018h0l3.5-11.751Z" fill="#e40058"/>
      <path id="Trazado_105726" data-name="Trazado 105726" d="M1058.732,4684.9l5.019-5.018h0l6.369-6.369a7.1,7.1,0,1,0-11.387-8.148Z" fill="#d00050"/>
      <path id="Trazado_105727" data-name="Trazado 105727" d="M1019.271,4648.974v45.072a82.5,82.5,0,0,0,39.461,9.984l8.242-24.428-8.242-30.627h-39.461Z" fill="#aed3f2"/>
      <path id="Trazado_105728" data-name="Trazado 105728" d="M1058.732,4704.03a82.492,82.492,0,0,0,39.46-9.984v-45.072h-39.46Z" fill="#839eb6"/>
      <g id="Grupo_57519" data-name="Grupo 57519">
        <path id="Trazado_105729" data-name="Trazado 105729" d="M1058.732,4656.925h-45.744v-21.4h15.131l30.613,4.925,9.554,7.4Z" fill="#a3bfd9"/>
        <path id="Trazado_105730" data-name="Trazado 105730" d="M1104.476,4656.925h-45.744v-16.477l30.614-4.925h15.13Z" fill="#aed3f2"/>
      </g>
      <g id="Grupo_57520" data-name="Grupo 57520">
        <path id="Trazado_105731" data-name="Trazado 105731" d="M1058.732,4640.448h-30.613v-4.925h30.613l6.394,2.462Z" fill="#905041"/>
        <path id="Trazado_105732" data-name="Trazado 105732" d="M1058.732,4635.523h30.614v4.925h-30.614Z" fill="#784132"/>
      </g>
    </g>
  </g>
</svg>
