<svg xmlns="http://www.w3.org/2000/svg" xmlns:xlink="http://www.w3.org/1999/xlink" width="100" height="100" viewBox="0 0 100 100">
  <defs>
    <clipPath id="clip-path">
      <path id="Trazado_105589" data-name="Trazado 105589" d="M1139.533,4003.934a41.2,41.2,0,0,1-58.26,58.26Z" fill="none"/>
    </clipPath>
  </defs>
  <g id="Grupo_57468" data-name="Grupo 57468" transform="translate(-1059.799 -3982.46)">
    <rect id="Rectángulo_5869" data-name="Rectángulo 5869" width="100" height="100" transform="translate(1059.799 3982.46)" fill="#344154" opacity="0"/>
    <path id="Trazado_105571" data-name="Trazado 105571" d="M1139.533,4003.934a41.2,41.2,0,1,1-58.26,0A41.2,41.2,0,0,1,1139.533,4003.934Z" fill="#f2e9e4"/>
    <g id="Grupo_57461" data-name="Grupo 57461">
      <path id="Trazado_105572" data-name="Trazado 105572" d="M1098.943,4014.383a1.061,1.061,0,0,0,1.837-1.061l-2.309-4a1.061,1.061,0,0,0-1.837,1.061Z" fill="#344154" fill-rule="evenodd"/>
      <path id="Trazado_105573" data-name="Trazado 105573" d="M1127.216,4022.243a1.05,1.05,0,0,0,.529-.143l4-2.308a1.06,1.06,0,0,0-1.06-1.837l-4,2.308a1.061,1.061,0,0,0,.532,1.98Z" fill="#344154" fill-rule="evenodd"/>
      <path id="Trazado_105574" data-name="Trazado 105574" d="M1088,4019.792l4,2.308a1.05,1.05,0,0,0,.529.143,1.061,1.061,0,0,0,.532-1.98l-4-2.308a1.061,1.061,0,1,0-1.061,1.837Z" fill="#344154" fill-rule="evenodd"/>
      <path id="Trazado_105575" data-name="Trazado 105575" d="M1119.355,4014.771a1.061,1.061,0,0,0,1.449-.388l2.309-4a1.061,1.061,0,0,0-1.837-1.061l-2.309,4A1.061,1.061,0,0,0,1119.355,4014.771Z" fill="#344154" fill-rule="evenodd"/>
      <path id="Trazado_105576" data-name="Trazado 105576" d="M1109.873,4012.233a1.061,1.061,0,0,0,1.061-1.061v-4.62a1.06,1.06,0,0,0-2.121,0v4.62A1.061,1.061,0,0,0,1109.873,4012.233Z" fill="#344154" fill-rule="evenodd"/>
      <path id="Trazado_105577" data-name="Trazado 105577" d="M1109.873,4050.154a1.061,1.061,0,0,0-1.06,1.061v4.62a1.06,1.06,0,1,0,2.121,0v-4.62A1.061,1.061,0,0,0,1109.873,4050.154Z" fill="#344154" fill-rule="evenodd"/>
      <path id="Trazado_105578" data-name="Trazado 105578" d="M1134.515,4030.133h-4.62a1.06,1.06,0,1,0,0,2.121h4.62a1.06,1.06,0,1,0,0-2.121Z" fill="#344154" fill-rule="evenodd"/>
      <path id="Trazado_105579" data-name="Trazado 105579" d="M1120.8,4048a1.06,1.06,0,0,0-1.837,1.06l2.309,4a1.06,1.06,0,0,0,1.837-1.06Z" fill="#344154" fill-rule="evenodd"/>
      <path id="Trazado_105580" data-name="Trazado 105580" d="M1131.744,4042.6l-4-2.309a1.061,1.061,0,1,0-1.061,1.837l4,2.309a1.061,1.061,0,0,0,1.06-1.837Z" fill="#344154" fill-rule="evenodd"/>
      <path id="Trazado_105581" data-name="Trazado 105581" d="M1124.127,4026.557a1.061,1.061,0,0,0-.774,1.285,13.9,13.9,0,0,1-17.905,16.519,5.814,5.814,0,0,0-4.746-8.787,8.2,8.2,0,0,0-4.714-4.257c0-.041,0-.082,0-.123a13.887,13.887,0,0,1,23.43-10.089,1.061,1.061,0,1,0,1.458-1.541,16.007,16.007,0,0,0-27.005,11.315c-.19-.014-.381-.021-.574-.021a8.2,8.2,0,0,0-8.037,6.693,4.866,4.866,0,0,0,.88,9.651h14.314a5.78,5.78,0,0,0,3.464-1.147,16.014,16.014,0,0,0,21.966-14.861,16.067,16.067,0,0,0-.47-3.862A1.062,1.062,0,0,0,1124.127,4026.557Zm-37.989,18.524a2.745,2.745,0,0,1,0-5.489h.063a1.06,1.06,0,0,0,1.058-.987,6.052,6.052,0,0,1,11.74-1.6,1.06,1.06,0,0,0,1.1.7c.118-.011.237-.017.353-.017a3.7,3.7,0,1,1,0,7.391Z" fill="#344154" fill-rule="evenodd"/>
      <path id="Trazado_105582" data-name="Trazado 105582" d="M1121.724,4023.656a1.06,1.06,0,1,0,1.061-1.061A1.063,1.063,0,0,0,1121.724,4023.656Z" fill="#344154" fill-rule="evenodd"/>
    </g>
    <path id="Trazado_105583" data-name="Trazado 105583" d="M1139.533,4003.934a41.2,41.2,0,0,1-58.26,58.26Z" fill="#344154"/>
    <path id="Trazado_105584" data-name="Trazado 105584" d="M1139.533,4003.934a41.2,41.2,0,0,1-58.26,58.26Z" fill="#344154"/>
    <g id="Grupo_57465" data-name="Grupo 57465">
      <g id="Grupo_57464" data-name="Grupo 57464" clip-path="url(#clip-path)">
        <g id="Grupo_57463" data-name="Grupo 57463">
          <g id="Grupo_57462" data-name="Grupo 57462">
            <path id="Trazado_105585" data-name="Trazado 105585" d="M1122.27,4038.5a4.317,4.317,0,0,0,.219-6.657,3.6,3.6,0,0,0-1.334-3.436,3.527,3.527,0,0,0-2.606-.678,5.347,5.347,0,0,0-6.937-4.38,5.69,5.69,0,0,0-9.128,2.429,5.5,5.5,0,0,0-2.189.549,20.138,20.138,0,0,1,5.287-13.939.924.924,0,0,0-.784-1.542,22.061,22.061,0,0,0-16.737,11.1.924.924,0,1,0,1.612.9,20.231,20.231,0,0,1,12.95-9.751,21.991,21.991,0,0,0-4.108,14.657c-.018.023-.038.045-.056.068a5.655,5.655,0,0,0-.976,4.684,3.551,3.551,0,0,0,1.17,6.907h4.387a22.088,22.088,0,0,0,17.379,8.543,20.274,20.274,0,0,1-12.414,4.84,5.019,5.019,0,0,0-4.273-4.715,4.372,4.372,0,0,0-4.111-2.946c-.135,0-.27.006-.405.019a5.174,5.174,0,0,0-8.346-.757,20.314,20.314,0,0,1-1.571-2.578,20,20,0,0,1-2.055-11.533.924.924,0,0,0-1.835-.222,21.937,21.937,0,0,0,3.711,15.054,4.087,4.087,0,0,0-2.285,3.663,4.161,4.161,0,0,0,.029.489,5.064,5.064,0,0,0,3.461,8.77H1103a5.023,5.023,0,0,0,4.745-3.389,22.084,22.084,0,0,0,15.778-7.127.924.924,0,0,0-.785-1.542,20.257,20.257,0,0,1-17.293-6.569H1119.9a3.539,3.539,0,0,0,2.374-.912ZM1103,4056.19h-12.672a3.227,3.227,0,0,1-3.226-3.221,3.187,3.187,0,0,1,1.321-2.6.923.923,0,0,0,.343-1,2.241,2.241,0,0,1,2.159-2.834c.05,0,.1,0,.151.005a.925.925,0,0,0,.832-.452,3.329,3.329,0,0,1,5.94.435.924.924,0,0,0,1.1.541,2.5,2.5,0,0,1,3.138,2.015.924.924,0,0,0,.913.785,3.159,3.159,0,1,1,0,6.318Zm-4.344-18.627a1.7,1.7,0,1,1,0-3.41.924.924,0,0,0,.866-1.245,4.061,4.061,0,0,1,.406-3.963,3.432,3.432,0,0,1,2.781-1.326c.13,0,.261.006.394.019a.925.925,0,0,0,1-.747,3.837,3.837,0,0,1,5.737-2.562,5.352,5.352,0,0,0-1.917,4.09.923.923,0,1,0,1.847,0,3.5,3.5,0,0,1,1.992-3.146l.028-.012a3.455,3.455,0,0,1,1.472-.324,3.49,3.49,0,0,1,3.491,3.482,3.77,3.77,0,0,1-.03.469.924.924,0,0,0,1.383.911,1.748,1.748,0,0,1,1.94.079,1.916,1.916,0,0,1,.542,2.116.923.923,0,0,0,.388,1.005,2.471,2.471,0,0,1,.149,4.054.777.777,0,0,0-.069.058,1.7,1.7,0,0,1-1.153.452Z" fill="#fff"/>
            <path id="Trazado_105586" data-name="Trazado 105586" d="M1111.792,4017.183l2.751,1.5,1.5,2.745a.923.923,0,0,0,.81.482h0a.925.925,0,0,0,.81-.481l1.5-2.746,2.752-1.5a.924.924,0,0,0,0-1.623l-2.752-1.5-1.5-2.745a.923.923,0,0,0-.81-.481h0a.925.925,0,0,0-.81.481l-1.5,2.745-2.751,1.5a.924.924,0,0,0,0,1.624Zm3.873-1.625a.93.93,0,0,0,.37-.37l.818-1.5.82,1.5a.934.934,0,0,0,.37.369l1.5.814-1.5.815a.935.935,0,0,0-.369.369l-.82,1.5-.818-1.5a.929.929,0,0,0-.369-.369l-1.5-.815Z" fill="#fff"/>
            <path id="Trazado_105587" data-name="Trazado 105587" d="M1132.069,4023.67l-2.752-1.5-1.5-2.745a.923.923,0,0,0-.811-.481h0a.925.925,0,0,0-.811.481l-1.5,2.745-2.752,1.5a.924.924,0,0,0,0,1.623l2.751,1.5,1.5,2.745a.923.923,0,0,0,.811.481h0a.924.924,0,0,0,.811-.48l1.5-2.746,2.751-1.5a.924.924,0,0,0,0-1.623Zm-3.873,1.625a.929.929,0,0,0-.37.368l-.82,1.5-.819-1.5a.923.923,0,0,0-.369-.369l-1.5-.814,1.5-.816a.923.923,0,0,0,.369-.369l.819-1.5.82,1.5a.927.927,0,0,0,.369.368l1.5.816Z" fill="#fff"/>
            <path id="Trazado_105588" data-name="Trazado 105588" d="M1086.793,4027a.922.922,0,0,0,1.242-.4l0-.006a.924.924,0,1,0-1.245.41Z" fill="#fff"/>
          </g>
        </g>
      </g>
    </g>
    <g id="Grupo_57466" data-name="Grupo 57466">
      <path id="Trazado_105590" data-name="Trazado 105590" d="M1143.446,4002.145h7.549v3.254h-7.549v8.553h-3.458V4005.4h-7.55v-3.254h7.55v-7.9h3.458Z" fill="#6595bf"/>
    </g>
    <g id="Grupo_57467" data-name="Grupo 57467">
      <path id="Trazado_105591" data-name="Trazado 105591" d="M1132.128,3995.785l-7.655,17.164h-2.463l7.63-16.555h-10v-1.93h12.492Z" fill="#d9a171"/>
    </g>
  </g>
</svg>
