<svg id="Grupo_56428" data-name="Grupo 56428" xmlns="http://www.w3.org/2000/svg" width="19.54" height="32.271" viewBox="0 0 19.54 32.271">
  <path id="Trazado_102805" data-name="Trazado 102805" d="M1038.28,3780.053a13.047,13.047,0,0,1,.738-4.841,9.926,9.926,0,0,1,2.7-3.549,13.8,13.8,0,0,0,2.613-2.844,4.464,4.464,0,0,0,.651-2.313q0-3.671-3.383-3.672a3.426,3.426,0,0,0-2.57.989,3.886,3.886,0,0,0-1.009,2.729h-6.289a8.365,8.365,0,0,1,2.679-6.491,10.425,10.425,0,0,1,7.189-2.344q4.6,0,7.135,2.225a7.916,7.916,0,0,1,2.538,6.285,7.65,7.65,0,0,1-.824,3.483,14.364,14.364,0,0,1-2.884,3.636l-1.757,1.672a5.958,5.958,0,0,0-1.887,3.711l-.087,1.324Zm-.629,6.648a3.156,3.156,0,0,1,.987-2.389,3.865,3.865,0,0,1,5.053,0,3.372,3.372,0,0,1,.021,4.745,3.959,3.959,0,0,1-5.1,0A3.132,3.132,0,0,1,1037.651,3786.7Z" transform="translate(-1031.73 -3757.716)" fill="#d9a171"/>
</svg>
