<svg xmlns="http://www.w3.org/2000/svg" width="200" height="200" viewBox="0 0 200 200">
  <g id="Grupo_57483" data-name="Grupo 57483" transform="translate(-748.17 -4236.652)">
    <g id="Grupo_57478" data-name="Grupo 57478">
      <rect id="Rectángulo_5872" data-name="Rectángulo 5872" width="200" height="200" transform="translate(748.17 4236.652)" fill="#344154" opacity="0"/>
      <path id="Trazado_105611" data-name="Trazado 105611" d="M930.563,4338.361a82.392,82.392,0,1,1-82.393-82.392A82.392,82.392,0,0,1,930.563,4338.361Z" fill="#344154"/>
    </g>
    <g id="Grupo_57480" data-name="Grupo 57480">
      <g id="Grupo_57479" data-name="Grupo 57479">
        <path id="Trazado_105612" data-name="Trazado 105612" d="M873.113,4348.728a8.631,8.631,0,0,0,.437-13.314,7.191,7.191,0,0,0-2.668-6.871,7.05,7.05,0,0,0-5.212-1.356,10.693,10.693,0,0,0-13.873-8.761,11.378,11.378,0,0,0-18.255,4.86,10.991,10.991,0,0,0-4.38,1.1,40.273,40.273,0,0,1,10.575-27.876,1.848,1.848,0,0,0-1.568-3.085,44.122,44.122,0,0,0-33.474,22.2,1.847,1.847,0,1,0,3.223,1.806,40.464,40.464,0,0,1,25.9-19.5,43.973,43.973,0,0,0-8.215,29.313c-.037.046-.076.09-.112.137a11.312,11.312,0,0,0-1.954,9.367,7.1,7.1,0,0,0,2.34,13.815h8.775a44.183,44.183,0,0,0,34.758,17.086,40.372,40.372,0,0,1-7.975,5.318,39.958,39.958,0,0,1-16.852,4.362,10.037,10.037,0,0,0-8.548-9.43,8.742,8.742,0,0,0-8.22-5.892c-.27,0-.541.012-.81.037a10.349,10.349,0,0,0-16.693-1.514,40.623,40.623,0,0,1-3.142-5.156,40,40,0,0,1-4.111-23.065,1.847,1.847,0,0,0-3.668-.444,43.844,43.844,0,0,0,7.421,30.107,8.174,8.174,0,0,0-4.57,7.327,8.332,8.332,0,0,0,.057.977,10.129,10.129,0,0,0,6.924,17.541h25.343a10.042,10.042,0,0,0,9.489-6.778,44.256,44.256,0,0,0,19.054-4.778,43.8,43.8,0,0,0,12.5-9.476,1.847,1.847,0,0,0-1.569-3.084,40.515,40.515,0,0,1-34.587-13.138h28.907a7.07,7.07,0,0,0,4.749-1.825Zm-38.546,35.384H809.224a6.454,6.454,0,0,1-6.454-6.441,6.374,6.374,0,0,1,2.643-5.192,1.85,1.85,0,0,0,.687-1.993,4.4,4.4,0,0,1-.161-1.2,4.48,4.48,0,0,1,4.479-4.47c.1,0,.2.005.3.009a1.848,1.848,0,0,0,1.666-.9,6.657,6.657,0,0,1,11.879.87,1.847,1.847,0,0,0,2.2,1.081,5.078,5.078,0,0,1,1.351-.184,5,5,0,0,1,4.925,4.214,1.848,1.848,0,0,0,1.826,1.571,6.317,6.317,0,1,1,0,12.635Zm-8.688-37.254a3.409,3.409,0,1,1,0-6.819,1.848,1.848,0,0,0,1.732-2.491,8.125,8.125,0,0,1,.811-7.925,6.866,6.866,0,0,1,5.562-2.653c.26,0,.524.012.79.038a1.848,1.848,0,0,0,1.991-1.493,7.676,7.676,0,0,1,11.474-5.124,10.7,10.7,0,0,0-3.835,8.179,1.848,1.848,0,1,0,3.7,0,7,7,0,0,1,3.982-6.291l.057-.024a6.908,6.908,0,0,1,2.943-.648,6.981,6.981,0,0,1,6.983,6.963,7.568,7.568,0,0,1-.06.939,1.848,1.848,0,0,0,2.766,1.822,3.5,3.5,0,0,1,3.881.158c1.158.877,1.553,2.419,1.082,4.231a1.848,1.848,0,0,0,.777,2.011,4.942,4.942,0,0,1,.3,8.107,1.715,1.715,0,0,0-.138.116,3.386,3.386,0,0,1-2.307.9Z" fill="#fff"/>
        <path id="Trazado_105613" data-name="Trazado 105613" d="M852.156,4306.1l5.5,2.995,3,5.49a1.847,1.847,0,0,0,1.621.963h0a1.848,1.848,0,0,0,1.621-.962l3-5.491,5.5-3a1.847,1.847,0,0,0,0-3.246l-5.5-2.991-3-5.49a1.845,1.845,0,0,0-1.621-.961h0a1.845,1.845,0,0,0-1.621.962l-3,5.49-5.5,2.99a1.849,1.849,0,0,0,0,3.247Zm7.747-3.25a1.849,1.849,0,0,0,.739-.738l1.637-3,1.641,3a1.858,1.858,0,0,0,.739.737l3,1.628-3,1.631a1.85,1.85,0,0,0-.738.737l-1.641,3-1.637-3a1.846,1.846,0,0,0-.738-.738l-3-1.631Z" fill="#fff"/>
        <path id="Trazado_105614" data-name="Trazado 105614" d="M892.711,4319.073l-5.5-3-3-5.491a1.849,1.849,0,0,0-1.622-.962h0a1.847,1.847,0,0,0-1.621.963l-3,5.49-5.5,2.995a1.848,1.848,0,0,0,0,3.247l5.5,2.99,3,5.49a1.845,1.845,0,0,0,1.621.962h0a1.849,1.849,0,0,0,1.622-.961l3-5.491,5.5-2.99a1.847,1.847,0,0,0,0-3.246Zm-7.747,3.249a1.855,1.855,0,0,0-.739.737l-1.64,3-1.637-3a1.854,1.854,0,0,0-.74-.738l-3-1.628,3-1.631a1.847,1.847,0,0,0,.739-.738l1.637-3,1.64,3a1.855,1.855,0,0,0,.738.737l3,1.631Z" fill="#fff"/>
        <path id="Trazado_105615" data-name="Trazado 105615" d="M802.159,4325.739a1.846,1.846,0,0,0,2.484-.809l.006-.011a1.848,1.848,0,1,0-2.49.82Z" fill="#fff"/>
      </g>
    </g>
    <g id="Grupo_57481" data-name="Grupo 57481">
      <path id="Trazado_105616" data-name="Trazado 105616" d="M915.465,4276.022h15.1v6.508h-15.1v17.106h-6.917V4282.53h-15.1v-6.508h15.1v-15.805h6.917Z" fill="#6595bf"/>
    </g>
    <g id="Grupo_57482" data-name="Grupo 57482">
      <path id="Trazado_105617" data-name="Trazado 105617" d="M885.862,4264.083l-15.311,34.328h-4.925l15.259-33.109H860.878v-3.86h24.984Z" fill="#d9a171"/>
    </g>
  </g>
</svg>
