<svg xmlns="http://www.w3.org/2000/svg" width="100" height="100" viewBox="0 0 100 100">
  <g id="Grupo_57460" data-name="Grupo 57460" transform="translate(-888.791 -3982.46)">
    <g id="Grupo_57456" data-name="Grupo 57456">
      <rect id="Rectángulo_5868" data-name="Rectángulo 5868" width="100" height="100" transform="translate(888.791 3982.46)" fill="#5e6178" opacity="0"/>
      <path id="Trazado_105557" data-name="Trazado 105557" d="M979.987,4033.314a41.2,41.2,0,1,1-41.2-41.2A41.2,41.2,0,0,1,979.987,4033.314Z" fill="#f2e9e4"/>
    </g>
    <g id="Grupo_57457" data-name="Grupo 57457">
      <path id="Trazado_105558" data-name="Trazado 105558" d="M925.033,4016.709a1.06,1.06,0,0,0,1.837-1.06l-2.309-4a1.061,1.061,0,0,0-1.837,1.061Z" fill="#344154" fill-rule="evenodd"/>
      <path id="Trazado_105559" data-name="Trazado 105559" d="M953.306,4024.569a1.059,1.059,0,0,0,.529-.142l4-2.309a1.06,1.06,0,0,0-1.06-1.837l-4,2.309a1.061,1.061,0,0,0,.532,1.979Z" fill="#344154" fill-rule="evenodd"/>
      <path id="Trazado_105560" data-name="Trazado 105560" d="M914.093,4022.118l4,2.309a1.06,1.06,0,1,0,1.06-1.837l-4-2.309a1.061,1.061,0,1,0-1.061,1.837Z" fill="#344154" fill-rule="evenodd"/>
      <path id="Trazado_105561" data-name="Trazado 105561" d="M945.445,4017.1a1.048,1.048,0,0,0,.529.143,1.062,1.062,0,0,0,.92-.531l2.309-4a1.061,1.061,0,0,0-1.837-1.061l-2.309,4A1.06,1.06,0,0,0,945.445,4017.1Z" fill="#344154" fill-rule="evenodd"/>
      <path id="Trazado_105562" data-name="Trazado 105562" d="M935.963,4014.56a1.061,1.061,0,0,0,1.061-1.061v-4.62a1.06,1.06,0,1,0-2.121,0v4.62A1.061,1.061,0,0,0,935.963,4014.56Z" fill="#344154" fill-rule="evenodd"/>
      <path id="Trazado_105563" data-name="Trazado 105563" d="M935.963,4052.481a1.06,1.06,0,0,0-1.06,1.06v4.621a1.06,1.06,0,0,0,2.121,0v-4.621A1.061,1.061,0,0,0,935.963,4052.481Z" fill="#344154" fill-rule="evenodd"/>
      <path id="Trazado_105564" data-name="Trazado 105564" d="M960.6,4032.46h-4.62a1.061,1.061,0,1,0,0,2.121h4.62a1.061,1.061,0,1,0,0-2.121Z" fill="#344154" fill-rule="evenodd"/>
      <path id="Trazado_105565" data-name="Trazado 105565" d="M946.894,4050.331a1.061,1.061,0,0,0-1.837,1.061l2.309,4a1.061,1.061,0,0,0,1.837-1.061Z" fill="#344154" fill-rule="evenodd"/>
      <path id="Trazado_105566" data-name="Trazado 105566" d="M957.834,4044.923l-4-2.309a1.061,1.061,0,1,0-1.061,1.837l4,2.309a1.06,1.06,0,0,0,1.06-1.837Z" fill="#344154" fill-rule="evenodd"/>
      <path id="Trazado_105567" data-name="Trazado 105567" d="M950.217,4028.884a1.06,1.06,0,0,0-.774,1.285,13.9,13.9,0,0,1-13.48,17.239,13.812,13.812,0,0,1-4.426-.721,5.812,5.812,0,0,0-4.745-8.786,8.2,8.2,0,0,0-4.714-4.258c0-.041,0-.082,0-.123a13.887,13.887,0,0,1,23.43-10.088,1.061,1.061,0,1,0,1.458-1.541,16.007,16.007,0,0,0-27.005,11.314c-.19-.014-.381-.021-.574-.021a8.2,8.2,0,0,0-8.038,6.694,4.866,4.866,0,0,0,.881,9.651h14.314a5.786,5.786,0,0,0,3.464-1.147,16.014,16.014,0,0,0,21.966-14.862,16.081,16.081,0,0,0-.47-3.862A1.061,1.061,0,0,0,950.217,4028.884Zm-37.989,18.524a2.745,2.745,0,0,1,0-5.489h.063a1.06,1.06,0,0,0,1.058-.987,6.051,6.051,0,0,1,11.739-1.6,1.061,1.061,0,0,0,1.1.7c.119-.011.237-.017.354-.017a3.7,3.7,0,1,1,0,7.392Z" fill="#344154" fill-rule="evenodd"/>
      <path id="Trazado_105568" data-name="Trazado 105568" d="M947.814,4025.983a1.06,1.06,0,1,0,1.061-1.061A1.062,1.062,0,0,0,947.814,4025.983Z" fill="#344154" fill-rule="evenodd"/>
    </g>
    <g id="Grupo_57458" data-name="Grupo 57458">
      <path id="Trazado_105569" data-name="Trazado 105569" d="M972.438,4002.145h7.549v3.254h-7.549v8.553h-3.459V4005.4H961.43v-3.254h7.549v-7.9h3.459Z" fill="#6595bf"/>
    </g>
    <g id="Grupo_57459" data-name="Grupo 57459">
      <path id="Trazado_105570" data-name="Trazado 105570" d="M960.306,3996.175l-7.655,17.164h-2.463l7.63-16.554h-10v-1.93h12.492Z" fill="#d9a171"/>
    </g>
  </g>
</svg>
