<svg xmlns="http://www.w3.org/2000/svg" xmlns:xlink="http://www.w3.org/1999/xlink" width="200" height="200" viewBox="0 0 200 200">
  <defs>
    <clipPath id="clip-path">
      <path id="Trazado_105650" data-name="Trazado 105650" d="M1484.488,4279.6a82.393,82.393,0,0,1-116.521,116.521Z" fill="none"/>
    </clipPath>
  </defs>
  <g id="Grupo_57496" data-name="Grupo 57496" transform="translate(-1325.019 -4236.652)">
    <rect id="Rectángulo_5874" data-name="Rectángulo 5874" width="200" height="200" transform="translate(1325.019 4236.652)" fill="#344154" opacity="0"/>
    <path id="Trazado_105632" data-name="Trazado 105632" d="M1484.488,4279.6a82.393,82.393,0,1,1-116.521,0A82.392,82.392,0,0,1,1484.488,4279.6Z" fill="#f2e9e4"/>
    <g id="Grupo_57489" data-name="Grupo 57489">
      <path id="Trazado_105633" data-name="Trazado 105633" d="M1403.308,4300.5a2.121,2.121,0,1,0,3.674-2.121l-4.618-8a2.121,2.121,0,1,0-3.674,2.121Z" fill="#344154" fill-rule="evenodd"/>
      <path id="Trazado_105634" data-name="Trazado 105634" d="M1459.854,4316.218a2.111,2.111,0,0,0,1.058-.285l8-4.617a2.121,2.121,0,0,0-2.121-3.674l-8,4.617a2.122,2.122,0,0,0,1.064,3.959Z" fill="#344154" fill-rule="evenodd"/>
      <path id="Trazado_105635" data-name="Trazado 105635" d="M1381.428,4311.316l8,4.617a2.122,2.122,0,0,0,2.122-3.674l-8-4.617a2.121,2.121,0,1,0-2.121,3.674Z" fill="#344154" fill-rule="evenodd"/>
      <path id="Trazado_105636" data-name="Trazado 105636" d="M1444.132,4301.275a2.12,2.12,0,0,0,2.9-.777l4.618-8a2.121,2.121,0,1,0-3.674-2.121l-4.618,8A2.123,2.123,0,0,0,1444.132,4301.275Z" fill="#344154" fill-rule="evenodd"/>
      <path id="Trazado_105637" data-name="Trazado 105637" d="M1425.169,4296.2a2.122,2.122,0,0,0,2.121-2.122v-9.24a2.122,2.122,0,0,0-4.243,0v9.24A2.123,2.123,0,0,0,1425.169,4296.2Z" fill="#344154" fill-rule="evenodd"/>
      <path id="Trazado_105638" data-name="Trazado 105638" d="M1425.169,4372.041a2.122,2.122,0,0,0-2.122,2.121v9.241a2.122,2.122,0,1,0,4.243,0v-9.241A2.122,2.122,0,0,0,1425.169,4372.041Z" fill="#344154" fill-rule="evenodd"/>
      <path id="Trazado_105639" data-name="Trazado 105639" d="M1474.452,4332h-9.241a2.121,2.121,0,0,0,0,4.242h9.241a2.121,2.121,0,0,0,0-4.242Z" fill="#344154" fill-rule="evenodd"/>
      <path id="Trazado_105640" data-name="Trazado 105640" d="M1447.029,4367.742a2.121,2.121,0,0,0-3.674,2.121l4.619,8a2.121,2.121,0,1,0,3.673-2.121Z" fill="#344154" fill-rule="evenodd"/>
      <path id="Trazado_105641" data-name="Trazado 105641" d="M1468.91,4356.925l-8-4.618a2.121,2.121,0,1,0-2.122,3.674l8,4.618a2.121,2.121,0,0,0,2.121-3.674Z" fill="#344154" fill-rule="evenodd"/>
      <path id="Trazado_105642" data-name="Trazado 105642" d="M1453.676,4324.847a2.12,2.12,0,0,0-1.548,2.57,27.8,27.8,0,0,1-35.811,33.038,11.628,11.628,0,0,0-9.492-17.574,16.392,16.392,0,0,0-9.427-8.515c0-.082,0-.164,0-.246a27.774,27.774,0,0,1,46.86-20.177,2.121,2.121,0,1,0,2.916-3.081,32.014,32.014,0,0,0-54.01,22.628q-.57-.042-1.148-.042a16.4,16.4,0,0,0-16.075,13.387,9.732,9.732,0,0,0,1.761,19.3h28.627a11.563,11.563,0,0,0,6.928-2.294,32.028,32.028,0,0,0,43.932-29.723,32.149,32.149,0,0,0-.94-7.724A2.122,2.122,0,0,0,1453.676,4324.847ZM1377.7,4361.9a5.489,5.489,0,0,1,0-10.978h.126a2.12,2.12,0,0,0,2.116-1.974,12.1,12.1,0,0,1,23.479-3.2,2.12,2.12,0,0,0,2.2,1.4c.236-.022.474-.033.707-.033a7.391,7.391,0,0,1,0,14.782Z" fill="#344154" fill-rule="evenodd"/>
      <path id="Trazado_105643" data-name="Trazado 105643" d="M1448.87,4319.045a2.121,2.121,0,1,0,2.121-2.121A2.125,2.125,0,0,0,1448.87,4319.045Z" fill="#344154" fill-rule="evenodd"/>
    </g>
    <path id="Trazado_105644" data-name="Trazado 105644" d="M1484.488,4279.6a82.393,82.393,0,0,1-116.521,116.521Z" fill="#344154"/>
    <path id="Trazado_105645" data-name="Trazado 105645" d="M1484.488,4279.6a82.393,82.393,0,0,1-116.521,116.521Z" fill="#344154"/>
    <g id="Grupo_57493" data-name="Grupo 57493">
      <g id="Grupo_57492" data-name="Grupo 57492" clip-path="url(#clip-path)">
        <g id="Grupo_57491" data-name="Grupo 57491">
          <g id="Grupo_57490" data-name="Grupo 57490">
            <path id="Trazado_105646" data-name="Trazado 105646" d="M1449.962,4348.728a8.633,8.633,0,0,0,.437-13.314,7.191,7.191,0,0,0-2.668-6.871,7.051,7.051,0,0,0-5.212-1.356,10.693,10.693,0,0,0-13.873-8.761,11.379,11.379,0,0,0-18.256,4.86,10.986,10.986,0,0,0-4.379,1.1,40.277,40.277,0,0,1,10.574-27.876,1.847,1.847,0,0,0-1.567-3.085,44.125,44.125,0,0,0-33.475,22.2,1.848,1.848,0,0,0,3.224,1.806,40.458,40.458,0,0,1,25.9-19.5,43.974,43.974,0,0,0-8.216,29.313c-.037.046-.076.09-.112.137a11.308,11.308,0,0,0-1.953,9.367,7.1,7.1,0,0,0,2.34,13.815h8.774a44.185,44.185,0,0,0,34.759,17.086,40.553,40.553,0,0,1-24.827,9.68,10.038,10.038,0,0,0-8.548-9.43,8.742,8.742,0,0,0-8.22-5.892c-.271,0-.541.012-.81.037a10.349,10.349,0,0,0-16.693-1.514,40.511,40.511,0,0,1-3.142-5.156,39.987,39.987,0,0,1-4.111-23.065,1.848,1.848,0,0,0-3.669-.444,43.866,43.866,0,0,0,7.421,30.107,8.175,8.175,0,0,0-4.569,7.327,8.305,8.305,0,0,0,.057.977,10.129,10.129,0,0,0,6.923,17.541h25.344a10.044,10.044,0,0,0,9.489-6.778,44.248,44.248,0,0,0,19.053-4.778,43.787,43.787,0,0,0,12.5-9.476,1.847,1.847,0,0,0-1.568-3.084,40.515,40.515,0,0,1-34.587-13.138h28.907a7.072,7.072,0,0,0,4.749-1.825Zm-38.546,35.384h-25.344a6.454,6.454,0,0,1-6.453-6.441,6.376,6.376,0,0,1,2.642-5.192,1.847,1.847,0,0,0,.687-1.993,4.477,4.477,0,0,1,4.318-5.667c.1,0,.2.005.3.009a1.848,1.848,0,0,0,1.665-.9,6.658,6.658,0,0,1,11.88.87,1.846,1.846,0,0,0,2.2,1.081,5.092,5.092,0,0,1,1.352-.184,5,5,0,0,1,4.924,4.214,1.849,1.849,0,0,0,1.827,1.571,6.317,6.317,0,1,1,0,12.635Zm-8.689-37.254a3.409,3.409,0,1,1,0-6.819,1.848,1.848,0,0,0,1.732-2.491,8.126,8.126,0,0,1,.812-7.925,6.865,6.865,0,0,1,5.562-2.653c.26,0,.523.012.79.038a1.847,1.847,0,0,0,1.99-1.493,7.676,7.676,0,0,1,11.474-5.124,10.705,10.705,0,0,0-3.834,8.179,1.847,1.847,0,1,0,3.695,0,7,7,0,0,1,3.983-6.291l.057-.024a6.908,6.908,0,0,1,2.943-.648,6.981,6.981,0,0,1,6.982,6.963,7.551,7.551,0,0,1-.059.939,1.848,1.848,0,0,0,2.766,1.822,3.494,3.494,0,0,1,3.88.158c1.159.877,1.553,2.419,1.083,4.231a1.847,1.847,0,0,0,.777,2.011,4.943,4.943,0,0,1,.3,8.107,1.573,1.573,0,0,0-.139.116,3.384,3.384,0,0,1-2.306.9Z" fill="#fff"/>
            <path id="Trazado_105647" data-name="Trazado 105647" d="M1429.005,4306.1l5.5,2.995,3,5.49a1.846,1.846,0,0,0,1.621.963h0a1.849,1.849,0,0,0,1.621-.962l3-5.491,5.5-3a1.848,1.848,0,0,0,0-3.246l-5.5-2.991-3-5.49a1.847,1.847,0,0,0-1.621-.961h0a1.847,1.847,0,0,0-1.621.962l-3,5.49-5.5,2.99a1.848,1.848,0,0,0,0,3.247Zm7.747-3.25a1.848,1.848,0,0,0,.739-.738l1.637-3,1.641,3a1.856,1.856,0,0,0,.738.737l3,1.628-3,1.631a1.853,1.853,0,0,0-.737.737l-1.641,3-1.637-3a1.852,1.852,0,0,0-.738-.738l-3-1.631Z" fill="#fff"/>
            <path id="Trazado_105648" data-name="Trazado 105648" d="M1469.559,4319.073l-5.5-3-3-5.491a1.847,1.847,0,0,0-1.621-.962h0a1.849,1.849,0,0,0-1.622.963l-3,5.49-5.5,2.995a1.849,1.849,0,0,0,0,3.247l5.5,2.99,3,5.49a1.848,1.848,0,0,0,1.622.962h0a1.849,1.849,0,0,0,1.621-.961l3-5.491,5.5-2.99a1.846,1.846,0,0,0,0-3.246Zm-7.746,3.249a1.855,1.855,0,0,0-.739.737l-1.641,3-1.637-3a1.852,1.852,0,0,0-.739-.738l-3-1.628,3-1.631a1.845,1.845,0,0,0,.738-.738l1.637-3,1.641,3a1.849,1.849,0,0,0,.738.737l3,1.631Z" fill="#fff"/>
            <path id="Trazado_105649" data-name="Trazado 105649" d="M1379.007,4325.739a1.847,1.847,0,0,0,2.485-.809l.005-.011a1.848,1.848,0,1,0-2.49.82Z" fill="#fff"/>
          </g>
        </g>
      </g>
    </g>
    <g id="Grupo_57494" data-name="Grupo 57494">
      <path id="Trazado_105651" data-name="Trazado 105651" d="M1492.314,4276.022h15.1v6.508h-15.1v17.106H1485.4V4282.53h-15.1v-6.508h15.1v-15.805h6.917Z" fill="#6595bf"/>
    </g>
    <g id="Grupo_57495" data-name="Grupo 57495">
      <path id="Trazado_105652" data-name="Trazado 105652" d="M1469.678,4263.3l-15.311,34.328h-4.926l15.26-33.11h-20.008v-3.859h24.985Z" fill="#d9a171"/>
    </g>
  </g>
</svg>
