<?xml version="1.0" encoding="utf-8"?>
<!-- Generator: Adobe Illustrator 25.3.1, SVG Export Plug-In . SVG Version: 6.00 Build 0)  -->
<svg version="1.1" id="Layer_1" xmlns="http://www.w3.org/2000/svg" xmlns:xlink="http://www.w3.org/1999/xlink" x="0px" y="0px"
	 viewBox="0 0 250 250" style="enable-background:new 0 0 250 250;" xml:space="preserve">
<style type="text/css">
	.st0{fill:#344154;fill-opacity:0;}
	.st1{fill:#839EB6;}
	.st2{fill:#FAFAFA;}
	.st3{fill:#AED3F2;}
	.st4{fill:#344154;}
	.st5{fill:#5E6178;}
	.st6{fill:#D9A171;}
	.st7{opacity:0.3;}
	.st8{fill:#FFFFFF;}
	.st9{fill:#B78876;}
	.st10{fill:#AA6550;}
	.st11{opacity:0.4;}
</style>
<g id="Grupo_58225" transform="translate(-531.929 -6399.467)">
	<rect id="Rectángulo_5902" x="531.9" y="6399.5" class="st0" width="250" height="250"/>
	<g id="Grupo_57608">
		<g id="Grupo_57579">
			<g id="Grupo_57558">
				<g id="Grupo_57557">
					<g id="Grupo_57556">
						<rect id="Rectángulo_5903" x="747.3" y="6521.5" class="st1" width="29.3" height="3.9"/>
					</g>
				</g>
			</g>
			<g id="Grupo_57562">
				<g id="Grupo_57561">
					<g id="Grupo_57560">
						<g id="Grupo_57559">
							<path id="Trazado_105870" class="st2" d="M751.3,6521.7c0.2,1.2,0.2,2.5,0,3.7C751.1,6524.1,751.1,6522.9,751.3,6521.7z"/>
						</g>
					</g>
				</g>
			</g>
			<g id="Grupo_57566">
				<g id="Grupo_57565">
					<g id="Grupo_57564">
						<g id="Grupo_57563">
							<path id="Trazado_105871" class="st2" d="M750.7,6521.6c0.2,1.2,0.2,2.5,0,3.7C750.5,6524.1,750.5,6522.8,750.7,6521.6z"/>
						</g>
					</g>
				</g>
			</g>
			<g id="Grupo_57570">
				<g id="Grupo_57569">
					<g id="Grupo_57568">
						<g id="Grupo_57567">
							<path id="Trazado_105872" class="st2" d="M774.4,6521.7c0.2,1.2,0.2,2.5,0,3.7C774.2,6524.1,774.2,6522.9,774.4,6521.7z"/>
						</g>
					</g>
				</g>
			</g>
			<g id="Grupo_57574">
				<g id="Grupo_57573">
					<g id="Grupo_57572">
						<g id="Grupo_57571">
							<ellipse id="Elipse_4188" class="st2" cx="773.8" cy="6523.4" rx="0.2" ry="1.8"/>
						</g>
					</g>
				</g>
			</g>
			<g id="Grupo_57578">
				<g id="Grupo_57577">
					<g id="Grupo_57576">
						<g id="Grupo_57575">
							<path id="Trazado_105873" class="st2" d="M769.9,6523.6c0,0.1-3.4,0.2-7.5,0.2s-7.5-0.1-7.5-0.2s3.4-0.2,7.5-0.2
								S769.9,6523.5,769.9,6523.6z"/>
						</g>
					</g>
				</g>
			</g>
		</g>
		<g id="Grupo_57587">
			<g id="Grupo_57582">
				<g id="Grupo_57581">
					<g id="Grupo_57580">
						<rect id="Rectángulo_5904" x="747.2" y="6539.2" class="st1" width="29.3" height="7.8"/>
					</g>
				</g>
			</g>
			<g id="Grupo_57586">
				<g id="Grupo_57585">
					<g id="Grupo_57584">
						<g id="Grupo_57583">
							<path id="Trazado_105874" class="st2" d="M776.9,6544.8c0,0-0.1,0.1-0.2,0.1c-0.1,0.1-0.3,0.1-0.5,0.2
								c-0.6,0.3-1.3,0.5-2,0.6c-1.1,0.2-2.2,0-3.2-0.5c-0.6-0.3-1.1-0.8-1.5-1.4c-0.5-0.7-0.6-1.5-0.5-2.3c0.1-0.4,0.3-0.8,0.5-1.2
								c0.3-0.4,0.8-0.6,1.2-0.6c0.5,0,0.9,0.3,1.2,0.7c0.3,0.4,0.5,0.8,0.6,1.3c0.1,1-0.3,2-1,2.8c-0.7,0.8-1.7,1.3-2.8,1.4
								c-1.1,0.1-2.2,0-3.3-0.4c-1.1-0.3-2.1-1-2.9-1.9c-0.4-0.5-0.6-1.1-0.7-1.7c-0.1-0.6,0.2-1.3,0.6-1.8c0.2-0.2,0.6-0.4,0.9-0.4
								c0.3,0,0.7,0.1,1,0.3c0.6,0.4,0.9,0.9,1.1,1.6c0.2,1.3-0.2,2.6-1.2,3.5c-0.9,0.8-2.1,1.3-3.3,1.3c-1.2,0.1-2.3,0-3.4-0.3
								c-1.1-0.3-2-1.1-2.6-2c-0.6-0.9-0.7-2.1-0.3-3.1c0.2-0.5,0.7-0.9,1.2-1c0.5-0.1,1.1,0,1.5,0.4c0.7,0.7,1,1.7,0.7,2.6
								c-0.3,0.8-0.8,1.5-1.5,2.1c-1.1,1-2.5,1.5-4,1.6c-1.8,0.1-3.6-0.7-4.8-2c-0.1-0.1-0.2-0.3-0.4-0.4c0,0-0.1-0.1-0.1-0.2
								c0.6,0.7,1.4,1.2,2.2,1.7c1,0.5,2,0.7,3.1,0.6c1.4-0.1,2.8-0.6,3.9-1.6c0.6-0.5,1.1-1.2,1.4-2c0.3-0.8,0-1.7-0.6-2.3
								c-0.4-0.3-0.8-0.4-1.2-0.3c-0.4,0.1-0.8,0.4-1,0.8c-0.3,0.9-0.2,2,0.3,2.8c0.6,0.9,1.4,1.6,2.4,1.9c1.1,0.3,2.2,0.4,3.3,0.3
								c1.1-0.1,2.2-0.5,3.1-1.3c0.9-0.8,1.3-2,1-3.1c-0.1-0.6-0.4-1-0.9-1.4c-0.4-0.3-1-0.3-1.4,0.1c-0.4,0.4-0.6,0.9-0.5,1.5
								c0,0.5,0.2,1.1,0.6,1.5c0.7,0.8,1.6,1.5,2.7,1.8c1,0.4,2.1,0.5,3.1,0.4c1-0.1,1.9-0.5,2.6-1.3c0.7-0.7,1-1.6,0.9-2.5
								c0-0.9-0.7-1.6-1.5-1.8c-0.4,0-0.8,0.2-1,0.5c-0.3,0.3-0.4,0.6-0.5,1c-0.1,0.7,0.1,1.5,0.5,2.1c0.4,0.6,0.9,1,1.4,1.3
								c1,0.5,2,0.7,3.1,0.5c0.7-0.1,1.3-0.3,2-0.5C776.7,6544.9,776.9,6544.8,776.9,6544.8z"/>
						</g>
					</g>
				</g>
			</g>
		</g>
		<g id="Grupo_57607">
			<g id="Grupo_57590">
				<g id="Grupo_57589">
					<g id="Grupo_57588">
						<rect id="Rectángulo_5905" x="749.8" y="6525.6" class="st3" width="26.7" height="13.6"/>
					</g>
				</g>
			</g>
			<g id="Grupo_57594">
				<g id="Grupo_57593">
					<g id="Grupo_57592">
						<g id="Grupo_57591">
							<path id="Trazado_105875" class="st1" d="M754.3,6526c0.2,4.4,0.2,8.8,0,13.2C754,6534.8,754,6530.4,754.3,6526z"/>
						</g>
					</g>
				</g>
			</g>
			<g id="Grupo_57598">
				<g id="Grupo_57597">
					<g id="Grupo_57596">
						<g id="Grupo_57595">
							<path id="Trazado_105876" class="st1" d="M756.3,6525.9c0.2,4.3,0.2,8.7,0,13C756,6534.5,756,6530.2,756.3,6525.9z"/>
						</g>
					</g>
				</g>
			</g>
			<g id="Grupo_57602">
				<g id="Grupo_57601">
					<g id="Grupo_57600">
						<g id="Grupo_57599">
							<path id="Trazado_105877" class="st1" d="M773.5,6525.4c0.2,4.6,0.2,9.1,0,13.7C773.3,6534.5,773.3,6530,773.5,6525.4z"/>
						</g>
					</g>
				</g>
			</g>
			<g id="Grupo_57606">
				<g id="Grupo_57605">
					<g id="Grupo_57604">
						<g id="Grupo_57603">
							<path id="Trazado_105878" class="st1" d="M771.1,6525.6c0.2,4.4,0.2,8.9,0,13.3C770.9,6534.5,770.9,6530,771.1,6525.6z"/>
						</g>
					</g>
				</g>
			</g>
		</g>
	</g>
	<g id="Grupo_57614">
		<g id="Grupo_57610">
			<g id="Grupo_57609">
				<path id="Trazado_105879" class="st3" d="M593,6625.3c-0.8-0.7-2.5-2.8-1.2-5.3c0.6-0.8,1.5-1.5,2.5-1.8c1-0.3,1.9-0.8,2.7-1.4
					c1.5-1.3,1.9-3.4,2.9-5c1.1-2,3.2-3.3,5.5-3.3c2.6,0.1,4.7,2.2,5.6,4.6c0.8,2.4,1.2,5,1,7.6c0,1.4-0.1,3-1.1,4
					c-1,0.9-2.4,0.9-3.7,0.9l-13.9-0.4"/>
			</g>
		</g>
		<g id="Grupo_57613">
			<g id="Grupo_57612">
				<g id="Grupo_57611">
					<path id="Trazado_105880" class="st1" d="M619.7,6586.9H583l6.6,39.4c0.3,1.7,1.5,3,3.1,3.5c0,0,0.1,0,0.1,0
						c0.1,0,0.2,0.1,0.3,0.1c0.2,0,0.5,0.1,0.7,0.1l0,0l0.2,0h16.3c0.3,0,0.6,0,0.9-0.1c2-0.3,3.5-1.9,3.7-3.9l3.2-27.1l0.1-1.1h0
						l1.3-10.8L619.7,6586.9z M612.7,6612.1H609l0.4-11.4h4.4L612.7,6612.1z M614.1,6600.6h3.6l-1.3,11.4h-3.2L614.1,6600.6z
						 M603.3,6624.7l-0.2-9.9h5.4l-0.3,9.9H603.3z M597.5,6614.8h5.3l0.2,9.9h-4.7L597.5,6614.8z M597.9,6624.7h-4.4
						c-0.4-2.7-1-6.2-1.6-9.9h5.2L597.9,6624.7z M597.3,6612.1l-0.9-11.4h6l0.3,11.4H597.3z M603,6612.1l-0.3-11.4h6.2l-0.4,11.4
						H603z M602.7,6597.9l-0.2-10.6h7l-0.4,10.6H602.7z M602.4,6597.9h-6.2l-0.8-10.6h6.8L602.4,6597.9z M595.8,6597.9h-6.6
						c-0.2-1.5-0.5-2.8-0.7-4.1c-0.7-4.3-0.9-5.9-1.1-6.5h7.5L595.8,6597.9z M596,6600.6l0.9,11.4h-5.4c-0.2-1.2-0.4-2.3-0.6-3.5
						c-0.4-2.7-0.8-5.4-1.2-7.9L596,6600.6z M591.1,6612.1h-3.5l-1.9-11.4h3.7C589.9,6604.2,590.5,6608.1,591.1,6612.1L591.1,6612.1
						z M591.5,6614.8c0.5,3.4,1.1,6.8,1.6,9.9h-3.4l-1.7-9.9H591.5z M608.6,6624.7l0.3-9.9h3.6l-0.8,9.9H608.6z M609.4,6597.9
						l0.4-10.6h5.1l-0.9,10.6H609.4z M587.2,6587.3c0.1,0.8,0.8,4.9,1.7,10.6h-3.7l-1.8-10.6H587.2z M614.9,6624.7H612l0.8-9.9h3.2
						L614.9,6624.7z M618,6597.9h-3.7l0.9-10.6h4L618,6597.9z"/>
				</g>
			</g>
		</g>
	</g>
	<g id="Grupo_57776">
		<rect id="Rectángulo_5906" x="571.5" y="6416" class="st1" width="180" height="119.4"/>
		<g id="Grupo_57775">
			<g id="Grupo_57620">
				<g id="Grupo_57616">
					<g id="Grupo_57615">
						<rect id="Rectángulo_5907" x="560.7" y="6419" class="st2" width="186.4" height="122.3"/>
					</g>
				</g>
				<g id="Grupo_57619">
					<g id="Grupo_57618">
						<g id="Grupo_57617">
							<path id="Trazado_105881" class="st4" d="M747.2,6541.3c0-1.2-0.1-47.7-0.1-122.3l0.1,0.1l-186.4,0h0l0.2-0.2
								c0,43.5,0,84.9,0,122.3l-0.2-0.2L747.2,6541.3l-186.4,0.2h-0.2v-0.2c0-37.4,0-78.8,0-122.3v-0.2h0.2l186.4,0h0.1v0.1
								C747.2,6493.6,747.2,6540.1,747.2,6541.3z"/>
						</g>
					</g>
				</g>
			</g>
			<g id="Grupo_57645">
				<g id="Grupo_57632">
					<g id="Grupo_57622">
						<g id="Grupo_57621">
							<path id="Trazado_105882" class="st5" d="M617.7,6486.6l18.3,0.3c-0.3,9.9-8.4,17.8-18.3,17.7h-0.1L617.7,6486.6z"/>
						</g>
					</g>
					<g id="Grupo_57625">
						<g id="Grupo_57624">
							<g id="Grupo_57623">
								<path id="Trazado_105883" class="st4" d="M648,6511.4c-0.1,0-0.3,0-0.4,0l-1.1,0l-4.1,0h-0.1l0,0l-6-7.6l-4.9-6.2l0.1,0
									l-5.4,0l-1.5,0c-0.2,0-0.4,0-0.5,0c0.2,0,0.4,0,0.5,0l1.5,0l5.4-0.1h0.1l0,0l4.9,6.2l6,7.7l-0.1,0l4.1,0l1.1,0
									C647.8,6511.4,647.9,6511.4,648,6511.4z"/>
							</g>
						</g>
					</g>
					<g id="Grupo_57628">
						<g id="Grupo_57627">
							<g id="Grupo_57626">
								<path id="Trazado_105884" class="st4" d="M654.6,6513.5c0,0.1-2.7,0.1-5.9,0.1s-5.9-0.1-5.9-0.1s2.7-0.1,5.9-0.1
									S654.6,6513.4,654.6,6513.5z"/>
							</g>
						</g>
					</g>
					<g id="Grupo_57631">
						<g id="Grupo_57630">
							<g id="Grupo_57629">
								<path id="Trazado_105885" class="st4" d="M654.6,6515.7c0,0.1-2.7,0.1-5.9,0.1s-5.9-0.1-5.9-0.1s2.7-0.1,5.9-0.1
									S654.6,6515.6,654.6,6515.7z"/>
							</g>
						</g>
					</g>
				</g>
				<g id="Grupo_57644">
					<g id="Grupo_57634">
						<g id="Grupo_57633">
							<path id="Trazado_105886" class="st6" d="M614.8,6484l-0.3,18c-9.9-0.3-17.7-8.7-17.4-18.6s8.7-17.7,18.6-17.4
								c9.7,0.3,17.4,8.3,17.4,18H614.8z"/>
						</g>
					</g>
					<g id="Grupo_57637">
						<g id="Grupo_57636">
							<g id="Grupo_57635">
								<path id="Trazado_105887" class="st4" d="M607.6,6478.1c-0.1,0-0.2,0.1-0.3,0.1l-0.9,0.1l-3.3,0.5l-0.1,0l0,0l-4.4-4.3
									c-2.1-2.1-4-4-5.4-5.3l-1.6-1.6c-0.2-0.2-0.4-0.4-0.6-0.6c0.2,0.2,0.4,0.3,0.6,0.5l1.7,1.6c1.4,1.3,3.3,3.2,5.4,5.3l4.4,4.3
									l-0.1,0l3.3-0.4l0.9-0.1C607.4,6478.1,607.5,6478.1,607.6,6478.1z"/>
							</g>
						</g>
					</g>
					<g id="Grupo_57640">
						<g id="Grupo_57639">
							<g id="Grupo_57638">
								<path id="Trazado_105888" class="st4" d="M586.4,6466.1c0,0.1-2.7,0.1-5.9,0.1s-5.9-0.1-5.9-0.1s2.7-0.1,5.9-0.1
									S586.4,6466,586.4,6466.1z"/>
							</g>
						</g>
					</g>
					<g id="Grupo_57643">
						<g id="Grupo_57642">
							<g id="Grupo_57641">
								<path id="Trazado_105889" class="st4" d="M586.4,6468.3c0,0.1-2.7,0.1-5.9,0.1s-5.9-0.1-5.9-0.1s2.7-0.1,5.9-0.1
									S586.4,6468.2,586.4,6468.3z"/>
							</g>
						</g>
					</g>
				</g>
			</g>
			<g id="Grupo_57673">
				<g id="Grupo_57657">
					<g id="Grupo_57654">
						<g id="Grupo_57647">
							<g id="Grupo_57646">
								<path id="Trazado_105890" class="st6" d="M679,6448.4l-0.1-11.2c-3.4,0.1-6.7,1.3-9.2,3.6c-3.3,2.9-5,7.2-4.4,11.6
									c0.1,0.5,0.1,1.1,0.3,1.6l0,0l0,0l13.5-3L679,6448.4z"/>
							</g>
						</g>
						<g id="Grupo_57649" class="st7">
							<g id="Grupo_57648">
								<path id="Trazado_105891" class="st8" d="M679,6448.4l-0.1-11.2c-3.4,0.1-6.7,1.3-9.2,3.6c-3.3,2.9-5,7.2-4.4,11.6
									c0.1,0.5,0.1,1.1,0.3,1.6l0,0l0,0l13.5-3L679,6448.4z"/>
							</g>
						</g>
						<g id="Grupo_57651">
							<g id="Grupo_57650">
								<path id="Trazado_105892" class="st6" d="M692.8,6445c-2-4.3-6.1-7.2-10.9-7.6c-0.1,0-0.3,0-0.4,0c-0.1,0-0.2,0-0.3,0
									c-0.3,0-0.5,0-0.8,0h-0.1l0,0l0,0l0.1,11.2l0,2.6l13.5,2.9h0l0,0c0.2-1,0.3-1.9,0.3-2.9C694.2,6449,693.8,6446.9,692.8,6445
									z"/>
							</g>
						</g>
						<g id="Grupo_57653" class="st7">
							<g id="Grupo_57652">
								<path id="Trazado_105893" class="st6" d="M692.8,6445c-2-4.3-6.1-7.2-10.9-7.6c-0.1,0-0.3,0-0.4,0c-0.1,0-0.2,0-0.3,0
									c-0.3,0-0.5,0-0.8,0h-0.1l0,0l0,0l0.1,11.2l0,2.6l13.5,2.9h0l0,0c0.2-1,0.3-1.9,0.3-2.9C694.2,6449,693.8,6446.9,692.8,6445
									z"/>
							</g>
						</g>
					</g>
					<g id="Grupo_57656">
						<g id="Grupo_57655">
							<path id="Trazado_105894" class="st6" d="M679.7,6452.4l-13.5,3c1.7,7.4,9.1,12.1,16.5,10.4c5.2-1.2,9.3-5.3,10.5-10.5
								L679.7,6452.4"/>
						</g>
					</g>
				</g>
				<g id="Grupo_57660">
					<g id="Grupo_57659">
						<g id="Grupo_57658">
							<path id="Trazado_105895" class="st4" d="M732.1,6450.4c0,0.1-7,0.2-15.6,0.2s-15.6-0.1-15.6-0.2s7-0.2,15.6-0.2
								S732.1,6450.3,732.1,6450.4z"/>
						</g>
					</g>
				</g>
				<g id="Grupo_57663">
					<g id="Grupo_57662">
						<g id="Grupo_57661">
							<path id="Trazado_105896" class="st4" d="M732.1,6446.9c0,0.1-7,0.2-15.6,0.2s-15.6-0.1-15.6-0.2s7-0.2,15.6-0.2
								S732.1,6446.8,732.1,6446.9z"/>
						</g>
					</g>
				</g>
				<g id="Grupo_57666">
					<g id="Grupo_57665">
						<g id="Grupo_57664">
							<path id="Trazado_105897" class="st4" d="M732.1,6443.3c0,0.1-7,0.2-15.6,0.2s-15.6-0.1-15.6-0.2s7-0.2,15.6-0.2
								S732.1,6443.2,732.1,6443.3z"/>
						</g>
					</g>
				</g>
				<g id="Grupo_57669">
					<g id="Grupo_57668">
						<g id="Grupo_57667">
							<path id="Trazado_105898" class="st4" d="M732.1,6453.7c0,0.1-7,0.2-15.6,0.2s-15.6-0.1-15.6-0.2s7-0.2,15.6-0.2
								S732.1,6453.6,732.1,6453.7z"/>
						</g>
					</g>
				</g>
				<g id="Grupo_57672">
					<g id="Grupo_57671">
						<g id="Grupo_57670">
							<path id="Trazado_105899" class="st4" d="M722.5,6457.3c0,0.1-4.8,0.2-10.7,0.2s-10.7-0.1-10.7-0.2s4.8-0.2,10.7-0.2
								S722.5,6457.2,722.5,6457.3z"/>
						</g>
					</g>
				</g>
			</g>
			<g id="Grupo_57766">
				<g id="Grupo_57676">
					<g id="Grupo_57675">
						<g id="Grupo_57674">
							<rect id="Rectángulo_5908" x="668.4" y="6483" class="st6" width="3.2" height="35.8"/>
						</g>
					</g>
				</g>
				<g id="Grupo_57679">
					<g id="Grupo_57678">
						<g id="Grupo_57677">
							<rect id="Rectángulo_5909" x="674.6" y="6495.1" class="st6" width="3.2" height="23.6"/>
						</g>
					</g>
				</g>
				<g id="Grupo_57682">
					<g id="Grupo_57681">
						<g id="Grupo_57680">
							<rect id="Rectángulo_5910" x="680.7" y="6487.4" class="st6" width="3.2" height="31.5"/>
						</g>
					</g>
				</g>
				<g id="Grupo_57685">
					<g id="Grupo_57684">
						<g id="Grupo_57683">
							<rect id="Rectángulo_5911" x="686.9" y="6484.4" class="st6" width="3.2" height="34.4"/>
						</g>
					</g>
				</g>
				<g id="Grupo_57688">
					<g id="Grupo_57687">
						<g id="Grupo_57686">
							<rect id="Rectángulo_5912" x="693.1" y="6495.9" class="st6" width="3.2" height="22.9"/>
						</g>
					</g>
				</g>
				<g id="Grupo_57691">
					<g id="Grupo_57690">
						<g id="Grupo_57689">
							<rect id="Rectángulo_5913" x="699.3" y="6500.4" class="st6" width="3.2" height="18.4"/>
						</g>
					</g>
				</g>
				<g id="Grupo_57694">
					<g id="Grupo_57693">
						<g id="Grupo_57692">
							<rect id="Rectángulo_5914" x="705.5" y="6486.7" class="st6" width="3.2" height="32.1"/>
						</g>
					</g>
				</g>
				<g id="Grupo_57697">
					<g id="Grupo_57696">
						<g id="Grupo_57695">
							<rect id="Rectángulo_5915" x="711.7" y="6492.4" class="st6" width="3.2" height="26.3"/>
						</g>
					</g>
				</g>
				<g id="Grupo_57700">
					<g id="Grupo_57699">
						<g id="Grupo_57698">
							<rect id="Rectángulo_5916" x="717.9" y="6487.8" class="st6" width="3.2" height="30.9"/>
						</g>
					</g>
				</g>
				<g id="Grupo_57703">
					<g id="Grupo_57702">
						<g id="Grupo_57701">
							<rect id="Rectángulo_5917" x="724" y="6497.7" class="st6" width="3.2" height="21.1"/>
						</g>
					</g>
				</g>
				<g id="Grupo_57706">
					<g id="Grupo_57705">
						<g id="Grupo_57704">
							<rect id="Rectángulo_5918" x="730.2" y="6493.7" class="st6" width="3.2" height="25.1"/>
						</g>
					</g>
				</g>
				<g id="Grupo_57710">
					<g id="Grupo_57709">
						<g id="Grupo_57708">
							<g id="Grupo_57707">
								<path id="Trazado_105900" class="st4" d="M734.7,6521.3c0,0.1-15.2,0.1-33.9,0.1s-33.9-0.1-33.9-0.1s15.2-0.1,33.9-0.1
									S734.7,6521.2,734.7,6521.3z"/>
							</g>
						</g>
					</g>
				</g>
				<g id="Grupo_57714">
					<g id="Grupo_57713">
						<g id="Grupo_57712">
							<g id="Grupo_57711">
								<path id="Trazado_105901" class="st4" d="M672.9,6524.1c-1.6,0.2-3.2,0.2-4.8,0C669.8,6523.9,671.4,6523.9,672.9,6524.1z"/>
							</g>
						</g>
					</g>
				</g>
				<g id="Grupo_57753" class="st7">
					<g id="Grupo_57752">
						<g id="Grupo_57751">
							<rect id="Rectángulo_5919" x="674.6" y="6495.1" class="st8" width="3.2" height="23.6"/>
						</g>
					</g>
				</g>
				<g id="Grupo_57756" class="st7">
					<g id="Grupo_57755">
						<g id="Grupo_57754">
							<rect id="Rectángulo_5920" x="686.9" y="6484.4" class="st8" width="3.2" height="34.4"/>
						</g>
					</g>
				</g>
				<g id="Grupo_57759" class="st7">
					<g id="Grupo_57758">
						<g id="Grupo_57757">
							<rect id="Rectángulo_5921" x="699.3" y="6500.4" class="st8" width="3.2" height="18.4"/>
						</g>
					</g>
				</g>
				<g id="Grupo_57762" class="st7">
					<g id="Grupo_57761">
						<g id="Grupo_57760">
							<rect id="Rectángulo_5922" x="711.7" y="6492.4" class="st8" width="3.2" height="26.3"/>
						</g>
					</g>
				</g>
				<g id="Grupo_57765" class="st7">
					<g id="Grupo_57764">
						<g id="Grupo_57763">
							<rect id="Rectángulo_5923" x="724" y="6497.7" class="st8" width="3.2" height="21.1"/>
						</g>
					</g>
				</g>
			</g>
			<g id="Grupo_57768">
				<g id="Grupo_57767">
					<path id="Trazado_105911" class="st6" d="M583.4,6442c0,1.7-1.4,3.1-3.1,3.1s-3.1-1.4-3.1-3.1c0-1.7,1.4-3.1,3.1-3.1
						c0,0,0,0,0,0C582,6438.9,583.4,6440.3,583.4,6442C583.4,6442,583.4,6442,583.4,6442z"/>
				</g>
			</g>
			<g id="Grupo_57771">
				<g id="Grupo_57770">
					<g id="Grupo_57769">
						<path id="Trazado_105912" class="st6" d="M636.4,6439.6c0,0.1-10.4,0.2-23.2,0.2s-23.2-0.1-23.2-0.2s10.4-0.2,23.2-0.2
							S636.4,6439.5,636.4,6439.6z"/>
					</g>
				</g>
			</g>
			<g id="Grupo_57774">
				<g id="Grupo_57773">
					<g id="Grupo_57772">
						<path id="Trazado_105913" class="st6" d="M608.6,6443.3c-0.2,0.1-0.5,0.1-0.7,0.1c-0.5,0-1.1,0-2,0.1c-1.7,0-3.9,0.1-6.5,0.1
							s-4.8,0-6.5-0.1c-0.8,0-1.5,0-2-0.1c0,0.2-0.2,0.3-0.4,0.3s-0.3-0.2-0.3-0.4c0-0.2,0.2-0.3,0.4-0.3c0.1,0,0.3,0.1,0.3,0.3
							c0.5,0,1.1,0,2-0.1c1.7,0,3.9-0.1,6.5-0.1s4.8,0,6.5,0.1c0.8,0,1.5,0,2,0.1C608.1,6443.2,608.4,6443.3,608.6,6443.3z"/>
					</g>
				</g>
			</g>
		</g>
	</g>
	<g id="Grupo_58160">
		<g id="Grupo_57843">
			<g id="Grupo_57804">
				<g id="Grupo_57790">
					<g id="Grupo_57785">
						<g id="Grupo_57780">
							<g id="Grupo_57779">
								<g id="Grupo_57778">
									<g id="Grupo_57777">
										<rect id="Rectángulo_5924" x="661.9" y="6545.5" class="st4" width="41.6" height="2"/>
									</g>
								</g>
							</g>
						</g>
						<g id="Grupo_57784">
							<g id="Grupo_57783">
								<g id="Grupo_57782">
									<g id="Grupo_57781">
										<path id="Trazado_105914" class="st4" d="M655.5,6547.5l-7.8-29.2h32.4l7.1,29.2H655.5z"/>
									</g>
								</g>
							</g>
						</g>
					</g>
					<g id="Grupo_57789">
						<g id="Grupo_57788">
							<g id="Grupo_57787">
								<g id="Grupo_57786">
									<path id="Trazado_105915" class="st3" d="M685.3,6545.3h-29l-6.7-25.6h29.1L685.3,6545.3z"/>
								</g>
							</g>
						</g>
					</g>
				</g>
				<g id="Grupo_57793">
					<g id="Grupo_57792">
						<g id="Grupo_57791">
							<path id="Trazado_105916" class="st3" d="M650,6521.5h29.1l-0.5-1.8h-29.1L650,6521.5z"/>
						</g>
					</g>
				</g>
				<g id="Grupo_57803">
					<g id="Grupo_57796">
						<g id="Grupo_57795">
							<g id="Grupo_57794">
								<path id="Trazado_105917" class="st2" d="M653.2,6520.6c0,0.2,0.1,0.3,0.3,0.3c0.2,0,0.3-0.1,0.3-0.3c0-0.2-0.1-0.3-0.3-0.3
									C653.3,6520.2,653.2,6520.4,653.2,6520.6C653.2,6520.6,653.2,6520.6,653.2,6520.6z"/>
							</g>
						</g>
					</g>
					<g id="Grupo_57799">
						<g id="Grupo_57798">
							<g id="Grupo_57797">
								<path id="Trazado_105918" class="st2" d="M652.1,6520.6c0,0.2,0.1,0.3,0.3,0.3c0.2,0,0.3-0.1,0.3-0.3c0-0.2-0.1-0.3-0.3-0.3
									C652.2,6520.2,652.1,6520.4,652.1,6520.6z"/>
							</g>
						</g>
					</g>
					<g id="Grupo_57802">
						<g id="Grupo_57801">
							<g id="Grupo_57800">
								<path id="Trazado_105919" class="st2" d="M651,6520.6c0,0.2,0.1,0.3,0.3,0.3c0.2,0,0.3-0.1,0.3-0.3c0-0.2-0.1-0.3-0.3-0.3
									C651.1,6520.2,651,6520.4,651,6520.6z"/>
							</g>
						</g>
					</g>
				</g>
			</g>
			<g id="Grupo_57842">
				<g id="Grupo_57806">
					<g id="Grupo_57805">
						<path id="Trazado_105920" class="st6" d="M671.9,6532.7l3.2,3.7c1.2-0.8,1.9-2.2,2-3.7c-0.3-2.8-2.9-4.9-5.7-4.6
							c-2.4,0.3-4.4,2.2-4.6,4.6L671.9,6532.7z"/>
					</g>
				</g>
				<g id="Grupo_57809">
					<g id="Grupo_57808">
						<g id="Grupo_57807">
							<path id="Trazado_105921" class="st4" d="M671.5,6533.3c0.3,0.3,0.6,0.6,0.9,0.9c0.6,0.6,1.4,1.5,2.4,2.6l0.1,0.1l-0.1,0.1
								c-1.6,1.1-3.6,1.3-5.4,0.5c-0.9-0.4-1.7-1-2.2-1.8c-0.5-0.7-0.8-1.5-0.8-2.4l0-0.2h0.2c1.5,0,2.8,0,3.7,0
								C670.6,6533.2,671.1,6533.2,671.5,6533.3c-0.5,0.1-0.9,0.1-1.4,0.1c-0.9,0-2.1,0.1-3.6,0.1l0.2-0.2c0.1,0.8,0.3,1.6,0.8,2.2
								c0.5,0.7,1.2,1.3,2.1,1.6c1.7,0.7,3.6,0.6,5.1-0.4l0,0.2c-0.9-1.1-1.7-2-2.2-2.6C672,6534,671.8,6533.7,671.5,6533.3z"/>
						</g>
					</g>
				</g>
				<g id="Grupo_57811">
					<g id="Grupo_57810">
						<path id="Trazado_105922" class="st4" d="M669.4,6530c0,0.2,0.1,0.3,0.3,0.3s0.3-0.1,0.3-0.3c0-0.2-0.1-0.3-0.3-0.3
							S669.4,6529.8,669.4,6530L669.4,6530z"/>
					</g>
				</g>
				<g id="Grupo_57814">
					<g id="Grupo_57813">
						<g id="Grupo_57812">
							<path id="Trazado_105923" class="st4" d="M663.7,6527.9c1.1-0.2,2.3-0.3,3.4-0.2h0.5l0.1,0.1c0.7,0.7,1.4,1.4,2,2.2
								c-0.8-0.6-1.6-1.2-2.2-2l0.1,0.1h-0.5C666,6528.1,664.8,6528,663.7,6527.9z"/>
						</g>
					</g>
				</g>
				<g id="Grupo_57817">
					<g id="Grupo_57816">
						<g id="Grupo_57815">
							<path id="Trazado_105924" class="st4" d="M657.2,6531.5c-0.1-0.4-0.2-0.9-0.3-1.3c-0.2-0.9-0.5-2.2-0.8-3.8l0-0.2h0.2
								l7.2-0.1l0.2,0.1l0,0v0v0v0l0,0l0,0.1l0,0.2l0.1,0.3l0.1,0.7c0.1,0.4,0.2,0.9,0.2,1.3c0.2,0.9,0.3,1.7,0.5,2.5l0,0.2h-0.2
								c-2.2,0-4,0-5.3-0.1l-1.5,0C657.5,6531.6,657.3,6531.6,657.2,6531.5c0.2,0,0.4,0,0.5,0l1.5,0c1.3,0,3.1-0.1,5.2-0.1l-0.2,0.2
								c-0.2-0.8-0.3-1.6-0.5-2.5l-0.3-1.3c0-0.2-0.1-0.4-0.1-0.7l-0.1-0.3l0-0.2l0-0.1l0,0v0v0v0l0,0c-0.2-0.1,0.2,0.2,0.2,0.1
								l-7.2,0l0.1-0.2c0.3,1.5,0.5,2.8,0.6,3.7C657,6530.6,657.1,6531,657.2,6531.5z"/>
						</g>
					</g>
				</g>
				<g id="Grupo_57823">
					<g id="Grupo_57819">
						<g id="Grupo_57818">
							<path id="Trazado_105925" class="st4" d="M669,6535.8c0,0.2,0.1,0.3,0.3,0.3s0.3-0.1,0.3-0.3c0-0.2-0.1-0.3-0.3-0.3
								S669,6535.6,669,6535.8L669,6535.8z"/>
						</g>
					</g>
				</g>
				<g id="Grupo_57826">
					<g id="Grupo_57825">
						<g id="Grupo_57824">
							<path id="Trazado_105927" class="st4" d="M657.2,6538.1c-0.1-0.3-0.2-0.6-0.3-1c-0.2-0.6-0.5-1.6-0.8-2.8l0-0.2h0.2
								c2,0,4.6-0.1,7.4-0.1l0.2,0.1l0,0v0v0v0l0,0l0,0.1l0,0.1l0.1,0.2l0.1,0.5l0.2,1c0.2,0.6,0.3,1.2,0.5,1.8l0.1,0.2h-0.2
								c-2.2,0-4.1,0-5.4-0.1l-1.5,0C657.5,6538.1,657.3,6538.1,657.2,6538.1c0.2,0,0.4,0,0.6,0l1.6-0.1c1.3,0,3.2-0.1,5.3-0.1
								l-0.2,0.2c-0.2-0.6-0.3-1.2-0.5-1.8l-0.2-1l-0.1-0.5l-0.1-0.2l0-0.1l0-0.1l0,0v0v0v0l0,0l0.2,0.1c-2.9,0-5.5,0-7.4,0l0.1-0.2
								c0.3,1.1,0.5,2.1,0.6,2.7C657.1,6537.3,657.1,6537.7,657.2,6538.1z"/>
						</g>
					</g>
				</g>
				<g id="Grupo_57838">
					<g id="Grupo_57837">
						<g id="Grupo_57836">
							<path id="Trazado_105931" class="st4" d="M657.9,6535.7c0.8-0.2,1.6-0.2,2.4-0.2c0.1,0.6-0.3,1.3-1,1.4
								c-0.6,0.1-1.3-0.3-1.4-1C657.9,6535.8,657.9,6535.8,657.9,6535.7z"/>
						</g>
					</g>
				</g>
			</g>
		</g>
		<g id="Grupo_57845">
			<g id="Grupo_57844">
				<path id="Trazado_105933" class="st4" d="M612.7,6547.4v3.8h2.5v77.6h5.1v-77.6h27.3v77.6h5.1v-77.6h118.5v77.5h5.2v-77.5h2.2
					v-3.8L612.7,6547.4z"/>
			</g>
		</g>
		<g id="Grupo_57852">
			<g id="Grupo_57851">
				<g id="Grupo_57850">
					<ellipse id="Elipse_4189" class="st5" cx="675.6" cy="6577" rx="0.2" ry="0.1"/>
				</g>
			</g>
		</g>
		<g id="Grupo_58151">
			<g id="Grupo_57876">
				<g id="Grupo_57854">
					<g id="Grupo_57853">
						<path id="Trazado_105935" class="st9" d="M708.4,6508.1l-19.2-19.5l-0.4-2.1c-0.1-0.4-0.2-0.8-0.2-1.3c-0.1-0.6-0.1-1.2,0-1.7
							c0.1-0.7,0.3-1.4,0.6-2c0.3-0.6-0.2-1.2-0.7-1s-1.5,1.8-1.7,3.9s-2-0.7-2.7-1.7s-2.9-4-3.4-4.1c-0.7-0.1-0.9,0.7-0.2,1.7
							s2.6,4.1,2,4.4h0c-1.1-0.2-2.1,0.3-2.7,1.3c-0.5,0.9-1,2.3-0.6,2.9c1,1.1,2,2.2,3.1,3.2l0.6,0.6c0,0,16.6,24.1,20.3,24.9
							c2.3,0.5,37.1,3.4,37.1,3.4l2.6-9.6L708.4,6508.1z"/>
					</g>
				</g>
				<g id="Grupo_57860">
					<g id="Grupo_57856">
						<g id="Grupo_57855">
							<path id="Trazado_105936" class="st9" d="M679.2,6488.3l1.8,1.7c0.2,0.2,0.4,0.4,0.7,0.5c0.3,0.2,0.7,0.1,0.9-0.2
								c0.1-0.2,0.1-0.4,0-0.6c-0.1-0.2-0.2-0.4-0.4-0.6l-1.7-2.1"/>
						</g>
					</g>
					<g id="Grupo_57859">
						<g id="Grupo_57858">
							<g id="Grupo_57857">
								<path id="Trazado_105937" class="st10" d="M680.4,6487c0,0,0.4,0.3,0.9,0.9l0.9,1c0.2,0.2,0.4,0.4,0.5,0.7
									c0.2,0.3,0.2,0.7,0,1c-0.2,0.3-0.6,0.4-1,0.2c-0.3-0.1-0.5-0.3-0.7-0.5l-0.9-0.9c-0.3,0.2-0.7,0.1-0.9-0.2
									c-0.2-0.3-0.1-0.7,0.2-0.9c0.3-0.2,0.7-0.1,0.9,0.2c0.1,0.2,0.1,0.5,0,0.7l1,0.9c0.2,0.2,0.4,0.3,0.6,0.4
									c0.2,0.1,0.4,0,0.6-0.1c0.1-0.2,0.1-0.4,0-0.6c-0.1-0.2-0.3-0.4-0.4-0.6c-0.3-0.4-0.6-0.7-0.8-1
									C680.8,6487.7,680.5,6487.4,680.4,6487z"/>
							</g>
						</g>
					</g>
				</g>
				<g id="Grupo_57866">
					<g id="Grupo_57862">
						<g id="Grupo_57861">
							<path id="Trazado_105938" class="st9" d="M680.4,6487.1c0.6,0.6,1.2,1.1,1.8,1.7c0.2,0.2,0.4,0.4,0.7,0.5
								c0.3,0.2,0.7,0.1,0.9-0.2c0.1-0.2,0.1-0.4,0-0.6c-0.1-0.2-0.2-0.4-0.4-0.6l-1.7-2.1"/>
						</g>
					</g>
					<g id="Grupo_57865">
						<g id="Grupo_57864">
							<g id="Grupo_57863">
								<path id="Trazado_105939" class="st10" d="M681.6,6485.7c0,0,0.4,0.3,0.9,0.9c0.3,0.3,0.6,0.7,0.9,1
									c0.2,0.2,0.4,0.4,0.5,0.7c0.2,0.3,0.2,0.7,0,1c-0.2,0.3-0.6,0.4-1,0.2c-0.3-0.1-0.5-0.3-0.7-0.5l-0.9-0.9
									c-0.3-0.3-0.6-0.6-0.8-0.9c0.4,0.2,0.7,0.5,1,0.8l1,0.9c0.2,0.2,0.4,0.3,0.6,0.4c0.2,0.1,0.4,0,0.6-0.1
									c0.1-0.2,0.1-0.4,0-0.6c-0.1-0.2-0.3-0.4-0.4-0.6l-0.8-1C682,6486.5,681.8,6486.1,681.6,6485.7z"/>
							</g>
						</g>
					</g>
				</g>
				<g id="Grupo_57872">
					<g id="Grupo_57868">
						<g id="Grupo_57867">
							<path id="Trazado_105940" class="st9" d="M681.8,6486.1l1.8,1.7c0.2,0.2,0.4,0.4,0.7,0.5c0.3,0.2,0.7,0.1,0.9-0.2
								c0.1-0.2,0.1-0.4,0-0.6c-0.1-0.2-0.2-0.4-0.4-0.6c-0.6-0.7-1.2-1.4-1.7-2.1"/>
						</g>
					</g>
					<g id="Grupo_57871">
						<g id="Grupo_57870">
							<g id="Grupo_57869">
								<path id="Trazado_105941" class="st10" d="M683,6484.7c0,0,0.4,0.3,0.9,0.9c0.3,0.3,0.6,0.7,0.9,1c0.2,0.2,0.4,0.4,0.5,0.7
									c0.2,0.3,0.2,0.7,0,1c-0.2,0.3-0.6,0.4-1,0.2c-0.3-0.1-0.5-0.3-0.7-0.5l-0.9-0.9c-0.3-0.3-0.6-0.6-0.8-0.9
									c0.4,0.2,0.7,0.5,1,0.8l1,0.9c0.2,0.2,0.4,0.3,0.6,0.4c0.2,0.1,0.4,0,0.6-0.1c0.1-0.2,0.1-0.4,0-0.6
									c-0.1-0.2-0.3-0.4-0.4-0.6c-0.3-0.4-0.6-0.7-0.8-1C683.4,6485.4,683.2,6485.1,683,6484.7z"/>
							</g>
						</g>
					</g>
				</g>
				<g id="Grupo_57875">
					<g id="Grupo_57874">
						<g id="Grupo_57873">
							<path id="Trazado_105942" class="st10" d="M684.6,6489c0-0.1,0.4-0.1,1.1,0.1l-0.2,0.2c-0.1-0.4-0.1-0.8,0-1.2
								c0.1-0.5,0.3-1.1,0.7-1.5c0.3-0.3,0.5-0.4,0.5-0.4c-0.4,0.6-0.7,1.3-0.8,2c-0.1,0.4-0.1,0.7,0,1.1l0,0.3l-0.2-0.1
								C685,6489.1,684.6,6489.1,684.6,6489z"/>
						</g>
					</g>
				</g>
			</g>
			<g id="Grupo_57888">
				<g id="Grupo_57881">
					<g id="Grupo_57878">
						<g id="Grupo_57877">
							<path id="Trazado_105943" class="st9" d="M733.6,6478.8l0.1,26.8l-10.4,0.5l-0.4-6.4c0,0-5,0.8-6.1-3
								c-0.7-2.4-0.5-21.1-0.5-21.1L733.6,6478.8z"/>
						</g>
					</g>
					<g id="Grupo_57880">
						<g id="Grupo_57879">
							<path id="Trazado_105944" class="st4" d="M713.6,6478.1c0.8,1.6,4.5,4.5,4.5,4.5l1.7,4.5c1.4-1.1,3.4-1.1,3.8,1.5
								c0.3,1.8-2,2.2-2,2.2c1.1,2.2,2.5,4.3,4.2,6.2c2.1,2.3,3.3,2.6,5.5,2.6h2.5c0,0,5.1-4.3,4.1-15.5s-11.1-8-13.6-10.8
								C720.3,6468.7,711,6472.8,713.6,6478.1z"/>
						</g>
					</g>
				</g>
				<g id="Grupo_57884">
					<g id="Grupo_57883">
						<g id="Grupo_57882">
							<path id="Trazado_105945" class="st5" d="M737.2,6493.5c-0.4,0.1-0.8,0-1.2-0.1c-1.1-0.2-2.1-0.8-3-1.5c-1.2-1.2-2.2-2.5-3-4
								c-0.9-1.8-2.2-3.4-3.8-4.7c-1.8-1.2-3.9-1.5-5.8-1.8c-1.7-0.2-3.3-0.8-4.7-1.8c-0.9-0.7-1.6-1.7-1.9-2.8
								c-0.1-0.4-0.1-0.8-0.1-1.2c0,0.4,0,0.8,0.1,1.2c0.3,1.1,1,2,1.9,2.7c1.4,0.9,3,1.5,4.6,1.7c1.8,0.4,4,0.6,5.8,1.8
								c1.6,1.3,2.9,2.9,3.9,4.7c0.8,1.5,1.8,2.8,3,4c0.8,0.8,1.8,1.3,2.9,1.6c0.3,0.1,0.6,0.1,0.9,0.1
								C737.1,6493.5,737.2,6493.5,737.2,6493.5z"/>
						</g>
					</g>
				</g>
				<g id="Grupo_57887">
					<g id="Grupo_57886">
						<g id="Grupo_57885">
							<path id="Trazado_105946" class="st5" d="M737.8,6484.3c0,0-0.2-0.1-0.5-0.2c-0.5-0.2-1-0.3-1.6-0.3
								c-0.8-0.1-1.7,0.1-2.4,0.5c-0.4,0.3-0.7,0.8-0.8,1.3c-0.1,0.6,0.1,1.2,0.5,1.6c0.2,0.2,0.5,0.3,0.8,0.3
								c0.3,0,0.6-0.1,0.9-0.3c0.6-0.4,1.1-0.9,1.3-1.6c0.7-2.1-0.4-4.4-2.5-5.1c-0.3-0.1-0.6-0.2-0.8-0.2c-0.9-0.1-1.8,0.1-2.6,0.3
								c-0.9,0.3-1.8,0.5-2.7,0.6c-0.9,0.1-1.9,0.1-2.8,0c-0.9-0.1-1.9-0.4-2.7-0.8c-0.9-0.4-1.6-1.1-1.9-2c-0.3-0.9,0-1.9,0.6-2.5
								c0.7-0.6,1.6-0.7,2.5-0.4c0.4,0.2,0.7,0.5,0.9,0.9c0.2,0.4,0.3,0.8,0.2,1.2c-0.1,0.8-0.6,1.5-1.2,1.9
								c-0.6,0.4-1.3,0.6-2.1,0.6c-0.7,0-1.3-0.1-2-0.3c-1.1-0.3-2.1-1-2.9-1.8c-0.6-0.6-1.1-1.3-1.5-2.1c-0.2-0.5-0.4-1-0.5-1.5
								c-0.1-0.4-0.1-0.6-0.1-0.6s0,0.2,0.1,0.6c0.1,0.5,0.3,1,0.5,1.5c0.4,0.8,0.9,1.5,1.5,2.1c0.8,0.8,1.8,1.4,2.8,1.7
								c0.6,0.2,1.3,0.3,1.9,0.3c0.7,0,1.4-0.2,2-0.6c0.6-0.4,1.1-1.1,1.2-1.8c0.1-0.8-0.3-1.6-1-1.9c-0.8-0.4-1.7-0.2-2.3,0.3
								c-0.6,0.6-0.8,1.5-0.6,2.4c0.3,0.9,1,1.5,1.8,1.9c0.9,0.4,1.8,0.6,2.7,0.7c0.9,0.1,1.9,0.1,2.8,0c0.9-0.1,1.8-0.4,2.7-0.6
								c0.9-0.3,1.7-0.4,2.6-0.3c2.3,0.2,3.9,2.3,3.7,4.5c0,0.3-0.1,0.6-0.2,0.9c-0.2,0.7-0.7,1.3-1.3,1.7c-0.3,0.2-0.6,0.3-1,0.3
								c-0.3,0-0.7-0.1-0.9-0.4c-0.4-0.4-0.6-1.1-0.5-1.7c0.1-0.5,0.4-1,0.9-1.3c0.7-0.5,1.6-0.7,2.5-0.5c0.5,0.1,1.1,0.2,1.6,0.4
								C737.6,6484.2,737.8,6484.3,737.8,6484.3z"/>
						</g>
					</g>
				</g>
			</g>
			<g id="Grupo_57995">
				<g id="Grupo_57991">
					<g id="Grupo_57990">
						<g id="Grupo_57894">
							<g id="Grupo_57893">
								<g id="Grupo_57892">
									<g id="Grupo_57891">
										<g id="Grupo_57890">
											<g id="Grupo_57889">
												<path id="Trazado_105947" class="st6" d="M724.5,6622.2l-3.4-4.4l8.2-6.4l5.1,6.3l-0.5,0.4c-2.2,1.9-11.1,9.5-12.9,10.2
													C718.8,6629.3,724.5,6622.2,724.5,6622.2z"/>
											</g>
										</g>
									</g>
								</g>
							</g>
						</g>
						<g id="Grupo_57899" class="st11">
							<g id="Grupo_57898">
								<g id="Grupo_57897">
									<g id="Grupo_57896">
										<g id="Grupo_57895">
											<path id="Trazado_105948" class="st8" d="M721.8,6625.8c0,0-1.9,2.6-1.3,2.8s9.9-7.2,13.7-10.8l-0.2-0.2l-10.8,8.7
												C723.4,6626.3,722.3,6625.4,721.8,6625.8z"/>
										</g>
									</g>
								</g>
							</g>
						</g>
						<g id="Grupo_57905">
							<g id="Grupo_57904">
								<g id="Grupo_57903">
									<g id="Grupo_57902">
										<g id="Grupo_57901">
											<g id="Grupo_57900">
												<path id="Trazado_105949" class="st4" d="M734.3,6617.5c0,0-0.1,0.1-0.1,0.1l-0.4,0.3l-1.4,1.2c-1.2,1-2.9,2.4-4.8,4
													s-3.7,2.8-5,3.8c-0.6,0.4-1.1,0.8-1.5,1.1l-0.4,0.3c0,0-0.1,0.1-0.2,0.1c0,0,0.1-0.1,0.1-0.1l0.4-0.3l1.5-1.1
													c1.3-1,3-2.3,4.9-3.8s3.6-2.9,4.8-3.9l1.5-1.2l0.4-0.3C734.2,6617.6,734.2,6617.5,734.3,6617.5z"/>
											</g>
										</g>
									</g>
								</g>
							</g>
						</g>
						<g id="Grupo_57911">
							<g id="Grupo_57910">
								<g id="Grupo_57909">
									<g id="Grupo_57908">
										<g id="Grupo_57907">
											<g id="Grupo_57906">
												<path id="Trazado_105950" class="st4" d="M723.5,6626.4c-0.5-0.4-1.1-0.7-1.8-0.7
													C722.4,6625.6,723.1,6625.8,723.5,6626.4z"/>
											</g>
										</g>
									</g>
								</g>
							</g>
						</g>
						<g id="Grupo_57917">
							<g id="Grupo_57916">
								<g id="Grupo_57915">
									<g id="Grupo_57914">
										<g id="Grupo_57913">
											<g id="Grupo_57912">
												<path id="Trazado_105951" class="st4" d="M724.9,6623.3c-0.2,0-0.3,0-0.5-0.1c-0.3-0.1-0.5-0.2-0.5-0.2
													c0.2,0,0.3,0,0.5,0.1C724.7,6623.1,724.9,6623.3,724.9,6623.3z"/>
											</g>
										</g>
									</g>
								</g>
							</g>
						</g>
						<g id="Grupo_57923">
							<g id="Grupo_57922">
								<g id="Grupo_57921">
									<g id="Grupo_57920">
										<g id="Grupo_57919">
											<g id="Grupo_57918">
												<path id="Trazado_105952" class="st4" d="M725.3,6622.4c0,0-0.2,0.1-0.4,0s-0.4-0.1-0.4-0.1s0.2,0,0.4,0
													S725.3,6622.4,725.3,6622.4z"/>
											</g>
										</g>
									</g>
								</g>
							</g>
						</g>
						<g id="Grupo_57929">
							<g id="Grupo_57928">
								<g id="Grupo_57927">
									<g id="Grupo_57926">
										<g id="Grupo_57925">
											<g id="Grupo_57924">
												<path id="Trazado_105953" class="st4" d="M725.1,6621.3c0,0-0.1,0.2-0.4,0.4s-0.4,0.3-0.5,0.3s0.1-0.2,0.4-0.4
													S725.1,6621.3,725.1,6621.3z"/>
											</g>
										</g>
									</g>
								</g>
							</g>
						</g>
						<g id="Grupo_57935">
							<g id="Grupo_57934">
								<g id="Grupo_57933">
									<g id="Grupo_57932">
										<g id="Grupo_57931">
											<g id="Grupo_57930">
												<path id="Trazado_105954" class="st4" d="M724.8,6620.7c-0.2,0.4-0.5,0.7-0.9,0.8c0,0,0.2-0.2,0.5-0.4
													S724.8,6620.6,724.8,6620.7z"/>
											</g>
										</g>
									</g>
								</g>
							</g>
						</g>
						<g id="Grupo_57941">
							<g id="Grupo_57940">
								<g id="Grupo_57939">
									<g id="Grupo_57938">
										<g id="Grupo_57937">
											<g id="Grupo_57936">
												<path id="Trazado_105955" class="st4" d="M724.1,6622.8c-0.1,0.2-0.3,0.3-0.5,0.4c-0.2,0.1-0.4,0.2-0.7,0.3
													c-0.1,0.1-0.3,0.1-0.4,0.1c-0.1,0-0.2,0-0.3-0.1c-0.1-0.1-0.1-0.2-0.1-0.3c0.3-0.5,0.8-0.8,1.4-0.7
													C723.7,6622.7,723.9,6622.8,724.1,6622.8c0,0.1,0,0.2,0,0.2c-0.2-0.1-0.4-0.2-0.6-0.3c-0.2,0-0.5,0-0.7,0.1
													c-0.3,0.1-0.5,0.3-0.6,0.5c0,0.1,0.1,0.2,0.2,0.2c0.1,0,0.3-0.1,0.4-0.1c0.2-0.1,0.4-0.2,0.7-0.3
													C723.9,6622.9,724.1,6622.8,724.1,6622.8z"/>
											</g>
										</g>
									</g>
								</g>
							</g>
						</g>
						<g id="Grupo_57947">
							<g id="Grupo_57946">
								<g id="Grupo_57945">
									<g id="Grupo_57944">
										<g id="Grupo_57943">
											<g id="Grupo_57942">
												<path id="Trazado_105956" class="st4" d="M724,6622.9c0,0-0.2-0.1-0.3-0.3c-0.1-0.2-0.1-0.3-0.2-0.5
													c0-0.2,0-0.5,0.2-0.6c0.1-0.1,0.3,0,0.4,0.1c0.1,0.1,0.1,0.2,0.1,0.3c0,0.2,0,0.3,0,0.5
													C724.1,6622.6,724.1,6622.7,724,6622.9c0-0.1,0.1-0.2,0.1-0.5c0-0.2,0-0.3,0-0.5c0-0.2-0.1-0.4-0.3-0.3
													c-0.1,0.1-0.2,0.3-0.2,0.5c0,0.2,0,0.3,0.1,0.5C723.8,6622.7,723.9,6622.8,724,6622.9z"/>
											</g>
										</g>
									</g>
								</g>
							</g>
						</g>
						<g id="Grupo_57953">
							<g id="Grupo_57952">
								<g id="Grupo_57951">
									<g id="Grupo_57950">
										<g id="Grupo_57949">
											<g id="Grupo_57948">
												<path id="Trazado_105957" class="st4" d="M732.4,6615.4c0,0-0.3,0.2-0.6,0.5c-0.9,0.9-1.2,2.2-0.8,3.4
													c0.2,0.4,0.3,0.7,0.3,0.7s-0.1-0.1-0.1-0.2c-0.1-0.2-0.2-0.3-0.3-0.5c-0.5-1.2-0.2-2.6,0.8-3.5c0.1-0.1,0.3-0.2,0.5-0.3
													C732.2,6615.4,732.3,6615.4,732.4,6615.4z"/>
											</g>
										</g>
									</g>
								</g>
							</g>
						</g>
						<g id="Grupo_57959">
							<g id="Grupo_57958">
								<g id="Grupo_57957">
									<g id="Grupo_57956">
										<g id="Grupo_57955">
											<g id="Grupo_57954">
												<path id="Trazado_105958" class="st4" d="M728.8,6612.7c1,1.1,1.9,2.2,2.7,3.3C730.6,6614.9,729.7,6613.8,728.8,6612.7z
													"/>
											</g>
										</g>
									</g>
								</g>
							</g>
						</g>
						<g id="Grupo_57965">
							<g id="Grupo_57964">
								<g id="Grupo_57963">
									<g id="Grupo_57962">
										<g id="Grupo_57961">
											<g id="Grupo_57960">
												<path id="Trazado_105959" class="st4" d="M729.7,6620.1c-0.3,0.4-0.7,0.8-1.1,1.1c-0.4,0.3-0.8,0.6-1.3,0.8
													c0,0,0.5-0.4,1.2-0.9S729.6,6620,729.7,6620.1z"/>
											</g>
										</g>
									</g>
								</g>
							</g>
						</g>
						<g id="Grupo_57971">
							<g id="Grupo_57970">
								<g id="Grupo_57969">
									<g id="Grupo_57968">
										<g id="Grupo_57967">
											<g id="Grupo_57966">
												<path id="Trazado_105960" class="st4" d="M731.3,6618.8c0,0,0,0.1,0.1,0.3s0.1,0.3,0.1,0.3s-0.1-0.1-0.2-0.3
													S731.2,6618.8,731.3,6618.8z"/>
											</g>
										</g>
									</g>
								</g>
							</g>
						</g>
						<g id="Grupo_57977">
							<g id="Grupo_57976">
								<g id="Grupo_57975">
									<g id="Grupo_57974">
										<g id="Grupo_57973">
											<g id="Grupo_57972">
												<path id="Trazado_105961" class="st4" d="M731.3,6617.6c0,0,0,0.1,0,0.3s-0.1,0.3-0.1,0.3s0-0.1,0-0.3
													S731.2,6617.6,731.3,6617.6z"/>
											</g>
										</g>
									</g>
								</g>
							</g>
						</g>
						<g id="Grupo_57983">
							<g id="Grupo_57982">
								<g id="Grupo_57981">
									<g id="Grupo_57980">
										<g id="Grupo_57979">
											<g id="Grupo_57978">
												<path id="Trazado_105962" class="st4" d="M731.9,6616.6c0,0-0.1,0.1-0.2,0.3s-0.1,0.3-0.2,0.3s-0.1-0.2,0.1-0.3
													S731.9,6616.5,731.9,6616.6z"/>
											</g>
										</g>
									</g>
								</g>
							</g>
						</g>
						<g id="Grupo_57989">
							<g id="Grupo_57988">
								<g id="Grupo_57987">
									<g id="Grupo_57986">
										<g id="Grupo_57985">
											<g id="Grupo_57984">
												<path id="Trazado_105963" class="st4" d="M732.3,6615.9c0,0,0,0.1,0,0.2s-0.1,0.1-0.1,0.1s0-0.1,0-0.2
													S732.3,6615.9,732.3,6615.9z"/>
											</g>
										</g>
									</g>
								</g>
							</g>
						</g>
					</g>
				</g>
				<g id="Grupo_57994" class="st7">
					<g id="Grupo_57993">
						<g id="Grupo_57992">
							<path id="Trazado_105964" class="st6" d="M732.2,6615.2l-8.2,6.3l-0.8-1l8.7-5.9L732.2,6615.2z"/>
						</g>
					</g>
				</g>
			</g>
			<g id="Grupo_58102">
				<g id="Grupo_58098">
					<g id="Grupo_58097">
						<g id="Grupo_58001">
							<g id="Grupo_58000">
								<g id="Grupo_57999">
									<g id="Grupo_57998">
										<g id="Grupo_57997">
											<g id="Grupo_57996">
												<path id="Trazado_105965" class="st6" d="M687,6626.6l0-5.5l10.4,0l0.1,8.1l-0.6,0c-2.9,0.2-14.6,0.7-16.5,0.1
													C678.2,6628.7,687,6626.6,687,6626.6z"/>
											</g>
										</g>
									</g>
								</g>
							</g>
						</g>
						<g id="Grupo_58006" class="st11">
							<g id="Grupo_58005">
								<g id="Grupo_58004">
									<g id="Grupo_58003">
										<g id="Grupo_58002">
											<path id="Trazado_105966" class="st8" d="M682.7,6627.8c0,0-3.1,0.9-2.7,1.4s12.2,0.5,17.5,0l0-0.2l-13.8,0.2
												C683.7,6629.1,683.3,6627.8,682.7,6627.8z"/>
										</g>
									</g>
								</g>
							</g>
						</g>
						<g id="Grupo_58012">
							<g id="Grupo_58011">
								<g id="Grupo_58010">
									<g id="Grupo_58009">
										<g id="Grupo_58008">
											<g id="Grupo_58007">
												<path id="Trazado_105967" class="st4" d="M697.6,6628.9c-0.1,0-0.1,0-0.2,0l-0.5,0l-1.9,0.1c-1.6,0.1-3.8,0.1-6.2,0.1
													s-4.6,0-6.2-0.1l-1.9-0.1l-0.5,0c-0.1,0-0.1,0-0.2,0c0.1,0,0.1,0,0.2,0h0.5l1.9,0c1.6,0,3.8,0,6.2,0s4.6-0.1,6.2-0.1
													l1.9,0l0.5,0C697.5,6628.9,697.6,6628.9,697.6,6628.9z"/>
											</g>
										</g>
									</g>
								</g>
							</g>
						</g>
						<g id="Grupo_58018">
							<g id="Grupo_58017">
								<g id="Grupo_58016">
									<g id="Grupo_58015">
										<g id="Grupo_58014">
											<g id="Grupo_58013">
												<path id="Trazado_105968" class="st4" d="M683.7,6629.3c-0.1-0.3-0.2-0.6-0.4-0.9c-0.2-0.3-0.4-0.5-0.6-0.7
													C683.3,6627.9,683.7,6628.6,683.7,6629.3L683.7,6629.3z"/>
											</g>
										</g>
									</g>
								</g>
							</g>
						</g>
						<g id="Grupo_58024">
							<g id="Grupo_58023">
								<g id="Grupo_58022">
									<g id="Grupo_58021">
										<g id="Grupo_58020">
											<g id="Grupo_58019">
												<path id="Trazado_105969" class="st4" d="M686.7,6627.7c0,0-0.2-0.2-0.3-0.4s-0.3-0.4-0.2-0.5s0.2,0.2,0.3,0.4
													S686.7,6627.7,686.7,6627.7z"/>
											</g>
										</g>
									</g>
								</g>
							</g>
						</g>
						<g id="Grupo_58030">
							<g id="Grupo_58029">
								<g id="Grupo_58028">
									<g id="Grupo_58027">
										<g id="Grupo_58026">
											<g id="Grupo_58025">
												<path id="Trazado_105970" class="st4" d="M687.6,6627.3c0,0-0.2-0.1-0.4-0.2s-0.3-0.3-0.3-0.3s0.2,0.1,0.4,0.2
													S687.6,6627.2,687.6,6627.3z"/>
											</g>
										</g>
									</g>
								</g>
							</g>
						</g>
						<g id="Grupo_58042">
							<g id="Grupo_58041">
								<g id="Grupo_58040">
									<g id="Grupo_58039">
										<g id="Grupo_58038">
											<g id="Grupo_58037">
												<path id="Trazado_105972" class="st4" d="M688.3,6625.6c-0.4,0.2-0.8,0.2-1.2,0.1
													C687.4,6625.7,687.8,6625.6,688.3,6625.6z"/>
											</g>
										</g>
									</g>
								</g>
							</g>
						</g>
						<g id="Grupo_58048">
							<g id="Grupo_58047">
								<g id="Grupo_58046">
									<g id="Grupo_58045">
										<g id="Grupo_58044">
											<g id="Grupo_58043">
												<path id="Trazado_105973" class="st4" d="M686.4,6626.8c-0.2,0-0.4,0-0.7,0c-0.2,0-0.5-0.1-0.7-0.2
													c-0.1,0-0.3-0.1-0.4-0.2c-0.1,0-0.1-0.1-0.2-0.2c0-0.1,0-0.2,0.1-0.3c0.5-0.3,1.2-0.1,1.5,0.4c0.1,0.1,0.2,0.3,0.2,0.4
													c0,0.1,0,0.1,0,0.2c-0.1-0.2-0.2-0.4-0.3-0.6c-0.2-0.2-0.3-0.3-0.6-0.4c-0.3-0.1-0.6-0.1-0.8,0.1
													c-0.1,0.1-0.1,0.2,0.1,0.3c0.1,0.1,0.2,0.1,0.4,0.2c0.2,0.1,0.5,0.1,0.7,0.2C686.1,6626.8,686.4,6626.8,686.4,6626.8z"
													/>
											</g>
										</g>
									</g>
								</g>
							</g>
						</g>
						<g id="Grupo_58054">
							<g id="Grupo_58053">
								<g id="Grupo_58052">
									<g id="Grupo_58051">
										<g id="Grupo_58050">
											<g id="Grupo_58049">
												<path id="Trazado_105974" class="st4" d="M686.2,6626.8c-0.1-0.1-0.1-0.3-0.1-0.5c0-0.2,0.1-0.3,0.2-0.5
													c0.1-0.2,0.3-0.3,0.6-0.3c0.1,0,0.2,0.2,0.2,0.3c0,0.1-0.1,0.2-0.1,0.3c-0.1,0.1-0.2,0.3-0.3,0.4
													C686.5,6626.7,686.4,6626.8,686.2,6626.8c0,0,0.2-0.1,0.4-0.3c0.1-0.1,0.2-0.3,0.3-0.4c0.1-0.1,0.2-0.4,0-0.4
													s-0.3,0.2-0.4,0.3c-0.1,0.1-0.2,0.3-0.2,0.4C686.2,6626.5,686.2,6626.7,686.2,6626.8z"/>
											</g>
										</g>
									</g>
								</g>
							</g>
						</g>
						<g id="Grupo_58060">
							<g id="Grupo_58059">
								<g id="Grupo_58058">
									<g id="Grupo_58057">
										<g id="Grupo_58056">
											<g id="Grupo_58055">
												<path id="Trazado_105975" class="st4" d="M697.4,6626.1c0,0-0.3,0-0.8,0c-1.2,0.1-2.3,1-2.7,2.2
													c-0.2,0.4-0.2,0.7-0.2,0.7c0-0.1,0-0.1,0-0.2c0-0.2,0.1-0.4,0.1-0.6c0.4-1.3,1.5-2.1,2.8-2.2c0.2,0,0.4,0,0.6,0
													C697.3,6626,697.4,6626.1,697.4,6626.1z"/>
											</g>
										</g>
									</g>
								</g>
							</g>
						</g>
						<g id="Grupo_58066">
							<g id="Grupo_58065">
								<g id="Grupo_58064">
									<g id="Grupo_58063">
										<g id="Grupo_58062">
											<g id="Grupo_58061">
												<path id="Trazado_105976" class="st4" d="M696.3,6621.8c0.1,1.4,0.1,2.8,0.1,4.3
													C696.3,6624.6,696.3,6623.2,696.3,6621.8z"/>
											</g>
										</g>
									</g>
								</g>
							</g>
						</g>
						<g id="Grupo_58072">
							<g id="Grupo_58071">
								<g id="Grupo_58070">
									<g id="Grupo_58069">
										<g id="Grupo_58068">
											<g id="Grupo_58067">
												<path id="Trazado_105977" class="st4" d="M692.4,6628.1c-0.5,0.1-1,0.2-1.5,0.2c-0.5,0-1,0-1.5-0.1c0,0,0.7,0,1.5,0
													S692.4,6628.1,692.4,6628.1z"/>
											</g>
										</g>
									</g>
								</g>
							</g>
						</g>
						<g id="Grupo_58078">
							<g id="Grupo_58077">
								<g id="Grupo_58076">
									<g id="Grupo_58075">
										<g id="Grupo_58074">
											<g id="Grupo_58073">
												<path id="Trazado_105978" class="st4" d="M694.5,6628.1c0,0-0.1,0.1-0.1,0.3s-0.1,0.3-0.1,0.3s-0.1-0.2,0-0.3
													S694.4,6628.1,694.5,6628.1z"/>
											</g>
										</g>
									</g>
								</g>
							</g>
						</g>
						<g id="Grupo_58084">
							<g id="Grupo_58083">
								<g id="Grupo_58082">
									<g id="Grupo_58081">
										<g id="Grupo_58080">
											<g id="Grupo_58079">
												<path id="Trazado_105979" class="st4" d="M695.2,6627.1c0,0,0,0.1-0.1,0.2s-0.2,0.2-0.2,0.2s0-0.1,0.1-0.2
													S695.2,6627.1,695.2,6627.1z"/>
											</g>
										</g>
									</g>
								</g>
							</g>
						</g>
						<g id="Grupo_58090">
							<g id="Grupo_58089">
								<g id="Grupo_58088">
									<g id="Grupo_58087">
										<g id="Grupo_58086">
											<g id="Grupo_58085">
												<path id="Trazado_105980" class="st4" d="M696.3,6626.7c0,0-0.1,0-0.3,0.1s-0.3,0.1-0.3,0.1s0.1-0.2,0.2-0.2
													S696.3,6626.6,696.3,6626.7z"/>
											</g>
										</g>
									</g>
								</g>
							</g>
						</g>
						<g id="Grupo_58096">
							<g id="Grupo_58095">
								<g id="Grupo_58094">
									<g id="Grupo_58093">
										<g id="Grupo_58092">
											<g id="Grupo_58091">
												<path id="Trazado_105981" class="st4" d="M697.1,6626.5c0,0,0,0.1-0.1,0.1s-0.2,0-0.2,0s0-0.1,0.1-0.1
													S697.1,6626.4,697.1,6626.5z"/>
											</g>
										</g>
									</g>
								</g>
							</g>
						</g>
					</g>
				</g>
				<g id="Grupo_58101" class="st7">
					<g id="Grupo_58100">
						<g id="Grupo_58099">
							<path id="Trazado_105982" class="st6" d="M697.5,6625.7l-10.5,0l0-1.3l10.4-0.1L697.5,6625.7z"/>
						</g>
					</g>
				</g>
			</g>
			<g id="Grupo_58118">
				<g id="Grupo_58105">
					<g id="Grupo_58104">
						<g id="Grupo_58103">
							<path id="Trazado_105983" class="st9" d="M712.7,6530.9l-4.2,12.5c-1.1,3.4-4.1,4-7.6,4h-23.1v-5.2l21.1-3l5-12.9
								L712.7,6530.9z"/>
						</g>
					</g>
				</g>
				<g id="Grupo_58117">
					<g id="Grupo_58108">
						<g id="Grupo_58107">
							<g id="Grupo_58106">
								<path id="Trazado_105984" class="st9" d="M675.2,6541.1l-1.8-0.9c0,0-2-3.8-2.4-3.7s-0.6,1.3,0.2,3l-2.4-0.7
									c0,0-5.3,2.4-5.1,2.8c0.3,0.6,1,0.9,1.6,0.6c0.1,0,0.1-0.1,0.2-0.1c1.2-0.6,2.7-1.3,2.7-1.3l2.8,0.8l-3.7,0.5l-3.5,3.1
									c0.6,0.5,1.5,0.5,2.1-0.1l9,1.9l2.8,0.2v-5.2L675.2,6541.1z"/>
							</g>
						</g>
					</g>
					<g id="Grupo_58112">
						<g id="Grupo_58111">
							<g id="Grupo_58110">
								<g id="Grupo_58109">
									<path id="Trazado_105985" class="st10" d="M665.9,6545.3c0,0,0.2-0.2,0.5-0.6c0.2-0.2,0.4-0.4,0.7-0.5
										c0.3-0.1,0.6-0.2,1-0.3c0.2,0.7,0.9,1.2,1.6,1c0.7-0.2,1.2-0.9,1-1.6s-0.9-1.2-1.6-1c-0.6,0.1-1.1,0.7-1.1,1.4
										c-0.4,0-0.7,0.1-1.1,0.3c-0.3,0.2-0.5,0.4-0.7,0.6C666.1,6544.8,666,6545,665.9,6545.3z"/>
								</g>
							</g>
						</g>
					</g>
					<g id="Grupo_58116">
						<g id="Grupo_58115">
							<g id="Grupo_58114">
								<g id="Grupo_58113">
									<path id="Trazado_105986" class="st10" d="M667.3,6545.7c0,0,0.1-0.2,0.3-0.2s0.7-0.1,1.1-0.1c0.5,0,1.1-0.1,1.6-0.2
										c-0.5-0.2-1.1-0.2-1.6-0.1c-0.4,0-0.8,0.1-1.1,0.2c-0.1,0-0.2,0.2-0.3,0.3C667.3,6545.6,667.3,6545.7,667.3,6545.7z"/>
								</g>
							</g>
						</g>
					</g>
				</g>
			</g>
			<g id="Grupo_58139">
				<g id="Grupo_58130">
					<g id="Grupo_58125">
						<g id="Grupo_58124">
							<g id="Grupo_58123">
								<g id="Grupo_58122">
									<g id="Grupo_58121">
										<g id="Grupo_58120">
											<g id="Grupo_58119">
												<path id="Trazado_105987" class="st6" d="M714.6,6528.2l-1.8,6l-11.3-5.1c0.4-1.3,2.3-6.9,5.8-15.8
													c2-5,6.4-8.6,11.7-9.4c3.6-0.6,7.2-1,10.8-1.1c6.3,0.1,15.7,4,16.9,10.2c1,4.7,0,13.1,0,23.3l-0.8,19.4l-32.5,1.1
													L714.6,6528.2z"/>
											</g>
										</g>
									</g>
								</g>
							</g>
						</g>
					</g>
					<g id="Grupo_58129" class="st7">
						<g id="Grupo_58128">
							<g id="Grupo_58127">
								<g id="Grupo_58126">
									<path id="Trazado_105988" class="st6" d="M746.9,6531.8c-4,0.8-8,0-12-0.2c-2.4-0.1-5.1-0.4-7.1,1.1
										c-1.5,1.2-2.1,3.2-2.6,5.1c-1.7,7.2-2,12-2.4,19.4l19.5,1.2L746.9,6531.8z"/>
								</g>
							</g>
						</g>
					</g>
				</g>
				<g id="Grupo_58134">
					<g id="Grupo_58133">
						<g id="Grupo_58132">
							<g id="Grupo_58131">
								<path id="Trazado_105989" class="st4" d="M713.8,6507.1c0,0,0.3,0,0.9,0.3c0.7,0.3,1.4,0.8,1.9,1.5c0.7,1,1.1,2.2,1.1,3.4
									c0,1.5-0.1,3-0.3,4.5c-0.5,2.7-1.1,5.3-1.8,8c-0.3,1-0.5,1.8-0.7,2.4c-0.1,0.3-0.2,0.6-0.2,0.9c0.1-0.3,0.2-0.6,0.3-0.9
									c0.2-0.6,0.4-1.4,0.7-2.4c0.8-2.6,1.4-5.3,1.9-8c0.3-1.5,0.4-3,0.3-4.5c-0.1-1.3-0.5-2.5-1.2-3.5c-0.5-0.7-1.2-1.2-2-1.5
									c-0.2-0.1-0.4-0.1-0.7-0.2C714,6507.1,713.9,6507.1,713.8,6507.1z"/>
							</g>
						</g>
					</g>
				</g>
				<g id="Grupo_58138">
					<g id="Grupo_58137">
						<g id="Grupo_58136">
							<g id="Grupo_58135">
								<path id="Trazado_105990" class="st4" d="M701.9,6527.5c0.5,0.3,1,0.7,1.6,0.9c1,0.5,2.4,1.2,4,1.9s3,1.3,4.1,1.7
									c0.6,0.2,1.1,0.4,1.7,0.6c-0.5-0.3-1.1-0.6-1.7-0.8c-1-0.5-2.5-1.1-4-1.8s-3-1.4-4-1.9
									C703.1,6528,702.5,6527.8,701.9,6527.5z"/>
							</g>
						</g>
					</g>
				</g>
			</g>
			<g id="Grupo_58150">
				<g id="Grupo_58142">
					<g id="Grupo_58141">
						<g id="Grupo_58140">
							<path id="Trazado_105991" class="st4" d="M696.7,6558.3c-5.5,3-7.6,9.9-4.7,15.5l28.3,48.5l13-7.9l-21.9-43.8l15.9-10.4"/>
						</g>
					</g>
				</g>
				<g id="Grupo_58149">
					<g id="Grupo_58145">
						<g id="Grupo_58144">
							<g id="Grupo_58143">
								<path id="Trazado_105992" class="st4" d="M731.1,6555.9l-38.8,1.4c-6.3,0.2-11.3,5.4-11.2,11.7l1.6,55.4l16.3,0l-0.5-52.4
									l32.6-0.9L731.1,6555.9z"/>
							</g>
						</g>
					</g>
					<g id="Grupo_58148">
						<g id="Grupo_58147">
							<g id="Grupo_58146">
								<path id="Trazado_105993" class="st5" d="M698.6,6573.9c0,0.2,0,0.3,0,0.5c0,0.4,0,0.9,0.1,1.5c0,1.3,0.1,3.1,0.1,5.4
									c0.1,4.6,0.2,10.9,0.2,17.8c0,7,0.1,13.2,0.1,17.8c0,2.3,0,4.1,0,5.4c0,0.6,0,1.1,0,1.5c0,0.2,0,0.3,0,0.5
									c0-0.2,0-0.3,0-0.5c0-0.4,0-0.9-0.1-1.5c0-1.3-0.1-3.1-0.1-5.4c-0.1-4.6-0.2-10.9-0.2-17.8c0-7-0.1-13.2-0.1-17.8
									c0-2.3,0-4.1,0-5.4c0-0.6,0-1.1,0-1.5C698.5,6574.2,698.6,6574.1,698.6,6573.9z"/>
							</g>
						</g>
					</g>
				</g>
			</g>
		</g>
		<g id="Grupo_58159">
			<g id="Grupo_58153">
				<g id="Grupo_58152">
					<path id="Trazado_105994" class="st5" d="M747.9,6520.7h-11.7c-4.7,0-8.6,3.8-8.6,8.6v40.9h-23.4c-3.3,0-5.9,2.7-5.9,5.9h53.5
						v0c2.6-0.1,4.7-2.3,4.7-4.9v-41.9C756.5,6524.6,752.7,6520.7,747.9,6520.7C747.9,6520.7,747.9,6520.7,747.9,6520.7z"/>
				</g>
			</g>
			<g id="Grupo_58156">
				<g id="Grupo_58155">
					<g id="Grupo_58154">
						<path id="Trazado_105995" class="st4" d="M731.1,6522.1c0.1,0,0.2,12,0.2,26.9s-0.1,26.9-0.2,26.9s-0.2-12-0.2-26.9
							S731,6522.1,731.1,6522.1z"/>
					</g>
				</g>
			</g>
			<g id="Grupo_58158">
				<g id="Grupo_58157">
					<path id="Trazado_105996" class="st5" d="M729.6,6619.1v-42.9h-3.8v42.9c-2.3,4.6-7.8,7.7-14.5,10.2h34
						C738.4,6626.5,732.2,6624.4,729.6,6619.1z"/>
				</g>
			</g>
		</g>
	</g>
	<g id="Grupo_58224">
		<g id="Grupo_58218">
			<g id="Grupo_58162">
				<g id="Grupo_58161">
					<path id="Trazado_105997" class="st4" d="M554.2,6613.6c0-0.1,0.1-0.2,0.1-0.3c0.1-0.2,0.2-0.4,0.3-0.7c0.4-0.9,0.7-1.9,1-2.9
						c0.8-3.7,0.8-7.6-0.1-11.3c-0.5-2.6-1.2-5.1-2.1-7.6c-0.9-2.7-1.9-5.5-2.8-8.6c-0.9-3.2-1.4-6.6-1.4-9.9
						c0.3-3.6,1.1-7.1,2.3-10.5c1.2-3.3,2.1-6.8,2.7-10.3c0.4-3.3-0.3-6.6-1.9-9.5c-1.5-2.8-3.4-5.2-4.8-7.6
						c-1.3-2.3-2.3-4.8-2.9-7.3c-0.9-3.7-0.9-7.6-0.2-11.4c0.3-1.4,0.7-2.7,1.2-4c0,0.1,0,0.2-0.1,0.3c-0.1,0.2-0.1,0.4-0.2,0.8
						c-0.3,1-0.5,2-0.7,3c-0.7,3.7-0.6,7.6,0.3,11.3c0.6,2.5,1.6,5,2.9,7.2c1.4,2.4,3.3,4.8,4.9,7.6c1.7,3,2.3,6.4,2,9.7
						c-0.5,3.6-1.4,7-2.7,10.4c-1.2,3.3-2,6.8-2.3,10.4c-0.1,3.3,0.4,6.6,1.3,9.8c0.8,3.1,1.8,5.9,2.7,8.6c0.9,2.5,1.5,5,2.1,7.6
						c0.8,3.7,0.8,7.6,0,11.3c-0.3,1-0.6,2-1.1,2.9l-0.4,0.7C554.3,6613.4,554.2,6613.5,554.2,6613.6z"/>
				</g>
			</g>
			<g id="Grupo_58166">
				<g id="Grupo_58163">
					<path id="Trazado_105998" class="st6" d="M549.5,6536.8c0,0-2.9-9.2,2.3-14.6c0.1-0.1,0.3-0.1,0.5,0c0.1,0,0.1,0.1,0.1,0.2
						C552.6,6523.8,553,6528.5,549.5,6536.8z"/>
				</g>
				<g id="Grupo_58165">
					<g id="Grupo_58164">
						<path id="Trazado_105999" class="st4" d="M551.3,6525.2c0,0.6-0.1,1.1-0.2,1.7c-0.2,1.2-0.4,2.5-0.7,4.1s-0.5,2.9-0.6,4.1
							c0,0.6-0.2,1.1-0.3,1.7c-0.1-0.6,0-1.1,0.1-1.7c0.1-1.1,0.3-2.5,0.5-4.1s0.5-3,0.8-4.1C550.9,6526.3,551,6525.8,551.3,6525.2z
							"/>
					</g>
				</g>
			</g>
			<g id="Grupo_58170">
				<g id="Grupo_58167">
					<path id="Trazado_106000" class="st6" d="M552.9,6558.6c0,0,1.8-9.5,8.9-11.9c0.2-0.1,0.3,0,0.4,0.2c0,0.1,0,0.1,0,0.2
						C561.7,6548.6,559.9,6552.8,552.9,6558.6z"/>
				</g>
				<g id="Grupo_58169">
					<g id="Grupo_58168">
						<path id="Trazado_106001" class="st4" d="M559.9,6549.1c-0.3,0.5-0.6,1-1,1.4c-0.7,0.9-1.6,2.1-2.5,3.3l-2.5,3.3
							c-0.3,0.5-0.7,0.9-1.1,1.3c0.2-0.5,0.5-1,0.8-1.5c0.6-0.9,1.4-2.1,2.4-3.4s1.9-2.4,2.6-3.2
							C559,6549.9,559.4,6549.5,559.9,6549.1z"/>
					</g>
				</g>
			</g>
			<g id="Grupo_58174">
				<g id="Grupo_58171">
					<path id="Trazado_106002" class="st6" d="M551,6582.4c0,0-1.1-9.6,5-13.9c0.1-0.1,0.3-0.1,0.4,0.1c0,0.1,0.1,0.1,0.1,0.2
						C556.5,6570.3,556,6574.9,551,6582.4z"/>
				</g>
				<g id="Grupo_58173">
					<g id="Grupo_58172">
						<path id="Trazado_106003" class="st4" d="M554.9,6571.4c-0.1,0.6-0.3,1.1-0.5,1.6c-0.4,1.1-0.9,2.4-1.4,3.9s-1,2.8-1.4,3.9
							c-0.2,0.5-0.4,1.1-0.6,1.6c0.1-0.6,0.2-1.1,0.4-1.7c0.3-1,0.8-2.4,1.3-3.9s1.1-2.9,1.5-3.8
							C554.3,6572.4,554.6,6571.9,554.9,6571.4z"/>
					</g>
				</g>
			</g>
			<g id="Grupo_58178">
				<g id="Grupo_58175">
					<path id="Trazado_106004" class="st6" d="M556.3,6606.4c0,0-0.7-9.6,5.5-13.7c0.1-0.1,0.3-0.1,0.4,0.1c0,0.1,0.1,0.1,0.1,0.2
						C562.3,6594.5,561.6,6599.1,556.3,6606.4z"/>
				</g>
				<g id="Grupo_58177">
					<g id="Grupo_58176">
						<path id="Trazado_106005" class="st4" d="M560.6,6595.5c-0.1,0.6-0.3,1.1-0.6,1.6c-0.4,1.1-1,2.4-1.6,3.8l-1.5,3.8
							c-0.2,0.5-0.4,1.1-0.7,1.6c0.1-0.6,0.2-1.1,0.4-1.7c0.3-1,0.8-2.4,1.5-3.9s1.2-2.8,1.7-3.8
							C560,6596.5,560.3,6596,560.6,6595.5z"/>
					</g>
				</g>
			</g>
			<g id="Grupo_58182">
				<g id="Grupo_58179">
					<path id="Trazado_106006" class="st6" d="M545.4,6528.7c0,0-8.6-4.5-8.7-12c0-0.2,0.1-0.3,0.3-0.3c0.1,0,0.1,0,0.2,0.1
						C538.4,6517.3,541.9,6520.4,545.4,6528.7z"/>
				</g>
				<g id="Grupo_58181">
					<g id="Grupo_58180">
						<path id="Trazado_106007" class="st4" d="M538.4,6519.3c0.4,0.4,0.8,0.9,1.1,1.3l2.4,3.3c0.9,1.2,1.7,2.4,2.4,3.3
							c0.4,0.4,0.7,0.9,1,1.4c-0.4-0.4-0.8-0.8-1.2-1.2c-0.7-0.8-1.6-2-2.5-3.3s-1.8-2.5-2.3-3.4
							C538.9,6520.3,538.6,6519.8,538.4,6519.3z"/>
					</g>
				</g>
			</g>
			<g id="Grupo_58186">
				<g id="Grupo_58183">
					<path id="Trazado_106008" class="st6" d="M554.6,6548.5c0,0-8.8-3.9-9.5-11.4c0-0.2,0.1-0.3,0.3-0.4c0.1,0,0.1,0,0.2,0
						C546.9,6537.6,550.6,6540.4,554.6,6548.5z"/>
				</g>
				<g id="Grupo_58185">
					<g id="Grupo_58184">
						<path id="Trazado_106009" class="st4" d="M547.1,6539.5c0.4,0.4,0.8,0.8,1.1,1.3l2.6,3.2c1,1.2,1.9,2.3,2.6,3.2
							c0.4,0.4,0.7,0.9,1.1,1.3c-0.5-0.3-0.9-0.7-1.3-1.2c-0.7-0.8-1.7-1.9-2.7-3.1s-1.9-2.4-2.5-3.3
							C547.6,6540.5,547.3,6540.1,547.1,6539.5z"/>
					</g>
				</g>
			</g>
			<g id="Grupo_58190">
				<g id="Grupo_58187">
					<path id="Trazado_106010" class="st6" d="M549.5,6570.6c0,0-6.1-7.5-3.2-14.5c0.1-0.2,0.2-0.2,0.4-0.2c0.1,0,0.1,0.1,0.2,0.1
						C547.7,6557.4,549.7,6561.6,549.5,6570.6z"/>
				</g>
				<g id="Grupo_58189">
					<g id="Grupo_58188">
						<path id="Trazado_106011" class="st4" d="M546.9,6559.2c0.2,0.5,0.4,1.1,0.4,1.7l0.9,4c0.3,1.5,0.6,2.9,0.9,4
							c0.2,0.5,0.3,1.1,0.3,1.7c-0.3-0.5-0.5-1.1-0.6-1.6c-0.3-1-0.7-2.4-1-4s-0.6-3-0.8-4.1C547,6560.4,546.9,6559.8,546.9,6559.2z
							"/>
					</g>
				</g>
			</g>
			<g id="Grupo_58194">
				<g id="Grupo_58191">
					<path id="Trazado_106012" class="st6" d="M555.5,6596.6c0,0-8.8-4.1-9.3-11.6c0-0.2,0.1-0.3,0.3-0.3c0.1,0,0.1,0,0.2,0
						C548,6585.6,551.7,6588.5,555.5,6596.6z"/>
				</g>
				<g id="Grupo_58193">
					<g id="Grupo_58192">
						<path id="Trazado_106013" class="st4" d="M548.1,6587.6c0.4,0.4,0.8,0.8,1.1,1.3l2.6,3.2l2.6,3.2c0.4,0.4,0.7,0.9,1,1.4
							c-0.5-0.3-0.9-0.8-1.2-1.2c-0.7-0.8-1.7-1.9-2.7-3.2s-1.9-2.4-2.5-3.3C548.7,6588.6,548.4,6588.1,548.1,6587.6z"/>
					</g>
				</g>
			</g>
			<g id="Grupo_58217">
				<g id="Grupo_58196">
					<g id="Grupo_58195">
						<path id="Trazado_106014" class="st4" d="M573,6558.6c0,0.1,0,0.1,0,0.2c0,0.2,0,0.4,0,0.6c0,0.6-0.1,1.4-0.1,2.3
							c-0.1,2.1-0.3,4.9-0.5,8.4v0v0c-0.9,4-2.5,7.8-4.8,11.1c-1.8,2.8-3.6,5.3-5.2,7.6c-1.4,2-2.7,4.2-3.9,6.4
							c-0.8,1.5-1.4,3.1-1.8,4.7c-0.2,0.6-0.3,1-0.3,1.3c0,0.2-0.1,0.3-0.1,0.5c0-0.2,0-0.3,0.1-0.5c0-0.3,0.1-0.8,0.3-1.4
							c0.4-1.7,1-3.3,1.7-4.8c1.1-2.3,2.4-4.4,3.8-6.5c1.6-2.4,3.4-4.9,5.2-7.6c2.3-3.3,3.9-7.1,4.8-11v0c0.2-3.4,0.4-6.3,0.6-8.4
							c0.1-1,0.1-1.8,0.2-2.3c0-0.2,0-0.4,0.1-0.6C572.9,6558.7,572.9,6558.7,573,6558.6z"/>
					</g>
				</g>
				<g id="Grupo_58201">
					<g id="Grupo_58197">
						<path id="Trazado_106015" class="st6" d="M567.7,6580.6c0,0,3.7-8.9-1-14.8c-0.1-0.1-0.3-0.2-0.4-0.1c-0.1,0-0.1,0.1-0.1,0.2
							C565.8,6567.4,565,6572,567.7,6580.6z"/>
					</g>
					<g id="Grupo_58199">
						<g id="Grupo_58198">
							<path id="Trazado_106016" class="st4" d="M567.1,6568.9c0.2,0.6,0.3,1.1,0.3,1.7c0.1,1,0.3,2.5,0.4,4.1s0.2,3.1,0.2,4.1
								c0,0.6,0,1.1-0.1,1.7c-0.1-0.6-0.2-1.1-0.2-1.7c-0.1-1.2-0.2-2.6-0.3-4.1s-0.2-2.9-0.3-4.1
								C567,6570.1,567,6569.5,567.1,6568.9z"/>
						</g>
					</g>
					<g id="Grupo_58200" class="st7">
						<path id="Trazado_106017" class="st6" d="M567.7,6580.6c0,0,3.7-8.9-1-14.8c-0.1-0.1-0.3-0.2-0.4-0.1c-0.1,0-0.1,0.1-0.1,0.2
							C565.8,6567.4,565,6572,567.7,6580.6z"/>
					</g>
				</g>
				<g id="Grupo_58206">
					<g id="Grupo_58202">
						<path id="Trazado_106018" class="st6" d="M556.2,6602.1c0,0,3-9.2-2.2-14.7c-0.1-0.1-0.3-0.1-0.5,0c-0.1,0-0.1,0.1-0.1,0.2
							C553.3,6589.1,552.9,6593.8,556.2,6602.1z"/>
					</g>
					<g id="Grupo_58204">
						<g id="Grupo_58203">
							<path id="Trazado_106019" class="st4" d="M554.6,6590.5c0.2,0.5,0.3,1.1,0.4,1.7c0.2,1,0.5,2.5,0.7,4.1s0.4,3,0.5,4.1
								c0.1,0.6,0.1,1.1,0,1.7c-0.1-0.6-0.2-1.1-0.3-1.7c-0.2-1.2-0.4-2.6-0.6-4.1s-0.4-2.9-0.6-4.1
								C554.7,6591.7,554.6,6591.1,554.6,6590.5z"/>
						</g>
					</g>
					<g id="Grupo_58205" class="st7">
						<path id="Trazado_106020" class="st6" d="M556.2,6602.1c0,0,3-9.2-2.2-14.7c-0.1-0.1-0.3-0.1-0.5,0c-0.1,0-0.1,0.1-0.1,0.2
							C553.3,6589.1,552.9,6593.8,556.2,6602.1z"/>
					</g>
				</g>
				<g id="Grupo_58211">
					<g id="Grupo_58207">
						<path id="Trazado_106021" class="st6" d="M572.5,6569.7c0,0,7.9-5.5,7.1-13c0-0.2-0.2-0.3-0.3-0.3c-0.1,0-0.1,0-0.2,0.1
							C577.9,6557.5,574.8,6561,572.5,6569.7z"/>
					</g>
					<g id="Grupo_58208" class="st7">
						<path id="Trazado_106022" class="st6" d="M572.5,6569.7c0,0,7.9-5.5,7.1-13c0-0.2-0.2-0.3-0.3-0.3c-0.1,0-0.1,0-0.2,0.1
							C577.9,6557.5,574.8,6561,572.5,6569.7z"/>
					</g>
					<g id="Grupo_58210">
						<g id="Grupo_58209">
							<path id="Trazado_106023" class="st4" d="M578.2,6559.5c-0.2,0.6-0.4,1.1-0.7,1.6c-0.5,1-1.1,2.3-1.9,3.7s-1.5,2.7-2.1,3.6
								c-0.3,0.5-0.6,1-1,1.4c0.2-0.5,0.5-1,0.8-1.5l2-3.6l2-3.6C577.5,6560.4,577.8,6559.9,578.2,6559.5z"/>
						</g>
					</g>
				</g>
				<g id="Grupo_58216">
					<g id="Grupo_58212">
						<path id="Trazado_106024" class="st6" d="M559.4,6593c0,0,9.6-1.5,12.1-8.5c0.1-0.2,0-0.4-0.2-0.4c-0.1,0-0.1,0-0.2,0
							C569.7,6584.5,565.4,6586.2,559.4,6593z"/>
					</g>
					<g id="Grupo_58213" class="st7">
						<path id="Trazado_106025" class="st6" d="M559.4,6593c0,0,9.6-1.5,12.1-8.5c0.1-0.2,0-0.4-0.2-0.4c-0.1,0-0.1,0-0.2,0
							C569.7,6584.5,565.4,6586.2,559.4,6593z"/>
					</g>
					<g id="Grupo_58215">
						<g id="Grupo_58214">
							<path id="Trazado_106026" class="st4" d="M569,6586.3c-0.4,0.4-0.8,0.8-1.3,1.1c-0.8,0.7-2,1.5-3.3,2.5s-2.5,1.7-3.4,2.3
								c-0.5,0.3-1,0.6-1.5,0.8c0.4-0.4,0.9-0.7,1.4-1l3.4-2.4l3.4-2.4C568.1,6586.9,568.5,6586.6,569,6586.3z"/>
						</g>
					</g>
				</g>
			</g>
		</g>
		<g id="Grupo_58219">
			<path id="Trazado_106027" class="st5" d="M550.3,6610.6l-2.8,18.8h17.4l-2.3-18.8H550.3z"/>
		</g>
		<g id="Grupo_58221">
			<g id="Grupo_58220">
				<path id="Trazado_106028" class="st4" d="M563.4,6616.4c-4.7,0.2-9.3,0.2-14,0C554,6616.2,558.7,6616.2,563.4,6616.4z"/>
			</g>
		</g>
		<g id="Grupo_58223">
			<g id="Grupo_58222">
				<path id="Trazado_106029" class="st4" d="M563.7,6617.9c0,0.1-3.2,0.2-7.2,0.2s-7.2-0.1-7.2-0.2s3.2-0.2,7.2-0.2
					S563.7,6617.8,563.7,6617.9z"/>
			</g>
		</g>
	</g>
</g>
</svg>
