<svg xmlns="http://www.w3.org/2000/svg" width="100" height="100" viewBox="0 0 100 100">
  <g id="Grupo_57455" data-name="Grupo 57455" transform="translate(-771.374 -3982.46)">
    <g id="Grupo_57450" data-name="Grupo 57450">
      <rect id="Rectángulo_5867" data-name="Rectángulo 5867" width="100" height="100" transform="translate(771.374 3982.46)" fill="#344154" opacity="0"/>
      <path id="Trazado_105550" data-name="Trazado 105550" d="M862.571,4033.314a41.2,41.2,0,1,1-41.2-41.2A41.2,41.2,0,0,1,862.571,4033.314Z" fill="#344154"/>
    </g>
    <g id="Grupo_57452" data-name="Grupo 57452">
      <g id="Grupo_57451" data-name="Grupo 57451">
        <path id="Trazado_105551" data-name="Trazado 105551" d="M833.846,4038.5a4.316,4.316,0,0,0,.218-6.657,3.6,3.6,0,0,0-1.334-3.436,3.524,3.524,0,0,0-2.606-.678,5.346,5.346,0,0,0-6.936-4.38,5.69,5.69,0,0,0-9.128,2.429,5.511,5.511,0,0,0-2.19.549,20.139,20.139,0,0,1,5.288-13.939.924.924,0,0,0-.784-1.542,22.065,22.065,0,0,0-16.738,11.1.924.924,0,1,0,1.612.9,20.234,20.234,0,0,1,12.951-9.751,21.986,21.986,0,0,0-4.108,14.657c-.018.023-.038.045-.056.068a5.659,5.659,0,0,0-.977,4.684,3.551,3.551,0,0,0,1.17,6.907h4.388a22.088,22.088,0,0,0,17.379,8.543,20.274,20.274,0,0,1-12.414,4.84,5.02,5.02,0,0,0-4.274-4.715,4.37,4.37,0,0,0-4.11-2.946c-.135,0-.27.006-.405.019a5.174,5.174,0,0,0-8.346-.757,20.307,20.307,0,0,1-1.571-2.578,20,20,0,0,1-2.056-11.533.924.924,0,1,0-1.834-.222,21.846,21.846,0,0,0,2.244,12.595,22.186,22.186,0,0,0,1.466,2.459,4.086,4.086,0,0,0-2.284,3.663,4.161,4.161,0,0,0,.028.489,5.065,5.065,0,0,0,3.462,8.77h12.672a5.021,5.021,0,0,0,4.744-3.389,22.084,22.084,0,0,0,15.779-7.127.924.924,0,0,0-.785-1.542,20.257,20.257,0,0,1-17.293-6.569h14.453a3.54,3.54,0,0,0,2.375-.912Zm-19.273,17.692H801.9a3.228,3.228,0,0,1-3.227-3.221,3.188,3.188,0,0,1,1.322-2.6.923.923,0,0,0,.343-1,2.237,2.237,0,0,1,2.159-2.834c.05,0,.1,0,.15.005a.927.927,0,0,0,.833-.452,3.329,3.329,0,0,1,5.94.435.924.924,0,0,0,1.1.541,2.5,2.5,0,0,1,3.137,2.015.925.925,0,0,0,.914.785,3.159,3.159,0,1,1,0,6.318Zm-4.344-18.627a1.7,1.7,0,1,1,0-3.41.924.924,0,0,0,.866-1.245,4.064,4.064,0,0,1,.405-3.963,3.432,3.432,0,0,1,2.781-1.326c.13,0,.262.006.4.019a.925.925,0,0,0,1-.747,3.837,3.837,0,0,1,5.737-2.562,5.353,5.353,0,0,0-1.918,4.09.924.924,0,1,0,1.848,0,3.5,3.5,0,0,1,1.991-3.146l.029-.012a3.447,3.447,0,0,1,1.471-.324,3.491,3.491,0,0,1,3.492,3.482,3.77,3.77,0,0,1-.03.469.924.924,0,0,0,1.383.911,1.748,1.748,0,0,1,1.94.079,1.915,1.915,0,0,1,.541,2.116.925.925,0,0,0,.389,1.005,2.473,2.473,0,0,1,.149,4.054.767.767,0,0,0-.069.058,1.7,1.7,0,0,1-1.154.452Z" fill="#fff"/>
        <path id="Trazado_105552" data-name="Trazado 105552" d="M823.367,4017.183l2.752,1.5,1.5,2.745a.924.924,0,0,0,.811.482h0a.925.925,0,0,0,.811-.481l1.5-2.746,2.752-1.5a.924.924,0,0,0,0-1.623l-2.751-1.5-1.5-2.745a.923.923,0,0,0-.811-.481h0a.925.925,0,0,0-.811.481l-1.5,2.745-2.751,1.5a.925.925,0,0,0,0,1.624Zm3.874-1.625a.921.921,0,0,0,.369-.37l.819-1.5.82,1.5a.927.927,0,0,0,.37.369l1.5.814-1.5.815a.922.922,0,0,0-.369.369l-.82,1.5-.819-1.5a.922.922,0,0,0-.369-.369l-1.5-.815Z" fill="#fff"/>
        <path id="Trazado_105553" data-name="Trazado 105553" d="M843.645,4023.67l-2.752-1.5-1.5-2.745a.924.924,0,0,0-.811-.481h0a.925.925,0,0,0-.811.481l-1.5,2.745-2.752,1.5a.924.924,0,0,0,0,1.623l2.752,1.5,1.5,2.745a.923.923,0,0,0,.811.481h0a.925.925,0,0,0,.811-.48l1.5-2.746,2.752-1.5a.924.924,0,0,0,0-1.623Zm-3.874,1.625a.927.927,0,0,0-.369.368l-.82,1.5-.819-1.5a.919.919,0,0,0-.37-.369l-1.5-.814,1.5-.816a.923.923,0,0,0,.369-.369l.819-1.5.82,1.5a.928.928,0,0,0,.369.368l1.5.816Z" fill="#fff"/>
        <path id="Trazado_105554" data-name="Trazado 105554" d="M798.369,4027a.922.922,0,0,0,1.242-.4l0-.006a.924.924,0,1,0-1.245.41Z" fill="#fff"/>
      </g>
    </g>
    <g id="Grupo_57453" data-name="Grupo 57453">
      <path id="Trazado_105555" data-name="Trazado 105555" d="M855.022,4002.145h7.549v3.254h-7.549v8.553h-3.459V4005.4h-7.549v-3.254h7.549v-7.9h3.459Z" fill="#6595bf"/>
    </g>
    <g id="Grupo_57454" data-name="Grupo 57454">
      <path id="Trazado_105556" data-name="Trazado 105556" d="M840.22,3996.175l-7.655,17.164H830.1l7.63-16.554h-10v-1.93H840.22Z" fill="#d9a171"/>
    </g>
  </g>
</svg>
