<svg xmlns="http://www.w3.org/2000/svg" width="200" height="200" viewBox="0 0 200 200">
  <g id="Grupo_57477" data-name="Grupo 57477" transform="translate(-406.154 -4236.652)">
    <g id="Grupo_57473" data-name="Grupo 57473">
      <rect id="Rectángulo_5871" data-name="Rectángulo 5871" width="200" height="200" transform="translate(406.154 4236.652)" fill="#344154" opacity="0"/>
      <path id="Trazado_105605" data-name="Trazado 105605" d="M588.547,4338.361a82.393,82.393,0,1,1-82.393-82.392A82.393,82.393,0,0,1,588.547,4338.361Z" fill="#344154"/>
    </g>
    <g id="Grupo_57475" data-name="Grupo 57475">
      <g id="Grupo_57474" data-name="Grupo 57474">
        <path id="Trazado_105606" data-name="Trazado 105606" d="M531.1,4348.728a8.633,8.633,0,0,0,.437-13.314,7.191,7.191,0,0,0-2.668-6.871,7.051,7.051,0,0,0-5.212-1.356,10.693,10.693,0,0,0-13.873-8.761,11.379,11.379,0,0,0-18.256,4.86,10.986,10.986,0,0,0-4.379,1.1,40.273,40.273,0,0,1,10.575-27.876,1.848,1.848,0,0,0-1.568-3.085,44.125,44.125,0,0,0-33.475,22.2,1.848,1.848,0,0,0,3.224,1.806,40.458,40.458,0,0,1,25.9-19.5,43.979,43.979,0,0,0-8.216,29.313c-.037.046-.076.09-.112.137a11.308,11.308,0,0,0-1.953,9.367,7.1,7.1,0,0,0,2.34,13.815h8.774a44.185,44.185,0,0,0,34.759,17.086,40.554,40.554,0,0,1-24.827,9.68,10.038,10.038,0,0,0-8.548-9.43A8.742,8.742,0,0,0,485.8,4362c-.271,0-.541.012-.81.037a10.349,10.349,0,0,0-16.693-1.514,40.511,40.511,0,0,1-3.142-5.156,39.988,39.988,0,0,1-4.111-23.065,1.848,1.848,0,0,0-3.669-.444,43.867,43.867,0,0,0,7.421,30.107,8.175,8.175,0,0,0-4.569,7.327,8.325,8.325,0,0,0,.057.977,10.129,10.129,0,0,0,6.923,17.541h25.344a10.044,10.044,0,0,0,9.489-6.778,44.248,44.248,0,0,0,19.053-4.778,43.787,43.787,0,0,0,12.5-9.476,1.847,1.847,0,0,0-1.568-3.084,40.515,40.515,0,0,1-34.587-13.138h28.907a7.072,7.072,0,0,0,4.749-1.825Zm-38.546,35.384H467.207a6.454,6.454,0,0,1-6.453-6.441,6.376,6.376,0,0,1,2.642-5.192,1.847,1.847,0,0,0,.687-1.993,4.477,4.477,0,0,1,4.318-5.667c.1,0,.2.005.3.009a1.848,1.848,0,0,0,1.665-.9,6.658,6.658,0,0,1,11.88.87,1.847,1.847,0,0,0,2.2,1.081,5.092,5.092,0,0,1,1.352-.184,5,5,0,0,1,4.924,4.214,1.849,1.849,0,0,0,1.827,1.571,6.317,6.317,0,1,1,0,12.635Zm-8.689-37.254a3.409,3.409,0,1,1,0-6.819,1.848,1.848,0,0,0,1.732-2.491,8.126,8.126,0,0,1,.812-7.925,6.865,6.865,0,0,1,5.562-2.653c.26,0,.523.012.79.038a1.847,1.847,0,0,0,1.99-1.493,7.676,7.676,0,0,1,11.474-5.124,10.706,10.706,0,0,0-3.834,8.179,1.848,1.848,0,1,0,3.7,0,7,7,0,0,1,3.983-6.291l.057-.024a6.908,6.908,0,0,1,2.943-.648,6.981,6.981,0,0,1,6.982,6.963,7.563,7.563,0,0,1-.059.939,1.848,1.848,0,0,0,2.766,1.822,3.494,3.494,0,0,1,3.88.158c1.159.877,1.553,2.419,1.083,4.231a1.847,1.847,0,0,0,.777,2.011,4.943,4.943,0,0,1,.3,8.107c-.048.036-.094.075-.139.116a3.384,3.384,0,0,1-2.306.9Z" fill="#fff"/>
        <path id="Trazado_105607" data-name="Trazado 105607" d="M510.14,4306.1l5.5,2.995,3,5.49a1.847,1.847,0,0,0,1.621.963h0a1.848,1.848,0,0,0,1.621-.962l3-5.491,5.5-3a1.848,1.848,0,0,0,0-3.246l-5.5-2.991-3-5.49a1.846,1.846,0,0,0-1.621-.961h0a1.847,1.847,0,0,0-1.621.962l-3,5.49-5.5,2.99a1.848,1.848,0,0,0,0,3.247Zm7.747-3.25a1.848,1.848,0,0,0,.739-.738l1.637-3,1.641,3a1.852,1.852,0,0,0,.739.737l3,1.628-3,1.631a1.853,1.853,0,0,0-.737.737l-1.641,3-1.637-3a1.852,1.852,0,0,0-.738-.738l-3-1.631Z" fill="#fff"/>
        <path id="Trazado_105608" data-name="Trazado 105608" d="M550.694,4319.073l-5.5-3-3-5.491a1.847,1.847,0,0,0-1.621-.962h0a1.85,1.85,0,0,0-1.622.963l-3,5.49-5.5,2.995a1.849,1.849,0,0,0,0,3.247l5.5,2.99,3,5.49a1.848,1.848,0,0,0,1.622.962h0a1.849,1.849,0,0,0,1.621-.961l3-5.491,5.5-2.99a1.847,1.847,0,0,0,0-3.246Zm-7.746,3.249a1.855,1.855,0,0,0-.739.737l-1.641,3-1.637-3a1.852,1.852,0,0,0-.739-.738l-3-1.628,3-1.631a1.845,1.845,0,0,0,.738-.738l1.637-3,1.641,3a1.849,1.849,0,0,0,.738.737l3,1.631Z" fill="#fff"/>
        <path id="Trazado_105609" data-name="Trazado 105609" d="M460.142,4325.739a1.847,1.847,0,0,0,2.485-.809l0-.011a1.848,1.848,0,1,0-2.49.82Z" fill="#fff"/>
      </g>
    </g>
    <g id="Grupo_57476" data-name="Grupo 57476">
      <path id="Trazado_105610" data-name="Trazado 105610" d="M573.449,4276.022h15.1v6.508h-15.1v17.106h-6.917V4282.53h-15.1v-6.508h15.1v-15.805h6.917Z" fill="#6595bf"/>
    </g>
  </g>
</svg>
