<svg xmlns="http://www.w3.org/2000/svg" width="200" height="200" viewBox="0 0 200 200">
  <g id="Grupo_57472" data-name="Grupo 57472" transform="translate(-64.138 -4236.652)">
    <g id="Grupo_57469" data-name="Grupo 57469">
      <rect id="Rectángulo_5870" data-name="Rectángulo 5870" width="200" height="200" transform="translate(64.138 4236.652)" fill="#5e6178" opacity="0"/>
      <path id="Trazado_105592" data-name="Trazado 105592" d="M246.53,4338.361a82.392,82.392,0,1,1-82.392-82.392A82.392,82.392,0,0,1,246.53,4338.361Z" fill="#f2e9e4"/>
    </g>
    <g id="Grupo_57470" data-name="Grupo 57470">
      <path id="Trazado_105593" data-name="Trazado 105593" d="M136.623,4305.151a2.121,2.121,0,1,0,3.674-2.121l-4.618-8a2.121,2.121,0,1,0-3.674,2.121Z" fill="#344154" fill-rule="evenodd"/>
      <path id="Trazado_105594" data-name="Trazado 105594" d="M193.168,4320.87a2.122,2.122,0,0,0,1.059-.284l8-4.618a2.121,2.121,0,0,0-2.121-3.674l-8,4.618a2.121,2.121,0,0,0,1.063,3.958Z" fill="#344154" fill-rule="evenodd"/>
      <path id="Trazado_105595" data-name="Trazado 105595" d="M114.743,4315.968l8,4.618a2.121,2.121,0,1,0,2.121-3.674l-8-4.618a2.121,2.121,0,1,0-2.121,3.674Z" fill="#344154" fill-rule="evenodd"/>
      <path id="Trazado_105596" data-name="Trazado 105596" d="M177.447,4305.928a2.121,2.121,0,0,0,2.9-.777l4.618-8a2.121,2.121,0,1,0-3.674-2.121l-4.618,8A2.122,2.122,0,0,0,177.447,4305.928Z" fill="#344154" fill-rule="evenodd"/>
      <path id="Trazado_105597" data-name="Trazado 105597" d="M158.483,4300.852a2.122,2.122,0,0,0,2.122-2.122v-9.24a2.121,2.121,0,0,0-4.243,0v9.24A2.123,2.123,0,0,0,158.483,4300.852Z" fill="#344154" fill-rule="evenodd"/>
      <path id="Trazado_105598" data-name="Trazado 105598" d="M158.483,4376.694a2.122,2.122,0,0,0-2.121,2.121v9.241a2.121,2.121,0,0,0,4.243,0v-9.241A2.122,2.122,0,0,0,158.483,4376.694Z" fill="#344154" fill-rule="evenodd"/>
      <path id="Trazado_105599" data-name="Trazado 105599" d="M207.767,4336.652h-9.241a2.121,2.121,0,0,0,0,4.242h9.241a2.121,2.121,0,0,0,0-4.242Z" fill="#344154" fill-rule="evenodd"/>
      <path id="Trazado_105600" data-name="Trazado 105600" d="M180.344,4372.4a2.121,2.121,0,0,0-3.674,2.121l4.619,8a2.121,2.121,0,0,0,3.673-2.121Z" fill="#344154" fill-rule="evenodd"/>
      <path id="Trazado_105601" data-name="Trazado 105601" d="M202.225,4361.578l-8-4.618a2.121,2.121,0,1,0-2.122,3.674l8,4.618a2.121,2.121,0,0,0,2.121-3.674Z" fill="#344154" fill-rule="evenodd"/>
      <path id="Trazado_105602" data-name="Trazado 105602" d="M186.991,4329.5a2.121,2.121,0,0,0-1.548,2.57,27.8,27.8,0,0,1-26.96,34.478,27.609,27.609,0,0,1-8.851-1.441,11.626,11.626,0,0,0-9.492-17.573,16.391,16.391,0,0,0-9.427-8.515c0-.082,0-.164,0-.246a27.774,27.774,0,0,1,46.86-20.177,2.121,2.121,0,0,0,2.916-3.082,32.014,32.014,0,0,0-54.01,22.628c-.381-.027-.763-.041-1.148-.041a16.4,16.4,0,0,0-16.075,13.387,9.731,9.731,0,0,0,1.761,19.3H139.64a11.566,11.566,0,0,0,6.928-2.294,32.029,32.029,0,0,0,43.932-29.723,32.15,32.15,0,0,0-.94-7.724A2.122,2.122,0,0,0,186.991,4329.5Zm-75.978,37.048a5.489,5.489,0,0,1,0-10.978h.126a2.12,2.12,0,0,0,2.116-1.974,12.1,12.1,0,0,1,23.479-3.2,2.12,2.12,0,0,0,2.2,1.4c.236-.022.473-.034.707-.034a7.391,7.391,0,0,1,0,14.783Z" fill="#344154" fill-rule="evenodd"/>
      <path id="Trazado_105603" data-name="Trazado 105603" d="M182.185,4323.7a2.121,2.121,0,1,0,2.121-2.122A2.124,2.124,0,0,0,182.185,4323.7Z" fill="#344154" fill-rule="evenodd"/>
    </g>
    <g id="Grupo_57471" data-name="Grupo 57471">
      <path id="Trazado_105604" data-name="Trazado 105604" d="M231.432,4276.022h15.1v6.508h-15.1v17.106h-6.917V4282.53h-15.1v-6.508h15.1v-15.805h6.917Z" fill="#6595bf"/>
    </g>
  </g>
</svg>
