<svg xmlns="http://www.w3.org/2000/svg" xmlns:xlink="http://www.w3.org/1999/xlink" width="150" height="150" viewBox="0 0 150 150">
  <defs>
    <clipPath id="clip-path">
      <rect id="Rectángulo_5854" data-name="Rectángulo 5854" width="108.929" height="121.967" transform="translate(501.115 4407.428)" fill="none"/>
    </clipPath>
  </defs>
  <g id="Grupo_57428" data-name="Grupo 57428" transform="translate(-479.291 -4398.32)">
    <rect id="Rectángulo_5853" data-name="Rectángulo 5853" width="150" height="150" transform="translate(479.291 4398.32)" fill="#5e6178" opacity="0"/>
    <path id="Trazado_105465" data-name="Trazado 105465" d="M616.086,4474.6a61.794,61.794,0,1,1-61.795-61.794A61.794,61.794,0,0,1,616.086,4474.6Z" fill="#aed3f2"/>
    <g id="Grupo_57427" data-name="Grupo 57427">
      <g id="Grupo_57423" data-name="Grupo 57423">
        <g id="Grupo_57422" data-name="Grupo 57422" clip-path="url(#clip-path)">
          <path id="Trazado_105466" data-name="Trazado 105466" d="M610.05,4438.9a31.378,31.378,0,1,1-31.378-31.378A31.377,31.377,0,0,1,610.05,4438.9Zm0,0" fill="#5d6776"/>
          <path id="Trazado_105467" data-name="Trazado 105467" d="M585.537,4463.414a31.336,31.336,0,0,1-25.329-49.842A31.351,31.351,0,1,0,604,4457.366a31.2,31.2,0,0,1-18.465,6.048Zm0,0" fill="#27313f"/>
          <path id="Trazado_105468" data-name="Trazado 105468" d="M559.531,4491.889l-9.727-4.246H517.333l-9.728,4.246a10.817,10.817,0,0,0-6.48,10.372l.992,23.4a3.606,3.606,0,0,0,3.6,3.453h55.7a3.607,3.607,0,0,0,3.6-3.453l.991-23.4a10.816,10.816,0,0,0-6.48-10.372Zm0,0" fill="#dfedfa"/>
        </g>
      </g>
      <rect id="Rectángulo_5855" data-name="Rectángulo 5855" width="18.03" height="18.03" transform="translate(524.554 4475.023)" fill="#fad7a5"/>
      <path id="Trazado_105469" data-name="Trazado 105469" d="M524.553,4480.259a21.561,21.561,0,0,0,18.03,0v-5.236h-18.03Zm0,0" fill="#f0c891"/>
      <path id="Trazado_105470" data-name="Trazado 105470" d="M544.387,4428.146a10.818,10.818,0,1,1-10.818-10.818,10.817,10.817,0,0,1,10.818,10.818Zm0,0" fill="#c09576"/>
      <path id="Trazado_105471" data-name="Trazado 105471" d="M555.206,4447.077c0,11.451-9.687,20.735-21.637,20.735s-21.636-9.284-21.636-20.735,9.687-20.734,21.636-20.734,21.637,9.283,21.637,20.734Zm0,0" fill="#af876e"/>
      <path id="Trazado_105472" data-name="Trazado 105472" d="M526.356,4449.782c-7.211-7.213-8.289-13.43-8.119-17.332a20.243,20.243,0,0,0-6.3,14.627,19.923,19.923,0,0,0,3.1,10.679Zm0,0" fill="#a07b64"/>
      <path id="Trazado_105473" data-name="Trazado 105473" d="M554.125,4453.462a9.99,9.99,0,0,0-1.034-.074,3.61,3.61,0,0,1-2.55-1.056l-1.556-1.557a3.58,3.58,0,0,0-2.331-1.049c-3.51-.2-13.241-1.069-20.972-4.863a1.8,1.8,0,0,0-2.329.59,36.842,36.842,0,0,1-5.937,6.981,3.6,3.6,0,0,1-2.444.954h-1.3a3.531,3.531,0,0,0-.6.064,3.812,3.812,0,0,0-2.937,3.8v1.306a3.788,3.788,0,0,0,2.784,3.744,3.561,3.561,0,0,0,1.1.085,1.756,1.756,0,0,1,1.84,1.465,18.009,18.009,0,0,0,35.431,0,1.756,1.756,0,0,1,1.84-1.465,3.553,3.553,0,0,0,1.1-.085,3.787,3.787,0,0,0,2.784-3.744v-1.642a3.764,3.764,0,0,0-2.881-3.458Zm0,0" fill="#ffe1b4"/>
      <g id="Grupo_57425" data-name="Grupo 57425">
        <g id="Grupo_57424" data-name="Grupo 57424" clip-path="url(#clip-path)">
          <path id="Trazado_105474" data-name="Trazado 105474" d="M522.75,4460.6v-14.251a37.756,37.756,0,0,1-5.334,6.086,3.6,3.6,0,0,1-2.444.954h-1.3a3.511,3.511,0,0,0-.6.064,3.812,3.812,0,0,0-2.937,3.8v1.306a3.788,3.788,0,0,0,2.784,3.744,3.557,3.557,0,0,0,1.1.085,1.758,1.758,0,0,1,1.841,1.465,17.958,17.958,0,0,0,21.289,14.405A18.035,18.035,0,0,1,522.75,4460.6Zm0,0" fill="#fad7a5"/>
          <path id="Trazado_105475" data-name="Trazado 105475" d="M510.81,4502.162l-6.587-7.905a10.791,10.791,0,0,0-3.1,8l.992,23.4a3.606,3.606,0,0,0,3.6,3.453h8.016v-18.87a12.621,12.621,0,0,0-2.926-8.079Zm0,0" fill="#bedcf5"/>
        </g>
      </g>
      <path id="Trazado_105476" data-name="Trazado 105476" d="M556.326,4502.162l6.587-7.905a10.791,10.791,0,0,1,3.1,8l-.991,23.4a3.607,3.607,0,0,1-3.6,3.453H553.4v-18.87a12.621,12.621,0,0,1,2.926-8.079Zm0,0" fill="#bedcf5"/>
      <path id="Trazado_105477" data-name="Trazado 105477" d="M545.66,4483.509a1.8,1.8,0,0,0-2.549,0l-8.716,8.715a1.169,1.169,0,0,1-1.654,0l-8.715-8.715a1.8,1.8,0,0,0-2.55,0l-4.134,4.134,6.671,10.828a1.8,1.8,0,0,0,2.705.427l4-3.413a.637.637,0,0,1,1.05.484v33.142h3.6v-33.142a.637.637,0,0,1,1.05-.484l4,3.411a1.8,1.8,0,0,0,2.7-.425l6.671-10.828Zm0,0" fill="#bedcf5"/>
      <path id="Trazado_105478" data-name="Trazado 105478" d="M519.3,4514.687h6.9a1.96,1.96,0,0,0,1.96-1.962v-1.486a1.96,1.96,0,0,0-1.96-1.961h-6.9a1.961,1.961,0,0,0-1.961,1.961v1.486a1.961,1.961,0,0,0,1.961,1.962Zm0,0" fill="#bedcf5"/>
      <g id="Grupo_57426" data-name="Grupo 57426">
        <path id="Trazado_105479" data-name="Trazado 105479" d="M581.038,4429.9h-2.071v-13.727l-4.153,1.525v-1.87l5.9-2.215h.323Z" fill="#fff"/>
        <path id="Trazado_105480" data-name="Trazado 105480" d="M569.326,4457.255a4.343,4.343,0,0,1-.29-1.27,4.592,4.592,0,0,1-3.428,1.492,4.257,4.257,0,0,1-2.923-1.007,3.261,3.261,0,0,1-1.141-2.555,3.4,3.4,0,0,1,1.431-2.923,6.74,6.74,0,0,1,4.024-1.041h2V4449a2.311,2.311,0,0,0-.646-1.72,2.592,2.592,0,0,0-1.9-.64,3,3,0,0,0-1.848.557,1.638,1.638,0,0,0-.746,1.347h-2.071a2.844,2.844,0,0,1,.64-1.743,4.379,4.379,0,0,1,1.737-1.33,5.847,5.847,0,0,1,2.41-.49,4.763,4.763,0,0,1,3.262,1.041,3.757,3.757,0,0,1,1.225,2.867v5.544a6.777,6.777,0,0,0,.423,2.638v.179Zm-3.418-1.57a3.619,3.619,0,0,0,1.837-.5,3.029,3.029,0,0,0,1.258-1.3v-2.471h-1.614q-3.786,0-3.785,2.215a1.875,1.875,0,0,0,.645,1.514A2.484,2.484,0,0,0,565.908,4455.685Z" fill="#fff"/>
        <path id="Trazado_105481" data-name="Trazado 105481" d="M576.239,4445.209l.067,1.514a4.389,4.389,0,0,1,3.607-1.737q3.819,0,3.852,4.309v7.96h-2.059v-7.971a2.773,2.773,0,0,0-.6-1.926,2.385,2.385,0,0,0-1.82-.624,2.973,2.973,0,0,0-1.759.534,3.629,3.629,0,0,0-1.18,1.4v8.584h-2.06v-12.046Zm6.814-4.7a2.77,2.77,0,0,1-.685,1.948,2.225,2.225,0,0,1-1.709.746,2.518,2.518,0,0,1-.79-.111,4.319,4.319,0,0,1-.874-.457,3.751,3.751,0,0,0-.78-.417,1.9,1.9,0,0,0-.551-.073,1.021,1.021,0,0,0-.779.351,1.273,1.273,0,0,0-.323.9l-1.38-.078a2.9,2.9,0,0,1,.673-1.97,2.159,2.159,0,0,1,1.709-.779,2.069,2.069,0,0,1,.7.111,5.114,5.114,0,0,1,.847.434,5.028,5.028,0,0,0,.818.423,1.876,1.876,0,0,0,.629.1,1,1,0,0,0,.8-.378,1.333,1.333,0,0,0,.317-.88Z" fill="#fff"/>
        <path id="Trazado_105482" data-name="Trazado 105482" d="M586.326,4451.12a7.127,7.127,0,0,1,.7-3.184,5.2,5.2,0,0,1,1.938-2.182,5.273,5.273,0,0,1,2.833-.768,5.08,5.08,0,0,1,3.98,1.7,6.551,6.551,0,0,1,1.519,4.531v.144a7.173,7.173,0,0,1-.673,3.156,5.115,5.115,0,0,1-1.926,2.177,5.342,5.342,0,0,1-2.878.779,5.068,5.068,0,0,1-3.969-1.7,6.522,6.522,0,0,1-1.519-4.509Zm2.07.245a5.153,5.153,0,0,0,.93,3.218,3.151,3.151,0,0,0,4.982-.017,5.635,5.635,0,0,0,.924-3.446,5.142,5.142,0,0,0-.941-3.211,2.99,2.99,0,0,0-2.5-1.231,2.959,2.959,0,0,0-2.461,1.214A5.6,5.6,0,0,0,588.4,4451.365Z" fill="#fff"/>
      </g>
    </g>
  </g>
</svg>
