<svg xmlns="http://www.w3.org/2000/svg" width="199.929" height="199.93" viewBox="0 0 199.929 199.93">
  <g id="Grupo_57514" data-name="Grupo 57514" transform="translate(-447.8 -4521.024)">
    <rect id="Rectángulo_5880" data-name="Rectángulo 5880" width="199.929" height="199.929" transform="translate(447.8 4521.024)" fill="#5e6178" opacity="0"/>
    <g id="Grupo_57513" data-name="Grupo 57513">
      <circle id="Elipse_4182" data-name="Elipse 4182" cx="82.97" cy="82.97" r="82.97" transform="translate(464.794 4538.019)" fill="#6595bf"/>
      <path id="Trazado_105685" data-name="Trazado 105685" d="M536.2,4618.86h23.126l.126,1.58-11.3,17.134-12.141-17.3.19-1.41Z" fill="#b3b3b3"/>
      <path id="Trazado_105686" data-name="Trazado 105686" d="M536.349,4614.562l-.2,9.665-16.4,8.966v32.866h55.2v-32.867l-15.238-9.471-.837-9.663-22.529.5Z" fill="#f0ba7d"/>
      <path id="Trazado_105687" data-name="Trazado 105687" d="M528.772,4586.379a2.51,2.51,0,0,0-3.464-1.042c-2.525,1.022.114,11.23,1.078,12.655s2.516.519,3.082.463c.8,6.085.875,10.279,3.311,12.845,2.307,2.43,7.59,7.381,10.372,9.108a15.518,15.518,0,0,0,9.227,0c2.783-1.726,8.066-6.678,10.372-9.108,2.436-2.566,2.508-6.759,3.312-12.845.565.056,2.117.96,3.081-.463s3.6-11.633,1.078-12.655a2.51,2.51,0,0,0-3.464,1.042,21.894,21.894,0,0,0-1.94-15.907c-3.04-5.408-9.972-8.212-17.052-8.418-7.08.206-14.012,3.01-17.052,8.418a21.894,21.894,0,0,0-1.94,15.907Z" fill="#fed298"/>
      <path id="Trazado_105688" data-name="Trazado 105688" d="M528.108,4627.07l3.927-1.547,3.164-2.843,11.172,8.473h2.783l11.176-8.483,7.089,4.4,12.32,20.94-9.756,52.934a83.473,83.473,0,0,1-40.49.992l-17.487-52.253,16.1-22.614Z" fill="#aed3f2"/>
      <g id="Grupo_57508" data-name="Grupo 57508">
        <path id="Trazado_105689" data-name="Trazado 105689" d="M563.837,4624.422l-4.511-5.562-10.171,12.294,8.73,9.7Z" fill="#cee5f7"/>
        <path id="Trazado_105690" data-name="Trazado 105690" d="M531.684,4624.324l4.516-5.464,10.172,12.294-9.077,9.6Z" fill="#cee5f7"/>
      </g>
      <path id="Trazado_105691" data-name="Trazado 105691" d="M531.685,4624.324l-29.9,9.722a3.374,3.374,0,0,0-2.227,2.684l-8.791,44.55a83.178,83.178,0,0,0,20.033,14.005l4.371-14.264a.351.351,0,0,1,.685.082l.631,16.753a82.686,82.686,0,0,0,31.275,6.1V4698.4l-16.08-74.073Z" fill="#fff"/>
      <g id="Grupo_57509" data-name="Grupo 57509">
        <path id="Trazado_105692" data-name="Trazado 105692" d="M531.685,4624.324l-3.425,1.052-9.071,15.479,11.452.359-7.031,4,24.156,53.18-16.08-74.072Z" fill="#eef3f7"/>
        <path id="Trazado_105693" data-name="Trazado 105693" d="M563.837,4624.422l29.905,9.624a3.368,3.368,0,0,1,2.227,2.684l8.791,44.551a83.188,83.188,0,0,1-20.035,14.005l-4.371-14.264a.35.35,0,0,0-.684.082l-.629,16.753a82.7,82.7,0,0,1-31.276,6.1h0V4698.4l16.071-73.974Z" fill="#eef3f7"/>
      </g>
      <path id="Trazado_105694" data-name="Trazado 105694" d="M563.837,4624.422l1.9.578,10.6,15.953-11.452.359,7.032,4L547.765,4698.4l16.071-73.974h0Z" fill="#fff"/>
      <path id="Trazado_105695" data-name="Trazado 105695" d="M551.153,4698.049a1.821,1.821,0,1,0,1.826,1.821A1.824,1.824,0,0,0,551.153,4698.049Z" fill="#d9dada"/>
      <path id="Trazado_105696" data-name="Trazado 105696" d="M564.578,4588.766l1.76-.062.566-2.008,1.657-1.653c1.1-8.242,1.417-21.068-6.763-20.7,0,0-.738-9.352-15.493-7.519s-21.422,11.359-20.628,19.306.474,8.91.474,8.91l1.657,1.654.25,2.284,1.447-.092a36.824,36.824,0,0,1,.908-4.4,14.9,14.9,0,0,0,.312-4.065s17.428,1.11,22.138-4.881c2.909-3.7,9.59-10.11,9.926-1.232.1,2.633-.879,6.579.994,9.451s.795,5.005.795,5.005h0Z" fill="#344154"/>
      <path id="Trazado_105697" data-name="Trazado 105697" d="M547.765,4698.4l4.711-21.684-3.2-42.743,1.745-.745-1.865-2.071h-2.782l-1.912,2.023,1.794.793-3.121,43.089,4.632,21.338Z" fill="#5e6178"/>
      <path id="Trazado_105698" data-name="Trazado 105698" d="M550.991,4698.049a1.659,1.659,0,1,0,1.664,1.658A1.662,1.662,0,0,0,550.991,4698.049Z" fill="#fff"/>
      <path id="Trazado_105699" data-name="Trazado 105699" d="M577.062,4670.6a5.95,5.95,0,1,1,6.875-4.85,5.951,5.951,0,0,1-6.875,4.85Z" fill="#fefefe"/>
      <path id="Trazado_105700" data-name="Trazado 105700" d="M577.121,4670.257a5.6,5.6,0,1,1,6.475-4.568,5.6,5.6,0,0,1-6.475,4.568Z" fill="#5e6178"/>
      <path id="Trazado_105701" data-name="Trazado 105701" d="M577.547,4667.792a3.1,3.1,0,1,1,3.582-2.529,3.1,3.1,0,0,1-3.582,2.529Z" fill="#ebecec"/>
      <path id="Trazado_105702" data-name="Trazado 105702" d="M577.911,4662.014l1.363.235.732-4.243-1.362-.235Z" fill="#fefefe"/>
      <path id="Trazado_105703" data-name="Trazado 105703" d="M532.285,4671.776l2.553-.507a4.031,4.031,0,0,0,3.161-4.727l-3-15.125c-1.134-5.707-5.6-8.618-10.7-9.263a19.251,19.251,0,0,0-11.616,2.3c-4.457,2.539-7.462,6.928-6.327,12.645l3,15.126a4.016,4.016,0,0,0,1.712,2.555h0a4,4,0,0,0,3.014.606l2.552-.507-.209-1.052-2.552.507a2.947,2.947,0,0,1-2.211-.444h0a2.946,2.946,0,0,1-1.256-1.874l-3-15.126c-1.03-5.187,1.723-9.185,5.8-11.507a18.157,18.157,0,0,1,10.957-2.173c4.67.591,8.753,3.235,9.781,8.412l3,15.126a2.955,2.955,0,0,1-2.319,3.465l-2.552.507.208,1.052h0Z" fill="#21d0c3"/>
      <path id="Trazado_105704" data-name="Trazado 105704" d="M535.807,4653.659l-.459-2.31c-1.168-5.885-5.762-8.884-11.007-9.548a19.6,19.6,0,0,0-11.834,2.346c-4.585,2.611-7.673,7.131-6.5,13.026l.459,2.31,1.752-.349-.458-2.31c-.994-5.01,1.675-8.878,5.627-11.129a17.824,17.824,0,0,1,10.739-2.128c4.524.571,8.48,3.127,9.474,8.129l.458,2.31,1.753-.348Z" fill="#4d4d4d"/>
      <g id="Grupo_57510" data-name="Grupo 57510">
        <path id="Trazado_105705" data-name="Trazado 105705" d="M514.61,4675.515l1.366-.271a1.5,1.5,0,1,0-.295-1.488l-1.365.271.3,1.488Z" fill="#076673"/>
        <path id="Trazado_105706" data-name="Trazado 105706" d="M533.371,4671.792l-1.365.271a1.5,1.5,0,1,1-.295-1.488l1.365-.271Z" fill="#076673"/>
      </g>
      <path id="Trazado_105707" data-name="Trazado 105707" d="M519.068,4641.9l-.521-2.624-1.036.205-1.034.206.527,2.649c.394-.115.794-.212,1.2-.293Q518.631,4641.963,519.068,4641.9Z" fill="#666"/>
      <g id="Grupo_57511" data-name="Grupo 57511">
        <path id="Trazado_105708" data-name="Trazado 105708" d="M516.834,4674.055a.454.454,0,1,0-.533-.357.454.454,0,0,0,.533.357Z" fill="#5e6178"/>
        <path id="Trazado_105709" data-name="Trazado 105709" d="M530.334,4671.37a.454.454,0,1,0-.534-.356A.453.453,0,0,0,530.334,4671.37Z" fill="#5e6178"/>
      </g>
      <path id="Trazado_105710" data-name="Trazado 105710" d="M577.381,4667.763a2.932,2.932,0,1,1,3.387-2.391,2.933,2.933,0,0,1-3.387,2.391Z" fill="#fefefe"/>
      <g id="Grupo_57512" data-name="Grupo 57512">
        <path id="Trazado_105711" data-name="Trazado 105711" d="M531.7,4625.111c-.046,0-16.16.134-13.438,14.232l-1.5.287c-3.068-15.894,14.868-16.04,14.919-16.041Z" fill="#4d4d4d"/>
        <path id="Trazado_105712" data-name="Trazado 105712" d="M563.854,4623.661a15.254,15.254,0,0,1,11.623,5.546c3.828,4.656,6.512,13.208,4.505,28.887l-1.51-.191c1.942-15.176-.568-23.346-4.17-27.729a13.754,13.754,0,0,0-10.482-4.991l.035-1.522Z" fill="#4d4d4d"/>
      </g>
    </g>
  </g>
</svg>
