<svg xmlns="http://www.w3.org/2000/svg" width="100" height="100" viewBox="0 0 100 100">
  <g id="Grupo_57449" data-name="Grupo 57449" transform="translate(-600.366 -3982.46)">
    <g id="Grupo_57445" data-name="Grupo 57445">
      <rect id="Rectángulo_5866" data-name="Rectángulo 5866" width="100" height="100" transform="translate(600.366 3982.46)" fill="#344154" opacity="0"/>
      <path id="Trazado_105544" data-name="Trazado 105544" d="M691.563,4033.314a41.2,41.2,0,1,1-41.2-41.2A41.2,41.2,0,0,1,691.563,4033.314Z" fill="#344154"/>
    </g>
    <g id="Grupo_57447" data-name="Grupo 57447">
      <g id="Grupo_57446" data-name="Grupo 57446">
        <path id="Trazado_105545" data-name="Trazado 105545" d="M662.838,4038.5a4.316,4.316,0,0,0,.218-6.657,3.6,3.6,0,0,0-1.334-3.436,3.526,3.526,0,0,0-2.606-.678,5.346,5.346,0,0,0-6.936-4.38,5.69,5.69,0,0,0-9.128,2.429,5.511,5.511,0,0,0-2.19.549,20.143,20.143,0,0,1,5.287-13.939.924.924,0,0,0-.784-1.542,22.065,22.065,0,0,0-16.737,11.1.924.924,0,1,0,1.612.9,20.228,20.228,0,0,1,12.951-9.751,21.985,21.985,0,0,0-4.108,14.657c-.019.023-.038.045-.056.068a5.655,5.655,0,0,0-.977,4.684,3.551,3.551,0,0,0,1.17,6.907h4.387a22.091,22.091,0,0,0,17.38,8.543,20.274,20.274,0,0,1-12.414,4.84,5.02,5.02,0,0,0-4.274-4.715,4.371,4.371,0,0,0-4.11-2.946c-.135,0-.27.006-.405.019a5.174,5.174,0,0,0-8.346-.757,20.1,20.1,0,0,1-3.627-14.111.924.924,0,1,0-1.834-.222,21.846,21.846,0,0,0,2.244,12.595,22.177,22.177,0,0,0,1.466,2.459,4.086,4.086,0,0,0-2.284,3.663,4.161,4.161,0,0,0,.028.489,5.064,5.064,0,0,0,3.462,8.77h12.672a5.021,5.021,0,0,0,4.744-3.389,22.124,22.124,0,0,0,9.527-2.389,21.893,21.893,0,0,0,6.251-4.738.923.923,0,0,0-.784-1.542,20.261,20.261,0,0,1-17.294-6.569h14.454a3.537,3.537,0,0,0,2.374-.912Zm-19.273,17.692H630.893a3.228,3.228,0,0,1-3.227-3.221,3.19,3.19,0,0,1,1.321-2.6.922.922,0,0,0,.344-1,2.186,2.186,0,0,1-.081-.6,2.24,2.24,0,0,1,2.24-2.235c.05,0,.1,0,.15.005a.928.928,0,0,0,.833-.452,3.329,3.329,0,0,1,5.94.435.923.923,0,0,0,1.1.541,2.5,2.5,0,0,1,3.138,2.015.925.925,0,0,0,.914.785,3.159,3.159,0,1,1,0,6.318Zm-4.345-18.627a1.7,1.7,0,1,1,0-3.41.923.923,0,0,0,.866-1.245,4.066,4.066,0,0,1,.406-3.963,3.432,3.432,0,0,1,2.781-1.326c.13,0,.262.006.4.019a.923.923,0,0,0,.995-.747,3.837,3.837,0,0,1,5.737-2.562,5.355,5.355,0,0,0-1.917,4.09.924.924,0,1,0,1.848,0,3.5,3.5,0,0,1,1.991-3.146l.029-.012a3.447,3.447,0,0,1,1.471-.324,3.49,3.49,0,0,1,3.491,3.482,3.766,3.766,0,0,1-.029.469.924.924,0,0,0,1.383.911,1.748,1.748,0,0,1,1.94.079,1.917,1.917,0,0,1,.541,2.116.923.923,0,0,0,.389,1.005,2.472,2.472,0,0,1,.148,4.054.767.767,0,0,0-.069.058,1.692,1.692,0,0,1-1.153.452Z" fill="#fff"/>
        <path id="Trazado_105546" data-name="Trazado 105546" d="M652.359,4017.183l2.752,1.5,1.5,2.745a.924.924,0,0,0,.811.482h0a.925.925,0,0,0,.811-.481l1.5-2.746,2.752-1.5a.923.923,0,0,0,0-1.623l-2.751-1.5-1.5-2.745a.923.923,0,0,0-.811-.481h0a.925.925,0,0,0-.811.481l-1.5,2.745-2.751,1.5a.925.925,0,0,0,0,1.624Zm3.873-1.625a.917.917,0,0,0,.37-.37l.819-1.5.82,1.5a.931.931,0,0,0,.369.369l1.5.814-1.5.815a.922.922,0,0,0-.369.369l-.82,1.5-.819-1.5a.922.922,0,0,0-.369-.369l-1.5-.815Z" fill="#fff"/>
        <path id="Trazado_105547" data-name="Trazado 105547" d="M672.636,4023.67l-2.752-1.5-1.5-2.745a.921.921,0,0,0-.81-.481h0a.925.925,0,0,0-.81.481l-1.5,2.745-2.751,1.5a.924.924,0,0,0,0,1.623l2.752,1.5,1.5,2.745a.922.922,0,0,0,.81.481h0a.924.924,0,0,0,.81-.48l1.5-2.746,2.752-1.5a.923.923,0,0,0,0-1.623Zm-3.873,1.625a.927.927,0,0,0-.369.368l-.821,1.5-.818-1.5a.925.925,0,0,0-.37-.369l-1.5-.814,1.5-.816a.923.923,0,0,0,.369-.369l.818-1.5.821,1.5a.932.932,0,0,0,.368.368l1.5.816Z" fill="#fff"/>
        <path id="Trazado_105548" data-name="Trazado 105548" d="M627.36,4027a.923.923,0,0,0,1.243-.4l0-.006a.924.924,0,1,0-1.245.41Z" fill="#fff"/>
      </g>
    </g>
    <g id="Grupo_57448" data-name="Grupo 57448">
      <path id="Trazado_105549" data-name="Trazado 105549" d="M684.014,4002.145h7.549v3.254h-7.549v8.553h-3.459V4005.4h-7.549v-3.254h7.549v-7.9h3.459Z" fill="#6595bf"/>
    </g>
  </g>
</svg>
