<svg xmlns="http://www.w3.org/2000/svg" width="200" height="200" viewBox="0 0 200 200">
  <g id="Grupo_57488" data-name="Grupo 57488" transform="translate(-983.003 -4236.652)">
    <g id="Grupo_57484" data-name="Grupo 57484">
      <rect id="Rectángulo_5873" data-name="Rectángulo 5873" width="200" height="200" transform="translate(983.003 4236.652)" fill="#5e6178" opacity="0"/>
      <path id="Trazado_105618" data-name="Trazado 105618" d="M1165.4,4338.361A82.393,82.393,0,1,1,1083,4255.969,82.392,82.392,0,0,1,1165.4,4338.361Z" fill="#f2e9e4"/>
    </g>
    <g id="Grupo_57485" data-name="Grupo 57485">
      <path id="Trazado_105619" data-name="Trazado 105619" d="M1055.488,4305.151a2.121,2.121,0,1,0,3.674-2.121l-4.618-8a2.121,2.121,0,1,0-3.674,2.121Z" fill="#344154" fill-rule="evenodd"/>
      <path id="Trazado_105620" data-name="Trazado 105620" d="M1112.033,4320.87a2.115,2.115,0,0,0,1.058-.284l8-4.618a2.121,2.121,0,0,0-2.121-3.674l-8,4.618a2.121,2.121,0,0,0,1.063,3.958Z" fill="#344154" fill-rule="evenodd"/>
      <path id="Trazado_105621" data-name="Trazado 105621" d="M1033.608,4315.968l8,4.618a2.121,2.121,0,1,0,2.121-3.674l-8-4.618a2.121,2.121,0,1,0-2.121,3.674Z" fill="#344154" fill-rule="evenodd"/>
      <path id="Trazado_105622" data-name="Trazado 105622" d="M1096.312,4305.928a2.121,2.121,0,0,0,2.9-.777l4.618-8a2.121,2.121,0,1,0-3.674-2.121l-4.618,8A2.122,2.122,0,0,0,1096.312,4305.928Z" fill="#344154" fill-rule="evenodd"/>
      <path id="Trazado_105623" data-name="Trazado 105623" d="M1077.348,4300.852a2.122,2.122,0,0,0,2.122-2.122v-9.24a2.121,2.121,0,0,0-4.243,0v9.24A2.122,2.122,0,0,0,1077.348,4300.852Z" fill="#344154" fill-rule="evenodd"/>
      <path id="Trazado_105624" data-name="Trazado 105624" d="M1077.348,4376.694a2.122,2.122,0,0,0-2.121,2.121v9.241a2.121,2.121,0,0,0,4.243,0v-9.241A2.122,2.122,0,0,0,1077.348,4376.694Z" fill="#344154" fill-rule="evenodd"/>
      <path id="Trazado_105625" data-name="Trazado 105625" d="M1126.632,4336.652h-9.241a2.121,2.121,0,0,0,0,4.242h9.241a2.121,2.121,0,1,0,0-4.242Z" fill="#344154" fill-rule="evenodd"/>
      <path id="Trazado_105626" data-name="Trazado 105626" d="M1099.209,4372.4a2.121,2.121,0,0,0-3.674,2.121l4.619,8a2.121,2.121,0,0,0,3.673-2.121Z" fill="#344154" fill-rule="evenodd"/>
      <path id="Trazado_105627" data-name="Trazado 105627" d="M1121.09,4361.578l-8-4.618a2.121,2.121,0,0,0-2.121,3.674l8,4.618a2.121,2.121,0,0,0,2.121-3.674Z" fill="#344154" fill-rule="evenodd"/>
      <path id="Trazado_105628" data-name="Trazado 105628" d="M1105.856,4329.5a2.121,2.121,0,0,0-1.548,2.57,27.8,27.8,0,0,1-26.96,34.478,27.62,27.62,0,0,1-8.852-1.441,11.625,11.625,0,0,0-9.491-17.573,16.391,16.391,0,0,0-9.427-8.515c0-.082,0-.164,0-.246a27.774,27.774,0,0,1,46.86-20.177,2.121,2.121,0,0,0,2.916-3.082,32.014,32.014,0,0,0-54.01,22.628c-.381-.027-.763-.041-1.148-.041a16.4,16.4,0,0,0-16.075,13.387,9.732,9.732,0,0,0,1.761,19.3h28.627a11.566,11.566,0,0,0,6.928-2.294,32.029,32.029,0,0,0,43.932-29.723,32.155,32.155,0,0,0-.94-7.724A2.122,2.122,0,0,0,1105.856,4329.5Zm-75.978,37.048a5.489,5.489,0,0,1,0-10.978H1030a2.12,2.12,0,0,0,2.116-1.974,12.1,12.1,0,0,1,23.479-3.2,2.119,2.119,0,0,0,2.2,1.4c.237-.022.474-.034.708-.034a7.391,7.391,0,0,1,0,14.783Z" fill="#344154" fill-rule="evenodd"/>
      <path id="Trazado_105629" data-name="Trazado 105629" d="M1101.049,4323.7a2.122,2.122,0,1,0,2.122-2.122A2.125,2.125,0,0,0,1101.049,4323.7Z" fill="#344154" fill-rule="evenodd"/>
    </g>
    <g id="Grupo_57486" data-name="Grupo 57486">
      <path id="Trazado_105630" data-name="Trazado 105630" d="M1150.3,4276.022h15.1v6.508h-15.1v17.106h-6.917V4282.53h-15.1v-6.508h15.1v-15.805h6.917Z" fill="#6595bf"/>
    </g>
    <g id="Grupo_57487" data-name="Grupo 57487">
      <path id="Trazado_105631" data-name="Trazado 105631" d="M1126.034,4264.083l-15.311,34.328H1105.8l15.259-33.109h-20.008v-3.86h24.985Z" fill="#d9a171"/>
    </g>
  </g>
</svg>
