<svg xmlns="http://www.w3.org/2000/svg" width="366" height="366" viewBox="0 0 366 366">
  <g id="Grupo_56654" data-name="Grupo 56654" transform="translate(-1543.742 -6026.774)">
    <rect id="Rectángulo_5538" data-name="Rectángulo 5538" width="366" height="366" transform="translate(1543.742 6026.774)" fill="#aed3f2" opacity="0"/>
    <g id="Grupo_56653" data-name="Grupo 56653" transform="translate(1564.978 6036.258)">
      <g id="freepik--background-complete--inject-139">
        <path id="Trazado_104188" data-name="Trazado 104188" d="M1836.657,6070.721v51.318h-73.719l-2.656-50.959Z" transform="translate(-1517.339 -6026.59)" fill="#aed3f2"/>
        <rect id="Rectángulo_5539" data-name="Rectángulo 5539" width="73.719" height="50.857" transform="translate(242.942 44.482)" fill="#fff"/>
        <path id="Trazado_104189" data-name="Trazado 104189" d="M1834.411,6122.282h-74.437v-51.568h74.414Zm-73.711-.695h73.016v-50.13H1760.7Z" transform="translate(-1517.407 -6026.591)" fill="#aed3f2"/>
        <rect id="Rectángulo_5540" data-name="Rectángulo 5540" width="57.749" height="38.223" transform="translate(250.927 50.803)" fill="#fff"/>
        <path id="Trazado_104190" data-name="Trazado 104190" d="M1824.621,6076.232h-4.281l-11.9.046-41.568.086.165-.171v38.215h0l-.181-.179h57.749l-.148.147c0-11.634.062-21.166.078-27.807,0-3.321,0-5.915.039-7.689v-.062c0,1.774,0,4.352.039,7.657,0,6.665.039,16.229.07,27.9v.141h-.14l-57.749.04h-.179v-.181h0V6076h.172l41.677.078,11.861.046h4.2Z" transform="translate(-1515.946 -6025.428)" fill="#aed3f2"/>
        <path id="Trazado_104191" data-name="Trazado 104191" d="M1760.281,6070.893a6.368,6.368,0,0,1,1.265.782c.782.546,1.782,1.32,2.891,2.2s2.086,1.726,2.774,2.344a5.8,5.8,0,0,1,1.054,1.078,51.183,51.183,0,0,1-4.055-3.126A39.075,39.075,0,0,1,1760.281,6070.893Z" transform="translate(-1517.339 -6026.551)" fill="#aed3f2"/>
        <path id="Trazado_104192" data-name="Trazado 104192" d="M1822.151,6071.015a76.3,76.3,0,0,1-8.009,6.313,35.851,35.851,0,0,1,3.906-3.3A33.67,33.67,0,0,1,1822.151,6071.015Z" transform="translate(-1505.49 -6026.524)" fill="#aed3f2"/>
        <path id="Trazado_104193" data-name="Trazado 104193" d="M1822.137,6113.9l-8.219-6.656" transform="translate(-1505.539 -6018.554)" fill="#fff"/>
        <path id="Trazado_104194" data-name="Trazado 104194" d="M1813.918,6107.245a39.321,39.321,0,0,1,4.227,3.188,39.859,39.859,0,0,1,3.992,3.469,37.836,37.836,0,0,1-4.226-3.188A38.7,38.7,0,0,1,1813.918,6107.245Z" transform="translate(-1505.539 -6018.554)" fill="#aed3f2"/>
        <path id="Trazado_104195" data-name="Trazado 104195" d="M1760.281,6113.828a33.823,33.823,0,0,1,3.837-3.273,35.122,35.122,0,0,1,4.063-2.977,35.567,35.567,0,0,1-3.837,3.266A35.031,35.031,0,0,1,1760.281,6113.828Z" transform="translate(-1517.339 -6018.481)" fill="#aed3f2"/>
        <rect id="Rectángulo_5541" data-name="Rectángulo 5541" width="36.332" height="12.798" transform="translate(262.655 62.711)" fill="#aed3f2"/>
        <path id="Trazado_104196" data-name="Trazado 104196" d="M1667.965,6049.91a.481.481,0,0,1-.179-.055l-.524-.2-1.969-.781-7.22-3.125-23.761-10.353-.82-.36h.172l-23.284,9.955-7.032,2.954-1.923.781a4.21,4.21,0,0,1-.68.243,4.994,4.994,0,0,1,.649-.321l1.883-.859,7.032-3.125,23.229-10.072.087-.039.085.039.821.36,23.706,10.47,7.172,3.22,1.938.891.5.241A1.225,1.225,0,0,1,1667.965,6049.91Z" transform="translate(-1552.437 -6034.548)" fill="#aed3f2"/>
        <rect id="Rectángulo_5542" data-name="Rectángulo 5542" width="152.588" height="114.255" transform="translate(0 11.955)" fill="#aed3f2"/>
        <rect id="Rectángulo_5543" data-name="Rectángulo 5543" width="142.493" height="104.246" transform="translate(5.336 17.268)" fill="#fafafa"/>
        <path id="Trazado_104197" data-name="Trazado 104197" d="M1591.32,6086.053s.148,17.5,1.038,22.838l21.948-1.04s-1.929-17.189-1.187-21.8Z" transform="translate(-1554.511 -6023.217)" fill="#aed3f2"/>
        <path id="Trazado_104198" data-name="Trazado 104198" d="M1601.061,6088.064h.321a5.108,5.108,0,0,1,.914.046,5.234,5.234,0,0,1,1.4.415,4.665,4.665,0,0,1,1.516,1.2,5.349,5.349,0,0,1,1.054,2.116,5.113,5.113,0,0,1-.234,2.712,8.3,8.3,0,0,1-.617,1.352c-.242.445-.492.882-.7,1.368a11.659,11.659,0,0,0-.883,3.124v.071h-.07l-2.164.04h-2.352v-.055a6.5,6.5,0,0,0-1.047-3c-.266-.445-.555-.868-.828-1.3a11.6,11.6,0,0,1-.782-1.258,4.205,4.205,0,0,1-.344-2.673,5.667,5.667,0,0,1,.844-2.187,4.387,4.387,0,0,1,1.43-1.29,5.316,5.316,0,0,1,1.344-.515,5.767,5.767,0,0,1,.9-.149h0a6.159,6.159,0,0,0-.882.172,5.41,5.41,0,0,0-1.321.539,4.178,4.178,0,0,0-1.375,1.274,5.552,5.552,0,0,0-.781,2.148,4.1,4.1,0,0,0,.343,2.586,14.569,14.569,0,0,0,.782,1.242c.266.414.563.844.828,1.3a6.615,6.615,0,0,1,1.077,3.078l-.078-.085h4.438l-.078.078a11.863,11.863,0,0,1,.906-3.165c.211-.484.469-.946.711-1.382a7.017,7.017,0,0,0,.609-1.329,4.91,4.91,0,0,0,.211-2.681,5.186,5.186,0,0,0-1.008-2.07,4.621,4.621,0,0,0-1.469-1.2,5.119,5.119,0,0,0-1.368-.43,6.869,6.869,0,0,0-.906-.078h-.32Z" transform="translate(-1553.447 -6022.775)" fill="#fff"/>
        <path id="Trazado_104199" data-name="Trazado 104199" d="M1601.778,6099.5a.386.386,0,0,1,0-.071v-.2a6.917,6.917,0,0,0-.125-.781c-.094-.68-.241-1.673-.344-2.9a5.992,5.992,0,0,0-.053-.961,6.744,6.744,0,0,1,0-1.054,2.893,2.893,0,0,1,.249-1.094,1.612,1.612,0,0,1,.837-.836,1.1,1.1,0,0,1,1.2.226.854.854,0,0,1,.258.6,1.07,1.07,0,0,1-.227.625,1.369,1.369,0,0,1-.531.429,2.559,2.559,0,0,1-.649.211,7.525,7.525,0,0,1-1.382.165,8.437,8.437,0,0,1-1.4-.071,2.382,2.382,0,0,1-.656-.187,1.73,1.73,0,0,1-.554-.391,1.268,1.268,0,0,1-.321-.585,1.048,1.048,0,0,1,.078-.656.882.882,0,0,1,.461-.445.819.819,0,0,1,.625,0,1.161,1.161,0,0,1,.468.4,1.579,1.579,0,0,1,.227.548,6.1,6.1,0,0,1,.117,1.117c0,.72.071,1.391.1,2.008.062,1.228.108,2.219.147,2.915v.984a.343.343,0,0,1,0,.071.23.23,0,0,1,0-.071v-.2a5.176,5.176,0,0,0-.055-.781c0-.687-.093-1.687-.164-2.915,0-.608-.071-1.281-.117-2.008a6.762,6.762,0,0,0-.11-1.109,1.61,1.61,0,0,0-.227-.523,1.168,1.168,0,0,0-.437-.375.774.774,0,0,0-1,.413.911.911,0,0,0-.078.61,1.224,1.224,0,0,0,.305.554,2.012,2.012,0,0,0,1.18.563,8.7,8.7,0,0,0,2.75-.094,2.679,2.679,0,0,0,.641-.209,1.417,1.417,0,0,0,.5-.406.978.978,0,0,0,.211-.587.737.737,0,0,0-.234-.555,1.056,1.056,0,0,0-1.125-.218,1.625,1.625,0,0,0-.782.782,2.938,2.938,0,0,0-.25,1.078v1.04a6.466,6.466,0,0,0,.048.969c.094,1.227.234,2.211.328,2.891a4.584,4.584,0,0,0,.1.781v.2A.241.241,0,0,0,1601.778,6099.5Z" transform="translate(-1553.03 -6022.025)" fill="#fff"/>
        <path id="Trazado_104200" data-name="Trazado 104200" d="M1598.736,6098.188a6.688,6.688,0,0,0,.055.726c.055.454.062,1.165.1,1.9v-.047l1.477,1.7h-.071l1.7-.094h-.071l.852-1.038.422-.523v.069c0-1-.047-1.953-.07-2.812l.094.085h-4.454a1.674,1.674,0,0,1,.3,0l.9-.046,3.251-.126h.085v.094c0,.868.055,1.813.078,2.813h0l-.422.515-.852,1.04h0l-1.71.086h-.048l-1.446-1.728h0v-1.953A4.282,4.282,0,0,1,1598.736,6098.188Z" transform="translate(-1552.879 -6020.591)" fill="#fff"/>
        <path id="Trazado_104201" data-name="Trazado 104201" d="M1603.122,6100.272l-.164-.069a3.718,3.718,0,0,0-.445-.172,4.375,4.375,0,0,0-3.087.094,3.75,3.75,0,0,0-.429.2l-.165.078a.482.482,0,0,1,.149-.1,3.7,3.7,0,0,1,.422-.227,4.19,4.19,0,0,1,1.561-.352,4.342,4.342,0,0,1,1.563.257,3.6,3.6,0,0,1,.438.2A.992.992,0,0,1,1603.122,6100.272Z" transform="translate(-1552.858 -6020.209)" fill="#fff"/>
        <path id="Trazado_104202" data-name="Trazado 104202" d="M1603.117,6099.716l-.164-.069c-.1-.048-.25-.11-.445-.181a4.322,4.322,0,0,0-3.063.093c-.188.079-.335.149-.438.2s-.147.085-.156.079l.149-.1a3.3,3.3,0,0,1,.422-.219,4.067,4.067,0,0,1,1.563-.352,3.916,3.916,0,0,1,1.563.257,3.571,3.571,0,0,1,.445.2A.819.819,0,0,1,1603.117,6099.716Z" transform="translate(-1552.854 -6020.332)" fill="#fff"/>
        <path id="Trazado_104203" data-name="Trazado 104203" d="M1603.1,6099.178a.351.351,0,0,1-.163-.062,2.716,2.716,0,0,0-.445-.179,4.394,4.394,0,0,0-1.563-.234,4.255,4.255,0,0,0-1.563.328c-.188.078-.337.148-.438.2a.534.534,0,0,1-.156.078l.149-.1a2.434,2.434,0,0,1,.422-.219,4.134,4.134,0,0,1,1.562-.36,4.3,4.3,0,0,1,1.563.257,3.64,3.64,0,0,1,.438.2Z" transform="translate(-1552.872 -6020.45)" fill="#fff"/>
        <path id="Trazado_104204" data-name="Trazado 104204" d="M1571.28,6062.581s.149,17.5,1.039,22.838l21.948-1.031s-1.93-17.188-1.187-21.807Z" transform="translate(-1558.92 -6028.38)" fill="#ebebeb"/>
        <path id="Trazado_104205" data-name="Trazado 104205" d="M1589.07,6068.611a128.651,128.651,0,0,1-14.728.891,62.406,62.406,0,0,1,7.352-.664A64.341,64.341,0,0,1,1589.07,6068.611Z" transform="translate(-1558.246 -6027.059)" fill="#fff"/>
        <path id="Trazado_104206" data-name="Trazado 104206" d="M1589.1,6071.653a65.507,65.507,0,0,1-7.353.656,64.1,64.1,0,0,1-7.375.227,63.159,63.159,0,0,1,7.352-.656A61.991,61.991,0,0,1,1589.1,6071.653Z" transform="translate(-1558.239 -6026.39)" fill="#fff"/>
        <path id="Trazado_104207" data-name="Trazado 104207" d="M1584.9,6074.646a20.269,20.269,0,0,1-4.181.47,2.106,2.106,0,1,1,4.181-.47Z" transform="translate(-1557.77 -6025.75)" fill="#fff"/>
        <path id="Trazado_104208" data-name="Trazado 104208" d="M1570.4,6104.786s.149,17.493,1.04,22.838l21.948-1.039s-1.93-17.19-1.188-21.8Z" transform="translate(-1559.113 -6019.095)" fill="#ebebeb"/>
        <path id="Trazado_104209" data-name="Trazado 104209" d="M1588.244,6110.817a65.389,65.389,0,0,1-7.353.657,64.335,64.335,0,0,1-7.376.227,63.074,63.074,0,0,1,7.353-.657A60,60,0,0,1,1588.244,6110.817Z" transform="translate(-1558.428 -6017.775)" fill="#fff"/>
        <path id="Trazado_104210" data-name="Trazado 104210" d="M1588.25,6113.852a63.4,63.4,0,0,1-7.352.657,62.618,62.618,0,0,1-7.376.226,63.286,63.286,0,0,1,7.352-.656A64.12,64.12,0,0,1,1588.25,6113.852Z" transform="translate(-1558.426 -6017.106)" fill="#fff"/>
        <path id="Trazado_104211" data-name="Trazado 104211" d="M1584.046,6116.851a37.675,37.675,0,0,1-8.391.469,39.1,39.1,0,0,1,8.391-.469Z" transform="translate(-1557.957 -6016.464)" fill="#fff"/>
        <path id="Trazado_104212" data-name="Trazado 104212" d="M1619.6,6066.385l2.172,50.475,63.015.758-2.828-50.568Z" transform="translate(-1548.29 -6027.544)" fill="#ebebeb"/>
        <rect id="Rectángulo_5544" data-name="Rectángulo 5544" width="62.593" height="47.263" transform="translate(70.578 38.482)" fill="#f5f5f5"/>
        <path id="Trazado_104213" data-name="Trazado 104213" d="M1681.623,6113.417v-3.4c0-2.219,0-5.47-.039-9.563,0-8.243-.055-20.033-.094-34.3l.172.172h-62.586l.211-.211v47.263l-.2-.195,45.146.093,12.837.055h.087l-12.8.047-45.271.094h-.2V6065.8h62.984v.179c-.039,14.314-.071,26.144-.094,34.378,0,4.1,0,7.314-.047,9.525v2.485A4.924,4.924,0,0,1,1681.623,6113.417Z" transform="translate(-1548.444 -6027.673)" fill="#aed3f2"/>
        <rect id="Rectángulo_5545" data-name="Rectángulo 5545" width="25.37" height="31.933" transform="translate(78.126 48.491)" fill="#f5f5f5"/>
        <path id="Trazado_104214" data-name="Trazado 104214" d="M1650.568,6106.264a1.261,1.261,0,0,1,0-.164v-2.2c0-1.563,0-3.759-.055-6.555,0-5.618-.055-13.573-.094-23.019l.188.2h-25.37c-.048.047.406-.406.218-.211h0v31.917l-.179-.179,18.37.094,5.157.046h1.843a2.73,2.73,0,0,1-.438,0h-1.336l-5.109.048-18.487.093h-.179v-31.988h0l.218-.219h25.565v.187c0,9.5-.069,17.5-.094,23.144,0,2.781,0,4.978-.055,6.509v2.141C1650.732,6106.218,1650.568,6106.271,1650.568,6106.264Z" transform="translate(-1547.08 -6025.84)" fill="#aed3f2"/>
        <rect id="Rectángulo_5546" data-name="Rectángulo 5546" width="48.623" height="4.602" transform="translate(79.095 41.185)" fill="#f5f5f5"/>
        <path id="Trazado_104215" data-name="Trazado 104215" d="M1674.634,6072.943a1.338,1.338,0,0,1,0-.312v-.9c0-.782,0-1.93-.047-3.391l.087.086c-8.2.078-26.894.131-48.623.131h0l.219-.218h0v4.585l-.219-.218,34.442.093,10.344.063h.1l-10.289.062-34.63.087h-.211v-4.657h0l.211-.211h0c21.729,0,40.419.046,48.623.125h.087v.086q0,2.227-.048,3.445v.875C1674.68,6072.9,1674.634,6072.951,1674.634,6072.943Z" transform="translate(-1546.924 -6027.156)" fill="#aed3f2"/>
        <rect id="Rectángulo_5547" data-name="Rectángulo 5547" width="21.12" height="19.244" transform="translate(106.606 48.491)" fill="#f5f5f5"/>
        <path id="Trazado_104216" data-name="Trazado 104216" d="M1669.667,6093.576a2.334,2.334,0,0,1,0-.367v-1.046c0-.937,0-2.258-.047-3.907,0-3.383-.055-8.166-.094-13.908l.188.188h-21.1l.211-.211h0v19.268l-.257-.227,15.235.094,4.321.055h1.563a2.1,2.1,0,0,1-.367,0h-1.118l-4.282.046-15.352.1h-.188V6074.34h0l.218-.219h21.277v.18c-.039,5.789-.071,10.61-.094,14.064,0,1.64,0,2.945-.048,3.907v1.008A1.35,1.35,0,0,1,1669.667,6093.576Z" transform="translate(-1541.957 -6025.842)" fill="#aed3f2"/>
        <rect id="Rectángulo_5548" data-name="Rectángulo 5548" width="21.12" height="9.673" transform="translate(106.606 70.751)" fill="#f5f5f5"/>
        <path id="Trazado_104217" data-name="Trazado 104217" d="M1669.656,6102.279a4.5,4.5,0,0,1,0-.7v-1.938c0-1.711-.055-4.094-.087-7.032l.156.156-21.1.064c-.2.195.259-.267.211-.211h0v9.649l-.2-.2,15.1.094,4.4.062h1.618a2.279,2.279,0,0,1-.383,0h-1.141l-4.36.055-15.235.094h-.2v-9.853h0c-.046,0,.415-.415.22-.219l21.1.055h.156v.149c-.039,2.977-.063,5.4-.087,7.125,0,.781,0,1.43-.039,1.906A4.877,4.877,0,0,1,1669.656,6102.279Z" transform="translate(-1541.946 -6021.855)" fill="#aed3f2"/>
        <path id="Trazado_104218" data-name="Trazado 104218" d="M1649.931,6074.339c-7.852,10.853-16.892,21.034-24.745,31.879" transform="translate(-1547.06 -6025.794)" fill="#fff"/>
        <path id="Trazado_104219" data-name="Trazado 104219" d="M1625.186,6106.218a1.378,1.378,0,0,1,.211-.352l.656-.978c.586-.843,1.453-2.038,2.54-3.5,2.187-2.938,5.3-6.907,8.8-11.244s6.649-8.273,8.891-11.157l2.641-3.415.726-.93c.172-.2.266-.312.282-.305a1.443,1.443,0,0,1-.211.36c-.179.265-.391.585-.656.969-.586.843-1.453,2.039-2.539,3.507-2.18,2.93-5.306,6.9-8.8,11.243s-6.649,8.267-8.891,11.15l-2.641,3.423c-.3.368-.531.671-.726.922S1625.2,6106.225,1625.186,6106.218Z" transform="translate(-1547.06 -6025.794)" fill="#aed3f2"/>
        <line id="Línea_281" data-name="Línea 281" x2="25.37" y2="31.933" transform="translate(78.126 48.491)" fill="none"/>
        <path id="Trazado_104220" data-name="Trazado 104220" d="M1650.547,6106.228c-.094.078-5.845-7.032-12.853-15.83s-12.611-16.026-12.5-16.1,5.844,7.032,12.853,15.838S1650.649,6106.157,1650.547,6106.228Z" transform="translate(-1547.059 -6025.804)" fill="#aed3f2"/>
        <path id="Trazado_104221" data-name="Trazado 104221" d="M1622.807,6075.068a3.969,3.969,0,1,1-3.97-3.97,3.969,3.969,0,0,1,3.97,3.97Z" transform="translate(-1549.33 -6026.507)" fill="#aed3f2"/>
        <path id="Trazado_104222" data-name="Trazado 104222" d="M1676.021,6067.171a3.969,3.969,0,1,1-3.97-3.969,3.97,3.97,0,0,1,3.97,3.969Z" transform="translate(-1537.623 -6028.244)" fill="#aed3f2"/>
        <path id="Trazado_104223" data-name="Trazado 104223" d="M1769.539,6292.057v17.792h-2.969v1.937h2.969v11.908h55.53v-10.837h-4.11v-2.345h4.11v-3.539h1.829v-1.609h-2.173V6292.08Z" transform="translate(-1515.956 -5977.895)" fill="#f5f5f5"/>
        <path id="Trazado_104224" data-name="Trazado 104224" d="M1802.435,6292.111v31.379h14.744v-10.837h-4.11V6310.5l4.11.07v-3.539h1.867l-.039-1.828-2.172-.055v-13.088Z" transform="translate(-1508.065 -5977.895)" fill="#aed3f2"/>
        <path id="Trazado_104225" data-name="Trazado 104225" d="M1811.386,6308.052c0,.11-10.048.195-22.439.195s-22.441-.085-22.441-.195,10.048-.2,22.441-.2S1811.386,6307.942,1811.386,6308.052Z" transform="translate(-1515.97 -5974.42)" fill="#aed3f2"/>
        <path id="Trazado_104226" data-name="Trazado 104226" d="M1811.386,6306.573c0,.11-10.048.2-22.439.2s-22.441-.087-22.441-.2,10.048-.2,22.441-.2S1811.386,6306.465,1811.386,6306.573Z" transform="translate(-1515.97 -5974.747)" fill="#aed3f2"/>
        <path id="Trazado_104227" data-name="Trazado 104227" d="M1813.749,6302.557c0,.11-10.048.2-22.44.2s-22.44-.085-22.44-.2,10.048-.2,22.44-.2S1813.749,6302.479,1813.749,6302.557Z" transform="translate(-1515.45 -5975.628)" fill="#aed3f2"/>
        <path id="Trazado_104228" data-name="Trazado 104228" d="M1813.982,6313.444c0,.109-10.048.2-22.441.2s-22.448-.094-22.448-.2,10.048-.2,22.448-.2S1813.982,6313.343,1813.982,6313.444Z" transform="translate(-1515.401 -5973.233)" fill="#aed3f2"/>
        <path id="Trazado_104229" data-name="Trazado 104229" d="M1631.636,6250.751H1674a5.391,5.391,0,0,0,5.391-5.391V6232.3a9.1,9.1,0,0,0-9.1-9.094h-38.981Z" transform="translate(-1545.712 -5993.042)" fill="#ebebeb"/>
        <path id="Trazado_104230" data-name="Trazado 104230" d="M1681.477,6254h-83.3a4.111,4.111,0,0,1-4.078-4.1h0a4.119,4.119,0,0,1,4.11-4.11h83.267a4.11,4.11,0,0,1,4.1,4.11h0a4.1,4.1,0,0,1-4.1,4.1Z" transform="translate(-1553.899 -5988.076)" fill="#ebebeb"/>
        <path id="Trazado_104231" data-name="Trazado 104231" d="M1585.483,6156.284l45.824-.782,29.09,109.943-62.015.585-23.44-96.37a10.81,10.81,0,0,1,10.541-13.376Z" transform="translate(-1558.182 -6007.938)" fill="#aed3f2"/>
        <path id="Trazado_104232" data-name="Trazado 104232" d="M1604.712,6252.516,1591,6332.2h3.758l18.026-79.681Z" transform="translate(-1554.581 -5986.595)" fill="#ebebeb"/>
        <path id="Trazado_104233" data-name="Trazado 104233" d="M1631.362,6252.516,1616.79,6332.2h3.758l18.885-79.681Z" transform="translate(-1548.907 -5986.595)" fill="#aed3f2"/>
        <path id="Trazado_104234" data-name="Trazado 104234" d="M1659.5,6252.516l16.252,79.681h-3.758l-20.573-79.681Z" transform="translate(-1541.289 -5986.595)" fill="#ebebeb"/>
        <path id="Trazado_104235" data-name="Trazado 104235" d="M1616.79,6155.477l22.659,110.059h17.392l-18.166-97.245a15.664,15.664,0,0,0-15.4-12.813Z" transform="translate(-1548.907 -6007.943)" fill="#ebebeb"/>
      </g>
      <g id="freepik--Floor--inject-139" transform="translate(0.648 345.837)">
        <path id="Trazado_104236" data-name="Trazado 104236" d="M1884.56,6318.223c0,.11-72.281.2-161.433.2s-161.448-.094-161.448-.2,72.265-.2,161.448-.2S1884.56,6318.106,1884.56,6318.223Z" transform="translate(-1561.68 -6318.021)" fill="#344154"/>
      </g>
      <g id="freepik--Briefcase--inject-139" transform="translate(59.007 293.193)">
        <path id="Trazado_104237" data-name="Trazado 104237" d="M1669.256,6326.28h-59.741l4.516-43.489,55.225-.36Z" transform="translate(-1609.515 -6273.206)" fill="#d9a171"/>
        <g id="Grupo_56648" data-name="Grupo 56648" transform="translate(0 9.224)" opacity="0.4">
          <path id="Trazado_104238" data-name="Trazado 104238" d="M1669.256,6326.28h-59.741l4.516-43.489,55.225-.36Z" transform="translate(-1609.515 -6282.431)"/>
        </g>
        <rect id="Rectángulo_5549" data-name="Rectángulo 5549" width="59.741" height="43.841" transform="translate(8.712 9.224)" fill="#d9a171"/>
        <g id="Grupo_56649" data-name="Grupo 56649" transform="translate(8.712 9.224)" opacity="0.2">
          <rect id="Rectángulo_5550" data-name="Rectángulo 5550" width="59.741" height="43.841"/>
        </g>
        <path id="Trazado_104239" data-name="Trazado 104239" d="M1676.861,6299.87c0,.11-13.44.2-30.012.2s-30.027-.094-30.027-.2,13.44-.211,30.027-.211S1676.861,6299.752,1676.861,6299.87Z" transform="translate(-1607.907 -6269.416)" fill="#344154"/>
        <path id="Trazado_104240" data-name="Trazado 104240" d="M1625.415,6304.475a26.667,26.667,0,0,1,0-6.571A26.679,26.679,0,0,1,1625.415,6304.475Z" transform="translate(-1606.061 -6269.803)" fill="#344154"/>
        <path id="Trazado_104241" data-name="Trazado 104241" d="M1659.46,6304.156a21.3,21.3,0,0,1,0-5.867A21.273,21.273,0,0,1,1659.46,6304.156Z" transform="translate(-1598.571 -6269.718)" fill="#344154"/>
        <path id="Trazado_104242" data-name="Trazado 104242" d="M1652.9,6284.321a8.561,8.561,0,0,0-.14-1.3,8.356,8.356,0,0,0-1.329-3.243,9.481,9.481,0,0,0-3.946-3.312,14.062,14.062,0,0,0-6.251-1.181,15.247,15.247,0,0,0-6.25,1.4,10.382,10.382,0,0,0-3.993,3.29,8.97,8.97,0,0,0-1.46,3.188c-.188.821-.2,1.29-.235,1.29a1.8,1.8,0,0,1,0-.344,5.327,5.327,0,0,1,.094-.976,8.507,8.507,0,0,1,1.383-3.321,10.4,10.4,0,0,1,4.063-3.462,15.265,15.265,0,0,1,6.368-1.469,14.137,14.137,0,0,1,6.415,1.25,9.653,9.653,0,0,1,4.023,3.493,7.879,7.879,0,0,1,1.242,3.375,5.431,5.431,0,0,1,0,.976A.99.99,0,0,1,1652.9,6284.321Z" transform="translate(-1605.165 -6274.87)" fill="#344154"/>
      </g>
      <g id="freepik--Plant--inject-139" transform="translate(53.643 95.762)">
        <path id="Trazado_104243" data-name="Trazado 104243" d="M1630.867,6144.073a14.732,14.732,0,0,1,9.157-1.11,7.658,7.658,0,0,1,4.524,2.015c1.126,1.235,1.344,3.447.048,4.517a4.345,4.345,0,0,1-2.852.727c-2.422,0-5.1-.454-7.032,1-1.1.827-1.836,2.211-3.125,2.617a3.126,3.126,0,0,1-3.431-1.524,5.294,5.294,0,0,1-.39-3.907A6.006,6.006,0,0,1,1630.867,6144.073Z" transform="translate(-1600.181 -6106.521)" fill="#d9a171"/>
        <path id="Trazado_104244" data-name="Trazado 104244" d="M1625.335,6138.271c1.7,2.438,5.009,1.632,6.548.147s2.18-3.641,2.774-5.687c1.343-4.688,2.7-9.61,1.7-14.384a8.011,8.011,0,0,0-1.836-3.908,4.175,4.175,0,0,0-3.954-1.313c-1.672.438-2.711,2.072-3.461,3.633a34.254,34.254,0,0,0-3.383,14.713,11.929,11.929,0,0,0,1.609,6.805" transform="translate(-1601.024 -6113.042)" fill="#d9a171"/>
        <path id="Trazado_104245" data-name="Trazado 104245" d="M1624.749,6140.355a8.822,8.822,0,0,0,1.375-8.142,15.676,15.676,0,0,0-4.82-7.032,25.867,25.867,0,0,0-8.642-5.063,9.106,9.106,0,0,0-3.906-.664,4.062,4.062,0,0,0-3.257,1.976c-.915,1.735,0,3.837.9,5.548a65.853,65.853,0,0,0,5.68,8.641c1.7,2.2,3.649,4.36,6.251,5.345s5.289.875,6.665-.922" transform="translate(-1605.118 -6111.633)" fill="#d9a171"/>
        <path id="Trazado_104246" data-name="Trazado 104246" d="M1624.955,6167.836a5.952,5.952,0,0,0,.156-1.108c.078-.782.172-1.812.289-3.016a44.374,44.374,0,0,1,.681-4.422,33.292,33.292,0,0,1,1.609-5.219,19.163,19.163,0,0,1,2.664-4.728,9.972,9.972,0,0,1,3.375-2.8,9.42,9.42,0,0,1,2.813-.891.562.562,0,1,0-.023-.156,8.814,8.814,0,0,0-2.954.781A9.957,9.957,0,0,0,1630,6149.1a18.635,18.635,0,0,0-2.758,4.82,32.014,32.014,0,0,0-1.563,5.306,37.258,37.258,0,0,0-.586,4.484c-.094,1.281-.133,2.344-.149,3.032A5.2,5.2,0,0,0,1624.955,6167.836Z" transform="translate(-1600.761 -6105.909)" fill="#344154"/>
        <path id="Trazado_104247" data-name="Trazado 104247" d="M1625.163,6170.892a1.919,1.919,0,0,0,0-.516v-1.469c0-1.265,0-3.124.062-5.382.11-4.556.508-9.446,1.258-16.354.719-6.484,1.68-14.064,2.7-18.956.219-1.117.437-2.116.641-3s.367-1.641.531-2.258.25-1.047.344-1.423a2.151,2.151,0,0,0,.086-.507,2.043,2.043,0,0,0-.18.484l-.422,1.4c-.187.609-.382,1.367-.6,2.25s-.476,1.875-.711,2.993a165.4,165.4,0,0,0-2.835,17.587,174.539,174.539,0,0,0-1.126,17.775c0,2.282,0,4.126.078,5.4,0,.594.063,1.079.086,1.469A2.643,2.643,0,0,0,1625.163,6170.892Z" transform="translate(-1600.765 -6111.285)" fill="#344154"/>
        <path id="Trazado_104248" data-name="Trazado 104248" d="M1628.076,6158.069a9.026,9.026,0,0,0,0-1.562c-.054-.984-.2-2.405-.469-4.148a54.463,54.463,0,0,0-1.352-6.047,49.452,49.452,0,0,0-2.531-7.158,38.026,38.026,0,0,0-7.422-11.562,17.572,17.572,0,0,0-1.751-1.625,7.158,7.158,0,0,0-.781-.634l-.68-.468a8.981,8.981,0,0,0-1.29-.782,44.325,44.325,0,0,1,4.227,3.766,40.159,40.159,0,0,1,7.243,11.526,56.527,56.527,0,0,1,2.539,7.094,59.86,59.86,0,0,1,1.438,5.985c.32,1.727.5,3.124.609,4.109A10.285,10.285,0,0,0,1628.076,6158.069Z" transform="translate(-1603.647 -6110.613)" fill="#344154"/>
        <path id="Trazado_104249" data-name="Trazado 104249" d="M1615.522,6169.509l1.211,16.674h21.424l1.219-16.674Z" transform="translate(-1602.829 -6100.619)" fill="#344154"/>
        <rect id="Rectángulo_5551" data-name="Rectángulo 5551" width="28.48" height="6.571" transform="translate(10.622 62.311)" fill="#344154"/>
        <path id="Trazado_104250" data-name="Trazado 104250" d="M1613.825,6182.65v1.82h28.011v-1.82Z" transform="translate(-1603.202 -6097.728)" fill="#455a64"/>
        <path id="Trazado_104251" data-name="Trazado 104251" d="M1616.233,6187.354l-1.313-3.211h25.651l-1.531,3.211Z" transform="translate(-1602.961 -6097.399)" fill="#455a64"/>
        <path id="Trazado_104252" data-name="Trazado 104252" d="M1638.913,6174.4s0,.054-.1.156l-.321.42-1.242,1.563-.062.078-.048-.078-3.071-4.242h.181l-3.024,4.273-.094.141-.1-.133c-1.117-1.32-2.344-2.757-3.578-4.258h.2l-.2.25-3.2,4.007-.109.133-.094-.141-3.024-4.267h.18l-3.72,4.235-.071.078-.047-.085-1.164-1.962-.3-.515a.789.789,0,0,1-.093-.187,1.036,1.036,0,0,1,.125.164l.328.5,1.227,1.923h-.118l3.657-4.29.094-.11.085.117c.923,1.29,1.946,2.727,3.048,4.25h-.211l3.2-4.023.2-.243.1-.131.109.125c1.25,1.5,2.453,2.946,3.571,4.273h-.2l3.046-4.257.094-.126.087.126,3,4.29h-.11c.548-.649.984-1.173,1.3-1.563l.353-.4A.68.68,0,0,1,1638.913,6174.4Z" transform="translate(-1602.764 -6100.065)" fill="#aed3f2"/>
        <path id="Trazado_104253" data-name="Trazado 104253" d="M1639.642,6169.442c0,.071-5.368.133-11.985.133s-11.994-.062-11.994-.133,5.368-.133,11.978-.133S1639.642,6169.364,1639.642,6169.442Z" transform="translate(-1602.798 -6100.662)" fill="#455a64"/>
        <path id="Trazado_104254" data-name="Trazado 104254" d="M1640.907,6184.314c0,.078-5.836.133-13.032.133s-13.025-.055-13.025-.133,5.828-.133,13.025-.133S1640.907,6184.243,1640.907,6184.314Z" transform="translate(-1602.977 -6097.391)" fill="#344154"/>
      </g>
      <g id="freepik--Desk--inject-139" transform="translate(36.418 142.001)">
        <rect id="Rectángulo_5552" data-name="Rectángulo 5552" width="62.726" height="3.047" transform="translate(165.988 41.036)" fill="#344154"/>
        <path id="Trazado_104255" data-name="Trazado 104255" d="M1795.068,6195.025l11.767-44.083h-48.982l-10.65,44.083Z" transform="translate(-1556.635 -6150.942)" fill="#344154"/>
        <path id="Trazado_104256" data-name="Trazado 104256" d="M1749.611,6191.321h43.747l10.189-38.708h-43.982Z" transform="translate(-1556.105 -6150.575)" fill="#455a64"/>
        <path id="Trazado_104257" data-name="Trazado 104257" d="M1793.75,6191.8h-44.536l10.158-39.5h44.786Zm-43.552-.782h42.973l9.979-37.934H1760Z" transform="translate(-1556.192 -6150.643)" fill="#344154"/>
        <rect id="Rectángulo_5553" data-name="Rectángulo 5553" width="3.164" height="151.236" transform="translate(36.715 52.646)" fill="#455a64"/>
        <rect id="Rectángulo_5554" data-name="Rectángulo 5554" width="3.164" height="150.798" transform="translate(39.887 53.076)" fill="#344154"/>
        <rect id="Rectángulo_5555" data-name="Rectángulo 5555" width="3.164" height="151.236" transform="translate(231.87 52.646)" fill="#455a64"/>
        <rect id="Rectángulo_5556" data-name="Rectángulo 5556" width="3.164" height="150.798" transform="translate(235.034 53.076)" fill="#344154"/>
        <rect id="Rectángulo_5557" data-name="Rectángulo 5557" width="282.399" height="12.408" transform="translate(0 43.856)" fill="#455a64"/>
        <rect id="Rectángulo_5558" data-name="Rectángulo 5558" width="105.926" height="20.534" transform="translate(127.53 56.264)" fill="#455a64"/>
        <path id="Trazado_104258" data-name="Trazado 104258" d="M1743.662,6204.732a2.344,2.344,0,1,1-2.344-2.344A2.345,2.345,0,0,1,1743.662,6204.732Z" transform="translate(-1558.445 -6139.624)" fill="#344154"/>
        <path id="Trazado_104259" data-name="Trazado 104259" d="M1830.829,6197.1c0,.11-36.723.2-81.962.2s-81.962-.094-81.962-.2,36.722-.2,81.962-.2S1830.829,6196.988,1830.829,6197.1Z" transform="translate(-1574.3 -6140.833)" fill="#344154"/>
      </g>
      <g id="freepik--Character--inject-139" transform="translate(112.49 21.566)">
        <path id="Trazado_104260" data-name="Trazado 104260" d="M1721.854,6077.42c.422,0,6.133.953,6.133.953l7.728,9.735,1.165,1.843-10.424,6.665-4.6-6.812-3.906-2.54a3.975,3.975,0,0,1,4.125-.429,12.2,12.2,0,0,0,4.868.952l-1.375-3.906-4.235-.844Z" transform="translate(-1639.143 -6046.682)" fill="#eb996e"/>
        <path id="Trazado_104261" data-name="Trazado 104261" d="M1723.24,6071.842a1.2,1.2,0,0,1,1.459.854,1.07,1.07,0,0,1,.026.121c.633,3.994,2.547,16.011,3.126,19.535a1.143,1.143,0,0,1-.828,1.3l-9.2,2.57a1.141,1.141,0,0,1-1.41-.784,1.266,1.266,0,0,1-.035-.177l-2.516-19.948a1.2,1.2,0,0,1,.9-1.32Z" transform="translate(-1640.044 -6047.918)" fill="#344154"/>
        <path id="Trazado_104262" data-name="Trazado 104262" d="M1716.96,6093.51l9.376-2.617-2.485-16.6a1.6,1.6,0,0,0-1.819-1.351,1.773,1.773,0,0,0-.181.038l-7.509,1.992Z" transform="translate(-1639.936 -6047.67)" fill="#ebebeb"/>
        <path id="Trazado_104263" data-name="Trazado 104263" d="M1724.772,6079.847l-4.211,3.125s.351,1.109.992,1.187a25.808,25.808,0,0,0,4.032-.858Z" transform="translate(-1638.568 -6046.148)" fill="#eb996e"/>
        <path id="Trazado_104264" data-name="Trazado 104264" d="M1724.412,6077.777l-4.414,1.939s-.282,1.437,1.368,1.233l-1.478,1.063s.367.642,2.212.72,3.633-2.485,3.633-2.485Z" transform="translate(-1638.716 -6046.603)" fill="#eb996e"/>
        <path id="Trazado_104265" data-name="Trazado 104265" d="M1728.517,6082.191c0,.054-.539-.048-1.125-.595a11.894,11.894,0,0,0-1.015-.851,1.441,1.441,0,0,0-1.4-.172,26.426,26.426,0,0,1-3.828,1.813,19.046,19.046,0,0,1,3.688-2.2,1.777,1.777,0,0,1,.946-.11,2.168,2.168,0,0,1,.781.36,6.608,6.608,0,0,1,1,.953A8.981,8.981,0,0,0,1728.517,6082.191Z" transform="translate(-1638.439 -6046.101)" fill="#d1734a"/>
        <path id="Trazado_104266" data-name="Trazado 104266" d="M1726.728,6092.021a6.031,6.031,0,0,1-.7-6.633,9.635,9.635,0,0,0,.7,6.633Z" transform="translate(-1637.516 -6044.929)" fill="#d1734a"/>
        <path id="Trazado_104267" data-name="Trazado 104267" d="M1727.157,6079.544c-.055.046-.289-.289-.852-.469a2.986,2.986,0,0,0-2.242.258c-.828.4-1.563.906-2.148,1.148a2.055,2.055,0,0,1-1.008.25,7.962,7.962,0,0,1,.875-.508,20,20,0,0,1,2.116-1.258,3.547,3.547,0,0,1,1.36-.367,2.444,2.444,0,0,1,1.148.211A1.441,1.441,0,0,1,1727.157,6079.544Z" transform="translate(-1638.492 -6046.423)" fill="#d1734a"/>
        <path id="Trazado_104268" data-name="Trazado 104268" d="M1725.729,6102.064l22.964,14.744-6.086,17.408s-15.714-4.852-15.425-5.361S1725.729,6102.064,1725.729,6102.064Z" transform="translate(-1637.431 -6041.261)" fill="#d9a171"/>
        <path id="Trazado_104269" data-name="Trazado 104269" d="M1724.611,6295.743l-3.617,16.635s15.7,9.259,15.329,12.392l-32.5-5.844,4.563-26.152Z" transform="translate(-1642.251 -5999.304)" fill="#344154"/>
        <path id="Trazado_104270" data-name="Trazado 104270" d="M1703.82,6314.682l.563-2.618,30.956,6.586s1.329.892.985,1.875Z" transform="translate(-1642.251 -5995.061)" fill="#455a64"/>
        <path id="Trazado_104271" data-name="Trazado 104271" d="M1693.53,6296.707l-.539,17.009s17.119,6.252,17.323,9.415l-33.028.148-.25-26.565Z" transform="translate(-1648.144 -5998.439)" fill="#344154"/>
        <g id="Grupo_56650" data-name="Grupo 56650" transform="translate(29.142 322.161)" opacity="0.6">
          <path id="Trazado_104272" data-name="Trazado 104272" d="M1677.241,6318.971l.078-2.68,31.637.867s1.476.633,1.313,1.665Z" transform="translate(-1677.241 -6316.291)" fill="#455a64"/>
        </g>
        <path id="Trazado_104273" data-name="Trazado 104273" d="M1694.492,6070.975l3.367,39.067,19.534-1.563c.117-2.282-.047-11.111-.047-11.111s8.134-1.266,8.235-9.375c.048-3.955-.516-12.111-1.109-19.464a15.05,15.05,0,0,0-15.861-13.853h0a15.048,15.048,0,0,0-14.147,15.9C1694.471,6070.708,1694.481,6070.842,1694.492,6070.975Z" transform="translate(-1644.315 -6051.691)" fill="#eb996e"/>
        <path id="Trazado_104274" data-name="Trazado 104274" d="M1715.133,6090.086a18.922,18.922,0,0,1-10.6-3.016s2.507,5.853,10.618,5.119Z" transform="translate(-1642.095 -6044.559)" fill="#d1734a"/>
        <path id="Trazado_104275" data-name="Trazado 104275" d="M1716.907,6070.871a1.166,1.166,0,0,1-1.126,1.172,1.11,1.11,0,0,1-1.193-1.019l0-.028a1.166,1.166,0,0,1,1.117-1.172,1.116,1.116,0,0,1,1.2,1.026Z" transform="translate(-1639.883 -6048.354)" fill="#344154"/>
        <path id="Trazado_104276" data-name="Trazado 104276" d="M1718.471,6069.557c-.14.156-1.024-.5-2.273-.491s-2.164.624-2.3.476.078-.343.476-.632a3.218,3.218,0,0,1,1.844-.571,3.061,3.061,0,0,1,1.813.585C1718.418,6069.213,1718.549,6069.494,1718.471,6069.557Z" transform="translate(-1640.042 -6048.68)" fill="#344154"/>
        <path id="Trazado_104277" data-name="Trazado 104277" d="M1707.068,6070.871a1.157,1.157,0,0,1-1.116,1.172,1.118,1.118,0,0,1-1.2-1.026V6071a1.173,1.173,0,0,1,1.126-1.172,1.118,1.118,0,0,1,1.195,1.034Z" transform="translate(-1642.047 -6048.354)" fill="#344154"/>
        <path id="Trazado_104278" data-name="Trazado 104278" d="M1708.4,6069.749c-.142.149-1.024-.5-2.274-.492s-2.164.625-2.3.468.078-.335.477-.624a3.126,3.126,0,0,1,1.843-.571,3.024,3.024,0,0,1,1.813.587C1708.35,6069.406,1708.474,6069.679,1708.4,6069.749Z" transform="translate(-1642.257 -6048.638)" fill="#344154"/>
        <path id="Trazado_104279" data-name="Trazado 104279" d="M1711.405,6079a8.327,8.327,0,0,1,2.031-.367c.312,0,.617-.094.672-.313a1.649,1.649,0,0,0-.211-.945c-.3-.782-.617-1.562-.946-2.431a41.521,41.521,0,0,1-2.118-6.352,42.408,42.408,0,0,1,2.625,6.164c.313.86.617,1.673.9,2.446a1.88,1.88,0,0,1,.172,1.258.781.781,0,0,1-.532.461,2.117,2.117,0,0,1-.539.078A7.906,7.906,0,0,1,1711.405,6079Z" transform="translate(-1640.711 -6048.624)" fill="#344154"/>
        <path id="Trazado_104280" data-name="Trazado 104280" d="M1708.316,6077.836c.2,0,.2,1.343,1.367,2.343s2.6.782,2.617,1.008-.32.259-.937.275a3.379,3.379,0,0,1-2.18-.782,2.923,2.923,0,0,1-1.086-1.954C1708.1,6078.164,1708.222,6077.827,1708.316,6077.836Z" transform="translate(-1641.31 -6046.591)" fill="#344154"/>
        <path id="Trazado_104281" data-name="Trazado 104281" d="M1708.871,6065.68c-.126.344-1.376.179-2.845.358s-2.649.579-2.844.275c-.085-.149.117-.47.6-.782a4.93,4.93,0,0,1,4.329-.477C1708.652,6065.25,1708.918,6065.524,1708.871,6065.68Z" transform="translate(-1642.396 -6049.468)" fill="#344154"/>
        <path id="Trazado_104282" data-name="Trazado 104282" d="M1718.037,6066.6c-.219.289-1.086,0-2.118,0s-1.914.2-2.117-.1c-.087-.149.055-.431.437-.7a3.072,3.072,0,0,1,3.407.109C1718.014,6066.171,1718.131,6066.468,1718.037,6066.6Z" transform="translate(-1640.06 -6049.341)" fill="#344154"/>
        <path id="Trazado_104283" data-name="Trazado 104283" d="M1703.608,6061.612h-.046a6.4,6.4,0,0,0-2.344,4.142v.163c-.321,2.344-.259,4.689-.6,7.032a10.29,10.29,0,0,1-2.86,6.252c-.7.656-1.945,1.108-2.523.342a1.915,1.915,0,0,1-.289-1.062c-.438-5.6-1.969-10.571-1.953-16.407a4.924,4.924,0,0,1,2.024-4.032c1.226-.875,2.718-1.788,4.086-1.141s3.125,3.2,4.179,4.275" transform="translate(-1644.634 -6051.245)" fill="#344154"/>
        <path id="Trazado_104284" data-name="Trazado 104284" d="M1697.707,6071.093c-.14-.062-5.586-1.657-5.414,3.906s5.727,4.236,5.727,4.079S1697.707,6071.093,1697.707,6071.093Z" transform="translate(-1644.788 -6048.13)" fill="#eb996e"/>
        <path id="Trazado_104285" data-name="Trazado 104285" d="M1696,6076.7a1.789,1.789,0,0,1-.25.148.974.974,0,0,1-.727.039,2.4,2.4,0,0,1-1.18-2.109,3.243,3.243,0,0,1,.227-1.4,1.125,1.125,0,0,1,.7-.781.51.51,0,0,1,.587.242c.078.156.046.266.078.275s.109-.094.062-.321a.628.628,0,0,0-.234-.344.782.782,0,0,0-.539-.125,1.389,1.389,0,0,0-.985.9,3.262,3.262,0,0,0-.282,1.563,2.481,2.481,0,0,0,1.485,2.343,1.033,1.033,0,0,0,.883-.179C1696,6076.831,1696.021,6076.707,1696,6076.7Z" transform="translate(-1644.532 -6047.805)" fill="#d1734a"/>
        <path id="Trazado_104286" data-name="Trazado 104286" d="M1697.9,6058.741c-1.368-2.227,2.383-5.423,5.125-6.252s6.36.471,9.086,1.376c1.728.57,3.438,1.367,5.26,1.3a12.709,12.709,0,0,0,3.523-.9,8.89,8.89,0,0,1,3.555-.7,3.342,3.342,0,0,1,2.922,1.853,2.1,2.1,0,0,1-1.407,2.835,2.727,2.727,0,1,1,.734,5.063c.782-.6,2,.391,1.9,1.376a2.868,2.868,0,0,1-1.9,2.109,10.448,10.448,0,0,1-7.422-.117c-2.4-.806-4.625-2.063-7.032-2.931s-6.367-2.43-8.751-1.562c-1.758.625-2.984,2.742-3.977,2.273a3.394,3.394,0,0,1-1.758-2.5,9.812,9.812,0,0,1,.11-3.126" transform="translate(-1643.617 -6052.225)" fill="#344154"/>
        <path id="Trazado_104287" data-name="Trazado 104287" d="M1726.36,6057.8c-.048,0-.282.406-.883,1.055a7.62,7.62,0,0,1-3.087,1.993,7.075,7.075,0,0,1-5.3-.211c-1.891-.851-3.509-2.57-5.391-4.133a11.519,11.519,0,0,0-6.251-3,6.4,6.4,0,0,0-5.313,1.836,4.834,4.834,0,0,0-1.265,3.594,3.641,3.641,0,0,0,.242,1.024c.1.218.165.328.179.319a8.665,8.665,0,0,1-.21-1.352,4.8,4.8,0,0,1,1.336-3.321,6.1,6.1,0,0,1,5.031-1.609,11.243,11.243,0,0,1,5.938,2.915c1.829,1.563,3.5,3.3,5.524,4.188a7.549,7.549,0,0,0,8.76-2.1,5.034,5.034,0,0,0,.578-.859A1.14,1.14,0,0,0,1726.36,6057.8Z" transform="translate(-1643.344 -6051.955)" fill="#455a64"/>
        <path id="Trazado_104288" data-name="Trazado 104288" d="M1695.879,6073.459a1.5,1.5,0,0,0,.454-.595,3.819,3.819,0,0,0,.281-2.015c-.125-1.79-1.71-3.712-1.914-6.189a5.594,5.594,0,0,1,.617-3.321,4.269,4.269,0,0,1,2.063-1.781,3.628,3.628,0,0,1,1.859-.257c.445.078.688.179.711.133a1.361,1.361,0,0,0-.664-.336,3.454,3.454,0,0,0-2.04.093,4.518,4.518,0,0,0-2.344,1.892,5.939,5.939,0,0,0-.727,3.633,10.288,10.288,0,0,0,1.071,3.5,10.6,10.6,0,0,1,.976,2.7A4.2,4.2,0,0,1,1695.879,6073.459Z" transform="translate(-1644.382 -6050.737)" fill="#455a64"/>
        <path id="Trazado_104289" data-name="Trazado 104289" d="M1726.828,6325.056s16.931-83.056,16.947-84.713l-30.246-15.955-11.719,97.473Z" transform="translate(-1642.693 -6014.349)" fill="#344154"/>
        <path id="Trazado_104290" data-name="Trazado 104290" d="M1694.6,6340.738l23.386-143.945v-31.05l-33.864,2.421c-.406,1.212-8.946,172.762-8.946,172.762l3.3-.186H1694.6" transform="translate(-1648.552 -6027.251)" fill="#344154"/>
        <path id="Trazado_104291" data-name="Trazado 104291" d="M1730.471,6163.943l13.259,89.7-29.644-7.188-12.08-79.587Z" transform="translate(-1642.65 -6027.647)" fill="#344154"/>
        <line id="Línea_282" data-name="Línea 282" x1="1.508" y1="12.212" transform="translate(92.931 159.877)" fill="none"/>
        <path id="Trazado_104292" data-name="Trazado 104292" d="M1732.789,6217.576s5.157-4.43,5.665-7.766-6.181-57.038-6.181-57.038l-3.414-44.4c0,.781.093-5.595-.938-5.977-3.126-1.18-9.548-3.321-9.548-3.321l-3.672-3.3s6.594,28.191,7.875,35.9Z" transform="translate(-1639.857 -6042.643)" fill="#d9a171"/>
        <path id="Trazado_104293" data-name="Trazado 104293" d="M1700.447,6093.27l-5.547,3.7-20.807,8.18,9.244,34.855-1.243,20.253-1.18,12.853s-6.2,31.824-11.664,51.162c0,0,6.1,11.563,11.118,13.173l2.086,1.242,7.438-54.467,6.383-8.595c.617-.828,1.188-1.68,1.728-2.555,1.563-2.555,5.141-8.36,7.994-12.838,3.765-5.914,8.594-19.353,7.164-25.088S1700.447,6093.27,1700.447,6093.27Z" transform="translate(-1649.857 -6043.195)" fill="#d9a171"/>
        <path id="Trazado_104294" data-name="Trazado 104294" d="M1683.236,6194.345a47.65,47.65,0,0,0,11.907-14.314" transform="translate(-1646.78 -6024.108)" fill="#344154"/>
        <path id="Trazado_104295" data-name="Trazado 104295" d="M1696.817,6093.646l5.009,32.137a46.535,46.535,0,0,1-2.024,12.111l-8.939,28.909s-7.032,15.76-4.6,17.776,21.331,0,21.331,0l25.581-3.711a2.25,2.25,0,0,0,1.914-2.438l-3.8-39.239c-1.282-2.712-1.805-8.259-2.345-10.229l-7.875-32.245-1.611-.21-3.5,2.4-1.843.148-15.478-7.492Z" transform="translate(-1646.226 -6043.571)" fill="#ebebeb"/>
        <path id="Trazado_104296" data-name="Trazado 104296" d="M1692.153,6155.9c4.133-12.884,9.485-33.832,9.485-33.832,1.664,10.938-.156,22.151-4.227,32.464-3.328,8.407-7.352,14.767-10.119,23.385l-.085.353s-1.563.086-1.453-2.219,2.344-9.166,3.836-12.962S1692.153,6155.9,1692.153,6155.9Z" transform="translate(-1646.227 -6036.86)" fill="#aed3f2"/>
        <path id="Trazado_104297" data-name="Trazado 104297" d="M1712.057,6099.816h-3.477l-1.039,4.758,3.039,3.68,3.063-.3,1-3.415-.82-1.906Z" transform="translate(-1641.432 -6041.755)" fill="#6595bf"/>
        <path id="Trazado_104298" data-name="Trazado 104298" d="M1728.613,6130.372c1.093.219,13.174,8.345,17.564,7.47s7.946-5.017,8.414-5.572c2.492-2.954.931-9.086.211-11.4a7.845,7.845,0,0,0-.71-1.617l-18.651-32.035-10.993,6.681,11.408,20.807Z" transform="translate(-1637.713 -6044.527)" fill="#d9a171"/>
        <path id="Trazado_104299" data-name="Trazado 104299" d="M1654.3,6165.631a14.31,14.31,0,0,1,.672-11.721c2.532-5.008,6.547-13.1,7.391-15.751,1.25-3.946,12.939-34.223,15.228-35.16l10.158,34.293-11.8,24.847,13.83,26.058-11.524,12.423s-21.807-30.41-23.6-34.169C1654.525,6166.181,1654.407,6165.907,1654.3,6165.631Z" transform="translate(-1653.354 -6041.055)" fill="#d9a171"/>
        <path id="Trazado_104300" data-name="Trazado 104300" d="M1685.446,6192.908a38.744,38.744,0,0,0,5.773-6.814.256.256,0,0,1,0-.211.332.332,0,0,1,.235-.14,33.327,33.327,0,0,0,1.812-3.181c-1.93-1.258-4.453-3.125-1.71-3.547,3.383-.484,5.8-2.125,6.142-3.024s-.782-1.7-1.673-1.132a12.282,12.282,0,0,1-3.25,1.125,8.217,8.217,0,0,1-2.759.172c-1.07-.117-5.469-2.024-6.25-2.164l-8.228,8.657S1681.859,6189.376,1685.446,6192.908Z" transform="translate(-1648.473 -6025.437)" fill="#eb996e"/>
        <path id="Trazado_104301" data-name="Trazado 104301" d="M1728.248,6127.943a4.119,4.119,0,0,1-.289-.961c-.165-.626-.367-1.562-.594-2.68a87.392,87.392,0,0,1-1.274-8.946,85.626,85.626,0,0,1-.328-9.033c0-1.156.062-2.086.11-2.733a5.6,5.6,0,0,1,.109-1,4.222,4.222,0,0,1,.048,1.008v2.727c0,2.345.133,5.469.445,9s.781,6.657,1.156,8.931c.179,1.071.335,1.978.461,2.7A5.361,5.361,0,0,1,1728.248,6127.943Z" transform="translate(-1637.426 -6041.145)" fill="#344154"/>
        <path id="Trazado_104302" data-name="Trazado 104302" d="M1736.774,6129.285a.879.879,0,0,1-.266-.062,4.186,4.186,0,0,1-.7-.328,5.982,5.982,0,0,1-1.985-2.016,12.659,12.659,0,0,1-1.421-3.908,47.065,47.065,0,0,1-.929-5.023c-.328-3.61-.6-6.852-.782-9.212-.078-1.117-.141-2.055-.2-2.8a4.7,4.7,0,0,1,0-1.032,5.732,5.732,0,0,1,.172,1.016c.078.78.188,1.671.312,2.781.257,2.344.578,5.618.9,9.2.226,1.781.562,3.468.9,4.985a13.242,13.242,0,0,0,1.3,3.906,6.385,6.385,0,0,0,1.829,2.032A5.776,5.776,0,0,1,1736.774,6129.285Z" transform="translate(-1636.388 -6040.635)" fill="#344154"/>
        <g id="Grupo_56651" data-name="Grupo 56651" transform="translate(91.936 64.304)" opacity="0.3">
          <path id="Trazado_104303" data-name="Trazado 104303" d="M1730.863,6104.933a68.963,68.963,0,0,0-1.969,10.978,16.745,16.745,0,0,0,.344,6.633,6.879,6.879,0,0,0,4.4,4.688q-1.477-10.876-2.6-21.792" transform="translate(-1728.711 -6104.933)"/>
        </g>
        <g id="Grupo_56652" data-name="Grupo 56652" transform="translate(30.111 92.345)" opacity="0.3">
          <path id="Trazado_104304" data-name="Trazado 104304" d="M1678.035,6170.126s3.657,7.493,5.68,11.416c4.22-17.432-1.132-35.778.61-53.624l-3.048,6.15-.859,14.228-.656,8.345S1679.136,6165.618,1678.035,6170.126Z" transform="translate(-1678.035 -6127.918)"/>
        </g>
        <path id="Trazado_104305" data-name="Trazado 104305" d="M1680.456,6103.268a6.042,6.042,0,0,1,.617.969c.2.321.415.719.649,1.188s.523,1.009.781,1.617a37.563,37.563,0,0,1,3.3,15.674,35.885,35.885,0,0,1-.32,4.688c-.062.664-.188,1.258-.282,1.773s-.188.969-.273,1.329a5.761,5.761,0,0,1-.321,1.108,6.67,6.67,0,0,1,.165-1.141c.062-.367.14-.78.211-1.336s.164-1.11.219-1.767a41.923,41.923,0,0,0,.227-4.632,45.136,45.136,0,0,0-.429-5.649,45.652,45.652,0,0,0-1.211-5.54,40.5,40.5,0,0,0-1.563-4.368c-.234-.617-.508-1.147-.719-1.632s-.415-.884-.586-1.212A5.815,5.815,0,0,1,1680.456,6103.268Z" transform="translate(-1647.391 -6040.995)" fill="#344154"/>
        <path id="Trazado_104306" data-name="Trazado 104306" d="M1674.307,6152.983c-.055.039-.578-.782-1.563-2.07a20.117,20.117,0,0,0-4.618-4.182,4.737,4.737,0,0,0-3.188-.78,6.223,6.223,0,0,0-2.524,1.078c-1.32.905-2.039,1.616-2.094,1.562a2.319,2.319,0,0,1,.468-.538,13.634,13.634,0,0,1,1.462-1.267,6.339,6.339,0,0,1,2.6-1.163,4.971,4.971,0,0,1,3.454.78,17.982,17.982,0,0,1,4.634,4.352,16.376,16.376,0,0,1,1.063,1.611A2.213,2.213,0,0,1,1674.307,6152.983Z" transform="translate(-1651.821 -6031.688)" fill="#344154"/>
        <path id="Trazado_104307" data-name="Trazado 104307" d="M1669.672,6144.916a15.879,15.879,0,0,1,2.579,7.93c-.126,0-.429-1.827-1.149-4.008S1669.587,6144.985,1669.672,6144.916Z" transform="translate(-1649.765 -6031.833)" fill="#344154"/>
        <path id="Trazado_104308" data-name="Trazado 104308" d="M1678.771,6162.118a6.488,6.488,0,0,1,.586,1l1.485,2.8c1.242,2.383,2.938,5.7,4.821,9.431l.07.133-.1.1-.781.782c-3.071,3.2-5.861,6.079-7.9,8.142l-2.43,2.438a7.684,7.684,0,0,1-.93.86,7.492,7.492,0,0,1,.781-.969l2.345-2.524c1.984-2.125,4.75-5.033,7.813-8.228l.781-.78v.234c-1.875-3.735-3.531-7.032-4.687-9.494l-1.368-2.859A5.924,5.924,0,0,1,1678.771,6162.118Z" transform="translate(-1648.902 -6028.048)" fill="#344154"/>
        <path id="Trazado_104309" data-name="Trazado 104309" d="M1690.32,6160.739a3.718,3.718,0,0,1,0-.68v-1.931c.039-1.71.094-4.133.163-7.1s.149-6.563.312-10.524a57.383,57.383,0,0,1,1.751-12.8,29.927,29.927,0,0,1,2.469-6.179l.148.3a4.24,4.24,0,0,1-2.5-1.414,6.129,6.129,0,0,1-1.3-2.431,19.284,19.284,0,0,1-.407-5.063v-15.47a2.436,2.436,0,0,1,0-.517,2.717,2.717,0,0,1,.04.517c0,.376,0,.874.039,1.5,0,1.344.046,3.228.085,5.563s.055,5.219.086,8.406a19,19,0,0,0,.422,4.963,5.806,5.806,0,0,0,1.227,2.266,3.824,3.824,0,0,0,2.266,1.28l.282.048-.133.25a29.29,29.29,0,0,0-2.43,6.094,58.6,58.6,0,0,0-1.765,12.705c-.181,3.953-.282,7.524-.406,10.524s-.22,5.376-.289,7.095l-.094,1.93C1690.305,6160.29,1690.318,6160.515,1690.32,6160.739Z" transform="translate(-1645.23 -6042.391)" fill="#344154"/>
        <path id="Trazado_104310" data-name="Trazado 104310" d="M1717.756,6098.862a2.1,2.1,0,0,1,.187.43c.11.328.266.781.445,1.258l1.618,4.688c.672,2.007,1.478,4.391,2.344,7.032.431,1.351.961,2.727,1.36,4.25a5.518,5.518,0,0,1,.1,2.43,3.251,3.251,0,0,1-1.391,2.134l.062-.29c.656.976,1.352,2.016,2,3.125a18.738,18.738,0,0,1,2.187,5.063,17.718,17.718,0,0,1,.351,5.125c-.187,3.243-.4,6.157-.57,8.595s-.321,4.391-.431,5.805c-.053.648-.1,1.172-.132,1.563a2.853,2.853,0,0,1-.078.547,2.628,2.628,0,0,1,0-.554c0-.4.039-.93.062-1.563.069-1.422.172-3.4.3-5.813s.305-5.384.493-8.6a18.371,18.371,0,0,0-.367-5.008,18.609,18.609,0,0,0-2.157-4.945c-.641-1.079-1.329-2.109-1.985-3.126l-.117-.172.18-.11a2.834,2.834,0,0,0,1.21-1.867,5.145,5.145,0,0,0-.085-2.266c-.376-1.469-.906-2.884-1.329-4.22-.859-2.68-1.634-5.07-2.289-7.087s-1.133-3.569-1.493-4.687c-.163-.524-.289-.955-.39-1.283A3.107,3.107,0,0,1,1717.756,6098.862Z" transform="translate(-1639.185 -6041.965)" fill="#344154"/>
        <path id="Trazado_104311" data-name="Trazado 104311" d="M1694.893,6178.443a2.394,2.394,0,0,1-.36.641c-.25.4-.625.961-1.1,1.648-.961,1.375-2.344,3.243-3.906,5.258s-3.079,3.782-4.188,5.033c-.555.625-1.016,1.125-1.344,1.462a2.723,2.723,0,0,1-.538.5,20.7,20.7,0,0,1,1.664-2.148c1.054-1.3,2.509-3.126,4.086-5.094s2.977-3.844,3.993-5.181A20.7,20.7,0,0,1,1694.893,6178.443Z" transform="translate(-1646.732 -6024.457)" fill="#455a64"/>
        <path id="Trazado_104312" data-name="Trazado 104312" d="M1706.985,6170.181v.438c0,.289-.078.735-.14,1.289-.125,1.142-.32,2.806-.562,4.938-.507,4.29-1.266,10.5-2.266,18.158-1.978,15.322-4.978,36.458-8.2,59.8-1.609,11.682-3.126,22.809-4.344,32.95-.32,2.531-.578,5.008-.937,7.406s-.727,4.689-1.071,6.955l-1.891,12.5c-1.148,7.642-2.054,13.822-2.648,18.1-.3,2.134-.515,3.8-.648,4.93-.062.563-.11.993-.126,1.282a2.537,2.537,0,0,0,0,.328c0,.094.055,0,.055,0h0s-.062,0-.055-.039a1.251,1.251,0,0,1,0-.328c0-.29.039-.727.094-1.29.1-1.134.3-2.8.571-4.946.547-4.289,1.406-10.477,2.516-18.12.57-3.828,1.187-8.008,1.843-12.5.344-2.25.688-4.571,1.048-6.961s.609-4.868.93-7.4c1.235-10.158,2.7-21.276,4.3-32.957,3.227-23.354,6.251-44.474,8.33-59.789,1.008-7.641,1.82-13.837,2.39-18.134.273-2.134.493-3.79.641-4.938.079-.547.133-.976.172-1.281A.922.922,0,0,0,1706.985,6170.181Z" transform="translate(-1646.582 -6026.275)" fill="#455a64"/>
        <path id="Trazado_104313" data-name="Trazado 104313" d="M1717.48,6335.783a4.067,4.067,0,0,1,.055-.421c.048-.3.11-.712.2-1.251.2-1.109.469-2.711.782-4.773.726-4.166,1.781-10.158,3.078-17.557l10.344-57.921a13.487,13.487,0,0,0,.25-4.188c-.179-1.392-.413-2.8-.617-4.171q-.631-4.151-1.258-8.166c-.843-5.345-1.68-10.5-2.492-15.409-1.632-9.813-3.211-18.634-4.618-26.025s-2.649-13.354-3.586-17.454c-.445-2.057-.852-3.643-1.1-4.689-.117-.523-.211-.937-.282-1.226a3.822,3.822,0,0,1-.085-.423,4.039,4.039,0,0,1,.124.414l.328,1.219c.273,1.071.7,2.648,1.172,4.688.984,4.087,2.266,10.048,3.711,17.432s3.048,16.205,4.688,26.019c.827,4.906,1.664,10.063,2.516,15.408q.624,4.022,1.265,8.165c.211,1.391.438,2.766.626,4.188a14.073,14.073,0,0,1-.259,4.319c-4.07,22.59-7.751,43.044-10.422,57.867-1.352,7.391-2.446,13.376-3.2,17.532-.383,2.063-.688,3.665-.891,4.768-.1.53-.188.945-.243,1.234S1717.48,6335.783,1717.48,6335.783Z" transform="translate(-1639.246 -6025.85)" fill="#455a64"/>
        <path id="Trazado_104314" data-name="Trazado 104314" d="M1711.452,6190.361c.117,0-1.266,9.314-3.087,20.768s-3.375,20.745-3.468,20.745,1.273-9.313,3.085-20.768S1711.342,6190.347,1711.452,6190.361Z" transform="translate(-1642.016 -6021.835)" fill="#455a64"/>
        <path id="Trazado_104315" data-name="Trazado 104315" d="M1694.882,6308.977a3.4,3.4,0,0,1-.781.133c-.493.055-1.212.126-2.1.2-1.774.14-4.235.273-6.954.313s-5.189,0-6.97-.086a20.59,20.59,0,0,1-2.1-.125,2.534,2.534,0,0,1-.781-.109,23.763,23.763,0,0,1,2.883-.047c1.781,0,4.234,0,6.954-.039s5.164-.125,6.947-.2A21.7,21.7,0,0,1,1694.882,6308.977Z" transform="translate(-1648.549 -5995.747)" fill="#455a64"/>
        <path id="Trazado_104316" data-name="Trazado 104316" d="M1726.826,6307.489a5.044,5.044,0,0,1-.993-.055l-2.688-.282c-2.265-.257-5.391-.647-8.845-1.093s-6.578-.876-8.836-1.2l-2.672-.406a6.273,6.273,0,0,1-.977-.2,3.773,3.773,0,0,1,1,.039c.633.055,1.563.148,2.688.273,2.265.259,5.4.641,8.852,1.087s6.571.882,8.829,1.21l2.672.415A4.174,4.174,0,0,1,1726.826,6307.489Z" transform="translate(-1642.692 -5996.782)" fill="#455a64"/>
        <path id="Trazado_104317" data-name="Trazado 104317" d="M1695.289,6097.528a5.377,5.377,0,0,1,.859.555l2.3,1.563c1.953,1.335,4.688,3.125,7.814,4.907,1.171.672,2.344,1.3,3.375,1.859l-.281.126c.656-2.595,1.235-4.822,1.657-6.392.2-.734.375-1.344.515-1.844a2.917,2.917,0,0,1,.227-.648,2.715,2.715,0,0,1-.1.68c-.11.507-.243,1.125-.4,1.868-.367,1.563-.891,3.828-1.563,6.431l-.055.234-.218-.11c-1.07-.554-2.227-1.179-3.4-1.851a83.962,83.962,0,0,1-7.767-5.024c-.953-.7-1.71-1.29-2.227-1.7A4.35,4.35,0,0,1,1695.289,6097.528Z" transform="translate(-1644.128 -6042.258)" fill="#344154"/>
        <path id="Trazado_104318" data-name="Trazado 104318" d="M1717.781,6103.264a26.666,26.666,0,0,1-3.454,2.343l-.172.109-.094-.187-1.055-2.055c-.781-1.562-1.523-3.047-2.015-4.11a8.948,8.948,0,0,1-.735-1.758,8.781,8.781,0,0,1,.985,1.634c.563,1.024,1.32,2.454,2.125,4.047l1.055,2.1-.266-.078A28.944,28.944,0,0,1,1717.781,6103.264Z" transform="translate(-1640.835 -6042.241)" fill="#344154"/>
        <path id="Trazado_104319" data-name="Trazado 104319" d="M1713.139,6101.615a3.905,3.905,0,0,1-.688.539c-.429.32-1.039.782-1.719,1.211s-1.3.875-1.75,1.173a5.226,5.226,0,0,1-.782.445,4.1,4.1,0,0,1,.688-.548c.437-.312,1.047-.742,1.719-1.2l1.75-1.171A5.136,5.136,0,0,1,1713.139,6101.615Z" transform="translate(-1641.288 -6041.359)" fill="#344154"/>
        <path id="Trazado_104320" data-name="Trazado 104320" d="M1710.861,6103.482a13.613,13.613,0,0,1-1.563-1.437,14.021,14.021,0,0,1-1.4-1.563,13.124,13.124,0,0,1,1.516,1.438A13.882,13.882,0,0,1,1710.861,6103.482Z" transform="translate(-1641.354 -6041.608)" fill="#344154"/>
        <path id="Trazado_104321" data-name="Trazado 104321" d="M1698.276,6159.755a18.189,18.189,0,0,0,1.616,5.633,17.976,17.976,0,0,0,3.642,4.587,4.8,4.8,0,0,1-1.43-1.023,12.07,12.07,0,0,1-3.828-7.438A4.834,4.834,0,0,1,1698.276,6159.755Z" transform="translate(-1643.489 -6028.568)" fill="#344154"/>
        <path id="Trazado_104322" data-name="Trazado 104322" d="M1703.227,6168.778a10.937,10.937,0,0,1-6.869-3.227c.079-.094,1.423.977,3.313,1.859S1703.25,6168.653,1703.227,6168.778Z" transform="translate(-1643.893 -6027.294)" fill="#344154"/>
        <path id="Trazado_104323" data-name="Trazado 104323" d="M1714.5,6147.694a3.248,3.248,0,0,1,.289.836c.165.548.376,1.345.61,2.345.484,1.977,1.054,4.735,1.508,7.813s.711,5.875.829,7.915c.053,1.015.085,1.837.085,2.406a3.34,3.34,0,0,1,0,.883,4.153,4.153,0,0,1-.125-.875c-.063-.656-.133-1.452-.219-2.4-.187-2.016-.484-4.8-.937-7.869s-.985-5.82-1.391-7.812c-.188-.93-.352-1.719-.485-2.344A4.164,4.164,0,0,1,1714.5,6147.694Z" transform="translate(-1639.901 -6031.221)" fill="#344154"/>
        <path id="Trazado_104324" data-name="Trazado 104324" d="M1710.643,6107.386c-1.016,8.118-1.767,25.783-2.047,33.98-.234,6.845-.211,13.7-.188,20.549a15.089,15.089,0,0,0,.946,6.5c1.634,3.617,5.625,5.469,9.29,6.938Z" transform="translate(-1641.245 -6040.09)" fill="#aed3f2"/>
        <path id="Trazado_104325" data-name="Trazado 104325" d="M1719.392,6174.381l4.2-10.282-10.494-57.616-3.062.3s.429,59.881.289,60.42Z" transform="translate(-1640.885 -6040.289)" fill="#6595bf"/>
        <path id="Trazado_104326" data-name="Trazado 104326" d="M1712.981,6106.483a5.23,5.23,0,0,1-1.462.242,5.6,5.6,0,0,1-1.469,0,9.778,9.778,0,0,1,1.461-.141A11.631,11.631,0,0,1,1712.981,6106.483Z" transform="translate(-1640.88 -6040.289)" fill="#344154"/>
      </g>
    </g>
  </g>
</svg>
